<svg xmlns="http://www.w3.org/2000/svg" viewBox="0 0 121 121"><defs><style>.cls-1{fill:#fff;}</style></defs><g id="Capa_2" data-name="Capa 2"><g id="Capa_46" data-name="Capa 46"><circle cx="60.5" cy="60.5" r="60.5"/><path class="cls-1" d="M60.41,77.89A6.62,6.62,0,0,1,67,84.25a6.52,6.52,0,0,1-13,.15A6.54,6.54,0,0,1,60.41,77.89Z"/><path class="cls-1" d="M60.5,74h0a3.53,3.53,0,0,1-3.62-3.14l-2.45-34.6a5.84,5.84,0,0,1,6.07-6h0a5.84,5.84,0,0,1,6.07,6l-2.45,34.6A3.53,3.53,0,0,1,60.5,74Z"/></g></g></svg>