<svg xmlns="http://www.w3.org/2000/svg" viewBox="0 0 124.64 108.2"><defs><style>.cls-1{fill:#ffed00;}.cls-2{fill:#ff8500;}</style></defs><g id="Capa_2" data-name="Capa 2"><g id="Capa_45" data-name="Capa 45"><path class="cls-1" d="M62.5,106.7H7.08c-1.78,0-3.5-.16-4.48-2s-.26-3.47.69-5.09Q31,52.4,58.67,5.18c.17-.29.34-.58.52-.87C61,1.46,64,1.39,65.73,4.28c3.62,6.05,7.16,12.15,10.73,18.23Q98.89,60.75,121.3,99c1,1.75,2.23,3.48,1.08,5.65s-3.15,2.08-5.1,2.08Z" transform="translate(-0.18 -0.65)"/><path class="cls-2" d="M62.5,108.85l-45.15-.1-5.64,0H8.88c-1,0-1.75,0-2.94,0a7.41,7.41,0,0,1-1.87-.34,5.32,5.32,0,0,1-1.92-1.07,5.71,5.71,0,0,1-1.32-1.71,6.15,6.15,0,0,1-.62-2A7,7,0,0,1,1,99.75c.52-1,1-1.77,1.49-2.59L14,77.75,37,38.92,48.5,19.47l5.73-9.73L57.1,4.88l.73-1.24A7.9,7.9,0,0,1,58.9,2.26a6.07,6.07,0,0,1,1.54-1.13,5,5,0,0,1,2-.48,4.66,4.66,0,0,1,2,.44A5.54,5.54,0,0,1,66,2.22,7.76,7.76,0,0,1,67.1,3.63l.72,1.21L70.69,9.7l5.75,9.73L87.9,38.88l23,38.83,11.52,19.41c.48.83,1,1.54,1.48,2.54a6.66,6.66,0,0,1,.82,3.84,6,6,0,0,1-1.91,3.69,5.33,5.33,0,0,1-1.9,1.11,8,8,0,0,1-1.86.36c-1.16.08-2,0-3,.06H113.3l-5.65,0Zm0-4.29,45.15.09,5.65,0,2.82,0c.93,0,1.94,0,2.66,0a2.29,2.29,0,0,0,1.44-.44,2.27,2.27,0,0,0,.64-1.21,2.75,2.75,0,0,0-.4-1.59c-.33-.66-.88-1.54-1.34-2.34L107.8,79.55,85.16,40.49,73.77,21l-5.7-9.74L65.22,6.39l-.71-1.21a4.79,4.79,0,0,0-.63-.86,2,2,0,0,0-1.39-.68A2.24,2.24,0,0,0,61,4.37a4.69,4.69,0,0,0-.64.86l-.7,1.18-2.84,4.88L51.17,21,39.78,40.53,17.13,79.59,5.81,99.13c-.46.81-1,1.66-1.3,2.32a2.92,2.92,0,0,0-.38,1.63,2.08,2.08,0,0,0,.62,1.19,2.35,2.35,0,0,0,1.44.42l11.16,0Z" transform="translate(-0.18 -0.65)"/><path d="M62.4,80.81A6.63,6.63,0,0,1,69,87.18a6.52,6.52,0,0,1-13,.15A6.54,6.54,0,0,1,62.4,80.81Z" transform="translate(-0.18 -0.65)"/><path d="M62.5,76.87h0a3.53,3.53,0,0,1-3.63-3.14l-2.44-34.6a5.83,5.83,0,0,1,6.07-6h0a5.83,5.83,0,0,1,6.06,6l-2.44,34.6A3.53,3.53,0,0,1,62.5,76.87Z" transform="translate(-0.18 -0.65)"/></g></g></svg>