<svg xmlns="http://www.w3.org/2000/svg" viewBox="0 0 152.37 150.51"><defs><style>.cls-1{fill:#004ce5;}.cls-2{fill:#fff;}.cls-3{fill:#ffe97b;}.cls-4{fill:none;stroke:#000;stroke-miterlimit:10;stroke-width:2px;}</style></defs><g id="Capa_2" data-name="Capa 2"><g id="Capa_19" data-name="Capa 19"><circle class="cls-1" cx="80.87" cy="71.5" r="71.5"/><polygon class="cls-2" points="29.81 59.05 86.38 58.77 80 32.41 131.87 71.24 80.38 110.59 86.5 84.17 29.93 84.45 29.81 59.05"/><path class="cls-3" d="M40,100.34c2.71-.83,5-.18,6.19,1.84,1.41,2.36.83,4.34-2.18,7.14a5,5,0,0,1,3.77-.33,4.6,4.6,0,0,1,2.73,2.33c1.15,2.27.83,3.83-2.07,6.54a4.34,4.34,0,0,1,3.76,0,4.68,4.68,0,0,1,1.85,7.4,6.72,6.72,0,0,1-.9.87L35.38,140.69c-2.1,1.72-4.6,3.52-7.3,3.2a4.86,4.86,0,0,0-.81-1.52q-9.6-11.72-19.17-23.49a1.18,1.18,0,0,1-.23-.9q3.77-13.49,7.59-27a4.62,4.62,0,0,1,6.93-2.7,4.41,4.41,0,0,1,2.19,4.56c-.52,2.83-1.18,5.63-1.78,8.44-.05.27-.1.53-.21,1l.79-.64,26-21.21A4.74,4.74,0,0,1,55.24,80a4.67,4.67,0,0,1,1,7,7.85,7.85,0,0,1-1.07,1L40.63,99.83Z"/><path class="cls-4" d="M40,100.34c2.71-.83,5-.18,6.19,1.84,1.41,2.36.83,4.34-2.18,7.14a5,5,0,0,1,3.77-.33,4.6,4.6,0,0,1,2.73,2.33c1.15,2.27.83,3.83-2.07,6.54a4.34,4.34,0,0,1,3.76,0,4.68,4.68,0,0,1,1.85,7.4,6.72,6.72,0,0,1-.9.87L35.38,140.69c-2.1,1.72-4.6,3.52-7.3,3.2a4.86,4.86,0,0,0-.81-1.52q-9.6-11.72-19.17-23.49a1.18,1.18,0,0,1-.23-.9q3.77-13.49,7.59-27a4.62,4.62,0,0,1,6.93-2.7,4.41,4.41,0,0,1,2.19,4.56c-.52,2.83-1.18,5.63-1.78,8.44-.05.27-.1.53-.21,1l.79-.64,26-21.21A4.74,4.74,0,0,1,55.24,80a4.67,4.67,0,0,1,1,7,7.85,7.85,0,0,1-1.07,1L40.63,99.83Z"/><path class="cls-3" d="M1.08,124.38a2.69,2.69,0,0,1,1.19-2.92c1.09-.84,2.13-1.74,3.21-2.61,1.3-1,2.49-1,3.46.23l19.2,23.53c1,1.2.82,2.37-.47,3.44-1.06.88-2.15,1.72-3.19,2.62a2.72,2.72,0,0,1-3.11.58Z"/><path class="cls-4" d="M1.08,124.38a2.69,2.69,0,0,1,1.19-2.92c1.09-.84,2.13-1.74,3.21-2.61,1.3-1,2.49-1,3.46.23l19.2,23.53c1,1.2.82,2.37-.47,3.44-1.06.88-2.15,1.72-3.19,2.62a2.72,2.72,0,0,1-3.11.58Z"/></g></g></svg>