<svg xmlns="http://www.w3.org/2000/svg" xmlns:xlink="http://www.w3.org/1999/xlink" viewBox="0 0 147.85 158.35"><defs><style>.cls-1{fill:none;}.cls-2{fill:#00af10;}.cls-3{fill:#fff;}.cls-4{isolation:isolate;}.cls-5{clip-path:url(#clip-path);}.cls-6{fill:#1c69e9;}.cls-7{clip-path:url(#clip-path-2);}.cls-8{clip-path:url(#clip-path-3);}.cls-9{clip-path:url(#clip-path-4);}.cls-10{fill:#1d6cea;}.cls-11{clip-path:url(#clip-path-5);}.cls-12{clip-path:url(#clip-path-6);}.cls-13{clip-path:url(#clip-path-7);}.cls-14{clip-path:url(#clip-path-8);}.cls-15{clip-path:url(#clip-path-9);}.cls-16{clip-path:url(#clip-path-10);}.cls-17{clip-path:url(#clip-path-11);}.cls-18{clip-path:url(#clip-path-12);}.cls-19{fill:#1f71eb;}.cls-20{clip-path:url(#clip-path-13);}.cls-21{clip-path:url(#clip-path-14);}.cls-22{clip-path:url(#clip-path-15);}.cls-23{clip-path:url(#clip-path-16);}.cls-24{clip-path:url(#clip-path-17);}.cls-25{clip-path:url(#clip-path-18);}.cls-26{fill:#35acfe;}</style><clipPath id="clip-path" transform="translate(-0.09)"><path class="cls-1" d="M58.47,112.2l-2.72,4.33a1.57,1.57,0,0,1-.17.21c-.51.53-1,1.06-1.56,1.58a.53.53,0,0,0-.1.12l2.71-4.33.11-.12c.53-.52,1-1,1.56-1.58Z"/></clipPath><clipPath id="clip-path-2" transform="translate(-0.09)"><path class="cls-1" d="M20.43,101.4l2.72-4.33a1.62,1.62,0,0,0-.2,1.2c.16.84.32,1.67.46,2.49l-2.72,4.33c-.14-.82-.3-1.65-.46-2.49A1.61,1.61,0,0,1,20.43,101.4Z"/></clipPath><clipPath id="clip-path-3" transform="translate(-0.09)"><path class="cls-1" d="M23.32,101.22l-2.72,4.33a.68.68,0,0,0,.09-.46l2.72-4.33A.67.67,0,0,1,23.32,101.22Z"/></clipPath><clipPath id="clip-path-4" transform="translate(-0.09)"><path class="cls-1" d="M67.55,133.11l-2.72,4.33a.5.5,0,0,1-.22.19,1,1,0,0,1-.4,0c-1.34-.12-2.69-.19-4-.22l2.72-4.33c1.33,0,2.67.11,4,.22a.8.8,0,0,0,.39,0A.48.48,0,0,0,67.55,133.11Z"/></clipPath><clipPath id="clip-path-5" transform="translate(-0.09)"><path class="cls-1" d="M59.58,137.75l2.72-4.32a.71.71,0,0,1,.34-.27.86.86,0,0,1,.27,0l-2.72,4.33a.86.86,0,0,0-.27.05A.69.69,0,0,0,59.58,137.75Z"/></clipPath><clipPath id="clip-path-6" transform="translate(-0.09)"><path class="cls-1" d="M17.19,120.38l2.72-4.33a11.65,11.65,0,0,1,5.91-4.69c4-1.49,9-1.3,14.09.89,9.78,4.25,15.35,14.66,11.59,22.42L48.78,139c3.76-7.76-1.81-18.16-11.59-22.41-5-2.2-10.11-2.38-14.09-.89A11.65,11.65,0,0,0,17.19,120.38Z"/></clipPath><clipPath id="clip-path-7" transform="translate(-0.09)"><path class="cls-1" d="M51,135.66,48.23,140a8.78,8.78,0,0,0,.55-1l2.72-4.32A9.58,9.58,0,0,1,51,135.66Z"/></clipPath><clipPath id="clip-path-8" transform="translate(-0.09)"><path class="cls-1" d="M2.81,111.83l2.72-4.33a1,1,0,0,0,.32,1.23c.9.77,2.44,2,3.31,2.78l-2.72,4.33c-.87-.74-2.41-2-3.3-2.78A1,1,0,0,1,2.81,111.83Z"/></clipPath><clipPath id="clip-path-9" transform="translate(-0.09)"><path class="cls-1" d="M8.16,116.72l-2.72,4.33a.36.36,0,0,0,0-.09c.46-1.47.85-2.95,1.23-4.45a.72.72,0,0,0-.27-.67l2.72-4.33a.72.72,0,0,1,.27.67c-.38,1.5-.78,3-1.23,4.45A.36.36,0,0,1,8.16,116.72Z"/></clipPath><clipPath id="clip-path-10" transform="translate(-0.09)"><path class="cls-1" d="M64.82,142.42l-2.71,4.32c-1.26,2-6,7.61-7.23,8.09l2.72-4.33C58.87,150,63.57,144.42,64.82,142.42Z"/></clipPath><clipPath id="clip-path-11" transform="translate(-0.09)"><path class="cls-1" d="M57.6,150.5l-2.72,4.33c-.72,0-3.33-2-4.56-3.08a1,1,0,0,0-1.15-.22l-.31.12c-1.35.5-2.73,1-4.12,1.4l2.72-4.33c1.39-.43,2.77-.9,4.12-1.4l.31-.12a1,1,0,0,1,1.14.22C54.27,148.48,56.88,150.52,57.6,150.5Z"/></clipPath><clipPath id="clip-path-12" transform="translate(-0.09)"><path class="cls-1" d="M44.4,153.31,47.12,149a.71.71,0,0,1,.34-.26l-2.72,4.33A.71.71,0,0,0,44.4,153.31Z"/></clipPath><clipPath id="clip-path-13" transform="translate(-0.09)"><path class="cls-1" d="M.18,121.31,2.9,117a.69.69,0,0,0-.08.36,27,27,0,0,0,1.37,9.41c.25.73.53,1.46.81,2.2a1.61,1.61,0,0,0,1.35,1l-2.72,4.32a1.58,1.58,0,0,1-1.35-.95c-.28-.74-.56-1.47-.8-2.2A27,27,0,0,1,.1,121.67.69.69,0,0,1,.18,121.31Z"/></clipPath><clipPath id="clip-path-14" transform="translate(-0.09)"><path class="cls-1" d="M13.89,135.31l-2.72,4.33c-1.08-1.7-2.21-3.39-3.38-5.17l2.72-4.32C11.68,131.92,12.81,133.61,13.89,135.31Z"/></clipPath><clipPath id="clip-path-15" transform="translate(-0.09)"><path class="cls-1" d="M13.85,136l-2.72,4.33a.72.72,0,0,0,0-.65l2.72-4.33A.72.72,0,0,1,13.85,136Z"/></clipPath><clipPath id="clip-path-16" transform="translate(-0.09)"><path class="cls-1" d="M47.75,153.51,45,157.84a.38.38,0,0,1-.2.14l-.23.06A36.38,36.38,0,0,1,31,157.22l2.72-4.33a36.38,36.38,0,0,0,13.65.82,1.09,1.09,0,0,0,.23-.06A.38.38,0,0,0,47.75,153.51Z"/></clipPath><clipPath id="clip-path-17" transform="translate(-0.09)"><path class="cls-1" d="M33.67,152.89,31,157.22a1.53,1.53,0,0,1-.23-.14l2.72-4.33A1.53,1.53,0,0,0,33.67,152.89Z"/></clipPath><clipPath id="clip-path-18" transform="translate(-0.09)"><path class="cls-1" d="M8.68,142.92l2.72-4.33a.64.64,0,0,0,.11.73,43,43,0,0,0,10.6,8.81,1.45,1.45,0,0,0,1.2.15,1,1,0,0,0,.33-.21c.72-.73,1.44-1.46,2.13-2.2a.79.79,0,0,1,.3-.21c.27-.11.61,0,1.3.4a16,16,0,0,0,3.73,1.53c1.2.31,1.46.54,1.58,1.22.22,1.33.51,2.66.76,3.94l-2.72,4.33c-.25-1.29-.54-2.62-.76-3.94-.12-.68-.38-.91-1.58-1.23a15.57,15.57,0,0,1-3.73-1.52c-.69-.37-1-.51-1.3-.41a.72.72,0,0,0-.29.22c-.7.74-1.42,1.47-2.14,2.2a.93.93,0,0,1-.33.21,1.45,1.45,0,0,1-1.2-.15,43.4,43.4,0,0,1-10.6-8.81A.64.64,0,0,1,8.68,142.92Z"/></clipPath></defs><g id="Capa_2" data-name="Capa 2"><g id="Capa_28" data-name="Capa 28"><circle class="cls-2" cx="76.35" cy="71.5" r="71.5"/><polygon class="cls-3" points="25.28 59.05 81.86 58.77 75.47 32.41 127.34 71.24 75.86 110.59 81.98 84.17 25.41 84.45 25.28 59.05"/><g class="cls-4"><g class="cls-4"><g class="cls-5"><g class="cls-4"><path class="cls-6" d="M58.47,112.2l-2.72,4.33a1.57,1.57,0,0,1-.17.21c-.51.53-1,1.06-1.56,1.58a.53.53,0,0,0-.1.12l2.71-4.33.11-.12c.53-.52,1-1,1.56-1.58l.17-.21" transform="translate(-0.09)"/></g></g></g><g class="cls-4"><g class="cls-7"><g class="cls-4"><path class="cls-6" d="M23.41,100.76l-2.72,4.33c-.14-.82-.3-1.65-.46-2.49a1.61,1.61,0,0,1,.2-1.2l2.72-4.33a1.62,1.62,0,0,0-.2,1.2c.16.84.32,1.67.46,2.49" transform="translate(-0.09)"/></g></g></g><g class="cls-4"><g class="cls-8"><g class="cls-4"><path class="cls-6" d="M23.32,101.22l-2.72,4.33a.68.68,0,0,0,.09-.46l2.72-4.33a.67.67,0,0,1-.09.46" transform="translate(-0.09)"/></g></g></g><g class="cls-4"><g class="cls-9"><g class="cls-4"><path class="cls-6" d="M67.55,133.11l-2.72,4.33a.37.37,0,0,1-.12.13l2.72-4.33a.3.3,0,0,0,.12-.13" transform="translate(-0.09)"/><path class="cls-10" d="M67.43,133.24l-2.72,4.33-.1.06a1,1,0,0,1-.4,0c-1.34-.12-2.69-.19-4-.22l2.72-4.33c1.33,0,2.67.11,4,.22a.8.8,0,0,0,.39,0,.39.39,0,0,0,.11-.06" transform="translate(-0.09)"/></g></g></g><g class="cls-4"><g class="cls-11"><g class="cls-4"><path class="cls-10" d="M62.91,133.11l-2.72,4.33a.86.86,0,0,0-.27.05,1.51,1.51,0,0,0-.18.09l2.72-4.32.18-.1a.86.86,0,0,1,.27,0" transform="translate(-0.09)"/><path class="cls-6" d="M62.46,133.26l-2.72,4.32a.85.85,0,0,0-.16.17l2.72-4.32a.52.52,0,0,1,.16-.17" transform="translate(-0.09)"/></g></g></g><g class="cls-4"><g class="cls-12"><g class="cls-4"><path class="cls-6" d="M51.5,134.67,48.78,139c3.76-7.76-1.81-18.16-11.59-22.41l-.46-.2,2.72-4.33.46.2c9.78,4.25,15.35,14.66,11.59,22.42" transform="translate(-0.09)"/><path class="cls-10" d="M39.45,112.05l-2.72,4.33a18.86,18.86,0,0,0-13.63-.69,12.69,12.69,0,0,0-2.92,1.54l2.72-4.33a13.09,13.09,0,0,1,2.92-1.54,18.91,18.91,0,0,1,13.63.69" transform="translate(-0.09)"/><path class="cls-6" d="M22.9,112.9l-2.72,4.33a11.08,11.08,0,0,0-3,3.15l2.72-4.33a11.08,11.08,0,0,1,3-3.15" transform="translate(-0.09)"/></g></g></g><g class="cls-4"><g class="cls-13"><g class="cls-4"><path class="cls-6" d="M51,135.66,48.23,140a8.78,8.78,0,0,0,.55-1l2.72-4.32a9.58,9.58,0,0,1-.55,1" transform="translate(-0.09)"/></g></g></g><g class="cls-4"><g class="cls-14"><g class="cls-4"><path class="cls-6" d="M9.16,111.51l-2.72,4.33c-.87-.74-2.41-2-3.3-2.78a1,1,0,0,1-.33-1.23l2.72-4.33a1,1,0,0,0,.32,1.23c.9.77,2.44,2,3.31,2.78" transform="translate(-0.09)"/></g></g></g><g class="cls-4"><g class="cls-15"><g class="cls-4"><path class="cls-6" d="M8.16,116.72l-2.72,4.33a.36.36,0,0,0,0-.09c.46-1.47.85-2.95,1.23-4.45a.72.72,0,0,0-.27-.67l2.72-4.33a.72.72,0,0,1,.27.67c-.38,1.5-.78,3-1.23,4.45a.36.36,0,0,1,0,.09" transform="translate(-0.09)"/></g></g></g><g class="cls-4"><g class="cls-16"><g class="cls-4"><path class="cls-6" d="M64.82,142.42l-2.71,4.32c-1.15,1.83-5.16,6.65-6.82,7.85L58,150.26c1.66-1.2,5.67-6,6.81-7.84" transform="translate(-0.09)"/><path class="cls-10" d="M58,150.26l-2.72,4.33a2.11,2.11,0,0,1-.41.24l2.72-4.33a1.7,1.7,0,0,0,.41-.24" transform="translate(-0.09)"/></g></g></g><g class="cls-4"><g class="cls-17"><g class="cls-4"><path class="cls-10" d="M57.6,150.5l-2.72,4.33a1,1,0,0,1-.39-.1l2.72-4.33a1,1,0,0,0,.39.1" transform="translate(-0.09)"/><path class="cls-6" d="M57.21,150.4l-2.72,4.33a23.71,23.71,0,0,1-4.17-3,1.49,1.49,0,0,0-.4-.26l2.72-4.33a1.55,1.55,0,0,1,.39.26,23.76,23.76,0,0,0,4.18,3" transform="translate(-0.09)"/><path class="cls-10" d="M52.64,147.16l-2.72,4.33a.94.94,0,0,0-.75,0l-.31.12c-1.35.5-2.73,1-4.12,1.4l2.72-4.33c1.39-.43,2.77-.9,4.12-1.4l.31-.12a.94.94,0,0,1,.75,0" transform="translate(-0.09)"/></g></g></g><g class="cls-4"><g class="cls-18"><g class="cls-4"><path class="cls-10" d="M47.46,148.72l-2.72,4.33a.51.51,0,0,0-.18.09l2.72-4.33.18-.09" transform="translate(-0.09)"/><path class="cls-6" d="M47.28,148.81l-2.72,4.33a.65.65,0,0,0-.16.17L47.12,149a.64.64,0,0,1,.16-.17" transform="translate(-0.09)"/></g></g></g><polygon class="cls-19" points="10.43 130.15 7.71 134.47 3.54 134.24 6.26 129.91 10.43 130.15"/><g class="cls-4"><g class="cls-20"><g class="cls-4"><path class="cls-10" d="M6.35,129.91l-2.72,4.32a1.6,1.6,0,0,1-.48-.11l2.72-4.33a1.31,1.31,0,0,0,.48.12" transform="translate(-0.09)"/><path class="cls-6" d="M5.87,129.79l-2.72,4.33a1.59,1.59,0,0,1-.87-.84c-.28-.74-.56-1.47-.8-2.2A27,27,0,0,1,.1,121.67a.69.69,0,0,1,.08-.36L2.9,117a.69.69,0,0,0-.08.36,27,27,0,0,0,1.37,9.41c.25.73.53,1.46.81,2.2a1.59,1.59,0,0,0,.87.84" transform="translate(-0.09)"/></g></g></g><g class="cls-4"><g class="cls-21"><g class="cls-4"><path class="cls-6" d="M13.89,135.31l-2.72,4.33c-1.08-1.7-2.21-3.39-3.38-5.17l2.72-4.32c1.17,1.77,2.3,3.46,3.38,5.16" transform="translate(-0.09)"/></g></g></g><g class="cls-4"><g class="cls-22"><g class="cls-4"><path class="cls-6" d="M13.85,136l-2.72,4.33a.72.72,0,0,0,0-.65l2.72-4.33a.72.72,0,0,1,0,.65" transform="translate(-0.09)"/></g></g></g><g class="cls-4"><g class="cls-23"><g class="cls-4"><path class="cls-6" d="M47.75,153.51,45,157.84a.24.24,0,0,1-.09.08l2.72-4.32.09-.09" transform="translate(-0.09)"/><path class="cls-10" d="M47.66,153.6l-2.72,4.32a.39.39,0,0,1-.11.06l-.23.06A36.38,36.38,0,0,1,31,157.22l2.72-4.33a36.38,36.38,0,0,0,13.65.82,1.09,1.09,0,0,0,.23-.06l.11-.05" transform="translate(-0.09)"/></g></g></g><g class="cls-4"><g class="cls-24"><g class="cls-4"><path class="cls-10" d="M33.67,152.89,31,157.22h0l2.72-4.33h0" transform="translate(-0.09)"/><path class="cls-6" d="M33.65,152.88l-2.72,4.33a1.76,1.76,0,0,1-.21-.13l2.72-4.33a1.76,1.76,0,0,0,.21.13" transform="translate(-0.09)"/></g></g></g><g class="cls-4"><g class="cls-25"><g class="cls-4"><path class="cls-6" d="M33.44,152.75l-2.72,4.33c-.25-1.29-.54-2.62-.76-3.94a1.1,1.1,0,0,0-.8-1l2.72-4.33a1.1,1.1,0,0,1,.8,1c.22,1.33.51,2.66.76,3.94" transform="translate(-0.09)"/><path class="cls-10" d="M31.88,147.83l-2.72,4.33a7.32,7.32,0,0,0-.78-.25,14.62,14.62,0,0,1-1.87-.62L29.23,147a16.44,16.44,0,0,0,1.87.63,5.74,5.74,0,0,1,.78.24" transform="translate(-0.09)"/><path class="cls-6" d="M29.23,147l-2.72,4.33a18.72,18.72,0,0,1-1.86-.9c-.27-.14-.48-.25-.66-.33l2.72-4.32c.18.07.39.18.66.32a16.74,16.74,0,0,0,1.86.9" transform="translate(-0.09)"/><path class="cls-10" d="M26.71,145.74,24,150.06a.9.9,0,0,0-.64-.08l-.14.08,2.72-4.33a.46.46,0,0,1,.14-.07.81.81,0,0,1,.64.08" transform="translate(-0.09)"/><path class="cls-6" d="M25.93,145.73l-2.72,4.33a.64.64,0,0,0-.15.14c-.7.74-1.42,1.47-2.14,2.2l-.12.1,2.72-4.33.12-.1c.72-.73,1.44-1.46,2.13-2.2l.16-.14" transform="translate(-0.09)"/><path class="cls-10" d="M23.52,148.17,20.8,152.5a1,1,0,0,1-.21.11,1.39,1.39,0,0,1-1,0l2.72-4.33a1.34,1.34,0,0,0,1,0,1,1,0,0,0,.21-.11" transform="translate(-0.09)"/><path class="cls-6" d="M22.33,148.24l-2.72,4.33-.22-.11a43.4,43.4,0,0,1-10.6-8.81.64.64,0,0,1-.11-.73l2.72-4.33a.64.64,0,0,0,.11.73,43,43,0,0,0,10.6,8.81l.22.11" transform="translate(-0.09)"/></g></g></g><path class="cls-26" d="M63.11,120.17a3.24,3.24,0,0,1,2.75,2,24.6,24.6,0,0,1,1.46,5.58,22.15,22.15,0,0,1,.4,4.62c0,.58-.14.85-.4,1a.8.8,0,0,1-.39,0c-1.35-.11-2.69-.19-4-.22a.86.86,0,0,0-.27,0,.64.64,0,0,0-.39.38c-.44,1.42-.83,2.87-1.17,4.33a.89.89,0,0,0,.3.8c1.08,1,3.7,2.55,3.76,3.09S59.08,150,57.6,150.5c-.72,0-3.33-2-4.57-3.08a1,1,0,0,0-1.14-.22l-.31.12c-1.35.5-2.73,1-4.12,1.4a.58.58,0,0,0-.4.72c.26,1.2.45,2.4.71,3.6.07.33,0,.52-.22.61a1.09,1.09,0,0,1-.23.06,36.38,36.38,0,0,1-13.65-.82,1.53,1.53,0,0,1-.23-.14c-.25-1.28-.54-2.61-.76-3.94-.12-.68-.38-.91-1.58-1.22a16,16,0,0,1-3.73-1.53c-.69-.37-1-.51-1.3-.4a.79.79,0,0,0-.3.21c-.69.74-1.41,1.47-2.13,2.2a1,1,0,0,1-.33.21,1.45,1.45,0,0,1-1.2-.15,43,43,0,0,1-10.6-8.81.63.63,0,0,1-.08-.78c.77-.87,1.6-1.67,2.38-2.53a.7.7,0,0,0,.08-.7c-1.08-1.7-2.21-3.39-3.38-5.16l-4.16-.24A1.61,1.61,0,0,1,5,129c-.28-.74-.56-1.47-.81-2.2a27,27,0,0,1-1.37-9.41c0-.27.07-.43.25-.5a1.11,1.11,0,0,1,.43,0c1.37.11,2.73.19,4.09.21a.67.67,0,0,0,.24,0,.61.61,0,0,0,.37-.35c.45-1.46.85-2.95,1.23-4.45a.72.72,0,0,0-.27-.67c-.87-.73-2.41-2-3.31-2.78a1,1,0,0,1-.3-1.26c.69-1,1.36-2,2.12-3a19,19,0,0,1,4.37-4,1.93,1.93,0,0,1,.38-.19,3.06,3.06,0,0,1,2.89.62L17.87,103c1.83-.57,3.59-1.12,5.32-1.7.16-.06.26-.37.22-.58-.14-.82-.3-1.65-.46-2.49a1.58,1.58,0,0,1,1-1.86,2,2,0,0,1,.56-.13,35.1,35.1,0,0,1,10.21.52,3.35,3.35,0,0,1,2.65,2.43c.14.73.28,1.45.41,2.17s.41.87,1.47,1.13a13.62,13.62,0,0,1,3.25,1.27c1,.53,1.51.76,1.93.61a1.11,1.11,0,0,0,.46-.37,22.82,22.82,0,0,1,2.18-2.22.4.4,0,0,1,.17-.1.84.84,0,0,1,.64,0,43.43,43.43,0,0,1,10.17,8,2,2,0,0,1,.22,2.61c-.51.53-1,1.06-1.56,1.58a.84.84,0,0,0,0,1.08q1.42,2.09,2.69,4.22a1.21,1.21,0,0,0,1.15.76C61.4,120.07,62.25,120.12,63.11,120.17ZM51.5,134.67c3.76-7.76-1.81-18.17-11.59-22.42-5-2.19-10.11-2.38-14.09-.89a11.4,11.4,0,0,0-7.07,7.17c-2.6,8,3.87,18.07,14.23,21.62a18,18,0,0,0,12.1.13,11.36,11.36,0,0,0,6.42-5.61" transform="translate(-0.09)"/></g></g></g></svg>