<svg xmlns="http://www.w3.org/2000/svg" viewBox="0 0 152.95 156.95"><defs><style>.cls-1{fill:#004ce5;}.cls-2{fill:#fff;}.cls-3{fill:#d6d6d6;stroke-width:2px;}.cls-3,.cls-4{stroke:#000;stroke-miterlimit:10;}.cls-4{fill:#f3fafe;}.cls-5{fill:#c10000;}</style></defs><g id="Capa_2" data-name="Capa 2"><g id="Capa_21" data-name="Capa 21"><circle class="cls-1" cx="81.45" cy="71.5" r="71.5"/><polygon class="cls-2" points="30.39 59.05 86.96 58.77 80.58 32.41 132.45 71.24 80.96 110.59 87.08 84.17 30.51 84.45 30.39 59.05"/><circle class="cls-3" cx="32.45" cy="124.5" r="31.45"/><circle class="cls-4" cx="32.45" cy="124.5" r="24.5"/><path d="M31.56,105.9a6.09,6.09,0,0,1,0-.74.93.93,0,0,1,.94-.87.88.88,0,0,1,.94.86,7.72,7.72,0,0,1,0,1.52,1,1,0,0,1-1,.91,1,1,0,0,1-.94-1c0-.24,0-.49,0-.73Z"/><path d="M51,125.5a5.21,5.21,0,0,1-.79,0,.91.91,0,0,1-.82-.92.87.87,0,0,1,.79-.94,8.14,8.14,0,0,1,1.71,0,.86.86,0,0,1,.78.94.9.9,0,0,1-.81.92A4.93,4.93,0,0,1,51,125.5Z"/><path d="M13.85,125.4a5.93,5.93,0,0,1-.73,0,1,1,0,0,1-.88-.93.91.91,0,0,1,.85-1,11.16,11.16,0,0,1,1.53,0,.94.94,0,0,1,.91,1,1,1,0,0,1-.94.93c-.25,0-.49,0-.74,0Z"/><path d="M33.36,143.09a5.93,5.93,0,0,1,0,.73.91.91,0,0,1-.91.89.86.86,0,0,1-1-.83,9.26,9.26,0,0,1,0-1.58.89.89,0,0,1,.93-.87.94.94,0,0,1,1,.92C33.37,142.6,33.36,142.84,33.36,143.09Z"/><path d="M32.23,110.18h.45a.75.75,0,0,1,.75.75v13.5a0,0,0,0,1,0,0H31.48a0,0,0,0,1,0,0v-13.5a.75.75,0,0,1,.75-.75Z"/><path d="M27.58,121.21H28a.75.75,0,0,1,.75.75v5.93a0,0,0,0,1,0,0H26.83a0,0,0,0,1,0,0V122A.75.75,0,0,1,27.58,121.21Z" transform="translate(-96.74 152.35) rotate(-90)"/><path class="cls-5" d="M37,122.62h.45a.75.75,0,0,1,.75.75V133a0,0,0,0,1,0,0H36.28a0,0,0,0,1,0,0v-9.6A.75.75,0,0,1,37,122.62Z" transform="translate(163.29 170.58) rotate(125)"/><circle cx="32.45" cy="124.5" r="2.33"/></g></g></svg>