<svg xmlns="http://www.w3.org/2000/svg" xmlns:xlink="http://www.w3.org/1999/xlink" viewBox="0 0 147.41 157.2"><defs><style>.cls-1{fill:none;}.cls-2{fill:#004ce5;}.cls-3{fill:#fff;}.cls-4{isolation:isolate;}.cls-5{clip-path:url(#clip-path);}.cls-6{fill:#1c69e9;}.cls-7{clip-path:url(#clip-path-2);}.cls-8{clip-path:url(#clip-path-3);}.cls-9{clip-path:url(#clip-path-4);}.cls-10{fill:#1d6cea;}.cls-11{clip-path:url(#clip-path-5);}.cls-12{clip-path:url(#clip-path-6);}.cls-13{clip-path:url(#clip-path-7);}.cls-14{clip-path:url(#clip-path-8);}.cls-15{clip-path:url(#clip-path-9);}.cls-16{clip-path:url(#clip-path-10);}.cls-17{fill:#1f71eb;}.cls-18{clip-path:url(#clip-path-11);}.cls-19{clip-path:url(#clip-path-12);}.cls-20{clip-path:url(#clip-path-13);}.cls-21{clip-path:url(#clip-path-14);}.cls-22{clip-path:url(#clip-path-15);}.cls-23{fill:#35acfe;}</style><clipPath id="clip-path" transform="translate(-0.08)"><path class="cls-1" d="M58.46,111.06l-2.72,4.33a1.46,1.46,0,0,1-.16.21c-.51.53-1,1.06-1.56,1.58a.69.69,0,0,0-.11.13L56.63,113a.69.69,0,0,1,.11-.13c.53-.52,1-1,1.56-1.58A.83.83,0,0,0,58.46,111.06Z"/></clipPath><clipPath id="clip-path-2" transform="translate(-0.08)"><path class="cls-1" d="M20.43,100.25l2.72-4.32a1.61,1.61,0,0,0-.2,1.2c.17.84.32,1.67.46,2.49L20.69,104c-.14-.82-.29-1.65-.46-2.49A1.65,1.65,0,0,1,20.43,100.25Z"/></clipPath><clipPath id="clip-path-3" transform="translate(-0.08)"><path class="cls-1" d="M23.32,100.08l-2.72,4.33a.75.75,0,0,0,.09-.46l2.72-4.33A.75.75,0,0,1,23.32,100.08Z"/></clipPath><clipPath id="clip-path-4" transform="translate(-0.08)"><path class="cls-1" d="M67.55,132l-2.72,4.33a.48.48,0,0,1-.23.19.94.94,0,0,1-.39,0c-1.35-.11-2.69-.19-4-.22a.65.65,0,0,0-.27,0,.66.66,0,0,0-.34.27l2.72-4.33a.66.66,0,0,1,.34-.27.86.86,0,0,1,.27-.05c1.33,0,2.67.11,4,.22a.8.8,0,0,0,.39,0A.48.48,0,0,0,67.55,132Z"/></clipPath><clipPath id="clip-path-5" transform="translate(-0.08)"><path class="cls-1" d="M17.19,119.24l2.72-4.33a11.75,11.75,0,0,1,5.91-4.69c4-1.49,9-1.3,14.1.89,9.77,4.25,15.34,14.66,11.58,22.41l-2.72,4.33c3.76-7.76-1.81-18.16-11.58-22.41-5.05-2.2-10.12-2.38-14.1-.89A11.65,11.65,0,0,0,17.19,119.24Z"/></clipPath><clipPath id="clip-path-6" transform="translate(-0.08)"><path class="cls-1" d="M51,134.52l-2.72,4.33a9.72,9.72,0,0,0,.55-1l2.72-4.33A8.78,8.78,0,0,1,51,134.52Z"/></clipPath><clipPath id="clip-path-7" transform="translate(-0.08)"><path class="cls-1" d="M8.16,115.58l-2.72,4.33a.41.41,0,0,0,0-.09c.44-1.47.84-3,1.23-4.45a.8.8,0,0,0-.28-.68c-.87-.73-2.4-2-3.31-2.78a1,1,0,0,1-.32-1.22l2.72-4.33a1,1,0,0,0,.32,1.22c.91.78,2.44,2,3.31,2.78a.79.79,0,0,1,.27.68c-.38,1.49-.78,3-1.22,4.45A.41.41,0,0,1,8.16,115.58Z"/></clipPath><clipPath id="clip-path-8" transform="translate(-0.08)"><path class="cls-1" d="M64.83,141.26l-2.72,4.33c-1.25,2-6,7.61-7.23,8.09l2.72-4.33C58.88,148.87,63.58,143.25,64.83,141.26Z"/></clipPath><clipPath id="clip-path-9" transform="translate(-0.08)"><path class="cls-1" d="M57.6,149.35l-2.72,4.33c-.72,0-3.32-2-4.56-3.07a1,1,0,0,0-1.1-.24c-1.49.56-3,1.07-4.47,1.54l2.72-4.33c1.5-.47,3-1,4.47-1.54a1,1,0,0,1,1.1.24C54.28,147.34,56.88,149.38,57.6,149.35Z"/></clipPath><clipPath id="clip-path-10" transform="translate(-0.08)"><path class="cls-1" d="M44.41,152.17l2.71-4.33a.74.74,0,0,1,.35-.26l-2.72,4.33A.66.66,0,0,0,44.41,152.17Z"/></clipPath><clipPath id="clip-path-11" transform="translate(-0.08)"><path class="cls-1" d="M.18,120.17l2.72-4.33a.7.7,0,0,0-.08.37,27,27,0,0,0,1.37,9.4c.25.73.53,1.46.81,2.19a1.59,1.59,0,0,0,1.35,1l-2.72,4.33a1.59,1.59,0,0,1-1.35-1c-.28-.73-.56-1.46-.81-2.2a27,27,0,0,1-1.37-9.4A.69.69,0,0,1,.18,120.17Z"/></clipPath><clipPath id="clip-path-12" transform="translate(-0.08)"><path class="cls-1" d="M13.85,134.82l-2.72,4.33a.72.72,0,0,0,0-.65c-1.08-1.7-2.21-3.39-3.39-5.16L10.51,129c1.18,1.77,2.31,3.46,3.39,5.16A.72.72,0,0,1,13.85,134.82Z"/></clipPath><clipPath id="clip-path-13" transform="translate(-0.08)"><path class="cls-1" d="M47.75,152.37,45,156.69a.42.42,0,0,1-.19.15,1.25,1.25,0,0,1-.24,0A36,36,0,0,1,31,156.07l2.72-4.33a36,36,0,0,0,13.65.82,1.25,1.25,0,0,0,.24-.05A.41.41,0,0,0,47.75,152.37Z"/></clipPath><clipPath id="clip-path-14" transform="translate(-0.08)"><path class="cls-1" d="M33.67,151.74,31,156.07a1.57,1.57,0,0,1-.24-.13l2.72-4.32A2.5,2.5,0,0,0,33.67,151.74Z"/></clipPath><clipPath id="clip-path-15" transform="translate(-0.08)"><path class="cls-1" d="M8.68,141.76l2.72-4.33a.7.7,0,0,0,.11.76A43.23,43.23,0,0,0,22.12,147a1.39,1.39,0,0,0,1.19.15.93.93,0,0,0,.33-.21c.73-.73,1.44-1.46,2.14-2.2a.8.8,0,0,1,.29-.22c.28-.1.61,0,1.3.41a16.27,16.27,0,0,0,3.74,1.53c1.19.3,1.46.54,1.57,1.22.22,1.33.5,2.66.75,4l-2.72,4.32c-.25-1.28-.53-2.61-.75-3.94-.11-.68-.38-.92-1.57-1.23a15.81,15.81,0,0,1-3.74-1.52c-.69-.38-1-.51-1.29-.41a.75.75,0,0,0-.3.22c-.7.74-1.41,1.47-2.14,2.2a.79.79,0,0,1-.33.2,1.39,1.39,0,0,1-1.19-.14,43.26,43.26,0,0,1-10.61-8.81A.69.69,0,0,1,8.68,141.76Z"/></clipPath></defs><g id="Capa_2" data-name="Capa 2"><g id="Capa_25" data-name="Capa 25"><circle class="cls-2" cx="75.91" cy="71.5" r="71.5"/><polygon class="cls-3" points="24.85 59.05 81.42 58.77 75.04 32.41 126.91 71.24 75.43 110.59 81.55 84.17 24.98 84.45 24.85 59.05"/><g class="cls-4"><g class="cls-4"><g class="cls-5"><g class="cls-4"><path class="cls-6" d="M58.46,111.06l-2.72,4.33a1.46,1.46,0,0,1-.16.21c-.51.53-1,1.06-1.56,1.58a.69.69,0,0,0-.11.13L56.63,113a.69.69,0,0,1,.11-.13c.53-.52,1-1,1.56-1.58a.83.83,0,0,0,.16-.21" transform="translate(-0.08)"/></g></g></g><g class="cls-4"><g class="cls-7"><g class="cls-4"><path class="cls-6" d="M23.41,99.62,20.69,104c-.14-.82-.29-1.65-.46-2.49a1.65,1.65,0,0,1,.2-1.21l2.72-4.32a1.61,1.61,0,0,0-.2,1.2c.17.84.32,1.67.46,2.49" transform="translate(-0.08)"/></g></g></g><g class="cls-4"><g class="cls-8"><g class="cls-4"><path class="cls-6" d="M23.32,100.08l-2.72,4.33a.75.75,0,0,0,.09-.46l2.72-4.33a.75.75,0,0,1-.09.46" transform="translate(-0.08)"/></g></g></g><g class="cls-4"><g class="cls-9"><g class="cls-4"><path class="cls-6" d="M67.55,132l-2.72,4.33a.5.5,0,0,1-.12.13l2.72-4.33a.51.51,0,0,0,.12-.13" transform="translate(-0.08)"/><path class="cls-10" d="M67.43,132.1l-2.72,4.33-.11.06a.94.94,0,0,1-.39,0c-1.35-.11-2.69-.19-4-.22a.65.65,0,0,0-.27,0,.56.56,0,0,0-.17.09l2.72-4.33a.56.56,0,0,1,.17-.09.86.86,0,0,1,.27-.05c1.33,0,2.67.11,4,.22a.8.8,0,0,0,.39,0,.39.39,0,0,0,.11-.06" transform="translate(-0.08)"/><path class="cls-6" d="M62.47,132.11l-2.72,4.33a.58.58,0,0,0-.17.18l2.72-4.33a.58.58,0,0,1,.17-.18" transform="translate(-0.08)"/></g></g></g><g class="cls-4"><g class="cls-11"><g class="cls-4"><path class="cls-6" d="M51.5,133.52l-2.72,4.33c3.76-7.76-1.81-18.16-11.58-22.41l-.46-.2,2.72-4.33.46.2c9.77,4.25,15.34,14.66,11.58,22.41" transform="translate(-0.08)"/><path class="cls-10" d="M39.46,110.91l-2.72,4.33a18.83,18.83,0,0,0-13.64-.69,13,13,0,0,0-2.93,1.55l2.72-4.33a13,13,0,0,1,2.93-1.55,18.94,18.94,0,0,1,13.64.69" transform="translate(-0.08)"/><path class="cls-6" d="M22.89,111.77l-2.72,4.33a11,11,0,0,0-3,3.14l2.72-4.33a11.15,11.15,0,0,1,3-3.14" transform="translate(-0.08)"/></g></g></g><g class="cls-4"><g class="cls-12"><g class="cls-4"><path class="cls-6" d="M51,134.52l-2.72,4.33a9.72,9.72,0,0,0,.55-1l2.72-4.33a8.78,8.78,0,0,1-.55,1" transform="translate(-0.08)"/></g></g></g><g class="cls-4"><g class="cls-13"><g class="cls-4"><path class="cls-6" d="M8.16,115.58l-2.72,4.33a.41.41,0,0,0,0-.09c.44-1.47.84-3,1.23-4.45a.8.8,0,0,0-.28-.68c-.87-.73-2.4-2-3.31-2.78a1,1,0,0,1-.32-1.22l2.72-4.33a1,1,0,0,0,.32,1.22c.91.78,2.44,2,3.31,2.78a.79.79,0,0,1,.27.68c-.38,1.49-.78,3-1.22,4.45a.41.41,0,0,1-.05.09" transform="translate(-0.08)"/></g></g></g><g class="cls-4"><g class="cls-14"><g class="cls-4"><path class="cls-6" d="M64.83,141.26l-2.72,4.33C61,147.4,57,152.23,55.3,153.44L58,149.11c1.67-1.21,5.68-6,6.81-7.85" transform="translate(-0.08)"/><path class="cls-10" d="M58,149.11l-2.72,4.33a1.56,1.56,0,0,1-.42.24l2.72-4.33a1.56,1.56,0,0,0,.42-.24" transform="translate(-0.08)"/></g></g></g><g class="cls-4"><g class="cls-15"><g class="cls-4"><path class="cls-10" d="M57.6,149.35l-2.72,4.33a1,1,0,0,1-.39-.1l2.71-4.33a.92.92,0,0,0,.4.1" transform="translate(-0.08)"/><path class="cls-6" d="M57.2,149.25l-2.71,4.33a23.62,23.62,0,0,1-4.17-3,1.56,1.56,0,0,0-.4-.27L52.63,146a1.38,1.38,0,0,1,.41.26,23.94,23.94,0,0,0,4.16,3" transform="translate(-0.08)"/><path class="cls-10" d="M52.63,146l-2.71,4.32a.9.9,0,0,0-.7,0c-1.49.56-3,1.07-4.47,1.54l2.72-4.33c1.5-.47,3-1,4.47-1.54a.87.87,0,0,1,.69,0" transform="translate(-0.08)"/></g></g></g><g class="cls-4"><g class="cls-16"><g class="cls-4"><path class="cls-10" d="M47.47,147.58l-2.72,4.33a.51.51,0,0,0-.18.09l2.71-4.33.19-.09" transform="translate(-0.08)"/><path class="cls-6" d="M47.28,147.67,44.57,152a.64.64,0,0,0-.16.17l2.71-4.33a.85.85,0,0,1,.16-.17" transform="translate(-0.08)"/></g></g></g><polygon class="cls-17" points="10.43 129.01 7.71 133.34 3.55 133.09 6.26 128.76 10.43 129.01"/><g class="cls-4"><g class="cls-18"><g class="cls-4"><path class="cls-10" d="M6.35,128.76l-2.72,4.33a1.53,1.53,0,0,1-.48-.11l2.72-4.33a1.53,1.53,0,0,0,.48.11" transform="translate(-0.08)"/><path class="cls-6" d="M5.87,128.65,3.15,133a1.58,1.58,0,0,1-.87-.85c-.28-.73-.56-1.46-.81-2.2a27,27,0,0,1-1.37-9.4.69.69,0,0,1,.08-.36l2.72-4.33a.7.7,0,0,0-.08.37,27,27,0,0,0,1.37,9.4c.25.73.53,1.46.81,2.19a1.58,1.58,0,0,0,.87.85" transform="translate(-0.08)"/></g></g></g><g class="cls-4"><g class="cls-19"><g class="cls-4"><path class="cls-6" d="M13.85,134.82l-2.72,4.33a.72.72,0,0,0,0-.65c-1.08-1.7-2.21-3.39-3.39-5.16L10.51,129c1.18,1.77,2.31,3.46,3.39,5.16a.72.72,0,0,1-.05.65" transform="translate(-0.08)"/></g></g></g><g class="cls-4"><g class="cls-20"><g class="cls-4"><path class="cls-6" d="M47.75,152.37,45,156.69a.34.34,0,0,1-.08.09l2.72-4.33a.3.3,0,0,0,.08-.08" transform="translate(-0.08)"/><path class="cls-10" d="M47.67,152.45,45,156.78l-.11.06a1.25,1.25,0,0,1-.24,0A36,36,0,0,1,31,156.07l2.72-4.33a36,36,0,0,0,13.65.82,1.25,1.25,0,0,0,.24-.05l.11-.06" transform="translate(-0.08)"/></g></g></g><g class="cls-4"><g class="cls-21"><g class="cls-4"><path class="cls-10" d="M33.67,151.74,31,156.07h0l2.72-4.33h0" transform="translate(-0.08)"/><path class="cls-6" d="M33.64,151.73l-2.72,4.33-.21-.12,2.72-4.32.21.11" transform="translate(-0.08)"/></g></g></g><g class="cls-4"><g class="cls-22"><g class="cls-4"><path class="cls-6" d="M33.43,151.62l-2.72,4.32c-.25-1.28-.53-2.61-.75-3.94a1.09,1.09,0,0,0-.79-1l2.72-4.33a1.09,1.09,0,0,1,.79,1c.22,1.33.5,2.66.75,4" transform="translate(-0.08)"/><path class="cls-10" d="M31.89,146.69,29.17,151a6.61,6.61,0,0,0-.78-.25,14.76,14.76,0,0,1-1.88-.62l2.72-4.33a16.6,16.6,0,0,0,1.88.63,6.8,6.8,0,0,1,.78.24" transform="translate(-0.08)"/><path class="cls-6" d="M29.23,145.82l-2.72,4.33a19.86,19.86,0,0,1-1.86-.9,5,5,0,0,0-.66-.33l2.72-4.33a6.7,6.7,0,0,1,.66.33,17.64,17.64,0,0,0,1.86.9" transform="translate(-0.08)"/><path class="cls-10" d="M26.71,144.59,24,148.92a.83.83,0,0,0-.63-.08l-.14.07,2.72-4.32.13-.08a.9.9,0,0,1,.64.08" transform="translate(-0.08)"/><path class="cls-6" d="M25.94,144.59l-2.72,4.32a1.1,1.1,0,0,0-.16.15c-.7.74-1.41,1.47-2.14,2.2l-.11.09L23.53,147l.11-.09c.73-.73,1.44-1.46,2.14-2.2a.52.52,0,0,1,.16-.14" transform="translate(-0.08)"/><path class="cls-10" d="M23.53,147l-2.72,4.33a.76.76,0,0,1-.22.11,1.34,1.34,0,0,1-1,0l2.72-4.32a1.45,1.45,0,0,0,1,0,.78.78,0,0,0,.22-.12" transform="translate(-0.08)"/><path class="cls-6" d="M22.33,147.1l-2.72,4.32-.21-.1a43.26,43.26,0,0,1-10.61-8.81.69.69,0,0,1-.11-.75l2.72-4.33a.7.7,0,0,0,.11.76A43.23,43.23,0,0,0,22.12,147l.21.11" transform="translate(-0.08)"/></g></g></g><path class="cls-23" d="M63.12,119a3.26,3.26,0,0,1,2.74,2,23.93,23.93,0,0,1,1.45,5.58,21.48,21.48,0,0,1,.41,4.61c0,.58-.14.86-.4,1a.8.8,0,0,1-.39,0c-1.35-.11-2.69-.19-4-.22a.86.86,0,0,0-.27.05.64.64,0,0,0-.39.38c-.44,1.42-.82,2.87-1.18,4.33a.93.93,0,0,0,.31.8c1.09.95,3.7,2.55,3.76,3.09s-6,8.18-7.54,8.73c-.72,0-3.32-2-4.56-3.07a1,1,0,0,0-1.1-.24c-1.49.56-3,1.07-4.47,1.54a.59.59,0,0,0-.41.72c.27,1.2.45,2.4.71,3.6.07.32,0,.51-.21.61a1.25,1.25,0,0,1-.24.05,36,36,0,0,1-13.65-.82,2.5,2.5,0,0,1-.24-.12c-.25-1.29-.53-2.62-.75-4-.11-.68-.38-.92-1.57-1.22a16.27,16.27,0,0,1-3.74-1.53c-.69-.38-1-.51-1.3-.41a.8.8,0,0,0-.29.22c-.7.74-1.41,1.47-2.14,2.2a.93.93,0,0,1-.33.21,1.39,1.39,0,0,1-1.19-.15,43.23,43.23,0,0,1-10.61-8.8.67.67,0,0,1-.08-.8c.76-.86,1.61-1.66,2.38-2.52a.71.71,0,0,0,.09-.7c-1.08-1.7-2.21-3.39-3.39-5.16l-4.16-.25a1.59,1.59,0,0,1-1.35-1c-.28-.73-.56-1.46-.81-2.19a27,27,0,0,1-1.37-9.4c0-.28.07-.44.25-.51a1,1,0,0,1,.43,0c1.37.11,2.73.18,4.09.21a.73.73,0,0,0,.25,0,.64.64,0,0,0,.37-.35c.44-1.47.84-3,1.22-4.45a.79.79,0,0,0-.27-.68c-.87-.73-2.4-2-3.31-2.78a1,1,0,0,1-.3-1.25c.69-1,1.36-2,2.11-3a19.05,19.05,0,0,1,4.39-4,2.75,2.75,0,0,1,.38-.2,3.06,3.06,0,0,1,2.88.63l2.57,2.08c1.82-.57,3.58-1.12,5.31-1.7.17-.07.25-.38.22-.58-.14-.82-.29-1.65-.46-2.49a1.58,1.58,0,0,1,1-1.87,3,3,0,0,1,.55-.13,35.38,35.38,0,0,1,10.2.53,3.35,3.35,0,0,1,2.66,2.43c.14.73.28,1.45.4,2.18s.41.85,1.48,1.12a13.06,13.06,0,0,1,3.25,1.27c1,.53,1.51.76,1.94.6a1.18,1.18,0,0,0,.45-.35,21.85,21.85,0,0,1,2.18-2.23.69.69,0,0,1,.17-.1.87.87,0,0,1,.65,0,43.6,43.6,0,0,1,10.16,8,2,2,0,0,1,.22,2.61c-.51.53-1,1.06-1.56,1.58a.81.81,0,0,0,0,1.07c.95,1.39,1.85,2.81,2.69,4.23a1.23,1.23,0,0,0,1.16.76C61.4,118.93,62.25,119,63.12,119ZM51.5,133.52c3.76-7.75-1.81-18.16-11.58-22.41-5.05-2.19-10.12-2.38-14.1-.89a11.4,11.4,0,0,0-7.07,7.17c-2.6,8,3.87,18.07,14.24,21.62a18,18,0,0,0,12.09.13,11.37,11.37,0,0,0,6.42-5.62" transform="translate(-0.08)"/></g></g></g></svg>