<svg xmlns="http://www.w3.org/2000/svg" xmlns:xlink="http://www.w3.org/1999/xlink" viewBox="0 0 145.39 159.75"><defs><style>.cls-1{fill:none;}.cls-2{fill:url(#Degradado_sin_nombre_322);}.cls-3{fill:#fff;}.cls-4{isolation:isolate;}.cls-5{clip-path:url(#clip-path);}.cls-6{fill:#1c69e9;}.cls-7{clip-path:url(#clip-path-2);}.cls-8{clip-path:url(#clip-path-3);}.cls-9{fill:#1d6cea;}.cls-10{clip-path:url(#clip-path-4);}.cls-11{clip-path:url(#clip-path-5);}.cls-12{clip-path:url(#clip-path-6);}.cls-13{clip-path:url(#clip-path-7);}.cls-14{clip-path:url(#clip-path-8);}.cls-15{clip-path:url(#clip-path-9);}.cls-16{fill:#1f71eb;}.cls-17{clip-path:url(#clip-path-10);}.cls-18{clip-path:url(#clip-path-11);}.cls-19{clip-path:url(#clip-path-12);}.cls-20{clip-path:url(#clip-path-13);}.cls-21{clip-path:url(#clip-path-14);}.cls-22{clip-path:url(#clip-path-15);}.cls-23{fill:#35acfe;}</style><linearGradient id="Degradado_sin_nombre_322" x1="74.02" y1="129.14" x2="73.76" y2="12.88" gradientUnits="userSpaceOnUse"><stop offset="0" stop-color="#e97700"/><stop offset="0.18" stop-color="#f75416"/><stop offset="0.31" stop-color="#ff4121"/><stop offset="0.32" stop-color="#fe3d1f"/><stop offset="0.44" stop-color="#f92211"/><stop offset="0.56" stop-color="#f50f08"/><stop offset="0.68" stop-color="#f30402"/><stop offset="0.81" stop-color="#f20000"/></linearGradient><clipPath id="clip-path" transform="translate(-0.08)"><path class="cls-1" d="M58.47,113.6l-2.72,4.33a1.84,1.84,0,0,1-.17.22c-.51.52-1,1.06-1.56,1.57l-.11.13,2.72-4.32a.69.69,0,0,1,.11-.13c.54-.52,1-1.05,1.56-1.58A1.84,1.84,0,0,0,58.47,113.6Z"/></clipPath><clipPath id="clip-path-2" transform="translate(-0.08)"><path class="cls-1" d="M23.32,102.62,20.6,107a.66.66,0,0,0,.09-.45c-.14-.82-.3-1.65-.47-2.49a1.7,1.7,0,0,1,.21-1.21l2.72-4.32a1.66,1.66,0,0,0-.21,1.2c.17.84.33,1.67.47,2.49A.65.65,0,0,1,23.32,102.62Z"/></clipPath><clipPath id="clip-path-3" transform="translate(-0.08)"><path class="cls-1" d="M67.55,134.52l-2.72,4.33a.39.39,0,0,1-.22.18,1,1,0,0,1-.4,0q-2-.18-4-.21a.63.63,0,0,0-.27,0,.87.87,0,0,0-.35.27l2.72-4.32a.81.81,0,0,1,.35-.28.84.84,0,0,1,.27,0q2,0,4,.21a1,1,0,0,0,.4,0A.39.39,0,0,0,67.55,134.52Z"/></clipPath><clipPath id="clip-path-4" transform="translate(-0.08)"><path class="cls-1" d="M17.19,121.78l2.72-4.32a11.69,11.69,0,0,1,5.91-4.69c4-1.49,9-1.31,14.1.88,9.77,4.26,15.34,14.66,11.58,22.42l-2.72,4.33C52.54,132.64,47,122.23,37.2,118c-5.05-2.19-10.12-2.37-14.09-.88A11.71,11.71,0,0,0,17.19,121.78Z"/></clipPath><clipPath id="clip-path-5" transform="translate(-0.08)"><path class="cls-1" d="M51,137.07l-2.72,4.33a10.66,10.66,0,0,0,.55-1l2.72-4.33A10.66,10.66,0,0,1,51,137.07Z"/></clipPath><clipPath id="clip-path-6" transform="translate(-0.08)"><path class="cls-1" d="M8.15,118.14l-2.72,4.33a.93.93,0,0,0,.05-.1c.45-1.47.86-3,1.23-4.45a.76.76,0,0,0-.26-.67l-3.32-2.79a1,1,0,0,1-.32-1.21l2.72-4.33a1,1,0,0,0,.32,1.22l3.31,2.78a.74.74,0,0,1,.27.67c-.37,1.49-.78,3-1.23,4.45Z"/></clipPath><clipPath id="clip-path-7" transform="translate(-0.08)"><path class="cls-1" d="M64.83,143.82l-2.72,4.33c-1.26,2-6,7.61-7.23,8.09l2.72-4.33C58.87,151.43,63.57,145.82,64.83,143.82Z"/></clipPath><clipPath id="clip-path-8" transform="translate(-0.08)"><path class="cls-1" d="M57.6,151.91l-2.72,4.33c-.72,0-3.32-2-4.57-3.08a.94.94,0,0,0-1.14-.22l-.31.11c-1.35.51-2.72,1-4.12,1.41l2.72-4.33c1.4-.43,2.77-.9,4.12-1.4l.31-.12a.94.94,0,0,1,1.14.22C54.28,149.89,56.88,151.93,57.6,151.91Z"/></clipPath><clipPath id="clip-path-9" transform="translate(-0.08)"><path class="cls-1" d="M44.4,154.71l2.72-4.32a.65.65,0,0,1,.34-.26l-2.72,4.33A.64.64,0,0,0,44.4,154.71Z"/></clipPath><clipPath id="clip-path-10" transform="translate(-0.08)"><path class="cls-1" d="M.18,122.71l2.72-4.32a.69.69,0,0,0-.08.36,26.94,26.94,0,0,0,1.37,9.4c.25.74.53,1.47.81,2.2a1.6,1.6,0,0,0,1.35,1l-2.72,4.32a1.61,1.61,0,0,1-1.35-1c-.28-.73-.56-1.47-.81-2.2a26.94,26.94,0,0,1-1.37-9.4A.75.75,0,0,1,.18,122.71Z"/></clipPath><clipPath id="clip-path-11" transform="translate(-0.08)"><path class="cls-1" d="M13.89,136.72l-2.71,4.33c-1.09-1.7-2.22-3.39-3.39-5.17l2.72-4.33C11.68,133.33,12.81,135,13.89,136.72Z"/></clipPath><clipPath id="clip-path-12" transform="translate(-0.08)"><path class="cls-1" d="M13.85,137.37l-2.72,4.32a.7.7,0,0,0,0-.64l2.71-4.33A.69.69,0,0,1,13.85,137.37Z"/></clipPath><clipPath id="clip-path-13" transform="translate(-0.08)"><path class="cls-1" d="M47.74,154.92,45,159.25a.36.36,0,0,1-.19.14,1,1,0,0,1-.22.05A36.23,36.23,0,0,1,31,158.62l2.72-4.32a36.22,36.22,0,0,0,13.66.81l.22-.05A.32.32,0,0,0,47.74,154.92Z"/></clipPath><clipPath id="clip-path-14" transform="translate(-0.08)"><path class="cls-1" d="M33.67,154.3,31,158.62a1.57,1.57,0,0,1-.24-.13l2.72-4.33Z"/></clipPath><clipPath id="clip-path-15" transform="translate(-0.08)"><path class="cls-1" d="M8.68,144.32,11.4,140a.67.67,0,0,0,.11.74,43,43,0,0,0,10.6,8.81,1.45,1.45,0,0,0,1.2.15,1,1,0,0,0,.32-.21c.73-.73,1.45-1.46,2.15-2.2a.8.8,0,0,1,.29-.22c.27-.1.61,0,1.29.41A16.49,16.49,0,0,0,31.11,149c1.2.31,1.46.55,1.57,1.23.22,1.33.5,2.65.75,3.94l-2.72,4.33c-.25-1.29-.53-2.62-.75-3.94-.11-.68-.37-.92-1.57-1.23a16.24,16.24,0,0,1-3.74-1.52c-.69-.38-1-.51-1.3-.41a.88.88,0,0,0-.29.21c-.7.75-1.42,1.48-2.15,2.21a1,1,0,0,1-.32.21,1.39,1.39,0,0,1-1.19-.16,42.64,42.64,0,0,1-10.61-8.8A.67.67,0,0,1,8.68,144.32Z"/></clipPath></defs><g id="Capa_2" data-name="Capa 2"><g id="Capa_27" data-name="Capa 27"><circle class="cls-2" cx="73.89" cy="71.5" r="71.5"/><polygon class="cls-3" points="22.83 59.05 79.4 58.77 73.02 32.41 124.89 71.24 73.4 110.59 79.52 84.17 22.95 84.45 22.83 59.05"/><g class="cls-4"><g class="cls-4"><g class="cls-5"><g class="cls-4"><path class="cls-6" d="M58.47,113.6l-2.72,4.33a1.84,1.84,0,0,1-.17.22c-.51.52-1,1.06-1.56,1.57l-.11.13,2.72-4.32a.69.69,0,0,1,.11-.13c.54-.52,1-1.05,1.56-1.58a1.84,1.84,0,0,0,.17-.22" transform="translate(-0.08)"/></g></g></g><g class="cls-4"><g class="cls-7"><g class="cls-4"><path class="cls-6" d="M23.32,102.62,20.6,107a.66.66,0,0,0,.09-.45c-.14-.82-.3-1.65-.47-2.49a1.7,1.7,0,0,1,.21-1.21l2.72-4.32a1.66,1.66,0,0,0-.21,1.2c.17.84.33,1.67.47,2.49a.65.65,0,0,1-.09.45" transform="translate(-0.08)"/></g></g></g><g class="cls-4"><g class="cls-8"><g class="cls-4"><path class="cls-6" d="M67.55,134.52l-2.72,4.33a.49.49,0,0,1-.12.13l2.72-4.33a.37.37,0,0,0,.12-.13" transform="translate(-0.08)"/><path class="cls-9" d="M67.43,134.65,64.71,139a.31.31,0,0,1-.1.05,1,1,0,0,1-.4,0q-2-.18-4-.21a.63.63,0,0,0-.27,0l-.18.1,2.72-4.33.18-.1a.84.84,0,0,1,.27,0q2,0,4,.21a1,1,0,0,0,.4,0l.1,0" transform="translate(-0.08)"/><path class="cls-6" d="M62.46,134.67,59.74,139a.69.69,0,0,0-.17.17l2.72-4.32a.58.58,0,0,1,.17-.18" transform="translate(-0.08)"/></g></g></g><g class="cls-4"><g class="cls-10"><g class="cls-4"><path class="cls-6" d="M51.5,136.07l-2.72,4.33C52.54,132.64,47,122.23,37.2,118l-.46-.19,2.72-4.33.46.19c9.77,4.26,15.34,14.66,11.58,22.42" transform="translate(-0.08)"/><path class="cls-9" d="M39.46,113.46l-2.72,4.33a18.81,18.81,0,0,0-13.63-.69,12.19,12.19,0,0,0-2.93,1.54l2.72-4.33a12.69,12.69,0,0,1,2.92-1.54,18.83,18.83,0,0,1,13.64.69" transform="translate(-0.08)"/><path class="cls-6" d="M22.9,114.31l-2.72,4.33a11.18,11.18,0,0,0-3,3.14l2.72-4.32a11.09,11.09,0,0,1,3-3.15" transform="translate(-0.08)"/></g></g></g><g class="cls-4"><g class="cls-11"><g class="cls-4"><path class="cls-6" d="M51,137.07l-2.72,4.33a10.66,10.66,0,0,0,.55-1l2.72-4.33a10.66,10.66,0,0,1-.55,1" transform="translate(-0.08)"/></g></g></g><g class="cls-4"><g class="cls-12"><g class="cls-4"><path class="cls-6" d="M8.15,118.14l-2.72,4.33a.93.93,0,0,0,.05-.1c.45-1.47.86-3,1.23-4.45a.76.76,0,0,0-.26-.67l-3.32-2.79a1,1,0,0,1-.32-1.21l2.72-4.33a1,1,0,0,0,.32,1.22l3.31,2.78a.74.74,0,0,1,.27.67c-.37,1.49-.78,3-1.23,4.45l0,.1" transform="translate(-0.08)"/></g></g></g><g class="cls-4"><g class="cls-13"><g class="cls-4"><path class="cls-6" d="M64.83,143.82l-2.72,4.33C61,150,57,154.79,55.3,156L58,151.67c1.66-1.2,5.66-6,6.81-7.85" transform="translate(-0.08)"/><path class="cls-9" d="M58,151.67,55.3,156a2,2,0,0,1-.42.25l2.72-4.33a2.14,2.14,0,0,0,.42-.24" transform="translate(-0.08)"/></g></g></g><g class="cls-4"><g class="cls-14"><g class="cls-4"><path class="cls-9" d="M57.6,151.91l-2.72,4.33a1.3,1.3,0,0,1-.39-.1l2.72-4.33a1.24,1.24,0,0,0,.39.1" transform="translate(-0.08)"/><path class="cls-6" d="M57.21,151.81l-2.72,4.33a24.52,24.52,0,0,1-4.18-3,1.48,1.48,0,0,0-.4-.27l2.72-4.32a1.35,1.35,0,0,1,.4.26,24.52,24.52,0,0,0,4.18,3" transform="translate(-0.08)"/><path class="cls-9" d="M52.63,148.57l-2.72,4.32a1,1,0,0,0-.74.05l-.31.11c-1.35.51-2.72,1-4.12,1.41l2.72-4.33c1.4-.43,2.77-.9,4.12-1.4l.31-.12a.92.92,0,0,1,.74,0" transform="translate(-0.08)"/></g></g></g><g class="cls-4"><g class="cls-15"><g class="cls-4"><path class="cls-9" d="M47.46,150.13l-2.72,4.33a.51.51,0,0,0-.18.09l2.72-4.33a.76.76,0,0,1,.18-.09" transform="translate(-0.08)"/><path class="cls-6" d="M47.28,150.22l-2.72,4.33a.61.61,0,0,0-.16.16l2.72-4.32a.52.52,0,0,1,.16-.17" transform="translate(-0.08)"/></g></g></g><polygon class="cls-16" points="10.43 131.55 7.71 135.88 3.54 135.64 6.26 131.32 10.43 131.55"/><g class="cls-4"><g class="cls-17"><g class="cls-4"><path class="cls-9" d="M6.35,131.32l-2.72,4.32a1.6,1.6,0,0,1-.48-.11l2.72-4.33a1.54,1.54,0,0,0,.48.12" transform="translate(-0.08)"/><path class="cls-6" d="M5.87,131.2l-2.72,4.33a1.58,1.58,0,0,1-.87-.85c-.28-.73-.56-1.47-.81-2.2a26.94,26.94,0,0,1-1.37-9.4.75.75,0,0,1,.08-.37l2.72-4.32a.69.69,0,0,0-.08.36,26.94,26.94,0,0,0,1.37,9.4c.25.74.53,1.47.81,2.2a1.58,1.58,0,0,0,.87.85" transform="translate(-0.08)"/></g></g></g><g class="cls-4"><g class="cls-18"><g class="cls-4"><path class="cls-6" d="M13.89,136.72l-2.71,4.33c-1.09-1.7-2.22-3.39-3.39-5.17l2.72-4.33c1.17,1.78,2.3,3.47,3.38,5.17" transform="translate(-0.08)"/></g></g></g><g class="cls-4"><g class="cls-19"><g class="cls-4"><path class="cls-6" d="M13.85,137.37l-2.72,4.32a.7.7,0,0,0,0-.64l2.71-4.33a.69.69,0,0,1,0,.65" transform="translate(-0.08)"/></g></g></g><g class="cls-4"><g class="cls-20"><g class="cls-4"><path class="cls-6" d="M47.74,154.92,45,159.25a.2.2,0,0,1-.08.08L47.66,155a.2.2,0,0,0,.08-.08" transform="translate(-0.08)"/><path class="cls-9" d="M47.66,155l-2.72,4.33-.11.06a1,1,0,0,1-.22.05A36.23,36.23,0,0,1,31,158.62l2.72-4.32a36.22,36.22,0,0,0,13.66.81l.22-.05a.24.24,0,0,0,.11-.06" transform="translate(-0.08)"/></g></g></g><g class="cls-4"><g class="cls-21"><g class="cls-4"><path class="cls-9" d="M33.67,154.3,31,158.62h0l2.72-4.33h0" transform="translate(-0.08)"/><path class="cls-6" d="M33.65,154.29l-2.72,4.33-.22-.13,2.72-4.33.22.13" transform="translate(-0.08)"/></g></g></g><g class="cls-4"><g class="cls-22"><g class="cls-4"><path class="cls-6" d="M33.43,154.16l-2.72,4.33c-.25-1.29-.53-2.62-.75-3.94a1.09,1.09,0,0,0-.8-1l2.72-4.32a1.07,1.07,0,0,1,.8,1c.22,1.33.5,2.65.75,3.94" transform="translate(-0.08)"/><path class="cls-9" d="M31.88,149.24l-2.72,4.32a6,6,0,0,0-.77-.24,14.44,14.44,0,0,1-1.89-.63l2.72-4.33a14.44,14.44,0,0,0,1.89.63,5.84,5.84,0,0,1,.77.25" transform="translate(-0.08)"/><path class="cls-6" d="M29.22,148.36l-2.72,4.33a18.48,18.48,0,0,1-1.85-.89,5.74,5.74,0,0,0-.67-.33l2.72-4.33a5,5,0,0,1,.66.33,19.76,19.76,0,0,0,1.86.89" transform="translate(-0.08)"/><path class="cls-9" d="M26.7,147.14,24,151.47a.83.83,0,0,0-.63-.08l-.13.07,2.72-4.33.13-.07a.83.83,0,0,1,.63.08" transform="translate(-0.08)"/><path class="cls-6" d="M25.94,147.13l-2.72,4.33a1.07,1.07,0,0,0-.16.14c-.7.75-1.42,1.48-2.15,2.21l-.11.1,2.72-4.33a.52.52,0,0,0,.11-.1c.73-.73,1.45-1.46,2.15-2.2a.75.75,0,0,1,.16-.15" transform="translate(-0.08)"/><path class="cls-9" d="M23.52,149.58l-2.72,4.33-.21.11a1.4,1.4,0,0,1-1-.05l2.72-4.33a1.34,1.34,0,0,0,1,.05l.21-.11" transform="translate(-0.08)"/><path class="cls-6" d="M22.33,149.64,19.61,154a1.06,1.06,0,0,1-.21-.11,42.64,42.64,0,0,1-10.61-8.8.67.67,0,0,1-.11-.74L11.4,140a.67.67,0,0,0,.11.74,43,43,0,0,0,10.6,8.81l.22.1" transform="translate(-0.08)"/></g></g></g><path class="cls-23" d="M63.11,121.58a3.26,3.26,0,0,1,2.75,2,23.93,23.93,0,0,1,1.45,5.58,21.59,21.59,0,0,1,.42,4.62c0,.57-.15.85-.4.94a1,1,0,0,1-.4,0q-2-.18-4-.21a.84.84,0,0,0-.27,0,.68.68,0,0,0-.39.37c-.43,1.43-.82,2.88-1.17,4.34a.9.9,0,0,0,.3.8c1.09.95,3.7,2.55,3.76,3.08.07.68-6.06,8.19-7.54,8.75-.72,0-3.32-2-4.57-3.08a.94.94,0,0,0-1.14-.22l-.31.12c-1.35.5-2.72,1-4.12,1.4a.59.59,0,0,0-.4.72c.26,1.2.45,2.4.71,3.6.06.33,0,.52-.22.61l-.22.05a36.22,36.22,0,0,1-13.66-.81l-.24-.14c-.25-1.29-.53-2.61-.75-3.94-.11-.68-.37-.92-1.57-1.23a16.49,16.49,0,0,1-3.75-1.52c-.68-.38-1-.51-1.29-.41a.8.8,0,0,0-.29.22c-.7.74-1.42,1.47-2.15,2.2a1,1,0,0,1-.32.21,1.45,1.45,0,0,1-1.2-.15,43,43,0,0,1-10.6-8.81.64.64,0,0,1-.07-.79c.75-.86,1.6-1.67,2.37-2.53a.66.66,0,0,0,.08-.69c-1.08-1.7-2.21-3.39-3.38-5.17l-4.16-.23a1.6,1.6,0,0,1-1.35-1c-.28-.73-.56-1.46-.81-2.2a26.94,26.94,0,0,1-1.37-9.4c0-.28.07-.43.25-.5a1,1,0,0,1,.44,0c1.36.11,2.73.18,4.07.21a.8.8,0,0,0,.26-.05A.56.56,0,0,0,8.2,118c.45-1.47.86-3,1.23-4.45a.74.74,0,0,0-.27-.67l-3.31-2.78a1,1,0,0,1-.3-1.25c.69-1,1.36-2,2.11-3a19,19,0,0,1,4.38-4,1.76,1.76,0,0,1,.39-.19,3,3,0,0,1,2.88.61l2.56,2.09c1.83-.58,3.58-1.12,5.32-1.71.17-.06.26-.36.22-.57-.14-.82-.3-1.65-.47-2.49a1.59,1.59,0,0,1,1-1.86,2,2,0,0,1,.56-.13,35,35,0,0,1,10.2.52,3.35,3.35,0,0,1,2.66,2.43c.14.73.28,1.45.4,2.17s.42.87,1.49,1.13a14.12,14.12,0,0,1,3.24,1.26c1,.54,1.51.77,1.93.61a1.08,1.08,0,0,0,.46-.36,24.11,24.11,0,0,1,2.18-2.23.51.51,0,0,1,.16-.09.9.9,0,0,1,.66,0,43.33,43.33,0,0,1,10.16,8,2,2,0,0,1,.22,2.61c-.51.53-1,1.06-1.56,1.58a.8.8,0,0,0,0,1.08c.94,1.39,1.84,2.8,2.68,4.23a1.19,1.19,0,0,0,1.16.74C61.4,121.48,62.25,121.53,63.11,121.58ZM51.5,136.07c3.76-7.76-1.81-18.16-11.58-22.42-5.05-2.19-10.12-2.37-14.1-.88a11.38,11.38,0,0,0-7.07,7.17c-2.6,8,3.87,18.06,14.24,21.62a18,18,0,0,0,12.09.13,11.37,11.37,0,0,0,6.42-5.62" transform="translate(-0.08)"/></g></g></g></svg>