<svg xmlns="http://www.w3.org/2000/svg" xmlns:xlink="http://www.w3.org/1999/xlink" viewBox="0 0 146.85 160.35"><defs><style>.cls-1{fill:none;}.cls-2{fill:#ffe000;}.cls-3{fill:#fff;}.cls-4{isolation:isolate;}.cls-5{clip-path:url(#clip-path);}.cls-6{fill:#1c69e9;}.cls-7{clip-path:url(#clip-path-2);}.cls-8{clip-path:url(#clip-path-3);}.cls-9{clip-path:url(#clip-path-4);}.cls-10{fill:#1d6cea;}.cls-11{clip-path:url(#clip-path-5);}.cls-12{clip-path:url(#clip-path-6);}.cls-13{clip-path:url(#clip-path-7);}.cls-14{clip-path:url(#clip-path-8);}.cls-15{clip-path:url(#clip-path-9);}.cls-16{clip-path:url(#clip-path-10);}.cls-17{fill:#1f71eb;}.cls-18{clip-path:url(#clip-path-11);}.cls-19{clip-path:url(#clip-path-12);}.cls-20{clip-path:url(#clip-path-13);}.cls-21{clip-path:url(#clip-path-14);}.cls-22{clip-path:url(#clip-path-15);}.cls-23{fill:#35acfe;}</style><clipPath id="clip-path" transform="translate(-0.08)"><path class="cls-1" d="M58.47,114.19l-2.72,4.33a1.84,1.84,0,0,1-.17.22c-.51.53-1,1.06-1.56,1.58L56.74,116c.54-.51,1-1,1.56-1.58A1.84,1.84,0,0,0,58.47,114.19Z"/></clipPath><clipPath id="clip-path-2" transform="translate(-0.08)"><path class="cls-1" d="M53.92,120.44l2.72-4.33.1-.12L54,120.32A.58.58,0,0,0,53.92,120.44Z"/></clipPath><clipPath id="clip-path-3" transform="translate(-0.08)"><path class="cls-1" d="M23.32,103.23l-2.72,4.32a.72.72,0,0,0,.09-.46c-.14-.82-.3-1.65-.46-2.49a1.61,1.61,0,0,1,.2-1.2l2.72-4.33a1.61,1.61,0,0,0-.2,1.2c.16.84.32,1.67.46,2.49A.77.77,0,0,1,23.32,103.23Z"/></clipPath><clipPath id="clip-path-4" transform="translate(-0.08)"><path class="cls-1" d="M67.55,135.11l-2.72,4.33a.45.45,0,0,1-.22.19,1.23,1.23,0,0,1-.4,0c-1.35-.11-2.69-.19-4-.21a.57.57,0,0,0-.26,0,.78.78,0,0,0-.36.28l2.72-4.33a.72.72,0,0,1,.35-.27.65.65,0,0,1,.27,0c1.33,0,2.67.1,4,.21a.85.85,0,0,0,.4,0A.45.45,0,0,0,67.55,135.11Z"/></clipPath><clipPath id="clip-path-5" transform="translate(-0.08)"><path class="cls-1" d="M17.19,122.38l2.72-4.33a11.65,11.65,0,0,1,5.91-4.69c4-1.49,9-1.3,14.09.89,9.77,4.25,15.35,14.65,11.6,22.41L48.79,141c3.75-7.76-1.83-18.16-11.59-22.41-5.05-2.2-10.12-2.38-14.1-.89A11.65,11.65,0,0,0,17.19,122.38Z"/></clipPath><clipPath id="clip-path-6" transform="translate(-0.08)"><path class="cls-1" d="M51,137.67,48.23,142a10.73,10.73,0,0,0,.56-1l2.72-4.33A10.91,10.91,0,0,1,51,137.67Z"/></clipPath><clipPath id="clip-path-7" transform="translate(-0.08)"><path class="cls-1" d="M8.16,118.72l-2.72,4.33a.41.41,0,0,0,0-.09c.45-1.47.85-2.95,1.22-4.45a.72.72,0,0,0-.27-.67l-3.31-2.78a1,1,0,0,1-.32-1.23l2.72-4.32a1,1,0,0,0,.32,1.22l3.31,2.78a.73.73,0,0,1,.27.67c-.37,1.5-.77,3-1.22,4.45Z"/></clipPath><clipPath id="clip-path-8" transform="translate(-0.08)"><path class="cls-1" d="M64.83,144.41l-2.72,4.33c-1.26,2-6,7.61-7.23,8.09l2.72-4.33C58.87,152,63.57,146.42,64.83,144.41Z"/></clipPath><clipPath id="clip-path-9" transform="translate(-0.08)"><path class="cls-1" d="M57.6,152.5l-2.72,4.33c-.72,0-3.32-2-4.56-3.08a1,1,0,0,0-1.15-.22l-.36.13c-1.33.5-2.69,1-4.07,1.39l2.72-4.33c1.38-.42,2.74-.89,4.07-1.38l.36-.14a1,1,0,0,1,1.15.22C54.28,150.48,56.88,152.52,57.6,152.5Z"/></clipPath><clipPath id="clip-path-10" transform="translate(-0.08)"><path class="cls-1" d="M44.4,155.31,47.12,151a.71.71,0,0,1,.34-.26l-2.72,4.33A.65.65,0,0,0,44.4,155.31Z"/></clipPath><clipPath id="clip-path-11" transform="translate(-0.08)"><path class="cls-1" d="M.18,123.31,2.9,119a.7.7,0,0,0-.08.37,27,27,0,0,0,1.38,9.4c.24.74.52,1.46.81,2.2a1.58,1.58,0,0,0,1.34,1l-2.72,4.32a1.59,1.59,0,0,1-1.34-.95c-.29-.74-.57-1.47-.81-2.2A27,27,0,0,1,.1,123.67.69.69,0,0,1,.18,123.31Z"/></clipPath><clipPath id="clip-path-12" transform="translate(-0.08)"><path class="cls-1" d="M13.85,138l-2.72,4.33a.67.67,0,0,0,0-.64c-1.07-1.7-2.2-3.39-3.37-5.17l2.71-4.33c1.18,1.78,2.31,3.47,3.38,5.17A.67.67,0,0,1,13.85,138Z"/></clipPath><clipPath id="clip-path-13" transform="translate(-0.08)"><path class="cls-1" d="M47.75,155.51,45,159.83a.35.35,0,0,1-.2.15l-.23.05A36,36,0,0,1,31,159.22l2.72-4.33a36.19,36.19,0,0,0,13.65.82,1.09,1.09,0,0,0,.23-.06A.38.38,0,0,0,47.75,155.51Z"/></clipPath><clipPath id="clip-path-14" transform="translate(-0.08)"><path class="cls-1" d="M33.67,154.89,31,159.22a1.53,1.53,0,0,1-.23-.14l2.72-4.33A1.53,1.53,0,0,0,33.67,154.89Z"/></clipPath><clipPath id="clip-path-15" transform="translate(-0.08)"><path class="cls-1" d="M8.68,144.91l2.72-4.32a.64.64,0,0,0,.11.73,43.4,43.4,0,0,0,10.6,8.81,1.45,1.45,0,0,0,1.2.15.93.93,0,0,0,.33-.21c.72-.73,1.44-1.45,2.14-2.2a.72.72,0,0,1,.29-.22c.27-.1.61,0,1.3.41a15.74,15.74,0,0,0,3.73,1.52c1.2.32,1.47.55,1.58,1.23.22,1.33.5,2.66.76,3.94l-2.72,4.33c-.26-1.29-.54-2.61-.76-3.94-.11-.68-.37-.92-1.57-1.23a15.64,15.64,0,0,1-3.74-1.52c-.69-.38-1-.51-1.3-.41a.8.8,0,0,0-.29.22c-.7.75-1.42,1.47-2.14,2.2a.93.93,0,0,1-.33.21,1.45,1.45,0,0,1-1.2-.15,43.4,43.4,0,0,1-10.6-8.81A.67.67,0,0,1,8.68,144.91Z"/></clipPath></defs><g id="Capa_2" data-name="Capa 2"><g id="Capa_29" data-name="Capa 29"><circle class="cls-2" cx="75.35" cy="71.5" r="71.5"/><polygon class="cls-3" points="24.29 59.05 80.86 58.77 74.48 32.41 126.35 71.24 74.86 110.59 80.98 84.17 24.41 84.45 24.29 59.05"/><g class="cls-4"><g class="cls-4"><g class="cls-5"><g class="cls-4"><path class="cls-6" d="M58.47,114.19l-2.72,4.33a1.84,1.84,0,0,1-.17.22c-.51.53-1,1.06-1.56,1.58L56.74,116c.54-.51,1-1,1.56-1.58a1.84,1.84,0,0,0,.17-.22" transform="translate(-0.08)"/></g></g></g><g class="cls-4"><g class="cls-7"><g class="cls-4"><path class="cls-6" d="M56.74,116,54,120.32a.58.58,0,0,0-.1.12l2.72-4.33.1-.12" transform="translate(-0.08)"/></g></g></g><g class="cls-4"><g class="cls-8"><g class="cls-4"><path class="cls-6" d="M23.32,103.23l-2.72,4.32a.72.72,0,0,0,.09-.46c-.14-.82-.3-1.65-.46-2.49a1.61,1.61,0,0,1,.2-1.2l2.72-4.33a1.61,1.61,0,0,0-.2,1.2c.16.84.32,1.67.46,2.49a.77.77,0,0,1-.09.47" transform="translate(-0.08)"/></g></g></g><g class="cls-4"><g class="cls-9"><g class="cls-4"><path class="cls-6" d="M67.55,135.11l-2.72,4.33a.37.37,0,0,1-.12.13l2.72-4.33a.3.3,0,0,0,.12-.13" transform="translate(-0.08)"/><path class="cls-10" d="M67.43,135.24l-2.72,4.33-.1.06a1.23,1.23,0,0,1-.4,0c-1.35-.11-2.69-.19-4-.21a.57.57,0,0,0-.26,0,.77.77,0,0,0-.18.1l2.71-4.33.18-.09a.65.65,0,0,1,.27,0c1.33,0,2.67.1,4,.21a.85.85,0,0,0,.4,0,.53.53,0,0,0,.1-.06" transform="translate(-0.08)"/><path class="cls-6" d="M62.46,135.26l-2.71,4.33a.52.52,0,0,0-.18.18l2.72-4.33a.58.58,0,0,1,.17-.18" transform="translate(-0.08)"/></g></g></g><g class="cls-4"><g class="cls-11"><g class="cls-4"><path class="cls-6" d="M51.51,136.66,48.79,141c3.75-7.76-1.83-18.16-11.59-22.41l-.46-.2,2.72-4.33.45.2c9.77,4.25,15.35,14.65,11.6,22.41" transform="translate(-0.08)"/><path class="cls-10" d="M39.46,114.05l-2.72,4.33a18.83,18.83,0,0,0-13.64-.69,12.69,12.69,0,0,0-2.92,1.54l2.72-4.33a13.09,13.09,0,0,1,2.92-1.54,18.94,18.94,0,0,1,13.64.69" transform="translate(-0.08)"/><path class="cls-6" d="M22.9,114.9l-2.72,4.33a11,11,0,0,0-3,3.15l2.72-4.33a11.08,11.08,0,0,1,3-3.15" transform="translate(-0.08)"/></g></g></g><g class="cls-4"><g class="cls-12"><g class="cls-4"><path class="cls-6" d="M51,137.67,48.23,142a10.73,10.73,0,0,0,.56-1l2.72-4.33a10.91,10.91,0,0,1-.56,1" transform="translate(-0.08)"/></g></g></g><g class="cls-4"><g class="cls-13"><g class="cls-4"><path class="cls-6" d="M8.16,118.72l-2.72,4.33a.41.41,0,0,0,0-.09c.45-1.47.85-2.95,1.22-4.45a.72.72,0,0,0-.27-.67l-3.31-2.78a1,1,0,0,1-.32-1.23l2.72-4.32a1,1,0,0,0,.32,1.22l3.31,2.78a.73.73,0,0,1,.27.67c-.37,1.5-.77,3-1.22,4.45l-.05.09" transform="translate(-0.08)"/></g></g></g><g class="cls-4"><g class="cls-14"><g class="cls-4"><path class="cls-6" d="M64.83,144.41l-2.72,4.33c-1.15,1.83-5.15,6.65-6.82,7.85L58,152.26c1.66-1.2,5.67-6,6.82-7.85" transform="translate(-0.08)"/><path class="cls-10" d="M58,152.26l-2.72,4.33a2.11,2.11,0,0,1-.41.24l2.72-4.33a1.7,1.7,0,0,0,.41-.24" transform="translate(-0.08)"/></g></g></g><g class="cls-4"><g class="cls-15"><g class="cls-4"><path class="cls-10" d="M57.6,152.5l-2.72,4.33a1,1,0,0,1-.39-.1l2.72-4.33a1,1,0,0,0,.39.1" transform="translate(-0.08)"/><path class="cls-6" d="M57.21,152.4l-2.72,4.33a24.08,24.08,0,0,1-4.17-3,1.49,1.49,0,0,0-.4-.26l2.72-4.33a1.49,1.49,0,0,1,.4.26,23.71,23.71,0,0,0,4.17,3" transform="translate(-0.08)"/><path class="cls-10" d="M52.64,149.16l-2.72,4.33a.94.94,0,0,0-.75,0l-.36.13c-1.33.5-2.69,1-4.07,1.39l2.72-4.33c1.38-.42,2.74-.89,4.07-1.38l.36-.14a.94.94,0,0,1,.75,0" transform="translate(-0.08)"/></g></g></g><g class="cls-4"><g class="cls-16"><g class="cls-4"><path class="cls-10" d="M47.46,150.72l-2.72,4.33a.76.76,0,0,0-.18.09l2.72-4.33.18-.09" transform="translate(-0.08)"/><path class="cls-6" d="M47.28,150.81l-2.72,4.33a.65.65,0,0,0-.16.17L47.12,151a.85.85,0,0,1,.16-.17" transform="translate(-0.08)"/></g></g></g><polygon class="cls-17" points="10.43 132.14 7.71 136.47 3.55 136.23 6.27 131.91 10.43 132.14"/><g class="cls-4"><g class="cls-18"><g class="cls-4"><path class="cls-10" d="M6.35,131.91l-2.72,4.32a1.2,1.2,0,0,1-.48-.11l2.72-4.32a1.6,1.6,0,0,0,.48.11" transform="translate(-0.08)"/><path class="cls-6" d="M5.87,131.8l-2.72,4.32a1.54,1.54,0,0,1-.86-.84c-.29-.74-.57-1.47-.81-2.2A27,27,0,0,1,.1,123.67a.69.69,0,0,1,.08-.36L2.9,119a.7.7,0,0,0-.08.37,27,27,0,0,0,1.38,9.4c.24.74.52,1.46.81,2.2a1.56,1.56,0,0,0,.86.85" transform="translate(-0.08)"/></g></g></g><g class="cls-4"><g class="cls-19"><g class="cls-4"><path class="cls-6" d="M13.85,138l-2.72,4.33a.67.67,0,0,0,0-.64c-1.07-1.7-2.2-3.39-3.37-5.17l2.71-4.33c1.18,1.78,2.31,3.47,3.38,5.17a.67.67,0,0,1,0,.64" transform="translate(-0.08)"/></g></g></g><g class="cls-4"><g class="cls-20"><g class="cls-4"><path class="cls-6" d="M47.75,155.51,45,159.83a.2.2,0,0,1-.09.09l2.72-4.32.09-.09" transform="translate(-0.08)"/><path class="cls-10" d="M47.66,155.6l-2.72,4.32a.24.24,0,0,1-.11.06l-.23.05A36,36,0,0,1,31,159.22l2.72-4.33a36.19,36.19,0,0,0,13.65.82,1.09,1.09,0,0,0,.23-.06l.11-.05" transform="translate(-0.08)"/></g></g></g><g class="cls-4"><g class="cls-21"><g class="cls-4"><path class="cls-10" d="M33.67,154.89,31,159.22h0l2.72-4.33h0" transform="translate(-0.08)"/><path class="cls-6" d="M33.65,154.88l-2.72,4.33a1.2,1.2,0,0,1-.21-.13l2.72-4.33a1.2,1.2,0,0,0,.21.13" transform="translate(-0.08)"/></g></g></g><g class="cls-4"><g class="cls-22"><g class="cls-4"><path class="cls-6" d="M33.44,154.75l-2.72,4.33c-.26-1.29-.54-2.61-.76-3.94a1.09,1.09,0,0,0-.8-1l2.72-4.33a1.1,1.1,0,0,1,.8,1c.22,1.33.5,2.66.76,3.94" transform="translate(-0.08)"/><path class="cls-10" d="M31.88,149.83l-2.72,4.33a5.84,5.84,0,0,0-.77-.25,14.26,14.26,0,0,1-1.88-.62L29.23,149a14.62,14.62,0,0,0,1.87.62,7.32,7.32,0,0,1,.78.25" transform="translate(-0.08)"/><path class="cls-6" d="M29.23,149l-2.72,4.33a19.86,19.86,0,0,1-1.86-.9c-.26-.15-.48-.25-.65-.33l2.71-4.33q.27.12.66.33a19.86,19.86,0,0,0,1.86.9" transform="translate(-0.08)"/><path class="cls-10" d="M26.71,147.73,24,152.06a.93.93,0,0,0-.65-.08.5.5,0,0,0-.14.08l2.72-4.33.14-.08a.9.9,0,0,1,.64.08" transform="translate(-0.08)"/><path class="cls-6" d="M25.93,147.73l-2.72,4.33a.64.64,0,0,0-.15.14c-.7.75-1.42,1.47-2.14,2.2a.87.87,0,0,1-.11.09l2.72-4.32.11-.1c.72-.73,1.44-1.45,2.14-2.2a1,1,0,0,1,.15-.14" transform="translate(-0.08)"/><path class="cls-10" d="M23.53,150.17l-2.72,4.32a.94.94,0,0,1-.22.12,1.4,1.4,0,0,1-1-.05l2.72-4.32a1.39,1.39,0,0,0,1,0l.22-.11" transform="translate(-0.08)"/><path class="cls-6" d="M22.33,150.24l-2.72,4.32-.22-.1a43.4,43.4,0,0,1-10.6-8.81.67.67,0,0,1-.11-.74l2.72-4.32a.64.64,0,0,0,.11.73,43.4,43.4,0,0,0,10.6,8.81l.22.11" transform="translate(-0.08)"/></g></g></g><path class="cls-23" d="M63.11,122.17a3.27,3.27,0,0,1,2.75,2,24.57,24.57,0,0,1,1.45,5.58,23,23,0,0,1,.42,4.62c0,.57-.15.85-.4,1a.85.85,0,0,1-.4,0c-1.35-.11-2.69-.19-4-.21a.65.65,0,0,0-.27,0,.7.7,0,0,0-.4.37c-.43,1.43-.81,2.87-1.16,4.33a.92.92,0,0,0,.3.81c1.08.94,3.7,2.54,3.76,3.08S59.08,152,57.6,152.5c-.72,0-3.32-2-4.56-3.08a1,1,0,0,0-1.15-.22l-.36.14c-1.33.49-2.69,1-4.07,1.38a.6.6,0,0,0-.41.72c.28,1.2.46,2.4.72,3.6.07.33,0,.52-.22.61a1.09,1.09,0,0,1-.23.06,36.19,36.19,0,0,1-13.65-.82,1.53,1.53,0,0,1-.23-.14c-.26-1.28-.54-2.61-.76-3.94-.11-.68-.38-.91-1.58-1.23a15.74,15.74,0,0,1-3.73-1.52c-.69-.37-1-.51-1.3-.41a.72.72,0,0,0-.29.22c-.7.75-1.42,1.47-2.14,2.2a.93.93,0,0,1-.33.21,1.45,1.45,0,0,1-1.2-.15,43.4,43.4,0,0,1-10.6-8.81.63.63,0,0,1-.08-.78c.76-.87,1.61-1.68,2.38-2.53a.68.68,0,0,0,.08-.7c-1.07-1.7-2.2-3.39-3.38-5.17l-4.16-.23A1.58,1.58,0,0,1,5,131c-.29-.74-.57-1.46-.81-2.2a27,27,0,0,1-1.38-9.4c0-.28.07-.44.25-.51a1.12,1.12,0,0,1,.44,0c1.36.11,2.73.18,4.08.21a1.09,1.09,0,0,0,.25,0,.64.64,0,0,0,.37-.35c.45-1.47.85-2.95,1.22-4.45a.73.73,0,0,0-.27-.67l-3.31-2.78a1,1,0,0,1-.3-1.25c.69-1,1.35-2,2.11-3a19.21,19.21,0,0,1,4.38-4,1.76,1.76,0,0,1,.39-.19,3,3,0,0,1,2.88.62L17.87,105c1.82-.57,3.59-1.12,5.32-1.7.16-.06.25-.37.22-.58-.14-.82-.3-1.65-.46-2.49a1.58,1.58,0,0,1,1-1.86,2,2,0,0,1,.56-.13,35,35,0,0,1,10.2.52,3.36,3.36,0,0,1,2.66,2.43c.14.73.28,1.46.4,2.18s.42.86,1.49,1.12a13.55,13.55,0,0,1,3.24,1.27c1,.53,1.51.76,1.93.61a1.17,1.17,0,0,0,.46-.37,24,24,0,0,1,2.18-2.22.44.44,0,0,1,.16-.1.9.9,0,0,1,.66,0,43.84,43.84,0,0,1,10.17,8,2,2,0,0,1,.21,2.61c-.51.53-1,1.07-1.56,1.58a.83.83,0,0,0,0,1.08c.94,1.39,1.84,2.8,2.68,4.23a1.19,1.19,0,0,0,1.16.74C61.4,122.07,62.25,122.12,63.11,122.17Zm-11.6,14.49c3.75-7.76-1.83-18.16-11.6-22.41-5-2.19-10.11-2.38-14.09-.89a11.4,11.4,0,0,0-7.07,7.17c-2.6,7.95,3.87,18.06,14.24,21.62a18,18,0,0,0,12.09.13,11.32,11.32,0,0,0,6.43-5.62" transform="translate(-0.08)"/></g></g></g></svg>