<svg xmlns="http://www.w3.org/2000/svg" xmlns:xlink="http://www.w3.org/1999/xlink" viewBox="0 0 144.41 159.28"><defs><style>.cls-1{fill:none;}.cls-2{fill:#f20000;}.cls-3{fill:#fff;}.cls-4{isolation:isolate;}.cls-5{clip-path:url(#clip-path);}.cls-6{fill:#1c69e9;}.cls-7{clip-path:url(#clip-path-2);}.cls-8{clip-path:url(#clip-path-3);}.cls-9{clip-path:url(#clip-path-4);}.cls-10{fill:#1d6cea;}.cls-11{clip-path:url(#clip-path-5);}.cls-12{clip-path:url(#clip-path-6);}.cls-13{clip-path:url(#clip-path-7);}.cls-14{clip-path:url(#clip-path-8);}.cls-15{clip-path:url(#clip-path-9);}.cls-16{clip-path:url(#clip-path-10);}.cls-17{clip-path:url(#clip-path-11);}.cls-18{clip-path:url(#clip-path-12);}.cls-19{clip-path:url(#clip-path-13);}.cls-20{fill:#1f71eb;}.cls-21{clip-path:url(#clip-path-14);}.cls-22{clip-path:url(#clip-path-15);}.cls-23{clip-path:url(#clip-path-16);}.cls-24{clip-path:url(#clip-path-17);}.cls-25{clip-path:url(#clip-path-18);}.cls-26{clip-path:url(#clip-path-19);}.cls-27{clip-path:url(#clip-path-20);}.cls-28{fill:#35acfe;}</style><clipPath id="clip-path" transform="translate(-0.08)"><path class="cls-1" d="M58.47,113.13l-2.72,4.33a1.73,1.73,0,0,1-.17.21q-.77.81-1.56,1.59a.69.69,0,0,0-.11.13l2.72-4.33a.69.69,0,0,1,.11-.13q.8-.78,1.56-1.59A1.2,1.2,0,0,0,58.47,113.13Z"/></clipPath><clipPath id="clip-path-2" transform="translate(-0.08)"><path class="cls-1" d="M20.42,102.34,23.14,98A1.64,1.64,0,0,0,23,99.2c.16.85.31,1.67.46,2.5L20.69,106c-.15-.83-.3-1.66-.46-2.5A1.64,1.64,0,0,1,20.42,102.34Z"/></clipPath><clipPath id="clip-path-3" transform="translate(-0.08)"><path class="cls-1" d="M23.32,102.16l-2.72,4.32a.65.65,0,0,0,.09-.45l2.72-4.33A.75.75,0,0,1,23.32,102.16Z"/></clipPath><clipPath id="clip-path-4" transform="translate(-0.08)"><path class="cls-1" d="M67.55,134.05l-2.72,4.33a.41.41,0,0,1-.23.18.92.92,0,0,1-.39,0l2.72-4.33a.8.8,0,0,0,.39,0A.48.48,0,0,0,67.55,134.05Z"/></clipPath><clipPath id="clip-path-5" transform="translate(-0.08)"><path class="cls-1" d="M59.58,138.7l2.71-4.33a.74.74,0,0,1,.35-.27.86.86,0,0,1,.27,0c1.33,0,2.67.1,4,.22l-2.72,4.33c-1.35-.12-2.69-.19-4-.22a.86.86,0,0,0-.27.05A.62.62,0,0,0,59.58,138.7Z"/></clipPath><clipPath id="clip-path-6" transform="translate(-0.08)"><path class="cls-1" d="M17.19,121.31,19.91,117a11.65,11.65,0,0,1,5.91-4.69c4-1.49,9-1.31,14.1.89,9.77,4.24,15.34,14.65,11.58,22.41l-2.72,4.33c3.76-7.77-1.81-18.17-11.58-22.41-5.05-2.2-10.12-2.39-14.1-.9A11.75,11.75,0,0,0,17.19,121.31Z"/></clipPath><clipPath id="clip-path-7" transform="translate(-0.08)"><path class="cls-1" d="M51,136.6l-2.72,4.33c.2-.32.38-.66.55-1l2.72-4.33A10.66,10.66,0,0,1,51,136.6Z"/></clipPath><clipPath id="clip-path-8" transform="translate(-0.08)"><path class="cls-1" d="M2.81,112.77l2.72-4.33a1,1,0,0,0,.32,1.22L3.13,114A1,1,0,0,1,2.81,112.77Z"/></clipPath><clipPath id="clip-path-9" transform="translate(-0.08)"><path class="cls-1" d="M9.16,112.44l-2.72,4.33c-.87-.73-2.41-2-3.31-2.78l2.72-4.33C6.75,110.43,8.28,111.71,9.16,112.44Z"/></clipPath><clipPath id="clip-path-10" transform="translate(-0.08)"><path class="cls-1" d="M8.15,117.66,5.44,122a.3.3,0,0,0,0-.1c.45-1.46.85-3,1.24-4.45a.74.74,0,0,0-.28-.67l2.72-4.33a.75.75,0,0,1,.28.67c-.39,1.5-.79,3-1.24,4.45A.19.19,0,0,1,8.15,117.66Z"/></clipPath><clipPath id="clip-path-11" transform="translate(-0.08)"><path class="cls-1" d="M64.82,143.35l-2.72,4.33c-1.25,2-6,7.61-7.22,8.08l2.72-4.33C58.86,151,63.56,145.35,64.82,143.35Z"/></clipPath><clipPath id="clip-path-12" transform="translate(-0.08)"><path class="cls-1" d="M57.6,151.43l-2.72,4.33c-.72,0-3.33-2-4.56-3.07a1,1,0,0,0-1.15-.23l-.36.14c-1.33.5-2.69,1-4.07,1.39l2.72-4.33c1.38-.43,2.74-.89,4.07-1.39l.36-.13a1,1,0,0,1,1.15.22C54.27,149.41,56.88,151.46,57.6,151.43Z"/></clipPath><clipPath id="clip-path-13" transform="translate(-0.08)"><path class="cls-1" d="M44.4,154.25l2.72-4.33a.71.71,0,0,1,.34-.26L44.74,154A.71.71,0,0,0,44.4,154.25Z"/></clipPath><clipPath id="clip-path-14" transform="translate(-0.08)"><path class="cls-1" d="M.18,122.24l2.72-4.33a.75.75,0,0,0-.08.37,27.3,27.3,0,0,0,1.37,9.41c.25.73.53,1.46.81,2.19a1.59,1.59,0,0,0,1.35,1l-2.72,4.33a1.59,1.59,0,0,1-1.35-1c-.28-.74-.56-1.46-.81-2.19A27.3,27.3,0,0,1,.1,122.61.75.75,0,0,1,.18,122.24Z"/></clipPath><clipPath id="clip-path-15" transform="translate(-0.08)"><path class="cls-1" d="M13.89,136.25l-2.72,4.33c-1.07-1.7-2.2-3.39-3.38-5.17l2.72-4.33C11.69,132.86,12.81,134.55,13.89,136.25Z"/></clipPath><clipPath id="clip-path-16" transform="translate(-0.08)"><path class="cls-1" d="M13.86,136.88l-2.72,4.32a.63.63,0,0,0,0-.62l2.72-4.33A.67.67,0,0,1,13.86,136.88Z"/></clipPath><clipPath id="clip-path-17" transform="translate(-0.08)"><path class="cls-1" d="M47.75,154.45,45,158.77a.41.41,0,0,1-.2.15l-.23.05A36.19,36.19,0,0,1,31,158.15l2.72-4.33a36,36,0,0,0,13.65.82l.23,0A.4.4,0,0,0,47.75,154.45Z"/></clipPath><clipPath id="clip-path-18" transform="translate(-0.08)"><path class="cls-1" d="M33.44,153.69,30.72,158c-.25-1.29-.54-2.62-.76-4-.12-.67-.38-.91-1.57-1.22a15.92,15.92,0,0,1-3.74-1.53c-.69-.37-1-.5-1.3-.4a.91.91,0,0,0-.3.21l2.72-4.33a.82.82,0,0,1,.3-.21c.27-.1.61,0,1.3.4a15.92,15.92,0,0,0,3.74,1.53c1.19.31,1.45.55,1.57,1.22C32.9,151.07,33.19,152.4,33.44,153.69Z"/></clipPath><clipPath id="clip-path-19" transform="translate(-0.08)"><path class="cls-1" d="M33.67,153.82,31,158.15c-.06,0-.11-.06-.23-.13l2.72-4.33C33.56,153.76,33.61,153.81,33.67,153.82Z"/></clipPath><clipPath id="clip-path-20" transform="translate(-0.08)"><path class="cls-1" d="M8.67,143.85l2.72-4.33a.67.67,0,0,0,.12.74,43,43,0,0,0,10.6,8.8,1.41,1.41,0,0,0,1.2.15.75.75,0,0,0,.32-.21c.73-.73,1.45-1.45,2.14-2.2l-2.72,4.33c-.69.75-1.41,1.47-2.14,2.2a.75.75,0,0,1-.32.21,1.41,1.41,0,0,1-1.2-.15,43,43,0,0,1-10.6-8.81A.66.66,0,0,1,8.67,143.85Z"/></clipPath></defs><g id="Capa_2" data-name="Capa 2"><g id="Capa_26" data-name="Capa 26"><circle class="cls-2" cx="72.91" cy="71.5" r="71.5"/><polygon class="cls-3" points="21.85 59.05 78.42 58.77 72.04 32.41 123.91 71.24 72.43 110.59 78.55 84.17 21.98 84.45 21.85 59.05"/><g class="cls-4"><g class="cls-4"><g class="cls-5"><g class="cls-4"><path class="cls-6" d="M58.47,113.13l-2.72,4.33a1.73,1.73,0,0,1-.17.21q-.77.81-1.56,1.59a.69.69,0,0,0-.11.13l2.72-4.33a.69.69,0,0,1,.11-.13q.8-.78,1.56-1.59a1.2,1.2,0,0,0,.17-.21" transform="translate(-0.08)"/></g></g></g><g class="cls-4"><g class="cls-7"><g class="cls-4"><path class="cls-6" d="M23.41,101.7,20.69,106c-.15-.83-.3-1.66-.46-2.5a1.64,1.64,0,0,1,.19-1.19L23.14,98A1.64,1.64,0,0,0,23,99.2c.16.85.31,1.67.46,2.5" transform="translate(-0.08)"/></g></g></g><g class="cls-4"><g class="cls-8"><g class="cls-4"><path class="cls-6" d="M23.32,102.16l-2.72,4.32a.65.65,0,0,0,.09-.45l2.72-4.33a.75.75,0,0,1-.09.46" transform="translate(-0.08)"/></g></g></g><g class="cls-4"><g class="cls-9"><g class="cls-4"><path class="cls-6" d="M67.55,134.05l-2.72,4.33a.53.53,0,0,1-.13.13l2.72-4.33a.53.53,0,0,0,.13-.13" transform="translate(-0.08)"/><path class="cls-10" d="M67.42,134.18l-2.72,4.33a.31.31,0,0,1-.1.05.92.92,0,0,1-.39,0l2.72-4.33a.8.8,0,0,0,.39,0l.1-.06" transform="translate(-0.08)"/></g></g></g><g class="cls-4"><g class="cls-11"><g class="cls-4"><path class="cls-10" d="M66.93,134.27l-2.72,4.33c-1.35-.12-2.69-.19-4-.22a.86.86,0,0,0-.27.05.76.76,0,0,0-.18.09l2.72-4.33.18-.09a.86.86,0,0,1,.27,0c1.33,0,2.67.1,4,.22" transform="translate(-0.08)"/><path class="cls-6" d="M62.46,134.19l-2.72,4.33a.55.55,0,0,0-.16.18l2.71-4.33a.73.73,0,0,1,.17-.18" transform="translate(-0.08)"/></g></g></g><g class="cls-4"><g class="cls-12"><g class="cls-4"><path class="cls-6" d="M51.5,135.6l-2.72,4.33c3.76-7.77-1.81-18.17-11.58-22.41l-.47-.2L39.45,113l.47.2c9.77,4.24,15.34,14.65,11.58,22.41" transform="translate(-0.08)"/><path class="cls-10" d="M39.45,113l-2.72,4.33a18.86,18.86,0,0,0-13.63-.7,13,13,0,0,0-2.93,1.55l2.72-4.33a12.58,12.58,0,0,1,2.93-1.54,18.81,18.81,0,0,1,13.63.69" transform="translate(-0.08)"/><path class="cls-6" d="M22.89,113.84l-2.72,4.33a11.15,11.15,0,0,0-3,3.14L19.91,117a11.05,11.05,0,0,1,3-3.15" transform="translate(-0.08)"/></g></g></g><g class="cls-4"><g class="cls-13"><g class="cls-4"><path class="cls-6" d="M51,136.6l-2.72,4.33c.2-.32.38-.66.55-1l2.72-4.33a10.66,10.66,0,0,1-.55,1" transform="translate(-0.08)"/></g></g></g><g class="cls-4"><g class="cls-14"><g class="cls-4"><path class="cls-6" d="M5.85,109.66,3.13,114a1,1,0,0,1-.32-1.22l2.72-4.33a1,1,0,0,0,.32,1.22" transform="translate(-0.08)"/></g></g></g><g class="cls-4"><g class="cls-15"><g class="cls-4"><path class="cls-6" d="M9.16,112.44l-2.72,4.33c-.87-.73-2.41-2-3.31-2.78l2.72-4.33c.9.77,2.43,2,3.31,2.78" transform="translate(-0.08)"/></g></g></g><g class="cls-4"><g class="cls-16"><g class="cls-4"><path class="cls-6" d="M8.15,117.66,5.44,122a.3.3,0,0,0,0-.1c.45-1.46.85-3,1.24-4.45a.74.74,0,0,0-.28-.67l2.72-4.33a.75.75,0,0,1,.28.67c-.39,1.5-.79,3-1.24,4.45a.19.19,0,0,1,0,.1" transform="translate(-0.08)"/></g></g></g><g class="cls-4"><g class="cls-17"><g class="cls-4"><path class="cls-6" d="M64.82,143.35l-2.72,4.33c-1.14,1.82-5.15,6.64-6.81,7.84L58,151.19c1.66-1.2,5.67-6,6.81-7.84" transform="translate(-0.08)"/><path class="cls-10" d="M58,151.19l-2.72,4.33a1.7,1.7,0,0,1-.41.24l2.72-4.33a1.7,1.7,0,0,0,.41-.24" transform="translate(-0.08)"/></g></g></g><g class="cls-4"><g class="cls-18"><g class="cls-4"><path class="cls-10" d="M57.6,151.43l-2.72,4.33a.86.86,0,0,1-.39-.1l2.71-4.32a1,1,0,0,0,.4.09" transform="translate(-0.08)"/><path class="cls-6" d="M57.2,151.34l-2.71,4.32a22.77,22.77,0,0,1-4.17-3,1.44,1.44,0,0,0-.41-.27l2.72-4.32a1.38,1.38,0,0,1,.41.26,23.66,23.66,0,0,0,4.16,3" transform="translate(-0.08)"/><path class="cls-10" d="M52.63,148.1l-2.72,4.32a1,1,0,0,0-.74,0l-.36.14c-1.33.5-2.69,1-4.07,1.39l2.72-4.33c1.38-.43,2.74-.89,4.07-1.39l.36-.13a.92.92,0,0,1,.74,0" transform="translate(-0.08)"/></g></g></g><g class="cls-4"><g class="cls-19"><g class="cls-4"><path class="cls-10" d="M47.46,149.66,44.74,154a.76.76,0,0,0-.18.09l2.72-4.32a.77.77,0,0,1,.18-.1" transform="translate(-0.08)"/><path class="cls-6" d="M47.28,149.76l-2.72,4.32a.64.64,0,0,0-.16.17l2.72-4.33a.49.49,0,0,1,.16-.16" transform="translate(-0.08)"/></g></g></g><polygon class="cls-20" points="10.43 131.08 7.71 135.41 3.54 135.17 6.26 130.84 10.43 131.08"/><g class="cls-4"><g class="cls-21"><g class="cls-4"><path class="cls-10" d="M6.35,130.84l-2.72,4.33a1.67,1.67,0,0,1-.48-.11l2.72-4.33a1.6,1.6,0,0,0,.48.11" transform="translate(-0.08)"/><path class="cls-6" d="M5.87,130.73l-2.72,4.33a1.61,1.61,0,0,1-.87-.85c-.28-.74-.56-1.46-.81-2.19A27.3,27.3,0,0,1,.1,122.61a.75.75,0,0,1,.08-.37l2.72-4.33a.75.75,0,0,0-.08.37,27.3,27.3,0,0,0,1.37,9.41c.25.73.53,1.46.81,2.19a1.58,1.58,0,0,0,.87.85" transform="translate(-0.08)"/></g></g></g><g class="cls-4"><g class="cls-22"><g class="cls-4"><path class="cls-6" d="M13.89,136.25l-2.72,4.33c-1.07-1.7-2.2-3.39-3.38-5.17l2.72-4.33c1.18,1.78,2.3,3.47,3.38,5.17" transform="translate(-0.08)"/></g></g></g><g class="cls-4"><g class="cls-23"><g class="cls-4"><path class="cls-6" d="M13.86,136.88l-2.72,4.32a.63.63,0,0,0,0-.62l2.72-4.33a.67.67,0,0,1,0,.63" transform="translate(-0.08)"/></g></g></g><g class="cls-4"><g class="cls-24"><g class="cls-4"><path class="cls-6" d="M47.75,154.45,45,158.77a.2.2,0,0,1-.09.09l2.72-4.33a.24.24,0,0,0,.09-.08" transform="translate(-0.08)"/><path class="cls-10" d="M47.66,154.53l-2.72,4.33-.11.06-.23.05A36.19,36.19,0,0,1,31,158.15l2.72-4.33a36,36,0,0,0,13.65.82l.23,0,.11-.06" transform="translate(-0.08)"/></g></g></g><g class="cls-4"><g class="cls-25"><g class="cls-4"><path class="cls-6" d="M33.44,153.69,30.72,158c-.25-1.29-.54-2.62-.76-4a1.11,1.11,0,0,0-.8-1l2.72-4.33a1.12,1.12,0,0,1,.8,1c.22,1.33.51,2.66.76,3.95" transform="translate(-0.08)"/><path class="cls-10" d="M31.88,148.76l-2.72,4.33a6,6,0,0,0-.77-.24,14.82,14.82,0,0,1-1.88-.63l2.72-4.33a13.39,13.39,0,0,0,1.88.63c.32.09.57.16.77.24" transform="translate(-0.08)"/><path class="cls-6" d="M29.23,147.89l-2.72,4.33a15.93,15.93,0,0,1-1.86-.9c-.26-.14-.48-.25-.65-.32l2.72-4.33.65.32a15.93,15.93,0,0,0,1.86.9" transform="translate(-0.08)"/><path class="cls-10" d="M26.72,146.67,24,151a.88.88,0,0,0-.65-.08.39.39,0,0,0-.14.08l2.71-4.33.15-.08a.93.93,0,0,1,.65.08" transform="translate(-0.08)"/><path class="cls-6" d="M25.92,146.67,23.21,151a.65.65,0,0,0-.16.13l2.72-4.33.15-.13" transform="translate(-0.08)"/></g></g></g><g class="cls-4"><g class="cls-26"><g class="cls-4"><path class="cls-10" d="M33.67,153.82,31,158.15h0l2.72-4.32h0" transform="translate(-0.08)"/><path class="cls-6" d="M33.65,153.82l-2.72,4.32-.21-.12,2.72-4.33a1.76,1.76,0,0,0,.21.13" transform="translate(-0.08)"/></g></g></g><g class="cls-4"><g class="cls-27"><g class="cls-4"><path class="cls-6" d="M25.77,146.8l-2.72,4.33c-.69.75-1.41,1.47-2.14,2.2a.52.52,0,0,1-.11.1l2.72-4.33a.52.52,0,0,0,.11-.1c.73-.73,1.45-1.45,2.14-2.2" transform="translate(-0.08)"/><path class="cls-10" d="M23.52,149.1l-2.72,4.33a.84.84,0,0,1-.21.11,1.34,1.34,0,0,1-1,0l2.72-4.33a1.34,1.34,0,0,0,1,0,.61.61,0,0,0,.21-.11" transform="translate(-0.08)"/><path class="cls-6" d="M22.33,149.17l-2.72,4.33-.22-.11a43,43,0,0,1-10.6-8.81.66.66,0,0,1-.12-.73l2.72-4.33a.67.67,0,0,0,.12.74,43,43,0,0,0,10.6,8.8l.22.11" transform="translate(-0.08)"/></g></g></g><path class="cls-28" d="M63.11,121.1a3.26,3.26,0,0,1,2.75,2,24.68,24.68,0,0,1,1.46,5.59,21.49,21.49,0,0,1,.4,4.62c0,.57-.14.85-.4,1a.8.8,0,0,1-.39,0c-1.35-.12-2.69-.19-4-.22a.86.86,0,0,0-.27,0,.62.62,0,0,0-.39.37c-.44,1.43-.82,2.88-1.17,4.34a.94.94,0,0,0,.3.81c1.08.94,3.7,2.54,3.75,3.07s-6.06,8.19-7.53,8.74c-.72,0-3.33-2-4.56-3.07a1,1,0,0,0-1.15-.22l-.36.13c-1.33.5-2.69,1-4.07,1.39a.58.58,0,0,0-.4.71c.26,1.21.45,2.41.71,3.61.06.32,0,.51-.22.61l-.23,0a36,36,0,0,1-13.65-.82c-.06,0-.11-.06-.23-.13-.25-1.29-.54-2.62-.76-3.95-.12-.67-.38-.91-1.57-1.22A15.92,15.92,0,0,1,27.37,147c-.69-.37-1-.5-1.3-.4a.82.82,0,0,0-.3.21c-.69.75-1.41,1.47-2.14,2.2a.75.75,0,0,1-.32.21,1.41,1.41,0,0,1-1.2-.15,43,43,0,0,1-10.6-8.8.63.63,0,0,1-.08-.79c.76-.87,1.6-1.67,2.38-2.53a.64.64,0,0,0,.08-.69c-1.08-1.7-2.2-3.39-3.38-5.17l-4.16-.24a1.59,1.59,0,0,1-1.35-1c-.28-.73-.56-1.46-.81-2.19a27.3,27.3,0,0,1-1.37-9.41c0-.28.07-.44.25-.5a1,1,0,0,1,.43,0c1.37.1,2.73.18,4.08.2a.63.63,0,0,0,.62-.39c.45-1.46.85-3,1.24-4.45a.75.75,0,0,0-.28-.67c-.88-.73-2.41-2-3.31-2.78a1,1,0,0,1-.3-1.25c.69-1,1.36-2,2.11-3a19.42,19.42,0,0,1,4.38-4,3,3,0,0,1,.4-.2,3.05,3.05,0,0,1,2.87.62L17.87,104c1.83-.58,3.59-1.12,5.32-1.7a.57.57,0,0,0,.22-.58c-.15-.83-.3-1.65-.46-2.5a1.57,1.57,0,0,1,1-1.86,2.33,2.33,0,0,1,.55-.12,35.12,35.12,0,0,1,10.21.51,3.37,3.37,0,0,1,2.65,2.44c.14.72.28,1.45.41,2.17s.41.86,1.47,1.13a13.33,13.33,0,0,1,3.25,1.26c1,.54,1.51.77,1.94.61a1.14,1.14,0,0,0,.46-.36,22.79,22.79,0,0,1,2.17-2.23.42.42,0,0,1,.16-.09.82.82,0,0,1,.65,0,43.17,43.17,0,0,1,10.17,8,2,2,0,0,1,.22,2.6q-.77.81-1.56,1.59a.81.81,0,0,0,0,1.07c.95,1.39,1.84,2.8,2.69,4.23a1.21,1.21,0,0,0,1.15.75ZM51.5,135.6c3.76-7.76-1.81-18.17-11.58-22.41-5.05-2.2-10.12-2.38-14.1-.89a11.38,11.38,0,0,0-7.07,7.17c-2.6,8,3.87,18.06,14.24,21.63a18.09,18.09,0,0,0,12.08.13,11.41,11.41,0,0,0,6.43-5.63" transform="translate(-0.08)"/></g></g></g></svg>