<svg xmlns="http://www.w3.org/2000/svg" viewBox="0 0 134.08 134.08"><defs><style>.cls-1{fill:#d2d2d2;stroke-width:2px;}.cls-1,.cls-2{stroke:#000;stroke-miterlimit:10;}.cls-2{fill:#f9f937;}</style></defs><g id="Capa_2" data-name="Capa 2"><g id="Capa_22" data-name="Capa 22"><polygon class="cls-1" points="133.08 37.69 96.39 37.69 96.39 1 37.69 1 37.69 37.69 1 37.69 1 96.39 37.69 96.39 37.69 133.08 96.39 133.08 96.39 96.39 133.08 96.39 133.08 37.69"/><rect class="cls-2" x="16.19" y="63.03" width="16.28" height="8.03"/><rect class="cls-2" x="37.54" y="63.03" width="16.28" height="8.03"/><rect class="cls-2" x="80.25" y="63.03" width="16.28" height="8.03"/><rect class="cls-2" x="101.61" y="63.03" width="16.28" height="8.03"/><rect class="cls-2" x="122.96" y="63.03" width="9.6" height="8.03"/><rect class="cls-2" x="1.51" y="63.03" width="9.61" height="8.03"/><rect class="cls-2" x="58.9" y="105.73" width="16.28" height="8.03" transform="translate(-42.7 176.78) rotate(-90)"/><rect class="cls-2" x="58.9" y="84.37" width="16.28" height="8.03" transform="translate(-21.35 155.43) rotate(-90)"/><polygon class="cls-2" points="75.18 63.02 71.05 63.02 71.05 58.89 63.02 58.89 63.02 63.02 58.9 63.02 58.9 71.05 63.02 71.05 63.02 75.17 71.05 75.17 71.05 71.05 75.18 71.05 75.18 63.02"/><rect class="cls-2" x="58.9" y="41.67" width="16.28" height="8.03" transform="translate(21.36 112.72) rotate(-90)"/><rect class="cls-2" x="58.9" y="20.31" width="16.28" height="8.03" transform="translate(42.71 91.36) rotate(-90)"/><rect class="cls-2" x="62.24" y="2.3" width="9.6" height="8.03" transform="translate(60.72 73.35) rotate(-90)"/><rect class="cls-2" x="62.23" y="123.74" width="9.61" height="8.03" transform="translate(-60.72 194.8) rotate(-90)"/><path d="M14.29,90a.7.7,0,0,1,.34-.86c.86-.47,1.72-1,2.6-1.37a18.85,18.85,0,0,1,4.48-1.48,1.69,1.69,0,0,1,1.9,1l.75,1.93c1.41.06,2.76.14,4.11.18a.55.55,0,0,0,.38-.31c.26-.56.51-1.11.76-1.69a1.6,1.6,0,0,1,1.86-.88,21.5,21.5,0,0,1,6.29,2.75,1.73,1.73,0,0,1,.66,2.16q-.33.75-.66,1.47c-.2.42-.1.64.46,1.06a6.75,6.75,0,0,1,1.54,1.57c.55.79.8,1,1.42.72s1.54-.62,2.33-.89a.52.52,0,0,1,.54.16A21.17,21.17,0,0,1,47.13,103a1.59,1.59,0,0,1-1,1.69c-.55.22-1.1.43-1.66.63A.71.71,0,0,0,44,106c0,1.1,0,2.2-.08,3.3,0,.4,0,.6.42.75l1.58.68a1.66,1.66,0,0,1,.91,1.91,17.85,17.85,0,0,1-1.44,3.87,18.13,18.13,0,0,1-1.69,3c-.38.5-.59.6-.92.43-.81-.39-1.64-.75-2.47-1.09a.65.65,0,0,0-.6.11q-1.32,1.2-2.58,2.46A.64.64,0,0,0,37,122c.29.85,1.28,2.48,1.09,2.83s-7.9,4-8.61,3.72c-.36-.14-1.16-2-1.5-3-.12-.34-.29-.41-.63-.41-1.16,0-2.32,0-3.47-.09a.57.57,0,0,0-.56.36c-.34.82-.73,1.63-1.08,2.45-.11.27-.24.38-.56.31a21.73,21.73,0,0,1-8.36-3.75s0-.06-.09-.14c.39-.87.77-1.78,1.19-2.67.21-.46.15-.67-.49-1.14a8.22,8.22,0,0,1-1.73-1.85c-.39-.56-.55-.66-.94-.5L9,119a.83.83,0,0,1-1-.32,21.11,21.11,0,0,1-3-8.07.52.52,0,0,1,.29-.52c.85-.37,1.72-.68,2.58-1a.68.68,0,0,0,.35-.42c0-1.33,0-2.67,0-4.07l-2.55-1.14a.78.78,0,0,1-.45-.92c.13-.53.25-1.06.41-1.58a21.29,21.29,0,0,1,3.1-6.26.44.44,0,0,1,.67-.18c.82.39,1.66.76,2.51,1.1a.6.6,0,0,0,.56-.1c.9-.82,1.79-1.66,2.66-2.52a.52.52,0,0,0,.12-.49C15,91.84,14.54,90.67,14.29,90Zm6.12,23.92a8.24,8.24,0,1,0,.06-12.29A8.22,8.22,0,0,0,20.41,113.89Z"/><path d="M45.14,72.61a.54.54,0,0,1,.21-.66c.62-.39,1.24-.79,1.88-1.14A13.48,13.48,0,0,1,50.5,69.5a1.26,1.26,0,0,1,1.47.68l.65,1.4c1.05,0,2.06,0,3.07,0a.44.44,0,0,0,.27-.25c.17-.43.33-.86.49-1.3a1.19,1.19,0,0,1,1.35-.74A15.77,15.77,0,0,1,62.62,71a1.3,1.3,0,0,1,.59,1.58l-.42,1.13c-.13.33,0,.49.39.77a4.93,4.93,0,0,1,1.22,1.1c.45.56.65.71,1.1.47a17.16,17.16,0,0,1,1.69-.77.4.4,0,0,1,.42.09,15.78,15.78,0,0,1,2.64,5.44,1.18,1.18,0,0,1-.64,1.31c-.4.19-.8.38-1.21.55a.54.54,0,0,0-.32.53c.06.82.1,1.64.1,2.47,0,.29.06.44.35.54s.8.28,1.21.43A1.24,1.24,0,0,1,70.51,88,13.58,13.58,0,0,1,69.62,91a13.88,13.88,0,0,1-1.12,2.33c-.26.39-.41.47-.67.37-.62-.26-1.26-.49-1.9-.7a.5.5,0,0,0-.44.11c-.62.64-1.22,1.29-1.81,2a.47.47,0,0,0-.08.44c.26.62,1.07,1.79.95,2.06s-5.71,3.36-6.26,3.19A7.44,7.44,0,0,1,57,98.54c-.11-.25-.24-.29-.5-.28-.86.06-1.72.09-2.59.1a.43.43,0,0,0-.4.29c-.22.63-.47,1.25-.69,1.88-.07.21-.16.3-.4.26a16.07,16.07,0,0,1-6.41-2.41s0,0-.08-.09c.25-.67.49-1.37.76-2.05.14-.35.08-.51-.41-.83a6.12,6.12,0,0,1-1.39-1.3c-.31-.4-.43-.46-.72-.33l-1.67.77a.62.62,0,0,1-.76-.2,15.7,15.7,0,0,1-2.64-5.88.38.38,0,0,1,.19-.4c.62-.31,1.26-.58,1.88-.89a.49.49,0,0,0,.24-.33c0-1-.11-2-.17-3l-2-.73a.6.6,0,0,1-.38-.67q.11-.6.24-1.2a16,16,0,0,1,2-4.82.32.32,0,0,1,.48-.16c.64.25,1.28.49,1.93.7a.44.44,0,0,0,.41-.1c.64-.66,1.26-1.33,1.87-2a.36.36,0,0,0,.07-.37C45.74,74,45.36,73.12,45.14,72.61Zm5.69,17.56A6.16,6.16,0,1,0,50.3,81,6.13,6.13,0,0,0,50.83,90.17Z"/></g></g></svg>