<svg xmlns="http://www.w3.org/2000/svg" viewBox="0 0 147.35 147.35"><defs><style>.cls-1{fill:#ffc200;}.cls-2{fill:#e0e0e0;}.cls-3{fill:#3f3f3f;}.cls-4{fill:#e0232a;stroke:#303032;}.cls-4,.cls-5,.cls-6{stroke-miterlimit:10;stroke-width:2px;}.cls-5{fill:#ffce00;stroke:#303031;}.cls-6{fill:#009928;stroke:#303030;}</style></defs><g id="Capa_2" data-name="Capa 2"><g id="Capa_25" data-name="Capa 25"><circle class="cls-1" cx="73.68" cy="74.63" r="71.21"/><path d="M147.35,74.63a73.66,73.66,0,0,1-73.67,72.72A73.3,73.3,0,0,1,22,126.29,73.74,73.74,0,0,1,45.16,5.79a73.68,73.68,0,0,1,57.07-.08,74.08,74.08,0,0,1,45.12,68.92Zm-4.92,0A68.78,68.78,0,0,0,25.5,26.45,68.81,68.81,0,0,0,47.05,138.93a68.67,68.67,0,0,0,53.29.08,69.13,69.13,0,0,0,42.09-64.38Z"/><circle class="cls-2" cx="73.68" cy="74.63" r="53.26"/><rect class="cls-3" x="49.73" y="32.22" width="47.9" height="84.82" rx="16.38"/><circle class="cls-4" cx="73.68" cy="52.7" r="9.38"/><circle class="cls-5" cx="73.68" cy="74.63" r="9.38"/><circle class="cls-6" cx="73.68" cy="96.56" r="9.38"/></g></g></svg>