<svg xmlns="http://www.w3.org/2000/svg" viewBox="0 0 137.6 139.85"><defs><style>.cls-1{fill:#d2d2d2;}.cls-1,.cls-2,.cls-3,.cls-4{stroke:#000;stroke-miterlimit:10;}.cls-1,.cls-3{stroke-width:2px;}.cls-2{fill:#f9f937;}.cls-3{fill:#d6d6d6;}.cls-4{fill:#f3fafe;}.cls-5{fill:#c10000;}</style></defs><g id="Capa_2" data-name="Capa 2"><g id="Capa_20" data-name="Capa 20"><polygon class="cls-1" points="136.6 37.69 99.91 37.69 99.91 1 41.21 1 41.21 37.69 4.52 37.69 4.52 96.39 41.21 96.39 41.21 133.08 99.91 133.08 99.91 96.39 136.6 96.39 136.6 37.69"/><rect class="cls-2" x="19.71" y="63.03" width="16.28" height="8.03"/><rect class="cls-2" x="41.07" y="63.03" width="16.28" height="8.03"/><rect class="cls-2" x="83.77" y="63.03" width="16.28" height="8.03"/><rect class="cls-2" x="105.13" y="63.03" width="16.28" height="8.03"/><rect class="cls-2" x="126.48" y="63.03" width="9.6" height="8.03"/><rect class="cls-2" x="5.03" y="63.03" width="9.61" height="8.03"/><rect class="cls-2" x="62.42" y="105.73" width="16.28" height="8.03" transform="translate(-39.18 180.3) rotate(-90)"/><rect class="cls-2" x="62.42" y="84.37" width="16.28" height="8.03" transform="translate(-17.83 158.95) rotate(-90)"/><polygon class="cls-2" points="78.7 63.02 74.57 63.02 74.57 58.89 66.55 58.89 66.55 63.02 62.42 63.02 62.42 71.05 66.55 71.05 66.55 75.17 74.57 75.17 74.57 71.05 78.7 71.05 78.7 63.02"/><rect class="cls-2" x="62.42" y="41.67" width="16.28" height="8.03" transform="translate(24.88 116.24) rotate(-90)"/><rect class="cls-2" x="62.42" y="20.31" width="16.28" height="8.03" transform="translate(46.23 94.89) rotate(-90)"/><rect class="cls-2" x="65.76" y="2.3" width="9.6" height="8.03" transform="translate(64.25 76.88) rotate(-90)"/><rect class="cls-2" x="65.76" y="123.74" width="9.61" height="8.03" transform="translate(-57.2 198.32) rotate(-90)"/><circle class="cls-3" cx="31.15" cy="108.7" r="30.15"/><circle class="cls-4" cx="31.15" cy="108.7" r="23.48"/><path d="M30.29,90.87a4.19,4.19,0,0,1,0-.71.88.88,0,0,1,.9-.83.84.84,0,0,1,.9.82,7.12,7.12,0,0,1,0,1.46.91.91,0,0,1-.93.87.94.94,0,0,1-.89-.91c0-.23,0-.47,0-.7Z"/><path d="M48.93,109.66a4.82,4.82,0,0,1-.76,0,.86.86,0,0,1-.78-.88.82.82,0,0,1,.75-.9,7.49,7.49,0,0,1,1.64,0,.83.83,0,0,1,.75.9.86.86,0,0,1-.78.88A5.61,5.61,0,0,1,48.93,109.66Z"/><path d="M13.32,109.57a5.45,5.45,0,0,1-.7,0,.88.88,0,0,1-.84-.89.87.87,0,0,1,.81-.91,10.3,10.3,0,0,1,1.47,0,.89.89,0,0,1,.87.91.93.93,0,0,1-.91.9c-.23,0-.46,0-.7,0Z"/><path d="M32,126.52a5.43,5.43,0,0,1,0,.7.85.85,0,0,1-.87.85.81.81,0,0,1-.92-.79,8.57,8.57,0,0,1,0-1.52.86.86,0,0,1,.9-.83.92.92,0,0,1,.91.89C32,126.05,32,126.29,32,126.52Z"/><path d="M31.15,95h0a.93.93,0,0,1,.93.93v12.73a0,0,0,0,1,0,0H30.22a0,0,0,0,1,0,0V95.9A.93.93,0,0,1,31.15,95Z"/><path d="M26.7,105.55h0a.93.93,0,0,1,.93.93v5.47a0,0,0,0,1,0,0H25.77a0,0,0,0,1,0,0v-5.47A.93.93,0,0,1,26.7,105.55Z" transform="translate(-82.05 135.45) rotate(-90)"/><path class="cls-5" d="M35.75,106.9h0a.93.93,0,0,1,.93.93v9a0,0,0,0,1,0,0H34.82a0,0,0,0,1,0,0v-9A.93.93,0,0,1,35.75,106.9Z" transform="translate(147.88 146.73) rotate(125)"/><circle cx="31.15" cy="108.7" r="2.24"/></g></g></svg>