<svg xmlns="http://www.w3.org/2000/svg" xmlns:xlink="http://www.w3.org/1999/xlink" viewBox="0 0 134.08 134.08"><defs><style>.cls-1{fill:none;}.cls-2{fill:#d2d2d2;stroke-width:2px;}.cls-2,.cls-3{stroke:#000;stroke-miterlimit:10;}.cls-3{fill:#f9f937;}.cls-4{isolation:isolate;}.cls-5{clip-path:url(#clip-path);}.cls-6{fill:#1c69e9;}.cls-7{clip-path:url(#clip-path-2);}.cls-8{clip-path:url(#clip-path-3);}.cls-9{fill:#1d6cea;}.cls-10{clip-path:url(#clip-path-4);}.cls-11{clip-path:url(#clip-path-5);}.cls-12{clip-path:url(#clip-path-6);}.cls-13{clip-path:url(#clip-path-7);}.cls-14{clip-path:url(#clip-path-8);}.cls-15{clip-path:url(#clip-path-9);}.cls-16{clip-path:url(#clip-path-10);}.cls-17{clip-path:url(#clip-path-11);}.cls-18{fill:#1f71eb;}.cls-19{clip-path:url(#clip-path-12);}.cls-20{clip-path:url(#clip-path-13);}.cls-21{clip-path:url(#clip-path-14);}.cls-22{clip-path:url(#clip-path-15);}.cls-23{clip-path:url(#clip-path-16);}.cls-24{clip-path:url(#clip-path-17);}.cls-25{fill:#35acfe;}</style><clipPath id="clip-path"><path class="cls-1" d="M56.77,88.87,54.05,93.2a1.56,1.56,0,0,1-.16.2c-.49.51-1,1-1.49,1.52a.58.58,0,0,0-.1.12L55,90.71l.1-.12c.52-.49,1-1,1.49-1.52A1.08,1.08,0,0,0,56.77,88.87Z"/></clipPath><clipPath id="clip-path-2"><path class="cls-1" d="M23.28,78.42l-2.72,4.33a.68.68,0,0,0,.09-.44c-.14-.78-.28-1.57-.44-2.37a1.54,1.54,0,0,1,.19-1.15l2.72-4.33a1.54,1.54,0,0,0-.19,1.15c.16.8.3,1.59.43,2.37A.62.62,0,0,1,23.28,78.42Z"/></clipPath><clipPath id="clip-path-3"><path class="cls-1" d="M65.42,108.81l-2.72,4.32a.37.37,0,0,1-.21.18.73.73,0,0,1-.37,0c-1.29-.11-2.57-.18-3.84-.2L61,108.81c1.27,0,2.55.09,3.83.2a.75.75,0,0,0,.38,0A.39.39,0,0,0,65.42,108.81Z"/></clipPath><clipPath id="clip-path-4"><path class="cls-1" d="M57.7,113.44l2.72-4.33a.75.75,0,0,1,.32-.26.78.78,0,0,1,.26,0l-2.72,4.33a.73.73,0,0,0-.25,0A.67.67,0,0,0,57.7,113.44Z"/></clipPath><clipPath id="clip-path-5"><path class="cls-1" d="M17.32,96.87,20,92.54a11.13,11.13,0,0,1,5.63-4.46c3.79-1.42,8.62-1.24,13.43.85,9.3,4,14.61,14,11,21.35l-2.72,4.33c3.58-7.4-1.73-17.31-11-21.35C31.57,91.17,26.74,91,23,92.41A11.13,11.13,0,0,0,17.32,96.87Z"/></clipPath><clipPath id="clip-path-6"><path class="cls-1" d="M49.6,111.24l-2.72,4.33c.19-.31.37-.63.53-1l2.72-4.33C50,110.61,49.79,110.93,49.6,111.24Z"/></clipPath><clipPath id="clip-path-7"><path class="cls-1" d="M8.83,93.2,6.11,97.52a.41.41,0,0,0,0-.09c.43-1.4.81-2.82,1.17-4.24a.7.7,0,0,0-.26-.64L3.92,89.9a.92.92,0,0,1-.31-1.16l2.72-4.33a.92.92,0,0,0,.31,1.16c.86.74,2.32,2,3.15,2.65a.71.71,0,0,1,.26.65c-.36,1.42-.74,2.83-1.18,4.23A.42.42,0,0,1,8.83,93.2Z"/></clipPath><clipPath id="clip-path-8"><path class="cls-1" d="M62.83,117.66,60.11,122c-1.18,1.89-5.67,7.25-6.88,7.71l2.71-4.33C57.16,124.92,61.64,119.55,62.83,117.66Z"/></clipPath><clipPath id="clip-path-9"><path class="cls-1" d="M1.11,97.76l2.72-4.32a.73.73,0,0,0-.09.34L1,98.11A.81.81,0,0,1,1.11,97.76Z"/></clipPath><clipPath id="clip-path-10"><path class="cls-1" d="M55.94,125.37l-2.71,4.33c-.69,0-3.17-1.92-4.36-2.93a.9.9,0,0,0-1.09-.21l-.34.13c-1.27.47-2.56.91-3.87,1.31l2.71-4.32c1.32-.41,2.61-.85,3.88-1.32l.34-.13a.9.9,0,0,1,1.09.21C52.78,123.45,55.26,125.39,55.94,125.37Z"/></clipPath><clipPath id="clip-path-11"><path class="cls-1" d="M43.24,128.25,46,123.93a.62.62,0,0,1,.32-.25L43.57,128A.72.72,0,0,0,43.24,128.25Z"/></clipPath><clipPath id="clip-path-12"><path class="cls-1" d="M7.11,105.75l-2.72,4.33a1.52,1.52,0,0,1-1.28-.91c-.27-.71-.54-1.4-.76-2.1a25.64,25.64,0,0,1-1.33-9l2.72-4.33a25.86,25.86,0,0,0,1.32,9c.23.7.5,1.39.77,2.1A1.52,1.52,0,0,0,7.11,105.75Z"/></clipPath><clipPath id="clip-path-13"><path class="cls-1" d="M14.3,110.91l-2.71,4.32c-1-1.62-2.12-3.23-3.23-4.93L11.07,106C12.19,107.67,13.27,109.28,14.3,110.91Z"/></clipPath><clipPath id="clip-path-14"><path class="cls-1" d="M14.26,111.51l-2.72,4.33a.66.66,0,0,0,.05-.61l2.71-4.32A.64.64,0,0,1,14.26,111.51Z"/></clipPath><clipPath id="clip-path-15"><path class="cls-1" d="M46.56,128.24l-2.72,4.32a.35.35,0,0,1-.19.14,1,1,0,0,1-.22.05,34.44,34.44,0,0,1-13-.77l2.72-4.33a34.44,34.44,0,0,0,13,.77.65.65,0,0,0,.22,0A.4.4,0,0,0,46.56,128.24Z"/></clipPath><clipPath id="clip-path-16"><path class="cls-1" d="M33.14,127.65,30.42,132a1.62,1.62,0,0,1-.22-.14l2.72-4.32Z"/></clipPath><clipPath id="clip-path-17"><path class="cls-1" d="M9.2,118.35,11.92,114a.63.63,0,0,0,.11.7,41.11,41.11,0,0,0,10.1,8.38,1.33,1.33,0,0,0,1.15.14,1,1,0,0,0,.31-.19c.68-.7,1.36-1.39,2-2.1a.85.85,0,0,1,.28-.21c.26-.09.58,0,1.24.39a15.62,15.62,0,0,0,3.56,1.46c1.14.29,1.39.51,1.5,1.17.21,1.25.48,2.52.72,3.75l-2.72,4.32c-.24-1.22-.51-2.49-.72-3.75-.11-.65-.36-.87-1.5-1.16a15.62,15.62,0,0,1-3.56-1.46c-.66-.36-1-.48-1.24-.39a1.13,1.13,0,0,0-.28.2c-.66.72-1.35,1.41-2,2.11a1,1,0,0,1-.31.19,1.37,1.37,0,0,1-1.15-.14,40.92,40.92,0,0,1-10.1-8.39A.62.62,0,0,1,9.2,118.35Z"/></clipPath></defs><g id="Capa_2" data-name="Capa 2"><g id="Capa_23" data-name="Capa 23"><polygon class="cls-2" points="133.08 37.69 96.39 37.69 96.39 1 37.69 1 37.69 37.69 1 37.69 1 96.39 37.69 96.39 37.69 133.08 96.39 133.08 96.39 96.39 133.08 96.39 133.08 37.69"/><rect class="cls-3" x="16.19" y="63.03" width="16.28" height="8.03"/><rect class="cls-3" x="37.54" y="63.03" width="16.28" height="8.03"/><rect class="cls-3" x="80.25" y="63.03" width="16.28" height="8.03"/><rect class="cls-3" x="101.61" y="63.03" width="16.28" height="8.03"/><rect class="cls-3" x="122.96" y="63.03" width="9.6" height="8.03"/><rect class="cls-3" x="1.51" y="63.03" width="9.61" height="8.03"/><rect class="cls-3" x="58.9" y="105.73" width="16.28" height="8.03" transform="translate(-42.7 176.78) rotate(-90)"/><rect class="cls-3" x="58.9" y="84.37" width="16.28" height="8.03" transform="translate(-21.35 155.43) rotate(-90)"/><polygon class="cls-3" points="75.18 63.02 71.05 63.02 71.05 58.89 63.02 58.89 63.02 63.02 58.9 63.02 58.9 71.05 63.02 71.05 63.02 75.17 71.05 75.17 71.05 71.05 75.18 71.05 75.18 63.02"/><rect class="cls-3" x="58.9" y="41.67" width="16.28" height="8.03" transform="translate(21.36 112.72) rotate(-90)"/><rect class="cls-3" x="58.9" y="20.31" width="16.28" height="8.03" transform="translate(42.71 91.36) rotate(-90)"/><rect class="cls-3" x="62.24" y="2.3" width="9.6" height="8.03" transform="translate(60.72 73.35) rotate(-90)"/><rect class="cls-3" x="62.23" y="123.74" width="9.61" height="8.03" transform="translate(-60.72 194.8) rotate(-90)"/><polygon class="cls-2" points="133.08 37.69 96.39 37.69 96.39 1 37.69 1 37.69 37.69 1 37.69 1 96.39 37.69 96.39 37.69 133.08 96.39 133.08 96.39 96.39 133.08 96.39 133.08 37.69"/><rect class="cls-3" x="16.19" y="63.03" width="16.28" height="8.03"/><rect class="cls-3" x="37.54" y="63.03" width="16.28" height="8.03"/><rect class="cls-3" x="80.25" y="63.03" width="16.28" height="8.03"/><rect class="cls-3" x="101.61" y="63.03" width="16.28" height="8.03"/><rect class="cls-3" x="122.96" y="63.03" width="9.6" height="8.03"/><rect class="cls-3" x="1.51" y="63.03" width="9.61" height="8.03"/><rect class="cls-3" x="58.9" y="105.73" width="16.28" height="8.03" transform="translate(-42.7 176.78) rotate(-90)"/><rect class="cls-3" x="58.9" y="84.37" width="16.28" height="8.03" transform="translate(-21.35 155.43) rotate(-90)"/><polygon class="cls-3" points="75.18 63.02 71.05 63.02 71.05 58.89 63.02 58.89 63.02 63.02 58.9 63.02 58.9 71.05 63.02 71.05 63.02 75.17 71.05 75.17 71.05 71.05 75.18 71.05 75.18 63.02"/><rect class="cls-3" x="58.9" y="41.67" width="16.28" height="8.03" transform="translate(21.36 112.72) rotate(-90)"/><rect class="cls-3" x="58.9" y="20.31" width="16.28" height="8.03" transform="translate(42.71 91.36) rotate(-90)"/><rect class="cls-3" x="62.24" y="2.3" width="9.6" height="8.03" transform="translate(60.72 73.35) rotate(-90)"/><rect class="cls-3" x="62.23" y="123.74" width="9.61" height="8.03" transform="translate(-60.72 194.8) rotate(-90)"/><g class="cls-4"><g class="cls-4"><g class="cls-5"><g class="cls-4"><path class="cls-6" d="M56.77,88.87,54.05,93.2a1.56,1.56,0,0,1-.16.2c-.49.51-1,1-1.49,1.52a.58.58,0,0,0-.1.12L55,90.71l.1-.12c.52-.49,1-1,1.49-1.52a1.08,1.08,0,0,0,.16-.2"/></g></g></g><g class="cls-4"><g class="cls-7"><g class="cls-4"><path class="cls-6" d="M23.28,78.42l-2.72,4.33a.68.68,0,0,0,.09-.44c-.14-.78-.28-1.57-.44-2.37a1.54,1.54,0,0,1,.19-1.15l2.72-4.33a1.54,1.54,0,0,0-.19,1.15c.16.8.3,1.59.43,2.37a.62.62,0,0,1-.08.44"/></g></g></g><g class="cls-4"><g class="cls-8"><g class="cls-4"><path class="cls-6" d="M65.42,108.81l-2.72,4.32a.36.36,0,0,1-.11.13l2.72-4.33a.43.43,0,0,0,.11-.12"/><path class="cls-9" d="M65.31,108.93l-2.72,4.33-.1,0a.73.73,0,0,1-.37,0c-1.29-.11-2.57-.18-3.84-.2L61,108.81c1.27,0,2.55.09,3.83.2a.75.75,0,0,0,.38,0l.1,0"/></g></g></g><g class="cls-4"><g class="cls-10"><g class="cls-4"><path class="cls-9" d="M61,108.81l-2.72,4.33a.73.73,0,0,0-.25,0,.56.56,0,0,0-.17.09l2.72-4.33.16-.09a.78.78,0,0,1,.26,0"/><path class="cls-6" d="M60.58,108.94l-2.72,4.33a.64.64,0,0,0-.16.17l2.72-4.33a.64.64,0,0,1,.16-.17"/></g></g></g><g class="cls-4"><g class="cls-11"><g class="cls-4"><path class="cls-6" d="M50.13,110.28l-2.72,4.33c3.58-7.4-1.73-17.31-11-21.35l-.44-.19,2.72-4.33.44.19c9.3,4,14.61,14,11,21.35"/><path class="cls-9" d="M38.66,88.74l-2.72,4.33a18,18,0,0,0-13-.66,12.15,12.15,0,0,0-2.79,1.47l2.72-4.33a12.15,12.15,0,0,1,2.79-1.47,18,18,0,0,1,13,.66"/><path class="cls-6" d="M22.88,89.55l-2.72,4.33a10.65,10.65,0,0,0-2.84,3L20,92.54a10.51,10.51,0,0,1,2.84-3"/></g></g></g><g class="cls-4"><g class="cls-12"><g class="cls-4"><path class="cls-6" d="M49.6,111.24l-2.72,4.33c.19-.31.37-.63.53-1l2.72-4.33c-.16.33-.34.65-.53,1"/></g></g></g><g class="cls-4"><g class="cls-13"><g class="cls-4"><path class="cls-6" d="M8.83,93.2,6.11,97.52a.41.41,0,0,0,0-.09c.43-1.4.81-2.82,1.17-4.24a.7.7,0,0,0-.26-.64L3.92,89.9a.92.92,0,0,1-.31-1.16l2.72-4.33a.92.92,0,0,0,.31,1.16c.86.74,2.32,2,3.15,2.65a.71.71,0,0,1,.26.65c-.36,1.42-.74,2.83-1.18,4.23a.42.42,0,0,1,0,.1"/></g></g></g><g class="cls-4"><g class="cls-14"><g class="cls-4"><path class="cls-6" d="M62.83,117.66,60.11,122a43.22,43.22,0,0,1-6.49,7.48l2.72-4.33a43.22,43.22,0,0,0,6.49-7.48"/><path class="cls-9" d="M56.34,125.14l-2.72,4.33a1.93,1.93,0,0,1-.39.23l2.71-4.33a2,2,0,0,0,.4-.23"/></g></g></g><g class="cls-4"><g class="cls-15"><g class="cls-4"><path class="cls-6" d="M3.74,93.78,1,98.11a.81.81,0,0,1,.09-.35l2.72-4.32a.73.73,0,0,0-.09.34"/></g></g></g><g class="cls-4"><g class="cls-16"><g class="cls-4"><path class="cls-9" d="M55.94,125.37l-2.71,4.33a.93.93,0,0,1-.38-.1l2.72-4.32a1.08,1.08,0,0,0,.37.09"/><path class="cls-6" d="M55.57,125.28l-2.72,4.32a22.84,22.84,0,0,1-4-2.83,1.23,1.23,0,0,0-.38-.25l2.72-4.33a1.45,1.45,0,0,1,.38.25,22.93,22.93,0,0,0,4,2.84"/><path class="cls-9" d="M51.21,122.19l-2.72,4.33a.85.85,0,0,0-.71,0l-.34.13c-1.27.47-2.56.91-3.87,1.31l2.71-4.32c1.32-.41,2.61-.85,3.88-1.32l.34-.13a.89.89,0,0,1,.71,0"/></g></g></g><g class="cls-4"><g class="cls-17"><g class="cls-4"><path class="cls-9" d="M46.28,123.68,43.57,128l-.18.09,2.72-4.32a.56.56,0,0,1,.17-.09"/><path class="cls-6" d="M46.11,123.77l-2.72,4.32a.75.75,0,0,0-.15.16L46,123.93a.57.57,0,0,1,.15-.16"/></g></g></g><polygon class="cls-18" points="11.07 105.97 8.36 110.3 4.39 110.08 7.11 105.75 11.07 105.97"/><g class="cls-4"><g class="cls-19"><g class="cls-4"><path class="cls-9" d="M7.11,105.75l-2.72,4.33a1.54,1.54,0,0,1-.46-.11l2.72-4.33a1.54,1.54,0,0,0,.46.11"/><path class="cls-6" d="M6.65,105.64,3.93,110a1.5,1.5,0,0,1-.82-.8c-.27-.71-.54-1.4-.76-2.1a25.64,25.64,0,0,1-1.33-9l2.72-4.33a25.86,25.86,0,0,0,1.32,9c.23.7.5,1.39.77,2.1a1.5,1.5,0,0,0,.82.8"/></g></g></g><g class="cls-4"><g class="cls-20"><g class="cls-4"><path class="cls-6" d="M14.3,110.91l-2.71,4.32c-1-1.62-2.12-3.23-3.23-4.93L11.07,106c1.12,1.69,2.2,3.3,3.23,4.93"/></g></g></g><g class="cls-4"><g class="cls-21"><g class="cls-4"><path class="cls-6" d="M14.26,111.51l-2.72,4.33a.66.66,0,0,0,.05-.61l2.71-4.32a.64.64,0,0,1,0,.6"/></g></g></g><g class="cls-4"><g class="cls-22"><g class="cls-4"><path class="cls-6" d="M46.56,128.24l-2.72,4.32a.34.34,0,0,1-.08.09l2.72-4.33a.3.3,0,0,0,.08-.08"/><path class="cls-9" d="M46.48,128.32l-2.72,4.33-.11,0a1,1,0,0,1-.22.05,34.44,34.44,0,0,1-13-.77l2.72-4.33a34.44,34.44,0,0,0,13,.77.65.65,0,0,0,.22,0l.11-.05"/></g></g></g><g class="cls-4"><g class="cls-23"><g class="cls-4"><path class="cls-9" d="M33.14,127.65,30.42,132h0l2.72-4.33h0"/><path class="cls-6" d="M33.12,127.64,30.4,132a1.94,1.94,0,0,1-.2-.13l2.72-4.32c.11.06.15.1.2.12"/></g></g></g><g class="cls-4"><g class="cls-24"><g class="cls-4"><path class="cls-6" d="M32.92,127.52l-2.72,4.32c-.24-1.22-.51-2.49-.72-3.75a1,1,0,0,0-.75-.93l2.72-4.33a1,1,0,0,1,.75.94c.21,1.25.48,2.52.72,3.75"/><path class="cls-9" d="M31.45,122.83l-2.72,4.33a4.87,4.87,0,0,0-.75-.23,14.9,14.9,0,0,1-1.78-.6L28.92,122a14.9,14.9,0,0,0,1.78.6,6.3,6.3,0,0,1,.75.23"/><path class="cls-6" d="M28.92,122l-2.72,4.33a18.17,18.17,0,0,1-1.78-.86c-.26-.14-.46-.24-.63-.31l2.72-4.33c.17.07.37.17.63.31a17.14,17.14,0,0,0,1.78.86"/><path class="cls-9" d="M26.51,120.83l-2.72,4.33a.83.83,0,0,0-.61-.08l-.13.07,2.72-4.32.13-.08a.88.88,0,0,1,.61.08"/><path class="cls-6" d="M25.77,120.83l-2.72,4.32-.15.13c-.66.72-1.35,1.41-2,2.11l-.11.08,2.72-4.33.11-.08c.68-.7,1.36-1.39,2-2.1a.58.58,0,0,1,.15-.13"/><path class="cls-9" d="M23.48,123.14l-2.72,4.33a.78.78,0,0,1-.2.11,1.36,1.36,0,0,1-.95,0l2.72-4.33a1.26,1.26,0,0,0,1,0,.56.56,0,0,0,.2-.11"/><path class="cls-6" d="M22.33,123.21l-2.72,4.33-.2-.1a40.92,40.92,0,0,1-10.1-8.39.62.62,0,0,1-.11-.7L11.92,114a.64.64,0,0,0,.11.71,41.11,41.11,0,0,0,10.1,8.38,1.24,1.24,0,0,0,.2.1"/></g></g></g><path class="cls-25" d="M61.2,96.47a3.11,3.11,0,0,1,2.61,1.89,23.36,23.36,0,0,1,1.39,5.32,21.42,21.42,0,0,1,.39,4.4c0,.55-.14.81-.38.9a.75.75,0,0,1-.38,0c-1.28-.11-2.56-.18-3.83-.2a.78.78,0,0,0-.26,0,.66.66,0,0,0-.37.36c-.41,1.36-.78,2.74-1.11,4.13a.87.87,0,0,0,.28.77c1,.9,3.53,2.42,3.58,2.94s-5.77,7.79-7.18,8.32c-.68,0-3.16-1.92-4.35-2.93a.9.9,0,0,0-1.09-.21l-.34.13c-1.27.47-2.56.91-3.88,1.32a.56.56,0,0,0-.38.68c.25,1.15.43,2.29.68,3.43.06.31,0,.49-.21.58a.65.65,0,0,1-.22,0,34.44,34.44,0,0,1-13-.77l-.22-.13c-.24-1.23-.51-2.5-.72-3.75-.11-.66-.36-.88-1.5-1.17a15.62,15.62,0,0,1-3.56-1.46c-.66-.36-1-.48-1.24-.39a.85.85,0,0,0-.28.21c-.67.71-1.35,1.4-2,2.1a1,1,0,0,1-.31.19,1.33,1.33,0,0,1-1.15-.14A41.11,41.11,0,0,1,12,114.73.61.61,0,0,1,12,114c.72-.83,1.53-1.59,2.26-2.41a.62.62,0,0,0,.08-.65c-1-1.63-2.11-3.24-3.23-4.93l-4-.23a1.52,1.52,0,0,1-1.28-.91c-.27-.71-.54-1.4-.77-2.1a25.86,25.86,0,0,1-1.32-9c0-.26.08-.41.26-.48a1,1,0,0,1,.4,0c1.3.11,2.61.18,3.89.2a.67.67,0,0,0,.24,0,.53.53,0,0,0,.34-.33c.44-1.4.82-2.81,1.18-4.23a.71.71,0,0,0-.26-.65c-.83-.7-2.29-1.91-3.15-2.65a.91.91,0,0,1-.29-1.19c.66-.95,1.29-1.92,2-2.82a17.83,17.83,0,0,1,4.17-3.79,1.62,1.62,0,0,1,.37-.19,2.91,2.91,0,0,1,2.75.59l2.43,2c1.74-.55,3.42-1.07,5.07-1.63.15-.06.24-.35.2-.55-.13-.78-.27-1.57-.43-2.37a1.5,1.5,0,0,1,1-1.77,1.86,1.86,0,0,1,.54-.13,33.86,33.86,0,0,1,9.72.5,3.2,3.2,0,0,1,2.53,2.31c.13.7.26,1.39.38,2.07s.39.83,1.41,1.08a12.69,12.69,0,0,1,3.09,1.2c.94.51,1.45.73,1.85.58a1.19,1.19,0,0,0,.44-.34A20.78,20.78,0,0,1,46,79a.56.56,0,0,1,.15-.1.86.86,0,0,1,.61,0,41.68,41.68,0,0,1,9.7,7.67,1.87,1.87,0,0,1,.2,2.47c-.49.52-1,1-1.49,1.52a.78.78,0,0,0,0,1q1.35,2,2.56,4a1.15,1.15,0,0,0,1.09.71ZM50.13,110.28c3.58-7.39-1.73-17.3-11-21.35-4.81-2.09-9.64-2.27-13.43-.85a10.84,10.84,0,0,0-6.74,6.83c-2.48,7.58,3.68,17.21,13.56,20.61a17.2,17.2,0,0,0,11.52.12,10.82,10.82,0,0,0,6.12-5.36"/></g></g></g></svg>