<svg xmlns="http://www.w3.org/2000/svg" viewBox="0 0 134.08 137.82"><defs><style>.cls-1{fill:#d2d2d2;stroke-width:2px;}.cls-1,.cls-2,.cls-3{stroke:#000;stroke-miterlimit:10;}.cls-2{fill:#f9f937;}</style></defs><g id="Capa_2" data-name="Capa 2"><g id="Capa_21" data-name="Capa 21"><polygon class="cls-1" points="133.08 37.69 96.39 37.69 96.39 1 37.69 1 37.69 37.69 1 37.69 1 96.39 37.69 96.39 37.69 133.08 96.39 133.08 96.39 96.39 133.08 96.39 133.08 37.69"/><rect class="cls-2" x="16.19" y="63.03" width="16.28" height="8.03"/><rect class="cls-2" x="37.54" y="63.03" width="16.28" height="8.03"/><rect class="cls-2" x="80.25" y="63.03" width="16.28" height="8.03"/><rect class="cls-2" x="101.61" y="63.03" width="16.28" height="8.03"/><rect class="cls-2" x="122.96" y="63.03" width="9.6" height="8.03"/><rect class="cls-2" x="1.51" y="63.03" width="9.61" height="8.03"/><rect class="cls-2" x="58.9" y="105.73" width="16.28" height="8.03" transform="translate(-42.7 176.78) rotate(-90)"/><rect class="cls-2" x="58.9" y="84.37" width="16.28" height="8.03" transform="translate(-21.35 155.43) rotate(-90)"/><polygon class="cls-2" points="75.18 63.02 71.05 63.02 71.05 58.89 63.02 58.89 63.02 63.02 58.9 63.02 58.9 71.05 63.02 71.05 63.02 75.17 71.05 75.17 71.05 71.05 75.18 71.05 75.18 63.02"/><rect class="cls-2" x="58.9" y="41.67" width="16.28" height="8.03" transform="translate(21.36 112.72) rotate(-90)"/><rect class="cls-2" x="58.9" y="20.31" width="16.28" height="8.03" transform="translate(42.71 91.36) rotate(-90)"/><rect class="cls-2" x="62.24" y="2.3" width="9.6" height="8.03" transform="translate(60.72 73.35) rotate(-90)"/><rect class="cls-2" x="62.23" y="123.74" width="9.61" height="8.03" transform="translate(-60.72 194.8) rotate(-90)"/><polygon class="cls-1" points="133.08 37.69 96.39 37.69 96.39 1 37.69 1 37.69 37.69 1 37.69 1 96.39 37.69 96.39 37.69 133.08 96.39 133.08 96.39 96.39 133.08 96.39 133.08 37.69"/><rect class="cls-2" x="16.19" y="63.03" width="16.28" height="8.03"/><rect class="cls-2" x="37.54" y="63.03" width="16.28" height="8.03"/><rect class="cls-2" x="80.25" y="63.03" width="16.28" height="8.03"/><rect class="cls-2" x="101.61" y="63.03" width="16.28" height="8.03"/><rect class="cls-2" x="122.96" y="63.03" width="9.6" height="8.03"/><rect class="cls-2" x="1.51" y="63.03" width="9.61" height="8.03"/><rect class="cls-2" x="58.9" y="105.73" width="16.28" height="8.03" transform="translate(-42.7 176.78) rotate(-90)"/><rect class="cls-2" x="58.9" y="84.37" width="16.28" height="8.03" transform="translate(-21.35 155.43) rotate(-90)"/><polygon class="cls-2" points="75.18 63.02 71.05 63.02 71.05 58.89 63.02 58.89 63.02 63.02 58.9 63.02 58.9 71.05 63.02 71.05 63.02 75.17 71.05 75.17 71.05 71.05 75.18 71.05 75.18 63.02"/><rect class="cls-2" x="58.9" y="41.67" width="16.28" height="8.03" transform="translate(21.36 112.72) rotate(-90)"/><rect class="cls-2" x="58.9" y="20.31" width="16.28" height="8.03" transform="translate(42.71 91.36) rotate(-90)"/><rect class="cls-2" x="62.24" y="2.3" width="9.6" height="8.03" transform="translate(60.72 73.35) rotate(-90)"/><rect class="cls-2" x="62.23" y="123.74" width="9.61" height="8.03" transform="translate(-60.72 194.8) rotate(-90)"/><path class="cls-3" d="M58.21,100.8c-1.93-6-7-9-13.59-10.28-.37-.07-.8,0-1.16-.45.56-.13,1-.24,1.46-.33a16.87,16.87,0,0,0,7.43-3.35c6.13-5.09,5.2-13.28-1.9-17.57C46.09,66.18,41.23,65.54,36,66c-8.46.81-14.39,4.31-16.21,11.59-1.15,4.59-.07,43.75-.67,58.67-.06,1.33,7.94,1.39,7.89.05-.16-5.19,0-14.93,0-15.43a28.43,28.43,0,0,0,12,2.38,20.68,20.68,0,0,0,11.74-3.73C57.48,115.17,60.33,107.36,58.21,100.8ZM32.09,118.16A19.63,19.63,0,0,1,28,117.09a1.26,1.26,0,0,1-1-1.35c0-5.67,0-11.34,0-17,0-.36,0-.72,0-1.08a1.52,1.52,0,0,1-.32-.06,1.52,1.52,0,0,0,.32.06c0-4.39,0-8.77.07-13.15a23.59,23.59,0,0,1,1.55-8.84c1-2.43,2.26-4,5.2-4.81,7.32-1.95,13.68.54,14.39,5.48a14,14,0,0,1-.08,4.83c-.85,4.11-3.83,6.52-8.6,7-.93.09-6.69.14-7.63.18a2.63,2.63,0,0,0-2.72,2.4A2.55,2.55,0,0,0,32,93.1c1.65,0,8.14,0,9.76.27,4.59.74,7.2,3.2,8.09,7.56A15.43,15.43,0,0,1,46,115.24C42.07,118.89,37.2,118.94,32.09,118.16Z"/></g></g></svg>