<svg xmlns="http://www.w3.org/2000/svg" xmlns:xlink="http://www.w3.org/1999/xlink" viewBox="0 0 157 157.4"><defs><style>.cls-1{fill:none;}.cls-2{fill:#f20000;}.cls-3{fill:#fff;}.cls-4{isolation:isolate;}.cls-5{clip-path:url(#clip-path);}.cls-6{fill:#1c69e9;}.cls-7{clip-path:url(#clip-path-2);}.cls-8{clip-path:url(#clip-path-3);}.cls-9{clip-path:url(#clip-path-4);}.cls-10{fill:#1d6cea;}.cls-11{clip-path:url(#clip-path-5);}.cls-12{clip-path:url(#clip-path-6);}.cls-13{clip-path:url(#clip-path-7);}.cls-14{clip-path:url(#clip-path-8);}.cls-15{clip-path:url(#clip-path-9);}.cls-16{clip-path:url(#clip-path-10);}.cls-17{fill:#1f71eb;}.cls-18{clip-path:url(#clip-path-11);}.cls-19{clip-path:url(#clip-path-12);}.cls-20{clip-path:url(#clip-path-13);}.cls-21{clip-path:url(#clip-path-14);}.cls-22{clip-path:url(#clip-path-15);}.cls-23{clip-path:url(#clip-path-16);}.cls-24{fill:#35acfe;}</style><clipPath id="clip-path" transform="translate(-0.09)"><path class="cls-1" d="M58.47,111.25l-2.72,4.33a1.73,1.73,0,0,1-.17.21c-.51.54-1,1.07-1.56,1.59a.64.64,0,0,0-.1.13l2.71-4.33a.69.69,0,0,1,.11-.13c.54-.52,1-1,1.56-1.59A1.2,1.2,0,0,0,58.47,111.25Z"/></clipPath><clipPath id="clip-path-2" transform="translate(-0.09)"><path class="cls-1" d="M20.42,100.46l2.72-4.33a1.66,1.66,0,0,0-.19,1.2c.16.85.32,1.67.47,2.49l-2.72,4.33c-.15-.82-.31-1.65-.47-2.49A1.66,1.66,0,0,1,20.42,100.46Z"/></clipPath><clipPath id="clip-path-3" transform="translate(-0.09)"><path class="cls-1" d="M23.32,100.28l-2.72,4.33a.76.76,0,0,0,.1-.46l2.72-4.33A.76.76,0,0,1,23.32,100.28Z"/></clipPath><clipPath id="clip-path-4" transform="translate(-0.09)"><path class="cls-1" d="M67.55,132.17l-2.72,4.33a.48.48,0,0,1-.23.19.94.94,0,0,1-.39,0c-1.34-.11-2.69-.19-4-.22a.86.86,0,0,0-.27.05.69.69,0,0,0-.34.26l2.72-4.33a.69.69,0,0,1,.34-.26.81.81,0,0,1,.27-.05c1.33,0,2.67.11,4,.22a.8.8,0,0,0,.39,0A.48.48,0,0,0,67.55,132.17Z"/></clipPath><clipPath id="clip-path-5" transform="translate(-0.09)"><path class="cls-1" d="M17.19,119.44l2.72-4.33a11.63,11.63,0,0,1,5.92-4.69c4-1.49,9-1.31,14.09.89,9.77,4.25,15.34,14.65,11.58,22.41l-2.72,4.33c3.76-7.76-1.81-18.16-11.58-22.41-5.05-2.2-10.12-2.38-14.09-.89A11.63,11.63,0,0,0,17.19,119.44Z"/></clipPath><clipPath id="clip-path-6" transform="translate(-0.09)"><path class="cls-1" d="M50.94,134.72l-2.72,4.33a8.84,8.84,0,0,0,.56-1l2.72-4.33A8.84,8.84,0,0,1,50.94,134.72Z"/></clipPath><clipPath id="clip-path-7" transform="translate(-0.09)"><path class="cls-1" d="M8.16,115.79l-2.72,4.33a.42.42,0,0,0,0-.1c.45-1.47.86-3,1.24-4.45a.75.75,0,0,0-.28-.68c-.88-.73-2.4-2-3.31-2.78a1,1,0,0,1-.32-1.23l2.72-4.32a1,1,0,0,0,.32,1.22c.91.78,2.43,2,3.31,2.78a.77.77,0,0,1,.28.68c-.38,1.49-.79,3-1.24,4.45A.3.3,0,0,1,8.16,115.79Z"/></clipPath><clipPath id="clip-path-8" transform="translate(-0.09)"><path class="cls-1" d="M64.84,141.46l-2.72,4.33c-1.25,2-6,7.61-7.23,8.09l2.71-4.33C58.88,149.07,63.59,143.44,64.84,141.46Z"/></clipPath><clipPath id="clip-path-9" transform="translate(-0.09)"><path class="cls-1" d="M57.6,149.55l-2.71,4.33c-.73,0-3.33-2-4.57-3.07a.94.94,0,0,0-1.1-.24c-1.5.57-3,1.08-4.48,1.54l2.72-4.33c1.5-.46,3-1,4.48-1.54a.93.93,0,0,1,1.09.24C54.28,147.54,56.88,149.58,57.6,149.55Z"/></clipPath><clipPath id="clip-path-10" transform="translate(-0.09)"><path class="cls-1" d="M44.41,152.37,47.13,148a.63.63,0,0,1,.33-.26l-2.72,4.33A.63.63,0,0,0,44.41,152.37Z"/></clipPath><clipPath id="clip-path-11" transform="translate(-0.09)"><path class="cls-1" d="M.19,120.37,2.9,116a.81.81,0,0,0-.08.37,26.56,26.56,0,0,0,1.38,9.4c.24.73.52,1.46.81,2.19a1.56,1.56,0,0,0,1.34,1l-2.72,4.33a1.56,1.56,0,0,1-1.34-1c-.29-.73-.57-1.46-.81-2.2a26.75,26.75,0,0,1-1.38-9.4A.68.68,0,0,1,.19,120.37Z"/></clipPath><clipPath id="clip-path-12" transform="translate(-0.09)"><path class="cls-1" d="M13.9,134.37l-2.72,4.33c-1.09-1.7-2.22-3.39-3.39-5.16l2.72-4.33C11.68,131,12.81,132.67,13.9,134.37Z"/></clipPath><clipPath id="clip-path-13" transform="translate(-0.09)"><path class="cls-1" d="M13.86,135l-2.72,4.33a.7.7,0,0,0,0-.63l2.72-4.33A.7.7,0,0,1,13.86,135Z"/></clipPath><clipPath id="clip-path-14" transform="translate(-0.09)"><path class="cls-1" d="M47.74,152.57,45,156.9a.34.34,0,0,1-.18.14,1.25,1.25,0,0,1-.24.05A36,36,0,0,1,31,156.27l2.72-4.33a36,36,0,0,0,13.65.82,1,1,0,0,0,.23,0A.36.36,0,0,0,47.74,152.57Z"/></clipPath><clipPath id="clip-path-15" transform="translate(-0.09)"><path class="cls-1" d="M33.67,151.94,31,156.27c-.06,0-.11-.06-.23-.13l2.72-4.32C33.56,151.88,33.61,151.94,33.67,151.94Z"/></clipPath><clipPath id="clip-path-16" transform="translate(-0.09)"><path class="cls-1" d="M8.68,142l2.72-4.33a.67.67,0,0,0,.11.75,42.82,42.82,0,0,0,10.61,8.8,1.39,1.39,0,0,0,1.19.15,1,1,0,0,0,.33-.21c.72-.73,1.44-1.46,2.14-2.2a.8.8,0,0,1,.29-.22c.27-.1.61,0,1.3.41a16.73,16.73,0,0,0,3.74,1.53c1.19.3,1.46.54,1.57,1.22.22,1.33.51,2.66.76,3.95l-2.72,4.32c-.25-1.28-.54-2.61-.76-3.94-.11-.68-.38-.92-1.57-1.23a16.24,16.24,0,0,1-3.74-1.52c-.69-.38-1-.51-1.3-.41a.8.8,0,0,0-.29.22c-.7.74-1.42,1.47-2.14,2.2a.93.93,0,0,1-.33.21,1.43,1.43,0,0,1-1.19-.15,43,43,0,0,1-10.61-8.81A.65.65,0,0,1,8.68,142Z"/></clipPath></defs><g id="Capa_2" data-name="Capa 2"><g id="Capa_41" data-name="Capa 41"><rect class="cls-2" x="25" width="132" height="132" rx="12.54"/><circle class="cls-3" cx="86.12" cy="24.13" r="9.9"/><path class="cls-3" d="M81.66,55.29l-5.94,7.93,0,0L58.41,66.64a5,5,0,0,1-5.93-4h0a5,5,0,0,1,4-5.93L70,54l9-12,1.69-2.77A6.36,6.36,0,0,1,85,36.34l11.64-2a5.29,5.29,0,0,1,2.53.19l21.4,7.08,8.53,14.76a5,5,0,0,1-1.84,6.88h0a5,5,0,0,1-6.89-1.84l-6.57-11.37L101.48,46l5.07,24.23a6.48,6.48,0,0,1-.49,4.07L105,76.6l4.88,17.46,13.79,13.24a5,5,0,0,1,.07,7.16h0a5,5,0,0,1-7,.05L101.45,99.63,96.37,82.45,84.08,93.71l-7,20.65a5,5,0,0,1-6.4,3.14h0a5,5,0,0,1-3.13-6.4L75.38,88,86.14,77.59Z" transform="translate(-0.09)"/><g class="cls-4"><g class="cls-4"><g class="cls-5"><g class="cls-4"><path class="cls-6" d="M58.47,111.25l-2.72,4.33a1.73,1.73,0,0,1-.17.21c-.51.54-1,1.07-1.56,1.59a.64.64,0,0,0-.1.13l2.71-4.33a.69.69,0,0,1,.11-.13c.54-.52,1-1,1.56-1.59a1.2,1.2,0,0,0,.17-.21" transform="translate(-0.09)"/></g></g></g><g class="cls-4"><g class="cls-7"><g class="cls-4"><path class="cls-6" d="M23.42,99.82l-2.72,4.33c-.15-.82-.31-1.65-.47-2.49a1.66,1.66,0,0,1,.19-1.2l2.72-4.33a1.66,1.66,0,0,0-.19,1.2c.16.85.32,1.67.47,2.49" transform="translate(-0.09)"/></g></g></g><g class="cls-4"><g class="cls-8"><g class="cls-4"><path class="cls-6" d="M23.32,100.28l-2.72,4.33a.76.76,0,0,0,.1-.46l2.72-4.33a.76.76,0,0,1-.1.46" transform="translate(-0.09)"/></g></g></g><g class="cls-4"><g class="cls-9"><g class="cls-4"><path class="cls-6" d="M67.55,132.17l-2.72,4.33a.5.5,0,0,1-.12.13l2.72-4.32a.55.55,0,0,0,.12-.14" transform="translate(-0.09)"/><path class="cls-10" d="M67.43,132.31l-2.72,4.32a.39.39,0,0,1-.11.06.94.94,0,0,1-.39,0c-1.34-.11-2.69-.19-4-.22a.86.86,0,0,0-.27.05.56.56,0,0,0-.17.09l2.72-4.33a.91.91,0,0,1,.17-.09.81.81,0,0,1,.27-.05c1.33,0,2.67.11,4,.22a.8.8,0,0,0,.39,0l.11-.05" transform="translate(-0.09)"/><path class="cls-6" d="M62.47,132.31l-2.72,4.33a.69.69,0,0,0-.17.17l2.72-4.33a.69.69,0,0,1,.17-.17" transform="translate(-0.09)"/></g></g></g><g class="cls-4"><g class="cls-11"><g class="cls-4"><path class="cls-6" d="M51.5,133.72l-2.72,4.33c3.76-7.76-1.81-18.16-11.58-22.41l-.47-.2,2.72-4.33.47.2c9.77,4.25,15.34,14.65,11.58,22.41" transform="translate(-0.09)"/><path class="cls-10" d="M39.45,111.11l-2.72,4.33a18.78,18.78,0,0,0-13.62-.69,12.19,12.19,0,0,0-2.93,1.54L22.9,112a12.56,12.56,0,0,1,2.93-1.54,18.78,18.78,0,0,1,13.62.69" transform="translate(-0.09)"/><path class="cls-6" d="M22.9,112l-2.72,4.33a11,11,0,0,0-3,3.15l2.72-4.33a11.08,11.08,0,0,1,3-3.15" transform="translate(-0.09)"/></g></g></g><g class="cls-4"><g class="cls-12"><g class="cls-4"><path class="cls-6" d="M50.94,134.72l-2.72,4.33a8.84,8.84,0,0,0,.56-1l2.72-4.33a8.84,8.84,0,0,1-.56,1" transform="translate(-0.09)"/></g></g></g><g class="cls-4"><g class="cls-13"><g class="cls-4"><path class="cls-6" d="M8.16,115.79l-2.72,4.33a.42.42,0,0,0,0-.1c.45-1.47.86-3,1.24-4.45a.75.75,0,0,0-.28-.68c-.88-.73-2.4-2-3.31-2.78a1,1,0,0,1-.32-1.23l2.72-4.32a1,1,0,0,0,.32,1.22c.91.78,2.43,2,3.31,2.78a.77.77,0,0,1,.28.68c-.38,1.49-.79,3-1.24,4.45a.3.3,0,0,1,0,.1" transform="translate(-0.09)"/></g></g></g><g class="cls-4"><g class="cls-14"><g class="cls-4"><path class="cls-6" d="M64.84,141.46l-2.72,4.33c-1.14,1.8-5.15,6.64-6.82,7.85L58,149.31c1.67-1.21,5.68-6,6.82-7.85" transform="translate(-0.09)"/><path class="cls-10" d="M58,149.31l-2.72,4.33a1.7,1.7,0,0,1-.41.24l2.71-4.33a1.56,1.56,0,0,0,.42-.24" transform="translate(-0.09)"/></g></g></g><g class="cls-4"><g class="cls-15"><g class="cls-4"><path class="cls-10" d="M57.6,149.55l-2.71,4.33a1.05,1.05,0,0,1-.4-.1l2.72-4.33a.89.89,0,0,0,.39.1" transform="translate(-0.09)"/><path class="cls-6" d="M57.21,149.45l-2.72,4.33a23.62,23.62,0,0,1-4.17-3,1.44,1.44,0,0,0-.41-.27l2.72-4.33a1.65,1.65,0,0,1,.4.27,24,24,0,0,0,4.18,3" transform="translate(-0.09)"/><path class="cls-10" d="M52.63,146.21l-2.72,4.33a.88.88,0,0,0-.69,0c-1.5.57-3,1.08-4.48,1.54l2.72-4.33c1.5-.46,3-1,4.48-1.54a.92.92,0,0,1,.69,0" transform="translate(-0.09)"/></g></g></g><g class="cls-4"><g class="cls-16"><g class="cls-4"><path class="cls-10" d="M47.46,147.78l-2.72,4.33-.18.09,2.72-4.32a.77.77,0,0,1,.18-.1" transform="translate(-0.09)"/><path class="cls-6" d="M47.28,147.88l-2.72,4.32a.49.49,0,0,0-.15.17L47.13,148a.38.38,0,0,1,.15-.16" transform="translate(-0.09)"/></g></g></g><polygon class="cls-17" points="10.43 129.21 7.71 133.54 3.54 133.29 6.26 128.96 10.43 129.21"/><g class="cls-4"><g class="cls-18"><g class="cls-4"><path class="cls-10" d="M6.35,129l-2.72,4.33a1.53,1.53,0,0,1-.48-.11l2.72-4.33a1.53,1.53,0,0,0,.48.11" transform="translate(-0.09)"/><path class="cls-6" d="M5.87,128.85l-2.72,4.33a1.53,1.53,0,0,1-.86-.85c-.29-.73-.57-1.46-.81-2.2a26.75,26.75,0,0,1-1.38-9.4.68.68,0,0,1,.09-.36L2.9,116a.81.81,0,0,0-.08.37,26.56,26.56,0,0,0,1.38,9.4c.24.73.52,1.46.81,2.19a1.53,1.53,0,0,0,.86.85" transform="translate(-0.09)"/></g></g></g><g class="cls-4"><g class="cls-19"><g class="cls-4"><path class="cls-6" d="M13.9,134.37l-2.72,4.33c-1.09-1.7-2.22-3.39-3.39-5.16l2.72-4.33c1.17,1.77,2.3,3.46,3.39,5.16" transform="translate(-0.09)"/></g></g></g><g class="cls-4"><g class="cls-20"><g class="cls-4"><path class="cls-6" d="M13.86,135l-2.72,4.33a.7.7,0,0,0,0-.63l2.72-4.33a.7.7,0,0,1,0,.63" transform="translate(-0.09)"/></g></g></g><g class="cls-4"><g class="cls-21"><g class="cls-4"><path class="cls-6" d="M47.74,152.57,45,156.9a.2.2,0,0,1-.08.08l2.72-4.33a.2.2,0,0,0,.08-.08" transform="translate(-0.09)"/><path class="cls-10" d="M47.66,152.65,44.94,157l-.1.06a1.25,1.25,0,0,1-.24.05A36,36,0,0,1,31,156.27l2.72-4.33a36,36,0,0,0,13.65.82,1,1,0,0,0,.23,0l.11-.06" transform="translate(-0.09)"/></g></g></g><g class="cls-4"><g class="cls-22"><g class="cls-4"><path class="cls-10" d="M33.67,151.94,31,156.27h0l2.72-4.33h0" transform="translate(-0.09)"/><path class="cls-6" d="M33.63,151.93l-2.72,4.33-.19-.12,2.72-4.32.19.11" transform="translate(-0.09)"/></g></g></g><g class="cls-4"><g class="cls-23"><g class="cls-4"><path class="cls-6" d="M33.44,151.82l-2.72,4.32c-.25-1.28-.54-2.61-.76-3.94a1.09,1.09,0,0,0-.8-1l2.72-4.33a1.09,1.09,0,0,1,.8,1c.22,1.33.51,2.66.76,3.95" transform="translate(-0.09)"/><path class="cls-10" d="M31.88,146.89l-2.72,4.33a5.84,5.84,0,0,0-.77-.25,13.26,13.26,0,0,1-1.9-.64L29.21,146a16.32,16.32,0,0,0,1.9.64,6,6,0,0,1,.77.24" transform="translate(-0.09)"/><path class="cls-6" d="M29.21,146l-2.72,4.32a16.31,16.31,0,0,1-1.84-.88,5.72,5.72,0,0,0-.66-.33l2.72-4.33.66.33a18.32,18.32,0,0,0,1.84.89" transform="translate(-0.09)"/><path class="cls-10" d="M26.71,144.79,24,149.12a.9.9,0,0,0-.64-.08l-.13.07,2.72-4.32.13-.08a.9.9,0,0,1,.64.08" transform="translate(-0.09)"/><path class="cls-6" d="M25.94,144.79l-2.72,4.32-.16.15c-.7.74-1.42,1.47-2.14,2.2l-.11.09,2.72-4.33a.44.44,0,0,0,.11-.09c.72-.73,1.44-1.46,2.14-2.2a.67.67,0,0,1,.16-.14" transform="translate(-0.09)"/><path class="cls-10" d="M23.53,147.22l-2.72,4.33a.94.94,0,0,1-.22.12,1.37,1.37,0,0,1-1,0l2.71-4.32a1.34,1.34,0,0,0,1,0,.94.94,0,0,0,.22-.12" transform="translate(-0.09)"/><path class="cls-6" d="M22.33,147.3l-2.71,4.32-.22-.1a43,43,0,0,1-10.61-8.81.65.65,0,0,1-.11-.74l2.72-4.33a.67.67,0,0,0,.11.75,42.82,42.82,0,0,0,10.61,8.8l.21.11" transform="translate(-0.09)"/></g></g></g><path class="cls-24" d="M63.11,119.23a3.24,3.24,0,0,1,2.75,2,25,25,0,0,1,1.46,5.58,22.83,22.83,0,0,1,.41,4.61c0,.58-.15.86-.41,1a.8.8,0,0,1-.39,0c-1.35-.11-2.69-.19-4-.22a.81.81,0,0,0-.27.05.61.61,0,0,0-.39.38c-.44,1.42-.83,2.87-1.17,4.33a.89.89,0,0,0,.3.8c1.09,1,3.7,2.55,3.76,3.09s-6,8.18-7.54,8.73c-.72,0-3.32-2-4.57-3.07a.93.93,0,0,0-1.09-.24c-1.5.57-3,1.08-4.48,1.54a.59.59,0,0,0-.4.72c.26,1.2.45,2.4.7,3.6.07.32,0,.51-.21.61a1,1,0,0,1-.23,0,36,36,0,0,1-13.65-.82c-.06,0-.11-.06-.23-.12-.25-1.29-.54-2.62-.76-3.95-.11-.68-.38-.92-1.57-1.22a16.73,16.73,0,0,1-3.74-1.53c-.69-.38-1-.51-1.3-.41a.8.8,0,0,0-.29.22c-.7.74-1.42,1.47-2.14,2.2a1,1,0,0,1-.33.21,1.39,1.39,0,0,1-1.19-.15,42.82,42.82,0,0,1-10.61-8.8.66.66,0,0,1-.08-.8c.77-.86,1.61-1.66,2.38-2.53a.69.69,0,0,0,.09-.69c-1.09-1.7-2.22-3.39-3.39-5.16L6.35,129A1.56,1.56,0,0,1,5,128c-.29-.73-.57-1.46-.81-2.19a26.56,26.56,0,0,1-1.38-9.4c0-.28.08-.44.26-.51a.93.93,0,0,1,.43,0c1.36.11,2.73.18,4.07.21a.75.75,0,0,0,.26,0,.59.59,0,0,0,.36-.35c.45-1.47.86-3,1.24-4.45a.77.77,0,0,0-.28-.68c-.88-.73-2.4-2-3.31-2.78a1,1,0,0,1-.3-1.25c.69-1,1.36-2,2.11-3a18.94,18.94,0,0,1,4.38-4,1.44,1.44,0,0,1,.39-.2,3.06,3.06,0,0,1,2.89.62l2.56,2.08c1.82-.57,3.58-1.12,5.31-1.7.17-.07.25-.38.23-.58-.15-.82-.31-1.64-.47-2.49a1.59,1.59,0,0,1,1-1.87,2.42,2.42,0,0,1,.56-.12,35.45,35.45,0,0,1,10.21.52,3.34,3.34,0,0,1,2.65,2.43c.15.73.28,1.45.4,2.18s.42.85,1.49,1.12a13.53,13.53,0,0,1,3.25,1.27c1,.53,1.51.76,1.93.6a1.18,1.18,0,0,0,.45-.35,22,22,0,0,1,2.19-2.23.62.62,0,0,1,.16-.1.87.87,0,0,1,.65,0,43.6,43.6,0,0,1,10.16,8,2,2,0,0,1,.22,2.6c-.51.54-1,1.07-1.56,1.59a.81.81,0,0,0,0,1.07c.94,1.39,1.84,2.81,2.68,4.23a1.24,1.24,0,0,0,1.16.76Q61.82,119.14,63.11,119.23ZM51.5,133.72c3.76-7.76-1.81-18.16-11.58-22.41-5.05-2.2-10.12-2.38-14.09-.89a11.37,11.37,0,0,0-7.08,7.17c-2.6,8,3.87,18.07,14.24,21.62a18,18,0,0,0,12.08.14,11.37,11.37,0,0,0,6.43-5.63" transform="translate(-0.09)"/></g></g></g></svg>