<svg xmlns="http://www.w3.org/2000/svg" viewBox="0 0 148.69 153.29"><defs><style>.cls-1{fill:#004ce5;}.cls-2{fill:#fff;}.cls-3{fill:#ffe97b;}.cls-4{fill:none;stroke:#000;stroke-miterlimit:10;stroke-width:2px;}</style></defs><g id="Capa_2" data-name="Capa 2"><g id="Capa_35" data-name="Capa 35"><rect class="cls-1" x="16.69" width="132" height="132" rx="12.54"/><circle class="cls-2" cx="77.81" cy="24.13" r="9.9"/><path class="cls-2" d="M73.27,55.29l-5.94,7.93-.06,0L50,66.64a5,5,0,0,1-5.93-4h0A5,5,0,0,1,48,56.76L61.62,54l9-12,1.7-2.77a6.34,6.34,0,0,1,4.32-2.93l11.64-2a5.34,5.34,0,0,1,2.54.19l21.39,7.08,8.53,14.76a5,5,0,0,1-1.84,6.88h0A5,5,0,0,1,112,61.43l-6.58-11.37L93.09,46l5.06,24.23a6.41,6.41,0,0,1-.48,4.07L96.58,76.6l4.88,17.46,13.79,13.24a5,5,0,0,1,.08,7.16h0a5,5,0,0,1-7.06.05L93.06,99.63,88,82.45,75.69,93.71l-7,20.65a5,5,0,0,1-6.4,3.14h0a5,5,0,0,1-3.14-6.4L67,88,77.75,77.59Z"/><path class="cls-3" d="M40,103.11c2.71-.83,5-.18,6.19,1.85,1.41,2.35.83,4.33-2.18,7.13a5,5,0,0,1,3.77-.32,4.6,4.6,0,0,1,2.73,2.33c1.15,2.26.83,3.82-2.07,6.54a4.31,4.31,0,0,1,3.76,0,4.68,4.68,0,0,1,1.85,7.4,6.64,6.64,0,0,1-.9.86L35.38,143.46c-2.1,1.72-4.6,3.52-7.3,3.21a4.86,4.86,0,0,0-.81-1.52q-9.6-11.73-19.17-23.49a1.19,1.19,0,0,1-.23-.9q3.77-13.5,7.59-27a4.62,4.62,0,0,1,6.93-2.69,4.4,4.4,0,0,1,2.19,4.56c-.52,2.82-1.18,5.62-1.78,8.44-.05.26-.1.52-.21,1l.79-.64,26-21.22a4.74,4.74,0,0,1,5.86-.52,4.67,4.67,0,0,1,1,7,8.52,8.52,0,0,1-1.07,1L40.63,102.6Z"/><path class="cls-4" d="M40,103.11c2.71-.83,5-.18,6.19,1.85,1.41,2.35.83,4.33-2.18,7.13a5,5,0,0,1,3.77-.32,4.6,4.6,0,0,1,2.73,2.33c1.15,2.26.83,3.82-2.07,6.54a4.31,4.31,0,0,1,3.76,0,4.68,4.68,0,0,1,1.85,7.4,6.64,6.64,0,0,1-.9.86L35.38,143.46c-2.1,1.72-4.6,3.52-7.3,3.21a4.86,4.86,0,0,0-.81-1.52q-9.6-11.73-19.17-23.49a1.19,1.19,0,0,1-.23-.9q3.77-13.5,7.59-27a4.62,4.62,0,0,1,6.93-2.69,4.4,4.4,0,0,1,2.19,4.56c-.52,2.82-1.18,5.62-1.78,8.44-.05.26-.1.52-.21,1l.79-.64,26-21.22a4.74,4.74,0,0,1,5.86-.52,4.67,4.67,0,0,1,1,7,8.52,8.52,0,0,1-1.07,1L40.63,102.6Z"/><path class="cls-3" d="M1.08,127.16a2.71,2.71,0,0,1,1.19-2.93c1.09-.84,2.13-1.74,3.21-2.6,1.3-1,2.49-1,3.46.23l19.2,23.52c1,1.2.82,2.38-.47,3.44-1.06.88-2.15,1.73-3.19,2.62a2.69,2.69,0,0,1-3.11.58Z"/><path class="cls-4" d="M1.08,127.16a2.71,2.71,0,0,1,1.19-2.93c1.09-.84,2.13-1.74,3.21-2.6,1.3-1,2.49-1,3.46.23l19.2,23.52c1,1.2.82,2.38-.47,3.44-1.06.88-2.15,1.73-3.19,2.62a2.69,2.69,0,0,1-3.11.58Z"/></g></g></svg>