<svg xmlns="http://www.w3.org/2000/svg" viewBox="0 0 132 132"><defs><style>.cls-1{fill:#ffe000;}.cls-2{fill:#fff;}</style></defs><g id="Capa_2" data-name="Capa 2"><g id="Capa_36" data-name="Capa 36"><rect class="cls-1" width="132" height="132" rx="12.54"/><circle class="cls-2" cx="61.11" cy="24.13" r="9.9"/><path class="cls-2" d="M56.57,55.29l-5.94,7.93-.05,0L33.33,66.64a5,5,0,0,1-5.94-4h0a5,5,0,0,1,3.95-5.93L44.92,54l9-12,1.7-2.77a6.32,6.32,0,0,1,4.32-2.93l11.64-2a5.34,5.34,0,0,1,2.54.19L95.5,41.63,104,56.39a5,5,0,0,1-1.84,6.88h0a5,5,0,0,1-6.89-1.84L88.73,50.06,76.39,46l5.07,24.23A6.55,6.55,0,0,1,81,74.31L79.89,76.6l4.88,17.46L98.56,107.3a5,5,0,0,1,.07,7.16h0a5,5,0,0,1-7,.05L76.36,99.63,71.28,82.45,59,93.71l-7.06,20.65a5,5,0,0,1-6.39,3.14h0a5,5,0,0,1-3.14-6.4L50.29,88,61.05,77.59Z"/></g></g></svg>