<svg xmlns="http://www.w3.org/2000/svg" xmlns:xlink="http://www.w3.org/1999/xlink" viewBox="0 0 158.69 157.56"><defs><style>.cls-1{fill:none;}.cls-2{fill:#00af10;}.cls-3{fill:#fff;}.cls-4{isolation:isolate;}.cls-5{clip-path:url(#clip-path);}.cls-6{fill:#1c69e9;}.cls-7{clip-path:url(#clip-path-2);}.cls-8{clip-path:url(#clip-path-3);}.cls-9{fill:#1d6cea;}.cls-10{clip-path:url(#clip-path-4);}.cls-11{clip-path:url(#clip-path-5);}.cls-12{clip-path:url(#clip-path-6);}.cls-13{clip-path:url(#clip-path-7);}.cls-14{clip-path:url(#clip-path-8);}.cls-15{clip-path:url(#clip-path-9);}.cls-16{clip-path:url(#clip-path-10);}.cls-17{clip-path:url(#clip-path-11);}.cls-18{fill:#1f71eb;}.cls-19{clip-path:url(#clip-path-12);}.cls-20{clip-path:url(#clip-path-13);}.cls-21{clip-path:url(#clip-path-14);}.cls-22{clip-path:url(#clip-path-15);}.cls-23{clip-path:url(#clip-path-16);}.cls-24{fill:#35acfe;}</style><clipPath id="clip-path" transform="translate(-0.08)"><path class="cls-1" d="M58.46,111.42l-2.72,4.33a1,1,0,0,1-.15.2c-.52.53-1,1.06-1.57,1.58l-.11.13,2.72-4.33.11-.13c.53-.52,1-1,1.57-1.58A1,1,0,0,0,58.46,111.42Z"/></clipPath><clipPath id="clip-path-2" transform="translate(-0.08)"><path class="cls-1" d="M23.32,100.43l-2.72,4.33a.67.67,0,0,0,.09-.45c-.14-.83-.29-1.65-.46-2.5a1.62,1.62,0,0,1,.2-1.2l2.72-4.33a1.64,1.64,0,0,0-.2,1.21c.16.84.32,1.67.46,2.49A.67.67,0,0,1,23.32,100.43Z"/></clipPath><clipPath id="clip-path-3" transform="translate(-0.08)"><path class="cls-1" d="M67.55,132.33l-2.72,4.32a.39.39,0,0,1-.23.19.92.92,0,0,1-.39,0c-1.34-.12-2.69-.2-4-.23a.86.86,0,0,0-.27,0,.76.76,0,0,0-.34.27l2.72-4.33a.76.76,0,0,1,.34-.27.63.63,0,0,1,.27,0c1.33,0,2.68.1,4,.22a.92.92,0,0,0,.39,0A.41.41,0,0,0,67.55,132.33Z"/></clipPath><clipPath id="clip-path-4" transform="translate(-0.08)"><path class="cls-1" d="M17.19,119.6l2.72-4.33a11.72,11.72,0,0,1,5.91-4.7c4-1.49,9-1.3,14.1.89,9.76,4.25,15.34,14.66,11.58,22.41l-2.72,4.33C52.54,130.45,47,120,37.2,115.79c-5.05-2.19-10.12-2.38-14.1-.89A11.67,11.67,0,0,0,17.19,119.6Z"/></clipPath><clipPath id="clip-path-5" transform="translate(-0.08)"><path class="cls-1" d="M51,134.88l-2.72,4.32a10.66,10.66,0,0,0,.55-1l2.72-4.33C51.33,134.22,51.15,134.55,51,134.88Z"/></clipPath><clipPath id="clip-path-6" transform="translate(-0.08)"><path class="cls-1" d="M2.81,111l2.72-4.33a1,1,0,0,0,.32,1.23l-2.72,4.32A1,1,0,0,1,2.81,111Z"/></clipPath><clipPath id="clip-path-7" transform="translate(-0.08)"><path class="cls-1" d="M9.16,110.73l-2.72,4.32c-.87-.74-2.4-2-3.31-2.79l2.72-4.32Z"/></clipPath><clipPath id="clip-path-8" transform="translate(-0.08)"><path class="cls-1" d="M8.16,115.94l-2.72,4.33a.47.47,0,0,0,0-.1c.44-1.47.85-3,1.22-4.45a.73.73,0,0,0-.27-.67l2.72-4.32a.72.72,0,0,1,.27.67c-.37,1.49-.78,3-1.22,4.44A.31.31,0,0,1,8.16,115.94Z"/></clipPath><clipPath id="clip-path-9" transform="translate(-0.08)"><path class="cls-1" d="M64.83,141.62,62.11,146c-1.25,2-6,7.61-7.23,8.09l2.72-4.33C58.88,149.23,63.58,143.61,64.83,141.62Z"/></clipPath><clipPath id="clip-path-10" transform="translate(-0.08)"><path class="cls-1" d="M57.6,149.71,54.88,154c-.72,0-3.32-2-4.56-3.08a.94.94,0,0,0-1.1-.23c-1.5.56-3,1.07-4.48,1.53l2.72-4.33c1.5-.46,3-1,4.48-1.53a.94.94,0,0,1,1.1.23C54.28,147.69,56.88,149.73,57.6,149.71Z"/></clipPath><clipPath id="clip-path-11" transform="translate(-0.08)"><path class="cls-1" d="M44.4,152.52l2.72-4.32a.67.67,0,0,1,.34-.27l-2.72,4.33A.76.76,0,0,0,44.4,152.52Z"/></clipPath><clipPath id="clip-path-12" transform="translate(-0.08)"><path class="cls-1" d="M.18,120.52l2.72-4.33a.75.75,0,0,0-.08.37A27.24,27.24,0,0,0,4.19,126c.24.74.53,1.47.81,2.2a1.6,1.6,0,0,0,1.35,1l-2.72,4.33a1.6,1.6,0,0,1-1.35-.95c-.28-.73-.57-1.47-.81-2.2a27.24,27.24,0,0,1-1.37-9.4A.75.75,0,0,1,.18,120.52Z"/></clipPath><clipPath id="clip-path-13" transform="translate(-0.08)"><path class="cls-1" d="M13.85,135.17l-2.72,4.33a.67.67,0,0,0,0-.64c-1.07-1.71-2.2-3.4-3.37-5.17l2.72-4.33c1.17,1.78,2.29,3.46,3.37,5.17A.67.67,0,0,1,13.85,135.17Z"/></clipPath><clipPath id="clip-path-14" transform="translate(-0.08)"><path class="cls-1" d="M47.75,152.72,45,157.05a.35.35,0,0,1-.19.14,1.11,1.11,0,0,1-.24.05A35.79,35.79,0,0,1,31,156.42l2.72-4.32a36.19,36.19,0,0,0,13.65.82,1.2,1.2,0,0,0,.24-.06A.35.35,0,0,0,47.75,152.72Z"/></clipPath><clipPath id="clip-path-15" transform="translate(-0.08)"><path class="cls-1" d="M33.67,152.1,31,156.42c-.05,0-.11,0-.23-.12L33.44,152A1.23,1.23,0,0,0,33.67,152.1Z"/></clipPath><clipPath id="clip-path-16" transform="translate(-0.08)"><path class="cls-1" d="M8.68,142.12l2.72-4.33a.67.67,0,0,0,.11.75,43.14,43.14,0,0,0,10.6,8.8,1.42,1.42,0,0,0,1.2.16.93.93,0,0,0,.33-.21c.72-.74,1.44-1.47,2.14-2.21a.88.88,0,0,1,.29-.21c.27-.1.61,0,1.3.41a16.06,16.06,0,0,0,3.74,1.52c1.19.31,1.45.54,1.57,1.23.23,1.32.5,2.65.76,3.94l-2.72,4.33c-.26-1.29-.53-2.62-.76-4-.12-.68-.38-.92-1.57-1.22a16.27,16.27,0,0,1-3.74-1.53c-.69-.37-1-.51-1.3-.4a.76.76,0,0,0-.29.21c-.7.74-1.41,1.47-2.14,2.2a.72.72,0,0,1-.33.21,1.41,1.41,0,0,1-1.2-.15,43.14,43.14,0,0,1-10.6-8.8A.67.67,0,0,1,8.68,142.12Z"/></clipPath></defs><g id="Capa_2" data-name="Capa 2"><g id="Capa_42" data-name="Capa 42"><rect class="cls-2" x="26.69" width="132" height="132" rx="12.54"/><circle class="cls-3" cx="87.81" cy="24.13" r="9.9"/><path class="cls-3" d="M83.35,55.29l-5.94,7.93-.06,0L60.1,66.64a5,5,0,0,1-5.93-4h0a5,5,0,0,1,3.95-5.93L71.7,54l9-12,1.69-2.77a6.34,6.34,0,0,1,4.33-2.93l11.63-2a5.34,5.34,0,0,1,2.54.19l21.39,7.08,8.53,14.76A5,5,0,0,1,129,63.27h0a5,5,0,0,1-6.88-1.84l-6.57-11.37L103.17,46l5.06,24.23a6.41,6.41,0,0,1-.48,4.07l-1.08,2.29,4.88,17.46,13.79,13.24a5,5,0,0,1,.07,7.16h0a5,5,0,0,1-7,.05L103.14,99.63,98.05,82.45,85.77,93.71l-7,20.65a5,5,0,0,1-6.4,3.14h0a5,5,0,0,1-3.14-6.4L77.07,88,87.83,77.59Z" transform="translate(-0.08)"/><g class="cls-4"><g class="cls-4"><g class="cls-5"><g class="cls-4"><path class="cls-6" d="M58.46,111.42l-2.72,4.33a1,1,0,0,1-.15.2c-.52.53-1,1.06-1.57,1.58l-.11.13,2.72-4.33.11-.13c.53-.52,1-1,1.57-1.58a1,1,0,0,0,.15-.2" transform="translate(-0.08)"/></g></g></g><g class="cls-4"><g class="cls-7"><g class="cls-4"><path class="cls-6" d="M23.32,100.43l-2.72,4.33a.67.67,0,0,0,.09-.45c-.14-.83-.29-1.65-.46-2.5a1.62,1.62,0,0,1,.2-1.2l2.72-4.33a1.64,1.64,0,0,0-.2,1.21c.16.84.32,1.67.46,2.49a.67.67,0,0,1-.09.45" transform="translate(-0.08)"/></g></g></g><g class="cls-4"><g class="cls-8"><g class="cls-4"><path class="cls-6" d="M67.55,132.33l-2.72,4.32a.87.87,0,0,1-.12.14l2.71-4.33a.53.53,0,0,0,.13-.13" transform="translate(-0.08)"/><path class="cls-9" d="M67.42,132.46l-2.71,4.33-.11.05a.92.92,0,0,1-.39,0c-1.34-.12-2.69-.2-4-.23a.86.86,0,0,0-.27,0l-.17.09,2.72-4.32a1,1,0,0,1,.17-.1.63.63,0,0,1,.27,0c1.33,0,2.68.1,4,.22a.92.92,0,0,0,.39,0l.1,0" transform="translate(-0.08)"/><path class="cls-6" d="M62.47,132.47l-2.72,4.32a.58.58,0,0,0-.17.18l2.72-4.33a.46.46,0,0,1,.17-.17" transform="translate(-0.08)"/></g></g></g><g class="cls-4"><g class="cls-10"><g class="cls-4"><path class="cls-6" d="M51.5,133.87l-2.72,4.33C52.54,130.45,47,120,37.2,115.79l-.47-.2,2.72-4.32.47.19c9.76,4.25,15.34,14.66,11.58,22.41" transform="translate(-0.08)"/><path class="cls-9" d="M39.45,111.27l-2.72,4.32a18.91,18.91,0,0,0-13.63-.69,13.09,13.09,0,0,0-2.92,1.54l2.72-4.32a12.72,12.72,0,0,1,2.92-1.55,18.86,18.86,0,0,1,13.63.7" transform="translate(-0.08)"/><path class="cls-6" d="M22.9,112.12l-2.72,4.32a11,11,0,0,0-3,3.16l2.72-4.33a11,11,0,0,1,3-3.15" transform="translate(-0.08)"/></g></g></g><g class="cls-4"><g class="cls-11"><g class="cls-4"><path class="cls-6" d="M51,134.88l-2.72,4.32a10.66,10.66,0,0,0,.55-1l2.72-4.33c-.17.35-.35.68-.55,1" transform="translate(-0.08)"/></g></g></g><g class="cls-4"><g class="cls-12"><g class="cls-4"><path class="cls-6" d="M5.85,107.94l-2.72,4.32A1,1,0,0,1,2.81,111l2.72-4.33a1,1,0,0,0,.32,1.23" transform="translate(-0.08)"/></g></g></g><g class="cls-4"><g class="cls-13"><g class="cls-4"><path class="cls-6" d="M9.16,110.73l-2.72,4.32c-.87-.74-2.4-2-3.31-2.79l2.72-4.32,3.31,2.79" transform="translate(-0.08)"/></g></g></g><g class="cls-4"><g class="cls-14"><g class="cls-4"><path class="cls-6" d="M8.16,115.94l-2.72,4.33a.47.47,0,0,0,0-.1c.44-1.47.85-3,1.22-4.45a.73.73,0,0,0-.27-.67l2.72-4.32a.72.72,0,0,1,.27.67c-.37,1.49-.78,3-1.22,4.44a.31.31,0,0,1-.05.1" transform="translate(-0.08)"/></g></g></g><g class="cls-4"><g class="cls-15"><g class="cls-4"><path class="cls-6" d="M64.83,141.62,62.11,146c-1.14,1.81-5.14,6.64-6.81,7.84L58,149.46c1.67-1.2,5.67-6,6.81-7.84" transform="translate(-0.08)"/><path class="cls-9" d="M58,149.46l-2.72,4.33a2,2,0,0,1-.42.25l2.72-4.33a1.82,1.82,0,0,0,.42-.25" transform="translate(-0.08)"/></g></g></g><g class="cls-4"><g class="cls-16"><g class="cls-4"><path class="cls-9" d="M57.6,149.71,54.88,154a1.35,1.35,0,0,1-.4-.1l2.72-4.33a1.1,1.1,0,0,0,.4.1" transform="translate(-0.08)"/><path class="cls-6" d="M57.2,149.61l-2.72,4.33a23.51,23.51,0,0,1-4.16-3,1.38,1.38,0,0,0-.41-.26l2.72-4.33a1.62,1.62,0,0,1,.41.26,23.51,23.51,0,0,0,4.16,3" transform="translate(-0.08)"/><path class="cls-9" d="M52.63,146.37l-2.72,4.33a.84.84,0,0,0-.69,0c-1.5.56-3,1.07-4.48,1.53l2.72-4.33c1.5-.46,3-1,4.48-1.53a.88.88,0,0,1,.69,0" transform="translate(-0.08)"/></g></g></g><g class="cls-4"><g class="cls-17"><g class="cls-4"><path class="cls-9" d="M47.46,147.93l-2.72,4.33-.18.1L47.28,148l.18-.1" transform="translate(-0.08)"/><path class="cls-6" d="M47.28,148l-2.72,4.33a.61.61,0,0,0-.16.16l2.72-4.32a.65.65,0,0,1,.16-.17" transform="translate(-0.08)"/></g></g></g><polygon class="cls-18" points="10.43 129.36 7.71 133.69 3.55 133.44 6.26 129.12 10.43 129.36"/><g class="cls-4"><g class="cls-19"><g class="cls-4"><path class="cls-9" d="M6.35,129.11l-2.72,4.33a1.4,1.4,0,0,1-.49-.11L5.86,129a1.21,1.21,0,0,0,.49.11" transform="translate(-0.08)"/><path class="cls-6" d="M5.86,129l-2.72,4.33a1.61,1.61,0,0,1-.86-.84c-.28-.73-.57-1.47-.81-2.2a27.24,27.24,0,0,1-1.37-9.4.75.75,0,0,1,.08-.37l2.72-4.33a.75.75,0,0,0-.08.37A27.24,27.24,0,0,0,4.19,126c.24.74.53,1.47.81,2.2a1.57,1.57,0,0,0,.86.84" transform="translate(-0.08)"/></g></g></g><g class="cls-4"><g class="cls-20"><g class="cls-4"><path class="cls-6" d="M13.85,135.17l-2.72,4.33a.67.67,0,0,0,0-.64c-1.07-1.71-2.2-3.4-3.37-5.17l2.72-4.33c1.17,1.78,2.29,3.46,3.37,5.17a.67.67,0,0,1,0,.64" transform="translate(-0.08)"/></g></g></g><g class="cls-4"><g class="cls-21"><g class="cls-4"><path class="cls-6" d="M47.75,152.72,45,157.05a.3.3,0,0,1-.08.08l2.72-4.32.08-.09" transform="translate(-0.08)"/><path class="cls-9" d="M47.67,152.81,45,157.13l-.11.06a1.11,1.11,0,0,1-.24.05A35.79,35.79,0,0,1,31,156.42l2.72-4.32a36.19,36.19,0,0,0,13.65.82,1.2,1.2,0,0,0,.24-.06l.11-.05" transform="translate(-0.08)"/></g></g></g><g class="cls-4"><g class="cls-22"><g class="cls-4"><path class="cls-9" d="M33.67,152.1,31,156.42h0l2.72-4.33h0" transform="translate(-0.08)"/><path class="cls-6" d="M33.64,152.09l-2.72,4.33c-.05,0-.1-.07-.2-.12L33.44,152l.2.12" transform="translate(-0.08)"/></g></g></g><g class="cls-4"><g class="cls-23"><g class="cls-4"><path class="cls-6" d="M33.44,152l-2.72,4.33c-.26-1.29-.53-2.62-.76-4a1.1,1.1,0,0,0-.79-1L31.89,147a1.11,1.11,0,0,1,.79,1c.23,1.32.5,2.65.76,3.94" transform="translate(-0.08)"/><path class="cls-9" d="M31.89,147l-2.72,4.33a6.8,6.8,0,0,0-.78-.24,14.82,14.82,0,0,1-1.88-.63l2.72-4.33a13,13,0,0,0,1.88.63,6.8,6.8,0,0,1,.78.24" transform="translate(-0.08)"/><path class="cls-6" d="M29.23,146.17l-2.72,4.33a17.64,17.64,0,0,1-1.86-.9c-.27-.14-.48-.25-.66-.33L26.71,145a5.72,5.72,0,0,1,.66.33,19.76,19.76,0,0,0,1.86.89" transform="translate(-0.08)"/><path class="cls-9" d="M26.71,145,24,149.27a.84.84,0,0,0-.64-.07.42.42,0,0,0-.13.07l2.72-4.33.13-.07a.85.85,0,0,1,.64.08" transform="translate(-0.08)"/><path class="cls-6" d="M25.94,144.94l-2.72,4.33a1.07,1.07,0,0,0-.16.14c-.7.74-1.41,1.47-2.14,2.2a.52.52,0,0,1-.11.1l2.72-4.33.11-.09c.72-.74,1.44-1.47,2.14-2.21a1.07,1.07,0,0,1,.16-.14" transform="translate(-0.08)"/><path class="cls-9" d="M23.53,147.38l-2.72,4.33a.91.91,0,0,1-.22.11,1.34,1.34,0,0,1-1,0l2.72-4.33a1.4,1.4,0,0,0,1,.05.94.94,0,0,0,.22-.12" transform="translate(-0.08)"/><path class="cls-6" d="M22.33,147.45l-2.72,4.33-.22-.11a43.14,43.14,0,0,1-10.6-8.8.67.67,0,0,1-.11-.75l2.72-4.33a.67.67,0,0,0,.11.75,43.14,43.14,0,0,0,10.6,8.8,1.13,1.13,0,0,0,.22.11" transform="translate(-0.08)"/></g></g></g><path class="cls-24" d="M63.11,119.38a3.24,3.24,0,0,1,2.75,2A24.3,24.3,0,0,1,67.31,127a21.48,21.48,0,0,1,.41,4.61c0,.58-.14.86-.4.95a.92.92,0,0,1-.39,0c-1.34-.12-2.69-.2-4-.22a.63.63,0,0,0-.27,0,.66.66,0,0,0-.39.38c-.44,1.42-.82,2.87-1.17,4.33a.92.92,0,0,0,.3.81c1.09,1,3.7,2.55,3.76,3.08s-6,8.18-7.54,8.74c-.72,0-3.32-2-4.56-3.08a.94.94,0,0,0-1.1-.23c-1.5.56-3,1.07-4.48,1.53a.59.59,0,0,0-.4.72c.27,1.21.45,2.4.71,3.6.07.33,0,.52-.21.61a1.2,1.2,0,0,1-.24.06,36.19,36.19,0,0,1-13.65-.82,1.23,1.23,0,0,1-.23-.13c-.26-1.29-.53-2.62-.76-3.94-.12-.69-.38-.92-1.57-1.23a16.06,16.06,0,0,1-3.74-1.52c-.69-.38-1-.51-1.3-.41a.88.88,0,0,0-.29.21c-.7.74-1.42,1.47-2.14,2.21a.93.93,0,0,1-.33.21,1.42,1.42,0,0,1-1.2-.16,43.14,43.14,0,0,1-10.6-8.8.64.64,0,0,1-.08-.79c.77-.87,1.61-1.67,2.38-2.53a.69.69,0,0,0,.08-.69c-1.08-1.71-2.2-3.39-3.37-5.17l-4.17-.25a1.6,1.6,0,0,1-1.35-1c-.28-.73-.57-1.46-.81-2.2a27.24,27.24,0,0,1-1.37-9.4c0-.28.08-.44.26-.51a1.28,1.28,0,0,1,.42,0c1.37.12,2.73.18,4.09.22a.74.74,0,0,0,.25,0,.59.59,0,0,0,.37-.35c.44-1.47.85-3,1.22-4.44a.72.72,0,0,0-.27-.67l-3.31-2.79a1,1,0,0,1-.3-1.26c.69-1,1.36-2,2.11-3a19.15,19.15,0,0,1,4.38-4,2.38,2.38,0,0,1,.39-.2,3.06,3.06,0,0,1,2.88.62l2.56,2.09c1.83-.58,3.59-1.12,5.32-1.71.17-.06.26-.37.22-.57-.14-.82-.3-1.65-.46-2.49a1.58,1.58,0,0,1,1-1.87,1.93,1.93,0,0,1,.55-.13A35.81,35.81,0,0,1,34.75,96a3.35,3.35,0,0,1,2.65,2.43c.14.74.28,1.46.41,2.18s.41.86,1.47,1.12A13.21,13.21,0,0,1,42.53,103c1,.53,1.51.76,1.94.6a1.11,1.11,0,0,0,.46-.35A21.72,21.72,0,0,1,47.1,101a.46.46,0,0,1,.17-.09.78.78,0,0,1,.65,0,43.28,43.28,0,0,1,10.16,8,2,2,0,0,1,.23,2.61c-.52.53-1,1.06-1.57,1.58a.81.81,0,0,0,0,1.08c.94,1.39,1.84,2.8,2.68,4.23a1.22,1.22,0,0,0,1.16.75C61.4,119.28,62.26,119.33,63.11,119.38ZM51.5,133.87c3.76-7.75-1.82-18.16-11.58-22.41-5.05-2.19-10.12-2.38-14.1-.89a11.4,11.4,0,0,0-7.07,7.17c-2.6,8,3.87,18.07,14.24,21.63a18.09,18.09,0,0,0,12.08.13,11.34,11.34,0,0,0,6.43-5.63" transform="translate(-0.08)"/></g></g></g></svg>