<svg xmlns="http://www.w3.org/2000/svg" viewBox="0 0 159.29 158.35"><defs><style>.cls-1{fill:#004ce5;}.cls-2{fill:#fff;}.cls-3{fill:#d6d6d6;stroke-width:2px;}.cls-3,.cls-4{stroke:#000;stroke-miterlimit:10;}.cls-4{fill:#f3fafe;}.cls-5{fill:#c10000;}</style></defs><g id="Capa_2" data-name="Capa 2"><g id="Capa_37" data-name="Capa 37"><rect class="cls-1" x="27.29" width="132" height="132" rx="12.54"/><circle class="cls-2" cx="88.4" cy="24.13" r="9.9"/><path class="cls-2" d="M83.86,55.29l-5.94,7.93,0,0L60.62,66.64a5,5,0,0,1-5.93-4h0a5,5,0,0,1,3.94-5.93L72.21,54l9-12,1.7-2.77a6.32,6.32,0,0,1,4.32-2.93l11.64-2a5.34,5.34,0,0,1,2.54.19l21.39,7.08,8.53,14.76a5,5,0,0,1-1.84,6.88h0a5,5,0,0,1-6.88-1.84L116,50.06,103.69,46l5.06,24.23a6.48,6.48,0,0,1-.48,4.07l-1.09,2.29,4.88,17.46,13.79,13.24a5,5,0,0,1,.07,7.16h0a5,5,0,0,1-7,.05L103.65,99.63,98.57,82.45,86.29,93.71l-7.06,20.65a5,5,0,0,1-6.39,3.14h0a5,5,0,0,1-3.14-6.4L77.58,88,88.34,77.59Z"/><circle class="cls-3" cx="32.45" cy="125.9" r="31.45"/><circle class="cls-4" cx="32.45" cy="125.9" r="24.5"/><path d="M31.56,107.3a5.93,5.93,0,0,1,0-.73.91.91,0,0,1,.94-.87.87.87,0,0,1,.94.85,7.82,7.82,0,0,1,0,1.53.94.94,0,0,1-1,.9,1,1,0,0,1-.94-1c0-.24,0-.49,0-.73Z"/><path d="M51,126.9a4.17,4.17,0,0,1-.79,0,.9.9,0,0,1-.82-.92.86.86,0,0,1,.79-.93,7,7,0,0,1,1.71,0,.84.84,0,0,1,.78.93.89.89,0,0,1-.81.92A4.93,4.93,0,0,1,51,126.9Z"/><path d="M13.85,126.81a5.93,5.93,0,0,1-.73,0,.93.93,0,0,1-.88-.93.9.9,0,0,1,.85-.94,9.77,9.77,0,0,1,1.53,0,.93.93,0,0,1,.91,1,1,1,0,0,1-.94.94Z"/><path d="M33.36,144.49a5.9,5.9,0,0,1,0,.73.91.91,0,0,1-.91.89.86.86,0,0,1-1-.83,9.26,9.26,0,0,1,0-1.58.9.9,0,0,1,.93-.87.94.94,0,0,1,1,.93C33.37,144,33.36,144.25,33.36,144.49Z"/><path d="M32.23,111.58h.45a.75.75,0,0,1,.75.75v13.5a0,0,0,0,1,0,0H31.48a0,0,0,0,1,0,0v-13.5A.75.75,0,0,1,32.23,111.58Z"/><path d="M27.58,122.61H28a.75.75,0,0,1,.75.75v5.93a0,0,0,0,1,0,0H26.83a0,0,0,0,1,0,0v-5.93a.75.75,0,0,1,.75-.75Z" transform="translate(-98.15 153.76) rotate(-90)"/><path class="cls-5" d="M37,124h.45a.75.75,0,0,1,.75.75v9.6a0,0,0,0,1,0,0H36.28a0,0,0,0,1,0,0v-9.6A.75.75,0,0,1,37,124Z" transform="translate(164.44 172.79) rotate(125)"/><circle cx="32.45" cy="125.9" r="2.33"/></g></g></svg>