<svg xmlns="http://www.w3.org/2000/svg" xmlns:xlink="http://www.w3.org/1999/xlink" viewBox="0 0 157.02 156.36"><defs><style>.cls-1{fill:none;}.cls-2{fill:#004ce5;}.cls-3{fill:#fff;}.cls-4{isolation:isolate;}.cls-5{clip-path:url(#clip-path);}.cls-6{fill:#1c69e9;}.cls-7{clip-path:url(#clip-path-2);}.cls-8{clip-path:url(#clip-path-3);}.cls-9{clip-path:url(#clip-path-4);}.cls-10{fill:#1d6cea;}.cls-11{clip-path:url(#clip-path-5);}.cls-12{clip-path:url(#clip-path-6);}.cls-13{clip-path:url(#clip-path-7);}.cls-14{clip-path:url(#clip-path-8);}.cls-15{clip-path:url(#clip-path-9);}.cls-16{clip-path:url(#clip-path-10);}.cls-17{fill:#1f71eb;}.cls-18{clip-path:url(#clip-path-11);}.cls-19{clip-path:url(#clip-path-12);}.cls-20{clip-path:url(#clip-path-13);}.cls-21{clip-path:url(#clip-path-14);}.cls-22{clip-path:url(#clip-path-15);}.cls-23{clip-path:url(#clip-path-16);}.cls-24{fill:#35acfe;}</style><clipPath id="clip-path" transform="translate(-0.08)"><path class="cls-1" d="M58.46,110.22l-2.72,4.33a.83.83,0,0,1-.16.21c-.51.53-1,1.06-1.56,1.58a.69.69,0,0,0-.11.13l2.72-4.33a.69.69,0,0,1,.11-.13c.53-.52,1-1.05,1.56-1.58A.83.83,0,0,0,58.46,110.22Z"/></clipPath><clipPath id="clip-path-2" transform="translate(-0.08)"><path class="cls-1" d="M20.43,99.42l2.72-4.33a1.62,1.62,0,0,0-.2,1.2c.16.85.32,1.67.46,2.5l-2.71,4.32c-.15-.82-.31-1.65-.47-2.49A1.61,1.61,0,0,1,20.43,99.42Z"/></clipPath><clipPath id="clip-path-3" transform="translate(-0.08)"><path class="cls-1" d="M23.32,99.24l-2.72,4.33a.84.84,0,0,0,.1-.46l2.71-4.32A.73.73,0,0,1,23.32,99.24Z"/></clipPath><clipPath id="clip-path-4" transform="translate(-0.08)"><path class="cls-1" d="M67.55,131.13l-2.72,4.33a.5.5,0,0,1-.22.19.85.85,0,0,1-.4,0c-1.35-.11-2.69-.19-4-.22a.86.86,0,0,0-.27,0,.66.66,0,0,0-.34.27l2.72-4.33a.71.71,0,0,1,.34-.27.86.86,0,0,1,.27-.05c1.33,0,2.67.11,4,.22a.85.85,0,0,0,.4,0A.5.5,0,0,0,67.55,131.13Z"/></clipPath><clipPath id="clip-path-5" transform="translate(-0.08)"><path class="cls-1" d="M17.19,118.4l2.72-4.33a11.75,11.75,0,0,1,5.91-4.69c4-1.49,9-1.3,14.1.89,9.77,4.25,15.34,14.66,11.58,22.41L48.78,137c3.76-7.76-1.81-18.16-11.58-22.41-5.05-2.2-10.12-2.38-14.1-.89A11.7,11.7,0,0,0,17.19,118.4Z"/></clipPath><clipPath id="clip-path-6" transform="translate(-0.08)"><path class="cls-1" d="M50.94,133.69,48.22,138c.2-.33.39-.66.56-1l2.72-4.33A10.91,10.91,0,0,1,50.94,133.69Z"/></clipPath><clipPath id="clip-path-7" transform="translate(-0.08)"><path class="cls-1" d="M8.16,114.75l-2.72,4.33a.42.42,0,0,0,0-.1c.45-1.47.86-3,1.24-4.45a.78.78,0,0,0-.27-.67c-.89-.74-2.41-2-3.32-2.79a1,1,0,0,1-.32-1.23l2.72-4.32a1,1,0,0,0,.32,1.22c.91.78,2.43,2.05,3.32,2.79a.81.81,0,0,1,.27.67c-.38,1.5-.79,3-1.24,4.45A.3.3,0,0,1,8.16,114.75Z"/></clipPath><clipPath id="clip-path-8" transform="translate(-0.08)"><path class="cls-1" d="M64.83,140.42l-2.71,4.33c-1.25,2-6,7.61-7.24,8.09l2.72-4.33C58.88,148,63.59,142.41,64.83,140.42Z"/></clipPath><clipPath id="clip-path-9" transform="translate(-0.08)"><path class="cls-1" d="M57.6,148.51l-2.72,4.33c-.72,0-3.32-2-4.57-3.07a.93.93,0,0,0-1.09-.24c-1.5.57-3,1.07-4.48,1.54l2.72-4.33c1.51-.46,3-1,4.48-1.53a.91.91,0,0,1,1.09.23C54.28,146.5,56.88,148.54,57.6,148.51Z"/></clipPath><clipPath id="clip-path-10" transform="translate(-0.08)"><path class="cls-1" d="M44.4,151.33,47.12,147a.71.71,0,0,1,.34-.26l-2.72,4.33A.71.71,0,0,0,44.4,151.33Z"/></clipPath><clipPath id="clip-path-11" transform="translate(-0.08)"><path class="cls-1" d="M.18,119.33,2.9,115a.73.73,0,0,0-.08.37,26.56,26.56,0,0,0,1.38,9.4c.24.73.52,1.46.8,2.19a1.57,1.57,0,0,0,1.34,1l-2.72,4.33a1.59,1.59,0,0,1-1.34-1c-.28-.73-.56-1.46-.8-2.19A26.59,26.59,0,0,1,.1,119.7.81.81,0,0,1,.18,119.33Z"/></clipPath><clipPath id="clip-path-12" transform="translate(-0.08)"><path class="cls-1" d="M13.9,133.33l-2.72,4.33C10.09,136,9,134.27,7.79,132.5l2.72-4.33C11.68,130,12.81,131.63,13.9,133.33Z"/></clipPath><clipPath id="clip-path-13" transform="translate(-0.08)"><path class="cls-1" d="M13.85,134l-2.72,4.33a.72.72,0,0,0,0-.65l2.72-4.33A.72.72,0,0,1,13.85,134Z"/></clipPath><clipPath id="clip-path-14" transform="translate(-0.08)"><path class="cls-1" d="M47.75,151.53,45,155.86a.41.41,0,0,1-.19.14,1.11,1.11,0,0,1-.24.05A36,36,0,0,1,31,155.23l2.72-4.33a35.79,35.79,0,0,0,13.65.82,1.25,1.25,0,0,0,.24-.05A.41.41,0,0,0,47.75,151.53Z"/></clipPath><clipPath id="clip-path-15" transform="translate(-0.08)"><path class="cls-1" d="M33.67,150.9,31,155.23a1.77,1.77,0,0,1-.23-.12l2.72-4.33A1,1,0,0,0,33.67,150.9Z"/></clipPath><clipPath id="clip-path-16" transform="translate(-0.08)"><path class="cls-1" d="M8.68,140.92l2.72-4.33a.68.68,0,0,0,.11.76,43,43,0,0,0,10.61,8.8,1.39,1.39,0,0,0,1.19.15.72.72,0,0,0,.33-.21c.72-.73,1.44-1.46,2.14-2.2a.76.76,0,0,1,.29-.21c.27-.11.61,0,1.3.4a16.27,16.27,0,0,0,3.74,1.53c1.19.3,1.46.54,1.57,1.22.22,1.33.51,2.66.76,3.95l-2.72,4.33c-.25-1.29-.54-2.62-.76-4-.11-.68-.38-.92-1.57-1.23a15.81,15.81,0,0,1-3.74-1.52c-.69-.38-1-.51-1.3-.41a.8.8,0,0,0-.29.22c-.7.74-1.42,1.47-2.14,2.2a.93.93,0,0,1-.33.21,1.42,1.42,0,0,1-1.19-.15,43,43,0,0,1-10.61-8.81A.67.67,0,0,1,8.68,140.92Z"/></clipPath></defs><g id="Capa_2" data-name="Capa 2"><g id="Capa_40" data-name="Capa 40"><rect class="cls-2" x="25.02" width="132" height="132" rx="12.54"/><circle class="cls-3" cx="86.13" cy="24.13" r="9.9"/><path class="cls-3" d="M81.67,55.29l-5.94,7.93,0,0L58.43,66.64a5,5,0,0,1-5.93-4h0a5,5,0,0,1,3.94-5.93L70,54l9-12,1.7-2.77A6.32,6.32,0,0,1,85,36.34l11.64-2a5.34,5.34,0,0,1,2.54.19l21.39,7.08,8.53,14.76a5,5,0,0,1-1.84,6.88h0a5,5,0,0,1-6.88-1.84l-6.58-11.37L101.5,46l5.06,24.23a6.48,6.48,0,0,1-.48,4.07L105,76.6l4.88,17.46,13.79,13.24a5,5,0,0,1,.07,7.16h0a5,5,0,0,1-7,.05L101.46,99.63,96.38,82.45,84.1,93.71,77,114.36a5,5,0,0,1-6.39,3.14h0a5,5,0,0,1-3.14-6.4L75.39,88,86.15,77.59Z" transform="translate(-0.08)"/><g class="cls-4"><g class="cls-4"><g class="cls-5"><g class="cls-4"><path class="cls-6" d="M58.46,110.22l-2.72,4.33a.83.83,0,0,1-.16.21c-.51.53-1,1.06-1.56,1.58a.69.69,0,0,0-.11.13l2.72-4.33a.69.69,0,0,1,.11-.13c.53-.52,1-1.05,1.56-1.58a.83.83,0,0,0,.16-.21" transform="translate(-0.08)"/></g></g></g><g class="cls-4"><g class="cls-7"><g class="cls-4"><path class="cls-6" d="M23.41,98.79l-2.71,4.32c-.15-.82-.31-1.65-.47-2.49a1.61,1.61,0,0,1,.2-1.2l2.72-4.33a1.62,1.62,0,0,0-.2,1.2c.16.85.32,1.67.46,2.5" transform="translate(-0.08)"/></g></g></g><g class="cls-4"><g class="cls-8"><g class="cls-4"><path class="cls-6" d="M23.32,99.24l-2.72,4.33a.84.84,0,0,0,.1-.46l2.71-4.32a.73.73,0,0,1-.09.45" transform="translate(-0.08)"/></g></g></g><g class="cls-4"><g class="cls-9"><g class="cls-4"><path class="cls-6" d="M67.55,131.13l-2.72,4.33a.3.3,0,0,1-.12.13l2.72-4.32a.55.55,0,0,0,.12-.14" transform="translate(-0.08)"/><path class="cls-10" d="M67.43,131.27l-2.72,4.32a.53.53,0,0,1-.1.06.85.85,0,0,1-.4,0c-1.35-.11-2.69-.19-4-.22a.86.86,0,0,0-.27,0,.56.56,0,0,0-.17.09l2.72-4.33a.91.91,0,0,1,.17-.09.86.86,0,0,1,.27-.05c1.33,0,2.67.11,4,.22a.85.85,0,0,0,.4,0l.1,0" transform="translate(-0.08)"/><path class="cls-6" d="M62.47,131.27l-2.72,4.33a.58.58,0,0,0-.17.18l2.72-4.33a.58.58,0,0,1,.17-.18" transform="translate(-0.08)"/></g></g></g><g class="cls-4"><g class="cls-11"><g class="cls-4"><path class="cls-6" d="M51.5,132.68,48.78,137c3.76-7.76-1.81-18.16-11.58-22.41l-.46-.2,2.72-4.32.46.19c9.77,4.25,15.34,14.66,11.58,22.41" transform="translate(-0.08)"/><path class="cls-10" d="M39.46,110.08l-2.72,4.32a18.94,18.94,0,0,0-13.64-.69,13,13,0,0,0-2.93,1.55l2.72-4.33a13,13,0,0,1,2.93-1.55,18.89,18.89,0,0,1,13.64.7" transform="translate(-0.08)"/><path class="cls-6" d="M22.89,110.93l-2.72,4.33a11,11,0,0,0-3,3.14l2.72-4.33a11.15,11.15,0,0,1,3-3.14" transform="translate(-0.08)"/></g></g></g><g class="cls-4"><g class="cls-12"><g class="cls-4"><path class="cls-6" d="M50.94,133.69,48.22,138c.2-.33.39-.66.56-1l2.72-4.33a10.91,10.91,0,0,1-.56,1" transform="translate(-0.08)"/></g></g></g><g class="cls-4"><g class="cls-13"><g class="cls-4"><path class="cls-6" d="M8.16,114.75l-2.72,4.33a.42.42,0,0,0,0-.1c.45-1.47.86-3,1.24-4.45a.78.78,0,0,0-.27-.67c-.89-.74-2.41-2-3.32-2.79a1,1,0,0,1-.32-1.23l2.72-4.32a1,1,0,0,0,.32,1.22c.91.78,2.43,2.05,3.32,2.79a.81.81,0,0,1,.27.67c-.38,1.5-.79,3-1.24,4.45a.3.3,0,0,1,0,.1" transform="translate(-0.08)"/></g></g></g><g class="cls-4"><g class="cls-14"><g class="cls-4"><path class="cls-6" d="M64.83,140.42l-2.71,4.33C61,146.56,57,151.39,55.3,152.6L58,148.27c1.67-1.21,5.68-6,6.81-7.85" transform="translate(-0.08)"/><path class="cls-10" d="M58,148.27,55.3,152.6a1.56,1.56,0,0,1-.42.24l2.72-4.33a1.56,1.56,0,0,0,.42-.24" transform="translate(-0.08)"/></g></g></g><g class="cls-4"><g class="cls-15"><g class="cls-4"><path class="cls-10" d="M57.6,148.51l-2.72,4.33a.86.86,0,0,1-.39-.1l2.72-4.33a.86.86,0,0,0,.39.1" transform="translate(-0.08)"/><path class="cls-6" d="M57.21,148.41l-2.72,4.33a24,24,0,0,1-4.18-3,1.56,1.56,0,0,0-.4-.27l2.72-4.32a1.49,1.49,0,0,1,.4.26,24,24,0,0,0,4.18,3" transform="translate(-0.08)"/><path class="cls-10" d="M52.63,145.18l-2.72,4.32a.92.92,0,0,0-.69,0c-1.5.57-3,1.07-4.48,1.54l2.72-4.33c1.51-.46,3-1,4.48-1.53a.84.84,0,0,1,.69,0" transform="translate(-0.08)"/></g></g></g><g class="cls-4"><g class="cls-16"><g class="cls-4"><path class="cls-10" d="M47.46,146.74l-2.72,4.33-.18.09,2.72-4.32a.77.77,0,0,1,.18-.1" transform="translate(-0.08)"/><path class="cls-6" d="M47.28,146.84l-2.72,4.32a.85.85,0,0,0-.16.17L47.12,147a.61.61,0,0,1,.16-.16" transform="translate(-0.08)"/></g></g></g><polygon class="cls-17" points="10.43 128.17 7.71 132.5 3.54 132.25 6.26 127.92 10.43 128.17"/><g class="cls-4"><g class="cls-18"><g class="cls-4"><path class="cls-10" d="M6.34,127.92l-2.72,4.33a1.53,1.53,0,0,1-.47-.11l2.72-4.33a1.29,1.29,0,0,0,.47.11" transform="translate(-0.08)"/><path class="cls-6" d="M5.87,127.81l-2.72,4.33a1.58,1.58,0,0,1-.87-.85c-.28-.73-.56-1.46-.8-2.19A26.59,26.59,0,0,1,.1,119.7a.81.81,0,0,1,.08-.37L2.9,115a.73.73,0,0,0-.08.37,26.56,26.56,0,0,0,1.38,9.4c.24.73.52,1.46.8,2.19a1.58,1.58,0,0,0,.87.85" transform="translate(-0.08)"/></g></g></g><g class="cls-4"><g class="cls-19"><g class="cls-4"><path class="cls-6" d="M13.9,133.33l-2.72,4.33C10.09,136,9,134.27,7.79,132.5l2.72-4.33c1.17,1.78,2.3,3.46,3.39,5.16" transform="translate(-0.08)"/></g></g></g><g class="cls-4"><g class="cls-20"><g class="cls-4"><path class="cls-6" d="M13.85,134l-2.72,4.33a.72.72,0,0,0,0-.65l2.72-4.33a.72.72,0,0,1-.05.65" transform="translate(-0.08)"/></g></g></g><g class="cls-4"><g class="cls-21"><g class="cls-4"><path class="cls-6" d="M47.75,151.53,45,155.86l-.08.08,2.72-4.33.08-.08" transform="translate(-0.08)"/><path class="cls-10" d="M47.67,151.61,45,155.94l-.11.06a1.11,1.11,0,0,1-.24.05A36,36,0,0,1,31,155.23l2.72-4.33a35.79,35.79,0,0,0,13.65.82,1.25,1.25,0,0,0,.24-.05l.11-.06" transform="translate(-0.08)"/></g></g></g><g class="cls-4"><g class="cls-22"><g class="cls-4"><path class="cls-10" d="M33.67,150.9,31,155.23h0l2.72-4.33h0" transform="translate(-0.08)"/><path class="cls-6" d="M33.64,150.89l-2.72,4.33-.2-.11,2.72-4.33a1.52,1.52,0,0,0,.2.11" transform="translate(-0.08)"/></g></g></g><g class="cls-4"><g class="cls-23"><g class="cls-4"><path class="cls-6" d="M33.44,150.78l-2.72,4.33c-.25-1.29-.54-2.62-.76-4a1.09,1.09,0,0,0-.79-1l2.72-4.33a1.09,1.09,0,0,1,.79,1c.22,1.33.51,2.66.76,3.95" transform="translate(-0.08)"/><path class="cls-10" d="M31.89,145.85l-2.72,4.33a6,6,0,0,0-.78-.25,13.09,13.09,0,0,1-1.89-.63L29.22,145a14.5,14.5,0,0,0,1.89.64,6.23,6.23,0,0,1,.78.24" transform="translate(-0.08)"/><path class="cls-6" d="M29.22,145,26.5,149.3a18.48,18.48,0,0,1-1.85-.89,5.72,5.72,0,0,0-.66-.33l2.72-4.33.66.33a15,15,0,0,0,1.85.89" transform="translate(-0.08)"/><path class="cls-10" d="M26.71,143.75,24,148.08a.9.9,0,0,0-.64-.08.46.46,0,0,0-.13.08l2.72-4.33a.42.42,0,0,1,.13-.07.84.84,0,0,1,.64.07" transform="translate(-0.08)"/><path class="cls-6" d="M25.94,143.75l-2.72,4.33a.67.67,0,0,0-.16.14c-.7.74-1.42,1.47-2.14,2.2a.52.52,0,0,1-.11.1l2.72-4.33a.52.52,0,0,0,.11-.1c.72-.73,1.44-1.46,2.14-2.2a.7.7,0,0,1,.16-.14" transform="translate(-0.08)"/><path class="cls-10" d="M23.53,146.19l-2.72,4.33-.22.11a1.31,1.31,0,0,1-1,0l2.72-4.33a1.31,1.31,0,0,0,1,0,.91.91,0,0,0,.22-.11" transform="translate(-0.08)"/><path class="cls-6" d="M22.34,146.26l-2.72,4.33-.22-.11a43,43,0,0,1-10.61-8.81.67.67,0,0,1-.11-.75l2.72-4.33a.68.68,0,0,0,.11.76,43,43,0,0,0,10.61,8.8l.22.11" transform="translate(-0.08)"/></g></g></g><path class="cls-24" d="M63.11,118.19a3.26,3.26,0,0,1,2.75,2,24.06,24.06,0,0,1,1.45,5.58,21.57,21.57,0,0,1,.41,4.62c0,.57-.14.85-.39.95a.85.85,0,0,1-.4,0c-1.35-.11-2.69-.19-4-.22a.86.86,0,0,0-.27.05.61.61,0,0,0-.39.38c-.44,1.42-.83,2.87-1.18,4.33a1,1,0,0,0,.31.81c1.09.94,3.7,2.54,3.76,3.08s-6,8.18-7.54,8.73c-.72,0-3.32-2-4.57-3.07a.91.91,0,0,0-1.09-.23c-1.5.56-3,1.07-4.48,1.53a.59.59,0,0,0-.4.72c.26,1.2.45,2.4.7,3.6.08.33.05.52-.2.61a1.25,1.25,0,0,1-.24.05,35.79,35.79,0,0,1-13.65-.82,1,1,0,0,1-.23-.12c-.25-1.29-.54-2.62-.76-3.95-.11-.68-.38-.92-1.57-1.22a16.27,16.27,0,0,1-3.74-1.53c-.69-.37-1-.51-1.3-.4a.76.76,0,0,0-.29.21c-.7.74-1.42,1.47-2.14,2.2a.72.72,0,0,1-.33.21,1.39,1.39,0,0,1-1.19-.15,43,43,0,0,1-10.61-8.8.66.66,0,0,1-.08-.8c.76-.86,1.61-1.66,2.38-2.52a.71.71,0,0,0,.09-.7c-1.09-1.7-2.22-3.38-3.39-5.16l-4.17-.25A1.57,1.57,0,0,1,5,127c-.28-.73-.56-1.46-.8-2.19a26.56,26.56,0,0,1-1.38-9.4c0-.28.08-.44.26-.51a.9.9,0,0,1,.42,0q2.05.17,4.08.21a.75.75,0,0,0,.26,0,.59.59,0,0,0,.36-.35c.45-1.47.86-3,1.24-4.45a.81.81,0,0,0-.27-.67c-.89-.74-2.41-2-3.32-2.79a1,1,0,0,1-.31-1.25c.7-1,1.37-2,2.12-3a19.05,19.05,0,0,1,4.39-4,1.76,1.76,0,0,1,.39-.19,3,3,0,0,1,2.87.62l2.57,2.09c1.82-.58,3.57-1.12,5.31-1.71.17-.07.25-.38.22-.57-.14-.83-.3-1.65-.46-2.5a1.6,1.6,0,0,1,1-1.87,2.22,2.22,0,0,1,.55-.12,35.47,35.47,0,0,1,10.21.52,3.35,3.35,0,0,1,2.65,2.43c.15.73.28,1.45.4,2.18s.41.85,1.48,1.12a13.21,13.21,0,0,1,3.25,1.27c1,.53,1.51.76,1.94.6a1.18,1.18,0,0,0,.45-.35,21.85,21.85,0,0,1,2.18-2.23.69.69,0,0,1,.17-.1.87.87,0,0,1,.65,0,43.6,43.6,0,0,1,10.16,8,2,2,0,0,1,.22,2.61c-.51.53-1,1.06-1.56,1.58a.81.81,0,0,0,0,1.07q1.42,2.1,2.69,4.23a1.24,1.24,0,0,0,1.16.76C61.4,118.09,62.25,118.14,63.11,118.19ZM51.5,132.68c3.76-7.75-1.81-18.16-11.58-22.41-5.05-2.19-10.12-2.38-14.1-.89a11.4,11.4,0,0,0-7.07,7.17c-2.6,8,3.88,18.07,14.24,21.63a18.09,18.09,0,0,0,12.08.13,11.34,11.34,0,0,0,6.43-5.63" transform="translate(-0.08)"/></g></g></g></svg>