<svg xmlns="http://www.w3.org/2000/svg" xmlns:xlink="http://www.w3.org/1999/xlink" viewBox="0 0 104.99 178.9"><defs><style>.cls-1{fill:none;}.cls-2{fill:#303031;}.cls-3{fill:#4c4c4c;}.cls-4{fill:#ffce00;}.cls-5{fill:#e0232a;}.cls-6{fill:#003308;}.cls-7{isolation:isolate;}.cls-8{clip-path:url(#clip-path);}.cls-9{fill:#1c69e9;}.cls-10{clip-path:url(#clip-path-2);}.cls-11{clip-path:url(#clip-path-3);}.cls-12{clip-path:url(#clip-path-4);}.cls-13{clip-path:url(#clip-path-5);}.cls-14{fill:#1d6cea;}.cls-15{clip-path:url(#clip-path-6);}.cls-16{clip-path:url(#clip-path-7);}.cls-17{clip-path:url(#clip-path-8);}.cls-18{clip-path:url(#clip-path-9);}.cls-19{clip-path:url(#clip-path-10);}.cls-20{clip-path:url(#clip-path-11);}.cls-21{fill:#1f71eb;}.cls-22{clip-path:url(#clip-path-12);}.cls-23{clip-path:url(#clip-path-13);}.cls-24{clip-path:url(#clip-path-14);}.cls-25{clip-path:url(#clip-path-15);}.cls-26{clip-path:url(#clip-path-16);}.cls-27{clip-path:url(#clip-path-17);}.cls-28{fill:#35acfe;}</style><clipPath id="clip-path" transform="translate(-0.08)"><path class="cls-1" d="M58.46,132.75l-2.72,4.33a1.46,1.46,0,0,1-.16.21c-.52.53-1,1.06-1.57,1.58l2.72-4.33c.55-.51,1.05-1,1.57-1.58A.83.83,0,0,0,58.46,132.75Z"/></clipPath><clipPath id="clip-path-2" transform="translate(-0.08)"><path class="cls-1" d="M53.91,139l2.72-4.33.1-.12L54,138.87Z"/></clipPath><clipPath id="clip-path-3" transform="translate(-0.08)"><path class="cls-1" d="M20.42,122l2.72-4.33a1.67,1.67,0,0,0-.2,1.2c.17.84.33,1.67.47,2.5l-2.72,4.32c-.14-.82-.3-1.65-.47-2.49A1.66,1.66,0,0,1,20.42,122Z"/></clipPath><clipPath id="clip-path-4" transform="translate(-0.08)"><path class="cls-1" d="M23.32,121.77,20.6,126.1a.72.72,0,0,0,.09-.46l2.72-4.32A.71.71,0,0,1,23.32,121.77Z"/></clipPath><clipPath id="clip-path-5" transform="translate(-0.08)"><path class="cls-1" d="M67.55,153.66,64.83,158a.48.48,0,0,1-.23.19.94.94,0,0,1-.39,0q-2-.18-4-.21a.65.65,0,0,0-.27.05.72.72,0,0,0-.35.26L62.29,154a.68.68,0,0,1,.35-.27.81.81,0,0,1,.27-.05c1.33,0,2.67.1,4,.21a.8.8,0,0,0,.39,0A.48.48,0,0,0,67.55,153.66Z"/></clipPath><clipPath id="clip-path-6" transform="translate(-0.08)"><path class="cls-1" d="M17.19,140.93l2.72-4.33a11.65,11.65,0,0,1,5.91-4.69c4-1.49,9-1.3,14.09.89,9.78,4.25,15.35,14.65,11.59,22.42l-2.72,4.32c3.76-7.76-1.81-18.16-11.59-22.41-5-2.19-10.11-2.38-14.09-.89A11.65,11.65,0,0,0,17.19,140.93Z"/></clipPath><clipPath id="clip-path-7" transform="translate(-0.08)"><path class="cls-1" d="M51,156.22l-2.72,4.33a10.84,10.84,0,0,0,.55-1l2.72-4.32C51.33,155.56,51.15,155.9,51,156.22Z"/></clipPath><clipPath id="clip-path-8" transform="translate(-0.08)"><path class="cls-1" d="M8.15,137.28l-2.72,4.33a.47.47,0,0,0,.05-.1c.45-1.46.85-2.95,1.23-4.45a.72.72,0,0,0-.26-.67c-.89-.74-2.42-2-3.32-2.78a1,1,0,0,1-.32-1.23l2.72-4.33a1,1,0,0,0,.32,1.23c.9.77,2.43,2.05,3.31,2.78a.71.71,0,0,1,.27.67c-.38,1.5-.78,3-1.23,4.45Z"/></clipPath><clipPath id="clip-path-9" transform="translate(-0.08)"><path class="cls-1" d="M64.83,163l-2.72,4.33c-1.26,2-6,7.61-7.23,8.09l2.72-4.33C58.87,170.57,63.57,165,64.83,163Z"/></clipPath><clipPath id="clip-path-10" transform="translate(-0.08)"><path class="cls-1" d="M57.6,171.05l-2.72,4.33c-.72,0-3.33-2-4.56-3.07a1,1,0,0,0-1.15-.23l-.36.13c-1.33.51-2.69,1-4.07,1.39l2.72-4.33c1.38-.42,2.74-.88,4.07-1.38l.36-.14A1,1,0,0,1,53,168C54.27,169,56.88,171.07,57.6,171.05Z"/></clipPath><clipPath id="clip-path-11" transform="translate(-0.08)"><path class="cls-1" d="M44.4,173.86l2.72-4.33a.71.71,0,0,1,.34-.26l-2.72,4.33A.65.65,0,0,0,44.4,173.86Z"/></clipPath><clipPath id="clip-path-12" transform="translate(-0.08)"><path class="cls-1" d="M.18,141.86l2.72-4.33a.66.66,0,0,0-.08.37,26.79,26.79,0,0,0,1.38,9.4c.24.74.52,1.46.81,2.2a1.57,1.57,0,0,0,1.34,1l-2.72,4.33a1.58,1.58,0,0,1-1.34-1c-.29-.74-.57-1.47-.81-2.2A26.81,26.81,0,0,1,.1,142.22.6.6,0,0,1,.18,141.86Z"/></clipPath><clipPath id="clip-path-13" transform="translate(-0.08)"><path class="cls-1" d="M13.89,155.87l-2.72,4.33C10.09,158.49,9,156.8,7.79,155l2.72-4.32C11.68,152.47,12.81,154.17,13.89,155.87Z"/></clipPath><clipPath id="clip-path-14" transform="translate(-0.08)"><path class="cls-1" d="M13.86,156.5l-2.72,4.33a.67.67,0,0,0,0-.63l2.72-4.33A.67.67,0,0,1,13.86,156.5Z"/></clipPath><clipPath id="clip-path-15" transform="translate(-0.08)"><path class="cls-1" d="M47.74,174.06,45,178.39a.32.32,0,0,1-.19.14,1.28,1.28,0,0,1-.23.06,36.25,36.25,0,0,1-13.66-.82l2.72-4.33a36.25,36.25,0,0,0,13.66.82.77.77,0,0,0,.23-.06A.35.35,0,0,0,47.74,174.06Z"/></clipPath><clipPath id="clip-path-16" transform="translate(-0.08)"><path class="cls-1" d="M33.66,173.44l-2.72,4.33a2.31,2.31,0,0,1-.23-.14l2.72-4.32A1.67,1.67,0,0,0,33.66,173.44Z"/></clipPath><clipPath id="clip-path-17" transform="translate(-0.08)"><path class="cls-1" d="M8.67,163.47l2.72-4.33a.65.65,0,0,0,.12.73,42.81,42.81,0,0,0,10.6,8.81,1.41,1.41,0,0,0,1.2.15.85.85,0,0,0,.32-.21c.73-.73,1.45-1.45,2.14-2.2a.72.72,0,0,1,.3-.21c.27-.11.61,0,1.29.4a16.53,16.53,0,0,0,3.75,1.53c1.19.31,1.45.55,1.57,1.22.22,1.33.5,2.66.75,3.95l-2.72,4.32c-.25-1.29-.53-2.61-.75-3.94-.12-.68-.38-.91-1.57-1.22a16.27,16.27,0,0,1-3.74-1.53c-.69-.38-1-.51-1.3-.41a.75.75,0,0,0-.3.22c-.69.74-1.41,1.47-2.14,2.2a1,1,0,0,1-.32.21,1.45,1.45,0,0,1-1.2-.15,43,43,0,0,1-10.6-8.81A.66.66,0,0,1,8.67,163.47Z"/></clipPath></defs><g id="Capa_2" data-name="Capa 2"><g id="Capa_12" data-name="Capa 12"><polygon class="cls-2" points="21.55 54.22 16.95 54.22 13.55 20.22 21.55 20.22 21.55 54.22"/><polygon class="cls-2" points="21.55 95.97 16.95 95.97 13.55 61.97 21.55 61.97 21.55 95.97"/><polygon class="cls-2" points="21.55 138.22 16.95 138.22 13.55 104.22 21.55 104.22 21.55 138.22"/><polygon class="cls-2" points="96.99 54.22 101.59 54.22 104.99 20.22 96.99 20.22 96.99 54.22"/><polygon class="cls-2" points="96.99 95.97 101.59 95.97 104.99 61.97 96.99 61.97 96.99 95.97"/><polygon class="cls-2" points="96.99 138.22 101.59 138.22 104.99 104.22 96.99 104.22 96.99 138.22"/><rect class="cls-3" x="21.15" width="76.23" height="158.44" rx="19.62"/><circle class="cls-4" cx="59.27" cy="79.22" r="16.88"/><path class="cls-2" d="M78.41,79.22a18.2,18.2,0,0,1-6.17,12.89,19.88,19.88,0,0,1-12.89,5,18.71,18.71,0,0,1-12.94-4.94,19.08,19.08,0,0,1-6.13-12.94,19,19,0,0,1,5-14,19.48,19.48,0,0,1,6.33-4.53A20.14,20.14,0,0,1,59.35,59a18.59,18.59,0,0,1,14.07,6.18A20,20,0,0,1,78.41,79.22Zm-4.36,0a13.84,13.84,0,0,0-4.9-9.81,15.49,15.49,0,0,0-9.8-3.7,14.3,14.3,0,0,0-9.85,3.66,14.65,14.65,0,0,0-1.08,20.78,15.09,15.09,0,0,0,4.91,3.59,15.93,15.93,0,0,0,6,1.36,14.32,14.32,0,0,0,11-4.9A15.66,15.66,0,0,0,74.05,79.22Z" transform="translate(-0.08)"/><circle class="cls-5" cx="59.27" cy="34.72" r="16.88"/><path class="cls-2" d="M78.41,34.72a18.2,18.2,0,0,1-6.17,12.89,19.88,19.88,0,0,1-12.89,5,18.71,18.71,0,0,1-12.94-4.94,19.08,19.08,0,0,1-6.13-12.94,19,19,0,0,1,5-14,19.48,19.48,0,0,1,6.33-4.53,20.14,20.14,0,0,1,7.69-1.69,18.59,18.59,0,0,1,14.07,6.18A20,20,0,0,1,78.41,34.72Zm-4.36,0a13.84,13.84,0,0,0-4.9-9.81,15.49,15.49,0,0,0-9.8-3.7,14.3,14.3,0,0,0-9.85,3.66,14.65,14.65,0,0,0-1.08,20.78,15.09,15.09,0,0,0,4.91,3.59,15.93,15.93,0,0,0,6,1.36,14.32,14.32,0,0,0,11-4.9A15.66,15.66,0,0,0,74.05,34.72Z" transform="translate(-0.08)"/><circle class="cls-6" cx="59.27" cy="123.72" r="16.88"/><path class="cls-2" d="M78.41,123.72a18.2,18.2,0,0,1-6.17,12.89,19.88,19.88,0,0,1-12.89,5,18.71,18.71,0,0,1-12.94-4.94,19.08,19.08,0,0,1-6.13-12.94,19,19,0,0,1,5-14,19.48,19.48,0,0,1,6.33-4.53,20.14,20.14,0,0,1,7.69-1.69,18.59,18.59,0,0,1,14.07,6.18A20,20,0,0,1,78.41,123.72Zm-4.36,0a13.84,13.84,0,0,0-4.9-9.81,15.49,15.49,0,0,0-9.8-3.7,14.3,14.3,0,0,0-9.85,3.66,14.65,14.65,0,0,0-1.08,20.78,15.09,15.09,0,0,0,4.91,3.59,15.93,15.93,0,0,0,6,1.36,14.32,14.32,0,0,0,11-4.9A15.66,15.66,0,0,0,74.05,123.72Z" transform="translate(-0.08)"/><g class="cls-7"><g class="cls-7"><g class="cls-8"><g class="cls-7"><path class="cls-9" d="M58.46,132.75l-2.72,4.33a1.46,1.46,0,0,1-.16.21c-.52.53-1,1.06-1.57,1.58l2.72-4.33c.55-.51,1.05-1,1.57-1.58a.83.83,0,0,0,.16-.21" transform="translate(-0.08)"/></g></g></g><g class="cls-7"><g class="cls-10"><g class="cls-7"><path class="cls-9" d="M56.73,134.54,54,138.87l-.1.12,2.72-4.33.1-.12" transform="translate(-0.08)"/></g></g></g><g class="cls-7"><g class="cls-11"><g class="cls-7"><path class="cls-9" d="M23.41,121.32l-2.72,4.32c-.14-.82-.3-1.65-.47-2.49a1.66,1.66,0,0,1,.2-1.2l2.72-4.33a1.67,1.67,0,0,0-.2,1.2c.17.84.33,1.67.47,2.5" transform="translate(-0.08)"/></g></g></g><g class="cls-7"><g class="cls-12"><g class="cls-7"><path class="cls-9" d="M23.32,121.77,20.6,126.1a.72.72,0,0,0,.09-.46l2.72-4.32a.71.71,0,0,1-.09.45" transform="translate(-0.08)"/></g></g></g><g class="cls-7"><g class="cls-13"><g class="cls-7"><path class="cls-9" d="M67.55,153.66,64.83,158a.51.51,0,0,1-.12.13l2.72-4.32a.87.87,0,0,0,.12-.14" transform="translate(-0.08)"/><path class="cls-14" d="M67.43,153.8l-2.72,4.32a.39.39,0,0,1-.11.06.94.94,0,0,1-.39,0q-2-.18-4-.21a.65.65,0,0,0-.27.05.76.76,0,0,0-.18.09l2.72-4.33.18-.09a.81.81,0,0,1,.27-.05c1.33,0,2.67.1,4,.21a.8.8,0,0,0,.39,0l.11,0" transform="translate(-0.08)"/><path class="cls-9" d="M62.46,153.81l-2.72,4.33a.69.69,0,0,0-.17.17L62.29,154a.58.58,0,0,1,.17-.18" transform="translate(-0.08)"/></g></g></g><g class="cls-7"><g class="cls-15"><g class="cls-7"><path class="cls-9" d="M51.5,155.22l-2.72,4.32c3.76-7.76-1.81-18.16-11.59-22.41l-.46-.2,2.72-4.32.46.19c9.78,4.25,15.35,14.65,11.59,22.42" transform="translate(-0.08)"/><path class="cls-14" d="M39.45,132.61l-2.72,4.32a18.86,18.86,0,0,0-13.63-.69,12.69,12.69,0,0,0-2.92,1.54l2.72-4.33a13.09,13.09,0,0,1,2.92-1.54,18.86,18.86,0,0,1,13.63.7" transform="translate(-0.08)"/><path class="cls-9" d="M22.9,133.45l-2.72,4.33a11.22,11.22,0,0,0-3,3.15l2.72-4.33a11.09,11.09,0,0,1,3-3.15" transform="translate(-0.08)"/></g></g></g><g class="cls-7"><g class="cls-16"><g class="cls-7"><path class="cls-9" d="M51,156.22l-2.72,4.33a10.84,10.84,0,0,0,.55-1l2.72-4.32c-.17.34-.35.68-.55,1" transform="translate(-0.08)"/></g></g></g><g class="cls-7"><g class="cls-17"><g class="cls-7"><path class="cls-9" d="M8.15,137.28l-2.72,4.33a.47.47,0,0,0,.05-.1c.45-1.46.85-2.95,1.23-4.45a.72.72,0,0,0-.26-.67c-.89-.74-2.42-2-3.32-2.78a1,1,0,0,1-.32-1.23l2.72-4.33a1,1,0,0,0,.32,1.23c.9.77,2.43,2.05,3.31,2.78a.71.71,0,0,1,.27.67c-.38,1.5-.78,3-1.23,4.45l0,.1" transform="translate(-0.08)"/></g></g></g><g class="cls-7"><g class="cls-18"><g class="cls-7"><path class="cls-9" d="M64.83,163l-2.72,4.33c-1.14,1.82-5.15,6.65-6.81,7.85L58,170.81c1.66-1.2,5.67-6,6.81-7.85" transform="translate(-0.08)"/><path class="cls-14" d="M58,170.81l-2.72,4.33a2.14,2.14,0,0,1-.42.24l2.72-4.33a1.73,1.73,0,0,0,.42-.24" transform="translate(-0.08)"/></g></g></g><g class="cls-7"><g class="cls-19"><g class="cls-7"><path class="cls-14" d="M57.6,171.05l-2.72,4.33a1.24,1.24,0,0,1-.39-.1L57.21,171a1,1,0,0,0,.39.1" transform="translate(-0.08)"/><path class="cls-9" d="M57.21,171l-2.72,4.33a23.78,23.78,0,0,1-4.17-3,1.44,1.44,0,0,0-.41-.27l2.72-4.33A1.44,1.44,0,0,1,53,168a23.26,23.26,0,0,0,4.17,3" transform="translate(-0.08)"/><path class="cls-14" d="M52.63,167.71,49.91,172a.92.92,0,0,0-.74,0l-.36.13c-1.33.51-2.69,1-4.07,1.39l2.72-4.33c1.38-.42,2.74-.88,4.07-1.38l.36-.14a.92.92,0,0,1,.74,0" transform="translate(-0.08)"/></g></g></g><g class="cls-7"><g class="cls-20"><g class="cls-7"><path class="cls-14" d="M47.46,169.27l-2.72,4.33a.76.76,0,0,0-.18.09l2.72-4.33.18-.09" transform="translate(-0.08)"/><path class="cls-9" d="M47.28,169.36l-2.72,4.33a.52.52,0,0,0-.16.17l2.72-4.33a.64.64,0,0,1,.16-.17" transform="translate(-0.08)"/></g></g></g><polygon class="cls-21" points="10.43 150.7 7.71 155.03 3.54 154.79 6.26 150.46 10.43 150.7"/><g class="cls-7"><g class="cls-22"><g class="cls-7"><path class="cls-14" d="M6.35,150.46l-2.72,4.33a1.6,1.6,0,0,1-.48-.11l2.72-4.33a1.6,1.6,0,0,0,.48.11" transform="translate(-0.08)"/><path class="cls-9" d="M5.87,150.35l-2.72,4.33a1.56,1.56,0,0,1-.86-.85c-.29-.74-.57-1.47-.81-2.2A26.81,26.81,0,0,1,.1,142.22a.6.6,0,0,1,.08-.36l2.72-4.33a.66.66,0,0,0-.08.37,26.79,26.79,0,0,0,1.38,9.4c.24.74.52,1.46.81,2.2a1.56,1.56,0,0,0,.86.85" transform="translate(-0.08)"/></g></g></g><g class="cls-7"><g class="cls-23"><g class="cls-7"><path class="cls-9" d="M13.89,155.87l-2.72,4.33C10.09,158.49,9,156.8,7.79,155l2.72-4.32c1.17,1.77,2.3,3.47,3.38,5.17" transform="translate(-0.08)"/></g></g></g><g class="cls-7"><g class="cls-24"><g class="cls-7"><path class="cls-9" d="M13.86,156.5l-2.72,4.33a.67.67,0,0,0,0-.63l2.72-4.33a.67.67,0,0,1,0,.63" transform="translate(-0.08)"/></g></g></g><g class="cls-7"><g class="cls-25"><g class="cls-7"><path class="cls-9" d="M47.74,174.06,45,178.39a.2.2,0,0,1-.08.08l2.72-4.32a.32.32,0,0,0,.08-.09" transform="translate(-0.08)"/><path class="cls-14" d="M47.66,174.15l-2.72,4.32a.24.24,0,0,1-.11.06,1.28,1.28,0,0,1-.23.06,36.25,36.25,0,0,1-13.66-.82l2.72-4.33a36.25,36.25,0,0,0,13.66.82.77.77,0,0,0,.23-.06l.11,0" transform="translate(-0.08)"/></g></g></g><g class="cls-7"><g class="cls-26"><g class="cls-7"><path class="cls-14" d="M33.66,173.44l-2.72,4.33h0l2.72-4.33h0" transform="translate(-0.08)"/><path class="cls-9" d="M33.65,173.43l-2.72,4.33-.22-.13,2.72-4.32.22.12" transform="translate(-0.08)"/></g></g></g><g class="cls-7"><g class="cls-27"><g class="cls-7"><path class="cls-9" d="M33.43,173.31l-2.72,4.32c-.25-1.29-.53-2.61-.75-3.94a1.12,1.12,0,0,0-.8-1l2.72-4.33a1.12,1.12,0,0,1,.8,1c.22,1.33.5,2.66.75,3.95" transform="translate(-0.08)"/><path class="cls-14" d="M31.88,168.38l-2.72,4.33a6,6,0,0,0-.77-.24,16.6,16.6,0,0,1-1.88-.63l2.72-4.33a14.82,14.82,0,0,0,1.88.63,6,6,0,0,1,.77.24" transform="translate(-0.08)"/><path class="cls-9" d="M29.23,167.51l-2.72,4.33a18.72,18.72,0,0,1-1.86-.9c-.27-.15-.48-.25-.66-.33l2.72-4.32a6.3,6.3,0,0,1,.65.32,17.79,17.79,0,0,0,1.87.9" transform="translate(-0.08)"/><path class="cls-14" d="M26.71,166.29,24,170.61a.91.91,0,0,0-.64-.08l-.14.08,2.72-4.33a.37.37,0,0,1,.14-.07.81.81,0,0,1,.64.08" transform="translate(-0.08)"/><path class="cls-9" d="M25.93,166.28l-2.72,4.33a1,1,0,0,0-.16.14c-.69.74-1.41,1.47-2.14,2.2a.52.52,0,0,1-.11.1l2.72-4.33a.52.52,0,0,0,.11-.1c.73-.73,1.45-1.45,2.14-2.2a1,1,0,0,1,.16-.14" transform="translate(-0.08)"/><path class="cls-14" d="M23.52,168.72l-2.72,4.33-.21.11a1.42,1.42,0,0,1-1,0l2.72-4.33a1.36,1.36,0,0,0,1,0,1.06,1.06,0,0,0,.21-.11" transform="translate(-0.08)"/><path class="cls-9" d="M22.32,168.79l-2.72,4.33-.21-.11a43,43,0,0,1-10.6-8.81.66.66,0,0,1-.12-.73l2.72-4.33a.65.65,0,0,0,.12.73,42.81,42.81,0,0,0,10.6,8.81l.21.11" transform="translate(-0.08)"/></g></g></g><path class="cls-28" d="M63.11,140.72a3.26,3.26,0,0,1,2.75,2,24.57,24.57,0,0,1,1.45,5.58,21,21,0,0,1,.41,4.62c0,.58-.14.85-.4.95a.8.8,0,0,1-.39,0c-1.35-.11-2.69-.19-4-.21a.81.81,0,0,0-.27.05.62.62,0,0,0-.39.37c-.44,1.43-.82,2.87-1.17,4.33a.9.9,0,0,0,.3.81c1.09.94,3.69,2.54,3.76,3.08s-6.06,8.19-7.54,8.74c-.72,0-3.33-2-4.56-3.07a1,1,0,0,0-1.15-.23l-.36.14c-1.33.5-2.69,1-4.07,1.38a.59.59,0,0,0-.4.72c.26,1.2.45,2.4.71,3.61.06.32,0,.51-.22.6a.77.77,0,0,1-.23.06,36.25,36.25,0,0,1-13.66-.82,1.67,1.67,0,0,1-.23-.13c-.25-1.29-.53-2.62-.75-3.95-.12-.67-.38-.91-1.57-1.22a16.53,16.53,0,0,1-3.75-1.53c-.68-.37-1-.51-1.29-.4a.72.72,0,0,0-.3.21c-.69.75-1.41,1.47-2.14,2.2a.85.85,0,0,1-.32.21,1.41,1.41,0,0,1-1.2-.15,42.81,42.81,0,0,1-10.6-8.81.6.6,0,0,1-.07-.78c.75-.87,1.6-1.68,2.37-2.53a.66.66,0,0,0,.08-.69c-1.08-1.7-2.21-3.4-3.38-5.17l-4.16-.24a1.57,1.57,0,0,1-1.34-1c-.29-.74-.57-1.46-.81-2.2a26.79,26.79,0,0,1-1.38-9.4c0-.28.07-.44.25-.51a1.14,1.14,0,0,1,.44,0c1.36.11,2.73.18,4.07.21a.78.78,0,0,0,.26,0,.59.59,0,0,0,.36-.35c.45-1.46.85-3,1.23-4.45a.71.71,0,0,0-.27-.67c-.88-.73-2.41-2-3.31-2.78a1,1,0,0,1-.3-1.25c.69-1,1.36-2,2.11-3a19.17,19.17,0,0,1,4.38-4,2.14,2.14,0,0,1,.4-.2,3,3,0,0,1,2.86.62l2.57,2.09c1.83-.58,3.58-1.13,5.31-1.7a.58.58,0,0,0,.23-.58c-.14-.83-.3-1.66-.47-2.5A1.59,1.59,0,0,1,24,117a2.42,2.42,0,0,1,.56-.13,35.4,35.4,0,0,1,10.2.52,3.38,3.38,0,0,1,2.66,2.43c.14.73.28,1.46.4,2.17s.42.87,1.48,1.13a13.78,13.78,0,0,1,3.25,1.27c1,.53,1.51.76,1.93.61a1.11,1.11,0,0,0,.46-.37,24,24,0,0,1,2.18-2.22.62.62,0,0,1,.16-.1.9.9,0,0,1,.66,0,43.65,43.65,0,0,1,10.16,8.05,2,2,0,0,1,.22,2.6c-.52.53-1,1.07-1.57,1.58a.84.84,0,0,0,0,1.08q1.42,2.08,2.69,4.23a1.21,1.21,0,0,0,1.15.75C61.4,140.62,62.25,140.67,63.11,140.72ZM51.5,155.22c3.76-7.77-1.81-18.17-11.59-22.42-5-2.19-10.11-2.38-14.09-.89a11.4,11.4,0,0,0-7.07,7.17C16.15,147,22.62,157.15,33,160.7a18.06,18.06,0,0,0,12.09.14,11.37,11.37,0,0,0,6.42-5.62" transform="translate(-0.08)"/></g></g></g></svg>