<svg xmlns="http://www.w3.org/2000/svg" xmlns:xlink="http://www.w3.org/1999/xlink" viewBox="0 0 104.89 179.87"><defs><style>.cls-1{fill:none;}.cls-2{fill:#303031;}.cls-3{fill:#4c4c4c;}.cls-4{fill:#564500;}.cls-5{fill:#60111a;}.cls-6{fill:#00a828;}.cls-7{isolation:isolate;}.cls-8{clip-path:url(#clip-path);}.cls-9{fill:#1c69e9;}.cls-10{clip-path:url(#clip-path-2);}.cls-11{clip-path:url(#clip-path-3);}.cls-12{clip-path:url(#clip-path-4);}.cls-13{clip-path:url(#clip-path-5);}.cls-14{fill:#1d6cea;}.cls-15{clip-path:url(#clip-path-6);}.cls-16{clip-path:url(#clip-path-7);}.cls-17{clip-path:url(#clip-path-8);}.cls-18{clip-path:url(#clip-path-9);}.cls-19{clip-path:url(#clip-path-10);}.cls-20{clip-path:url(#clip-path-11);}.cls-21{clip-path:url(#clip-path-12);}.cls-22{fill:#1f71eb;}.cls-23{clip-path:url(#clip-path-13);}.cls-24{clip-path:url(#clip-path-14);}.cls-25{clip-path:url(#clip-path-15);}.cls-26{clip-path:url(#clip-path-16);}.cls-27{clip-path:url(#clip-path-17);}.cls-28{clip-path:url(#clip-path-18);}.cls-29{fill:#35acfe;}</style><clipPath id="clip-path" transform="translate(-0.09)"><path class="cls-1" d="M58.47,133.72l-2.72,4.33a1.57,1.57,0,0,1-.17.21c-.51.53-1,1.06-1.56,1.58l2.72-4.33c.53-.51,1-1,1.56-1.58Z"/></clipPath><clipPath id="clip-path-2" transform="translate(-0.09)"><path class="cls-1" d="M53.92,140l2.72-4.33a.53.53,0,0,1,.1-.12L54,139.84A.58.58,0,0,0,53.92,140Z"/></clipPath><clipPath id="clip-path-3" transform="translate(-0.09)"><path class="cls-1" d="M20.43,122.92l2.72-4.33a1.61,1.61,0,0,0-.2,1.2c.16.84.32,1.67.46,2.49l-2.72,4.33c-.14-.82-.3-1.65-.46-2.49A1.61,1.61,0,0,1,20.43,122.92Z"/></clipPath><clipPath id="clip-path-4" transform="translate(-0.09)"><path class="cls-1" d="M23.32,122.74l-2.72,4.33a.69.69,0,0,0,.09-.46l2.72-4.33A.67.67,0,0,1,23.32,122.74Z"/></clipPath><clipPath id="clip-path-5" transform="translate(-0.09)"><path class="cls-1" d="M67.55,154.63,64.83,159a.5.5,0,0,1-.22.19,1,1,0,0,1-.4,0c-1.34-.12-2.69-.19-4-.21a.63.63,0,0,0-.27,0,.77.77,0,0,0-.34.27L62.3,155a.69.69,0,0,1,.34-.26.65.65,0,0,1,.27-.05q2,0,4,.21a.85.85,0,0,0,.4,0A.5.5,0,0,0,67.55,154.63Z"/></clipPath><clipPath id="clip-path-6" transform="translate(-0.09)"><path class="cls-1" d="M17.19,141.9l2.72-4.33a11.65,11.65,0,0,1,5.91-4.69c4-1.49,9-1.3,14.09.89,9.78,4.25,15.35,14.65,11.59,22.41l-2.72,4.33c3.76-7.76-1.81-18.17-11.59-22.41-5-2.2-10.11-2.38-14.09-.89A11.65,11.65,0,0,0,17.19,141.9Z"/></clipPath><clipPath id="clip-path-7" transform="translate(-0.09)"><path class="cls-1" d="M51,157.19l-2.72,4.32a8.78,8.78,0,0,0,.55-1l2.72-4.33A8.92,8.92,0,0,1,51,157.19Z"/></clipPath><clipPath id="clip-path-8" transform="translate(-0.09)"><path class="cls-1" d="M2.81,133.35,5.53,129a1,1,0,0,0,.33,1.22c.89.77,2.43,2.05,3.3,2.78l-2.72,4.33c-.87-.74-2.41-2-3.3-2.79A1,1,0,0,1,2.81,133.35Z"/></clipPath><clipPath id="clip-path-9" transform="translate(-0.09)"><path class="cls-1" d="M8.16,138.24l-2.72,4.33a.36.36,0,0,0,0-.09c.46-1.47.86-2.95,1.23-4.45a.72.72,0,0,0-.27-.67L9.16,133a.73.73,0,0,1,.27.67c-.38,1.5-.78,3-1.23,4.45A.36.36,0,0,1,8.16,138.24Z"/></clipPath><clipPath id="clip-path-10" transform="translate(-0.09)"><path class="cls-1" d="M64.82,163.93l-2.71,4.33c-1.26,2-6,7.61-7.23,8.09L57.6,172C58.87,171.54,63.57,165.94,64.82,163.93Z"/></clipPath><clipPath id="clip-path-11" transform="translate(-0.09)"><path class="cls-1" d="M57.6,172l-2.72,4.33c-.72,0-3.32-2-4.56-3.08a1,1,0,0,0-1.15-.22l-.36.13c-1.33.5-2.69,1-4.07,1.39l2.72-4.33c1.38-.42,2.74-.88,4.07-1.38l.36-.14a1,1,0,0,1,1.15.22C54.27,170,56.88,172,57.6,172Z"/></clipPath><clipPath id="clip-path-12" transform="translate(-0.09)"><path class="cls-1" d="M44.4,174.83l2.72-4.33a.71.71,0,0,1,.34-.26l-2.72,4.33A.65.65,0,0,0,44.4,174.83Z"/></clipPath><clipPath id="clip-path-13" transform="translate(-0.09)"><path class="cls-1" d="M.18,142.82,2.9,138.5a.69.69,0,0,0-.08.36,26.81,26.81,0,0,0,1.38,9.41c.24.73.52,1.46.8,2.2a1.61,1.61,0,0,0,1.35,1l-2.72,4.32a1.61,1.61,0,0,1-1.35-.95c-.27-.74-.56-1.47-.8-2.2A27,27,0,0,1,.1,143.19.75.75,0,0,1,.18,142.82Z"/></clipPath><clipPath id="clip-path-14" transform="translate(-0.09)"><path class="cls-1" d="M13.9,156.84l-2.72,4.33C10.1,159.46,9,157.77,7.79,156l2.72-4.33C11.68,153.44,12.82,155.13,13.9,156.84Z"/></clipPath><clipPath id="clip-path-15" transform="translate(-0.09)"><path class="cls-1" d="M13.85,157.47l-2.72,4.33a.68.68,0,0,0,0-.63l2.72-4.33A.68.68,0,0,1,13.85,157.47Z"/></clipPath><clipPath id="clip-path-16" transform="translate(-0.09)"><path class="cls-1" d="M47.75,175,45,179.35a.35.35,0,0,1-.2.15l-.23.06A36.38,36.38,0,0,1,31,178.74l2.72-4.33a36.38,36.38,0,0,0,13.65.82,1.09,1.09,0,0,0,.23-.06A.38.38,0,0,0,47.75,175Z"/></clipPath><clipPath id="clip-path-17" transform="translate(-0.09)"><path class="cls-1" d="M33.67,174.41,31,178.74a1.15,1.15,0,0,1-.23-.14l2.72-4.33A1.15,1.15,0,0,0,33.67,174.41Z"/></clipPath><clipPath id="clip-path-18" transform="translate(-0.09)"><path class="cls-1" d="M8.68,164.43l2.72-4.32a.66.66,0,0,0,.11.74,43.4,43.4,0,0,0,10.6,8.8,1.45,1.45,0,0,0,1.2.15,1,1,0,0,0,.33-.21c.72-.73,1.44-1.46,2.13-2.2a.82.82,0,0,1,.3-.22c.27-.1.61,0,1.3.41a15.92,15.92,0,0,0,3.74,1.53c1.19.31,1.46.54,1.57,1.22.22,1.33.51,2.65.76,3.94l-2.72,4.33c-.25-1.29-.54-2.62-.76-3.94-.11-.68-.38-.92-1.57-1.22a15.92,15.92,0,0,1-3.74-1.53c-.69-.38-1-.51-1.3-.41a.72.72,0,0,0-.29.22c-.69.74-1.42,1.47-2.14,2.2a.93.93,0,0,1-.33.21,1.45,1.45,0,0,1-1.2-.15,43.4,43.4,0,0,1-10.6-8.81A.65.65,0,0,1,8.68,164.43Z"/></clipPath></defs><g id="Capa_2" data-name="Capa 2"><g id="Capa_13" data-name="Capa 13"><polygon class="cls-2" points="21.45 54.22 16.85 54.22 13.45 20.22 21.45 20.22 21.45 54.22"/><polygon class="cls-2" points="21.45 95.97 16.85 95.97 13.45 61.97 21.45 61.97 21.45 95.97"/><polygon class="cls-2" points="21.45 138.22 16.85 138.22 13.45 104.22 21.45 104.22 21.45 138.22"/><polygon class="cls-2" points="96.89 54.22 101.49 54.22 104.89 20.22 96.89 20.22 96.89 54.22"/><polygon class="cls-2" points="96.89 95.97 101.49 95.97 104.89 61.97 96.89 61.97 96.89 95.97"/><polygon class="cls-2" points="96.89 138.22 101.49 138.22 104.89 104.22 96.89 104.22 96.89 138.22"/><rect class="cls-3" x="21.06" width="76.23" height="158.44" rx="19.62"/><circle class="cls-4" cx="59.17" cy="79.22" r="16.88"/><path class="cls-2" d="M78.33,79.22a18.21,18.21,0,0,1-6.18,12.89,19.88,19.88,0,0,1-12.89,5,18.73,18.73,0,0,1-12.94-4.94,19.07,19.07,0,0,1-1.08-27,19.48,19.48,0,0,1,6.33-4.53A20.14,20.14,0,0,1,59.26,59a18.59,18.59,0,0,1,14.07,6.18A20,20,0,0,1,78.33,79.22Zm-4.37,0a13.87,13.87,0,0,0-4.89-9.81,15.54,15.54,0,0,0-9.81-3.7,14.3,14.3,0,0,0-9.85,3.66,14.65,14.65,0,0,0-1.08,20.78,15.2,15.2,0,0,0,4.91,3.59,15.93,15.93,0,0,0,6,1.36,14.32,14.32,0,0,0,11-4.9A15.62,15.62,0,0,0,74,79.22Z" transform="translate(-0.09)"/><circle class="cls-5" cx="59.17" cy="34.72" r="16.88"/><path class="cls-2" d="M78.33,34.72a18.21,18.21,0,0,1-6.18,12.89,19.88,19.88,0,0,1-12.89,5,18.73,18.73,0,0,1-12.94-4.94,19.07,19.07,0,0,1-1.08-27,19.48,19.48,0,0,1,6.33-4.53,20.14,20.14,0,0,1,7.69-1.69,18.59,18.59,0,0,1,14.07,6.18A20,20,0,0,1,78.33,34.72Zm-4.37,0a13.87,13.87,0,0,0-4.89-9.81,15.54,15.54,0,0,0-9.81-3.7,14.3,14.3,0,0,0-9.85,3.66,14.65,14.65,0,0,0-1.08,20.78,15.2,15.2,0,0,0,4.91,3.59,15.93,15.93,0,0,0,6,1.36,14.32,14.32,0,0,0,11-4.9A15.62,15.62,0,0,0,74,34.72Z" transform="translate(-0.09)"/><circle class="cls-6" cx="59.17" cy="123.72" r="16.88"/><path class="cls-2" d="M78.33,123.72a18.21,18.21,0,0,1-6.18,12.89,19.88,19.88,0,0,1-12.89,5,18.73,18.73,0,0,1-12.94-4.94,19.07,19.07,0,0,1-1.08-27,19.48,19.48,0,0,1,6.33-4.53,20.14,20.14,0,0,1,7.69-1.69,18.59,18.59,0,0,1,14.07,6.18A20,20,0,0,1,78.33,123.72Zm-4.37,0a13.87,13.87,0,0,0-4.89-9.81,15.54,15.54,0,0,0-9.81-3.7,14.3,14.3,0,0,0-9.85,3.66,14.65,14.65,0,0,0-1.08,20.78,15.09,15.09,0,0,0,4.91,3.59,15.93,15.93,0,0,0,6,1.36,14.32,14.32,0,0,0,11-4.9A15.62,15.62,0,0,0,74,123.72Z" transform="translate(-0.09)"/><g class="cls-7"><g class="cls-7"><g class="cls-8"><g class="cls-7"><path class="cls-9" d="M58.47,133.72l-2.72,4.33a1.57,1.57,0,0,1-.17.21c-.51.53-1,1.06-1.56,1.58l2.72-4.33c.53-.51,1-1,1.56-1.58l.17-.21" transform="translate(-0.09)"/></g></g></g><g class="cls-7"><g class="cls-10"><g class="cls-7"><path class="cls-9" d="M56.74,135.51,54,139.84a.58.58,0,0,0-.1.12l2.72-4.33a.53.53,0,0,1,.1-.12" transform="translate(-0.09)"/></g></g></g><g class="cls-7"><g class="cls-11"><g class="cls-7"><path class="cls-9" d="M23.41,122.28l-2.72,4.33c-.14-.82-.3-1.65-.46-2.49a1.61,1.61,0,0,1,.2-1.2l2.72-4.33a1.61,1.61,0,0,0-.2,1.2c.16.84.32,1.67.46,2.49" transform="translate(-0.09)"/></g></g></g><g class="cls-7"><g class="cls-12"><g class="cls-7"><path class="cls-9" d="M23.32,122.74l-2.72,4.33a.69.69,0,0,0,.09-.46l2.72-4.33a.67.67,0,0,1-.09.46" transform="translate(-0.09)"/></g></g></g><g class="cls-7"><g class="cls-13"><g class="cls-7"><path class="cls-9" d="M67.55,154.63,64.83,159a.37.37,0,0,1-.12.13l2.72-4.33a.3.3,0,0,0,.12-.13" transform="translate(-0.09)"/><path class="cls-14" d="M67.43,154.76l-2.72,4.33-.1.06a1,1,0,0,1-.4,0c-1.34-.12-2.69-.19-4-.21a.63.63,0,0,0-.27,0,1,1,0,0,0-.17.1l2.72-4.33a.56.56,0,0,1,.17-.09.65.65,0,0,1,.27-.05q2,0,4,.21a.85.85,0,0,0,.4,0,.53.53,0,0,0,.1-.06" transform="translate(-0.09)"/><path class="cls-9" d="M62.47,154.78l-2.72,4.33a.69.69,0,0,0-.17.17L62.3,155a.69.69,0,0,1,.17-.17" transform="translate(-0.09)"/></g></g></g><g class="cls-7"><g class="cls-15"><g class="cls-7"><path class="cls-9" d="M51.5,156.18l-2.72,4.33c3.76-7.76-1.81-18.17-11.59-22.41l-.45-.2,2.71-4.33.46.2c9.78,4.25,15.35,14.65,11.59,22.41" transform="translate(-0.09)"/><path class="cls-14" d="M39.45,133.57l-2.71,4.33a18.83,18.83,0,0,0-13.64-.69,12.69,12.69,0,0,0-2.92,1.54l2.72-4.33a12.69,12.69,0,0,1,2.92-1.54,18.86,18.86,0,0,1,13.63.69" transform="translate(-0.09)"/><path class="cls-9" d="M22.9,134.42l-2.72,4.33a11.09,11.09,0,0,0-3,3.15l2.72-4.33a11.08,11.08,0,0,1,3-3.15" transform="translate(-0.09)"/></g></g></g><g class="cls-7"><g class="cls-16"><g class="cls-7"><path class="cls-9" d="M51,157.19l-2.72,4.32a8.78,8.78,0,0,0,.55-1l2.72-4.33a8.92,8.92,0,0,1-.55,1" transform="translate(-0.09)"/></g></g></g><g class="cls-7"><g class="cls-17"><g class="cls-7"><path class="cls-9" d="M9.16,133l-2.72,4.33c-.87-.74-2.41-2-3.3-2.79a1,1,0,0,1-.33-1.22L5.53,129a1,1,0,0,0,.33,1.22c.89.77,2.43,2.05,3.3,2.78" transform="translate(-0.09)"/></g></g></g><g class="cls-7"><g class="cls-18"><g class="cls-7"><path class="cls-9" d="M8.16,138.24l-2.72,4.33a.36.36,0,0,0,0-.09c.46-1.47.86-2.95,1.23-4.45a.72.72,0,0,0-.27-.67L9.16,133a.73.73,0,0,1,.27.67c-.38,1.5-.78,3-1.23,4.45a.36.36,0,0,1,0,.09" transform="translate(-0.09)"/></g></g></g><g class="cls-7"><g class="cls-19"><g class="cls-7"><path class="cls-9" d="M64.82,163.93l-2.71,4.33c-1.15,1.83-5.16,6.65-6.82,7.85L58,171.78c1.66-1.2,5.67-6,6.81-7.85" transform="translate(-0.09)"/><path class="cls-14" d="M58,171.78l-2.72,4.33a2.11,2.11,0,0,1-.41.24L57.6,172a1.7,1.7,0,0,0,.41-.24" transform="translate(-0.09)"/></g></g></g><g class="cls-7"><g class="cls-20"><g class="cls-7"><path class="cls-14" d="M57.6,172l-2.72,4.33a1,1,0,0,1-.39-.1l2.72-4.33a1,1,0,0,0,.39.1" transform="translate(-0.09)"/><path class="cls-9" d="M57.21,171.92l-2.72,4.33a23.71,23.71,0,0,1-4.17-3,1.49,1.49,0,0,0-.4-.26l2.72-4.33a1.49,1.49,0,0,1,.4.26,23.35,23.35,0,0,0,4.17,3" transform="translate(-0.09)"/><path class="cls-14" d="M52.64,168.68,49.92,173a.94.94,0,0,0-.75,0l-.36.13c-1.33.5-2.69,1-4.07,1.39l2.72-4.33c1.38-.42,2.74-.88,4.07-1.38l.36-.14a.94.94,0,0,1,.75,0" transform="translate(-0.09)"/></g></g></g><g class="cls-7"><g class="cls-21"><g class="cls-7"><path class="cls-14" d="M47.46,170.24l-2.72,4.33a.51.51,0,0,0-.18.09l2.72-4.33a.76.76,0,0,1,.18-.09" transform="translate(-0.09)"/><path class="cls-9" d="M47.28,170.33l-2.72,4.33a.64.64,0,0,0-.16.17l2.72-4.33a.64.64,0,0,1,.16-.17" transform="translate(-0.09)"/></g></g></g><polygon class="cls-22" points="10.43 151.66 7.71 155.99 3.54 155.75 6.26 151.43 10.43 151.66"/><g class="cls-7"><g class="cls-23"><g class="cls-7"><path class="cls-14" d="M6.35,151.43l-2.72,4.32a1.16,1.16,0,0,1-.48-.11l2.72-4.32a1.6,1.6,0,0,0,.48.11" transform="translate(-0.09)"/><path class="cls-9" d="M5.87,151.32l-2.72,4.32a1.59,1.59,0,0,1-.87-.84c-.27-.74-.56-1.47-.8-2.2A27,27,0,0,1,.1,143.19a.75.75,0,0,1,.08-.37L2.9,138.5a.69.69,0,0,0-.08.36,26.81,26.81,0,0,0,1.38,9.41c.24.73.52,1.46.8,2.2a1.61,1.61,0,0,0,.87.85" transform="translate(-0.09)"/></g></g></g><g class="cls-7"><g class="cls-24"><g class="cls-7"><path class="cls-9" d="M13.9,156.84l-2.72,4.33C10.1,159.46,9,157.77,7.79,156l2.72-4.33c1.17,1.78,2.31,3.47,3.39,5.18" transform="translate(-0.09)"/></g></g></g><g class="cls-7"><g class="cls-25"><g class="cls-7"><path class="cls-9" d="M13.85,157.47l-2.72,4.33a.68.68,0,0,0,0-.63l2.72-4.33a.68.68,0,0,1-.05.63" transform="translate(-0.09)"/></g></g></g><g class="cls-7"><g class="cls-26"><g class="cls-7"><path class="cls-9" d="M47.75,175,45,179.35a.2.2,0,0,1-.09.09l2.72-4.33a.24.24,0,0,0,.09-.08" transform="translate(-0.09)"/><path class="cls-14" d="M47.66,175.11l-2.72,4.33-.11.06-.23.06A36.38,36.38,0,0,1,31,178.74l2.72-4.33a36.38,36.38,0,0,0,13.65.82,1.09,1.09,0,0,0,.23-.06.24.24,0,0,0,.11-.06" transform="translate(-0.09)"/></g></g></g><g class="cls-7"><g class="cls-27"><g class="cls-7"><path class="cls-14" d="M33.67,174.41,31,178.74h0l2.71-4.33h0" transform="translate(-0.09)"/><path class="cls-9" d="M33.64,174.4l-2.71,4.33a1.2,1.2,0,0,1-.21-.13l2.72-4.33.2.13" transform="translate(-0.09)"/></g></g></g><g class="cls-7"><g class="cls-28"><g class="cls-7"><path class="cls-9" d="M33.44,174.27l-2.72,4.33c-.25-1.29-.54-2.62-.76-3.94a1.09,1.09,0,0,0-.79-1l2.72-4.33a1.11,1.11,0,0,1,.79,1c.22,1.33.51,2.65.76,3.94" transform="translate(-0.09)"/><path class="cls-14" d="M31.89,169.35l-2.72,4.33a6.23,6.23,0,0,0-.78-.24,14.68,14.68,0,0,1-1.87-.63l2.72-4.33a13.27,13.27,0,0,0,1.87.63,6.23,6.23,0,0,1,.78.24" transform="translate(-0.09)"/><path class="cls-9" d="M29.24,168.48l-2.72,4.33a17.79,17.79,0,0,1-1.87-.9c-.27-.15-.48-.25-.66-.33l2.72-4.32c.18.07.39.18.66.32a16.89,16.89,0,0,0,1.87.9" transform="translate(-0.09)"/><path class="cls-14" d="M26.71,167.26,24,171.58a.9.9,0,0,0-.64-.08.5.5,0,0,0-.14.08l2.72-4.33.14-.08a.87.87,0,0,1,.64.09" transform="translate(-0.09)"/><path class="cls-9" d="M25.93,167.25l-2.72,4.33a.64.64,0,0,0-.15.14c-.69.74-1.42,1.47-2.14,2.2l-.12.1,2.72-4.33.12-.1c.72-.73,1.44-1.46,2.13-2.2l.16-.14" transform="translate(-0.09)"/><path class="cls-14" d="M23.52,169.69,20.8,174a1,1,0,0,1-.21.11,1.34,1.34,0,0,1-1,0l2.72-4.32a1.34,1.34,0,0,0,1,0,1,1,0,0,0,.21-.11" transform="translate(-0.09)"/><path class="cls-9" d="M22.33,169.76l-2.72,4.32-.22-.1a43.4,43.4,0,0,1-10.6-8.81.65.65,0,0,1-.11-.74l2.72-4.32a.66.66,0,0,0,.11.74,43.4,43.4,0,0,0,10.6,8.8l.22.11" transform="translate(-0.09)"/></g></g></g><path class="cls-29" d="M63.11,141.69a3.24,3.24,0,0,1,2.75,2,24.57,24.57,0,0,1,1.45,5.58,21.57,21.57,0,0,1,.41,4.62c0,.58-.14.85-.39.95a.85.85,0,0,1-.4,0q-2-.18-4-.21a.65.65,0,0,0-.27.05.66.66,0,0,0-.39.36c-.44,1.44-.82,2.88-1.17,4.34a.92.92,0,0,0,.3.81c1.08.94,3.7,2.54,3.76,3.08s-6.06,8.19-7.54,8.74c-.72,0-3.33-2-4.56-3.08a1,1,0,0,0-1.15-.22l-.36.14c-1.33.5-2.69,1-4.07,1.38a.6.6,0,0,0-.41.72c.27,1.2.46,2.4.72,3.6.07.33,0,.52-.22.61a1.09,1.09,0,0,1-.23.06,36.38,36.38,0,0,1-13.65-.82,1.15,1.15,0,0,1-.23-.14c-.25-1.29-.54-2.61-.76-3.94-.11-.68-.38-.91-1.57-1.22a15.92,15.92,0,0,1-3.74-1.53c-.69-.37-1-.51-1.3-.41a.82.82,0,0,0-.3.22c-.69.74-1.41,1.47-2.13,2.2a1,1,0,0,1-.33.21,1.45,1.45,0,0,1-1.2-.15,43.4,43.4,0,0,1-10.6-8.8.65.65,0,0,1-.08-.79c.77-.87,1.6-1.68,2.38-2.53a.69.69,0,0,0,.09-.69c-1.08-1.71-2.22-3.4-3.39-5.18l-4.16-.23a1.61,1.61,0,0,1-1.35-1c-.28-.74-.56-1.47-.8-2.2a26.81,26.81,0,0,1-1.38-9.41c0-.27.07-.43.25-.5a1.11,1.11,0,0,1,.43,0c1.37.11,2.73.18,4.09.21a.67.67,0,0,0,.24,0,.61.61,0,0,0,.37-.35c.45-1.46.85-3,1.23-4.45a.73.73,0,0,0-.27-.67c-.87-.73-2.41-2-3.3-2.78A1,1,0,0,1,5.55,129c.69-1,1.36-2,2.12-3a19,19,0,0,1,4.37-4,1.93,1.93,0,0,1,.38-.19,3.06,3.06,0,0,1,2.89.62l2.56,2.08c1.83-.58,3.59-1.12,5.32-1.7.16-.06.26-.37.22-.58-.14-.82-.3-1.65-.46-2.49a1.58,1.58,0,0,1,1-1.86,2,2,0,0,1,.56-.13,35.1,35.1,0,0,1,10.21.52,3.35,3.35,0,0,1,2.65,2.43c.14.73.28,1.46.41,2.17s.4.87,1.47,1.13a13.62,13.62,0,0,1,3.25,1.27c1,.53,1.51.76,1.93.6a1.08,1.08,0,0,0,.46-.36,24,24,0,0,1,2.18-2.22.44.44,0,0,1,.16-.1.87.87,0,0,1,.65,0,43.7,43.7,0,0,1,10.17,8,2,2,0,0,1,.22,2.61c-.51.53-1,1.07-1.56,1.58a.84.84,0,0,0,0,1.08q1.42,2.08,2.69,4.23a1.19,1.19,0,0,0,1.15.74C61.4,141.59,62.25,141.64,63.11,141.69ZM51.5,156.18c3.76-7.76-1.81-18.16-11.59-22.41-5-2.19-10.11-2.38-14.09-.89a11.4,11.4,0,0,0-7.07,7.17C16.15,148,22.62,158.11,33,161.67a18,18,0,0,0,12.1.13,11.27,11.27,0,0,0,6.42-5.62" transform="translate(-0.09)"/></g></g></g></svg>