<svg xmlns="http://www.w3.org/2000/svg" viewBox="0 0 115.67 181.96"><defs><style>.cls-1{fill:#303031;}.cls-2{fill:#4c4c4c;}.cls-3{fill:#ffce00;}.cls-4{fill:#e0232a;}.cls-5{fill:#00a828;}.cls-6{fill:#d6d6d6;stroke-width:2px;}.cls-6,.cls-7{stroke:#000;stroke-miterlimit:10;}.cls-7{fill:#f3fafe;}.cls-8{fill:#c10000;}</style></defs><g id="Capa_2" data-name="Capa 2"><g id="Capa_5" data-name="Capa 5"><polygon class="cls-1" points="32.23 54.22 27.63 54.22 24.23 20.22 32.23 20.22 32.23 54.22"/><polygon class="cls-1" points="32.23 95.97 27.63 95.97 24.23 61.97 32.23 61.97 32.23 95.97"/><polygon class="cls-1" points="32.23 138.22 27.63 138.22 24.23 104.22 32.23 104.22 32.23 138.22"/><polygon class="cls-1" points="107.67 54.22 112.27 54.22 115.67 20.22 107.67 20.22 107.67 54.22"/><polygon class="cls-1" points="107.67 95.97 112.27 95.97 115.67 61.97 107.67 61.97 107.67 95.97"/><polygon class="cls-1" points="107.67 138.22 112.27 138.22 115.67 104.22 107.67 104.22 107.67 138.22"/><rect class="cls-2" x="31.83" width="76.23" height="158.44" rx="19.62"/><circle class="cls-3" cx="69.95" cy="79.22" r="16.88"/><path class="cls-1" d="M89,79.22a18.16,18.16,0,0,1-6.17,12.89A19.88,19.88,0,0,1,70,97.1,18.71,18.71,0,0,1,57,92.16a19.07,19.07,0,0,1-1.08-27,19.48,19.48,0,0,1,6.33-4.53A20.14,20.14,0,0,1,70,59,18.59,18.59,0,0,1,84,65.15,20,20,0,0,1,89,79.22Zm-4.36,0a13.87,13.87,0,0,0-4.89-9.81A15.54,15.54,0,0,0,70,65.71a14.3,14.3,0,0,0-9.85,3.66A14.65,14.65,0,0,0,59,90.15a15.09,15.09,0,0,0,4.91,3.59,15.93,15.93,0,0,0,6,1.36,14.32,14.32,0,0,0,11-4.9A15.66,15.66,0,0,0,84.65,79.22Z"/><circle class="cls-4" cx="69.95" cy="34.72" r="16.88"/><path class="cls-1" d="M89,34.72a18.16,18.16,0,0,1-6.17,12.89A19.88,19.88,0,0,1,70,52.6,18.71,18.71,0,0,1,57,47.66a19.07,19.07,0,0,1-1.08-27,19.48,19.48,0,0,1,6.33-4.53A20.14,20.14,0,0,1,70,14.47,18.59,18.59,0,0,1,84,20.65,20,20,0,0,1,89,34.72Zm-4.36,0a13.87,13.87,0,0,0-4.89-9.81A15.54,15.54,0,0,0,70,21.21a14.3,14.3,0,0,0-9.85,3.66A14.65,14.65,0,0,0,59,45.65a15.09,15.09,0,0,0,4.91,3.59,15.93,15.93,0,0,0,6,1.36,14.32,14.32,0,0,0,11-4.9A15.66,15.66,0,0,0,84.65,34.72Z"/><circle class="cls-5" cx="69.95" cy="123.72" r="16.88"/><path class="cls-1" d="M89,123.72a18.16,18.16,0,0,1-6.17,12.89,19.88,19.88,0,0,1-12.89,5A18.71,18.71,0,0,1,57,136.66a19.07,19.07,0,0,1-1.08-27,19.48,19.48,0,0,1,6.33-4.53A20.14,20.14,0,0,1,70,103.47,18.59,18.59,0,0,1,84,109.65,20,20,0,0,1,89,123.72Zm-4.36,0a13.87,13.87,0,0,0-4.89-9.81,15.54,15.54,0,0,0-9.81-3.7,14.3,14.3,0,0,0-9.85,3.66A14.65,14.65,0,0,0,59,134.65a15.09,15.09,0,0,0,4.91,3.59,15.93,15.93,0,0,0,6,1.36,14.32,14.32,0,0,0,11-4.9A15.66,15.66,0,0,0,84.65,123.72Z"/><circle class="cls-6" cx="32.45" cy="149.51" r="31.45"/><circle class="cls-7" cx="32.45" cy="149.51" r="24.5"/><path d="M31.56,130.9a5.93,5.93,0,0,1,0-.73.93.93,0,0,1,.94-.87.88.88,0,0,1,.94.85,7.82,7.82,0,0,1,0,1.53,1,1,0,0,1-1,.91,1,1,0,0,1-.94-1c0-.25,0-.49,0-.74Z"/><path d="M51,150.5a5.21,5.21,0,0,1-.79,0,.91.91,0,0,1-.82-.92.87.87,0,0,1,.79-.94,7.52,7.52,0,0,1,1.71,0,.86.86,0,0,1,.78.94.9.9,0,0,1-.81.92A6.17,6.17,0,0,1,51,150.5Z"/><path d="M13.85,150.41a4.45,4.45,0,0,1-.73,0,.93.93,0,0,1-.88-.93.91.91,0,0,1,.85-.94,11.16,11.16,0,0,1,1.53,0,.94.94,0,0,1,.91,1,1,1,0,0,1-.94.93c-.25,0-.49,0-.74,0Z"/><path d="M33.36,168.1a5.93,5.93,0,0,1,0,.73.91.91,0,0,1-.91.89.87.87,0,0,1-1-.83,9.37,9.37,0,0,1,0-1.59.88.88,0,0,1,.93-.86.94.94,0,0,1,1,.92C33.37,167.61,33.36,167.85,33.36,168.1Z"/><path d="M32.23,135.18h.45a.75.75,0,0,1,.75.75v13.5a0,0,0,0,1,0,0H31.48a0,0,0,0,1,0,0v-13.5A.75.75,0,0,1,32.23,135.18Z"/><path d="M27.58,146.22H28a.75.75,0,0,1,.75.75v5.93a0,0,0,0,1,0,0H26.83a0,0,0,0,1,0,0V147A.75.75,0,0,1,27.58,146.22Z" transform="translate(-121.75 177.36) rotate(-90)"/><path class="cls-8" d="M37,147.63h.45a.75.75,0,0,1,.75.75V158a0,0,0,0,1,0,0H36.28a0,0,0,0,1,0,0v-9.6a.75.75,0,0,1,.75-.75Z" transform="matrix(-0.57, 0.82, -0.82, -0.57, 183.78, 209.93)"/><circle cx="32.45" cy="149.51" r="2.33"/></g></g></svg>