<svg xmlns="http://www.w3.org/2000/svg" viewBox="0 0 107.56 169.44"><defs><style>.cls-1{fill:#303031;}.cls-2{fill:#4c4c4c;}.cls-3{fill:#ffce00;}.cls-4{fill:#e0232a;}.cls-5{fill:#00a828;}.cls-6{stroke:#000;stroke-miterlimit:10;}</style></defs><g id="Capa_2" data-name="Capa 2"><g id="Capa_16" data-name="Capa 16"><polygon class="cls-1" points="24.12 54.22 19.52 54.22 16.12 20.22 24.12 20.22 24.12 54.22"/><polygon class="cls-1" points="24.12 95.97 19.52 95.97 16.12 61.97 24.12 61.97 24.12 95.97"/><polygon class="cls-1" points="24.12 138.22 19.52 138.22 16.12 104.22 24.12 104.22 24.12 138.22"/><polygon class="cls-1" points="99.56 54.22 104.16 54.22 107.56 20.22 99.56 20.22 99.56 54.22"/><polygon class="cls-1" points="99.56 95.97 104.16 95.97 107.56 61.97 99.56 61.97 99.56 95.97"/><polygon class="cls-1" points="99.56 138.22 104.16 138.22 107.56 104.22 99.56 104.22 99.56 138.22"/><rect class="cls-2" x="23.72" width="76.23" height="158.44" rx="19.62"/><circle class="cls-3" cx="61.84" cy="79.22" r="16.88"/><path class="cls-1" d="M80.9,79.22a18.2,18.2,0,0,1-6.17,12.89,19.88,19.88,0,0,1-12.89,5A18.69,18.69,0,0,1,48.9,92.16a19,19,0,0,1-6.13-12.94,19.28,19.28,0,0,1,1.07-7.46,19.14,19.14,0,0,1,10.31-11.1A20.1,20.1,0,0,1,61.84,59a18.87,18.87,0,0,1,7.73,1.58,18.6,18.6,0,0,1,6.33,4.6A20,20,0,0,1,80.9,79.22Zm-4.37,0a13.83,13.83,0,0,0-4.89-9.81,15.53,15.53,0,0,0-9.8-3.7A14.3,14.3,0,0,0,52,69.37,14.66,14.66,0,0,0,50.9,90.15a15.13,15.13,0,0,0,4.92,3.59,15.88,15.88,0,0,0,6,1.36,14.28,14.28,0,0,0,11-4.9A15.57,15.57,0,0,0,76.53,79.22Z"/><circle class="cls-4" cx="61.84" cy="34.72" r="16.88"/><path class="cls-1" d="M80.9,34.72a18.2,18.2,0,0,1-6.17,12.89,19.88,19.88,0,0,1-12.89,5A18.69,18.69,0,0,1,48.9,47.66a19,19,0,0,1-6.13-12.94,19.28,19.28,0,0,1,1.07-7.46,19.14,19.14,0,0,1,10.31-11.1,20.1,20.1,0,0,1,7.69-1.69,18.87,18.87,0,0,1,7.73,1.58,18.6,18.6,0,0,1,6.33,4.6A20,20,0,0,1,80.9,34.72Zm-4.37,0a13.83,13.83,0,0,0-4.89-9.81,15.53,15.53,0,0,0-9.8-3.7A14.3,14.3,0,0,0,52,24.87,14.66,14.66,0,0,0,50.9,45.65a15.13,15.13,0,0,0,4.92,3.59,15.88,15.88,0,0,0,6,1.36,14.28,14.28,0,0,0,11-4.9A15.57,15.57,0,0,0,76.53,34.72Z"/><circle class="cls-5" cx="61.84" cy="123.72" r="16.88"/><path class="cls-1" d="M80.9,123.72a18.2,18.2,0,0,1-6.17,12.89,19.88,19.88,0,0,1-12.89,5,18.69,18.69,0,0,1-12.94-4.94,19,19,0,0,1-6.13-12.94,19.28,19.28,0,0,1,1.07-7.46,19.14,19.14,0,0,1,10.31-11.1,20.1,20.1,0,0,1,7.69-1.69,18.87,18.87,0,0,1,7.73,1.58,18.6,18.6,0,0,1,6.33,4.6A20,20,0,0,1,80.9,123.72Zm-4.37,0a13.83,13.83,0,0,0-4.89-9.81,15.53,15.53,0,0,0-9.8-3.7A14.3,14.3,0,0,0,52,113.87a14.66,14.66,0,0,0-1.09,20.78,15.13,15.13,0,0,0,4.92,3.59,15.88,15.88,0,0,0,6,1.36,14.28,14.28,0,0,0,11-4.9A15.57,15.57,0,0,0,76.53,123.72Z"/><path class="cls-6" d="M46.2,126.19c-2.25-7-8.16-10.5-15.9-12-.44-.09-.94,0-1.36-.53.66-.15,1.19-.28,1.72-.39a19.66,19.66,0,0,0,8.69-3.92c7.18-6,6.08-15.54-2.22-20.57C32,85.68,26.33,84.93,20.27,85.5c-9.91,1-16.86,5-19,13.56C0,104.44,1.2,150.27.5,167.73c-.06,1.56,9.29,1.63,9.24.06-.19-6.07,0-17.47,0-18.06a33.42,33.42,0,0,0,14,2.79,24.25,24.25,0,0,0,13.73-4.37C45.36,143,48.69,133.87,46.2,126.19ZM15.63,146.51a23.14,23.14,0,0,1-4.74-1.25,1.45,1.45,0,0,1-1.12-1.58c0-6.64,0-13.27,0-19.91,0-.42,0-.84,0-1.27a.87.87,0,0,1-.37-.07.87.87,0,0,0,.37.07c0-5.13,0-10.26.08-15.38a27.73,27.73,0,0,1,1.81-10.35c1.19-2.85,2.65-4.71,6.09-5.63,8.56-2.28,16,.63,16.84,6.42a16.19,16.19,0,0,1-.09,5.64c-1,4.82-4.48,7.64-10.07,8.19-1.09.1-7.83.16-8.93.21a3.07,3.07,0,0,0-3.18,2.81,3,3,0,0,0,3.21,2.77c1.93,0,9.52,0,11.42.32,5.37.87,8.43,3.75,9.46,8.85,1.25,6.15,0,11.8-4.5,16.75C27.32,147.36,21.62,147.43,15.63,146.51Z"/></g></g></svg>