<svg xmlns="http://www.w3.org/2000/svg" viewBox="0 0 120.69 181.04"><defs><style>.cls-1{fill:#303031;}.cls-2{fill:#4c4c4c;}.cls-3{fill:#ffce00;}.cls-4{fill:#e0232a;}.cls-5{fill:#00a828;}</style></defs><g id="Capa_2" data-name="Capa 2"><g id="Capa_15" data-name="Capa 15"><polygon class="cls-1" points="37.25 54.22 32.65 54.22 29.25 20.22 37.25 20.22 37.25 54.22"/><polygon class="cls-1" points="37.25 95.97 32.65 95.97 29.25 61.97 37.25 61.97 37.25 95.97"/><polygon class="cls-1" points="37.25 138.22 32.65 138.22 29.25 104.22 37.25 104.22 37.25 138.22"/><polygon class="cls-1" points="112.69 54.22 117.29 54.22 120.69 20.22 112.69 20.22 112.69 54.22"/><polygon class="cls-1" points="112.69 95.97 117.29 95.97 120.69 61.97 112.69 61.97 112.69 95.97"/><polygon class="cls-1" points="112.69 138.22 117.29 138.22 120.69 104.22 112.69 104.22 112.69 138.22"/><rect class="cls-2" x="36.85" width="76.23" height="158.44" rx="19.62"/><circle class="cls-3" cx="74.97" cy="79.22" r="16.88"/><path class="cls-1" d="M94,79.22a18.2,18.2,0,0,1-6.17,12.89A19.88,19.88,0,0,1,75,97.1,18.69,18.69,0,0,1,62,92.16,19,19,0,0,1,55.9,79.22a19,19,0,0,1,5.05-14,19.48,19.48,0,0,1,6.33-4.53A20.14,20.14,0,0,1,75,59,18.59,18.59,0,0,1,89,65.15,20,20,0,0,1,94,79.22Zm-4.37,0a13.79,13.79,0,0,0-4.89-9.81,15.49,15.49,0,0,0-9.8-3.7,14.3,14.3,0,0,0-9.85,3.66A14.66,14.66,0,0,0,64,90.15,15.24,15.24,0,0,0,69,93.74a15.93,15.93,0,0,0,6,1.36,14.32,14.32,0,0,0,11-4.9A15.61,15.61,0,0,0,89.66,79.22Z"/><circle class="cls-4" cx="74.97" cy="34.72" r="16.88"/><path class="cls-1" d="M94,34.72a18.2,18.2,0,0,1-6.17,12.89A19.88,19.88,0,0,1,75,52.6,18.69,18.69,0,0,1,62,47.66,19,19,0,0,1,55.9,34.72a19,19,0,0,1,5.05-14,19.48,19.48,0,0,1,6.33-4.53A20.14,20.14,0,0,1,75,14.47,18.59,18.59,0,0,1,89,20.65,20,20,0,0,1,94,34.72Zm-4.37,0a13.79,13.79,0,0,0-4.89-9.81,15.49,15.49,0,0,0-9.8-3.7,14.3,14.3,0,0,0-9.85,3.66A14.66,14.66,0,0,0,64,45.65,15.24,15.24,0,0,0,69,49.24a15.93,15.93,0,0,0,6,1.36,14.32,14.32,0,0,0,11-4.9A15.61,15.61,0,0,0,89.66,34.72Z"/><circle class="cls-5" cx="74.97" cy="123.72" r="16.88"/><path class="cls-1" d="M94,123.72a18.2,18.2,0,0,1-6.17,12.89,19.88,19.88,0,0,1-12.89,5A18.69,18.69,0,0,1,62,136.66a19,19,0,0,1-6.13-12.94,19,19,0,0,1,5.05-14,19.48,19.48,0,0,1,6.33-4.53A20.14,20.14,0,0,1,75,103.47,18.59,18.59,0,0,1,89,109.65,20,20,0,0,1,94,123.72Zm-4.37,0a13.79,13.79,0,0,0-4.89-9.81,15.49,15.49,0,0,0-9.8-3.7,14.3,14.3,0,0,0-9.85,3.66A14.66,14.66,0,0,0,64,134.65,15.24,15.24,0,0,0,69,138.24a15.93,15.93,0,0,0,6,1.36,14.32,14.32,0,0,0,11-4.9A15.61,15.61,0,0,0,89.66,123.72Z"/><path d="M33.36,142.4a.71.71,0,0,1,.34-.86c.86-.47,1.71-.95,2.6-1.37a18.75,18.75,0,0,1,4.47-1.47,1.69,1.69,0,0,1,1.91,1l.75,1.93c1.4.07,2.75.14,4.11.18.12,0,.32-.17.38-.31.26-.55.51-1.11.76-1.68a1.58,1.58,0,0,1,1.86-.88,21,21,0,0,1,6.28,2.74,1.74,1.74,0,0,1,.67,2.16c-.22.5-.44,1-.67,1.47s-.1.65.47,1.06A7,7,0,0,1,58.83,148c.54.79.8,1,1.41.73a22.06,22.06,0,0,1,2.34-.89.52.52,0,0,1,.54.15,21,21,0,0,1,3.07,7.49,1.59,1.59,0,0,1-1,1.7c-.55.21-1.1.43-1.66.63a.69.69,0,0,0-.47.67c0,1.1,0,2.21-.08,3.31,0,.39,0,.59.42.74s1,.45,1.57.69a1.64,1.64,0,0,1,.92,1.9A24.42,24.42,0,0,1,62.8,172c-.38.5-.59.6-.92.44-.81-.4-1.64-.76-2.47-1.09a.59.59,0,0,0-.6.11c-.89.79-1.74,1.62-2.58,2.46a.62.62,0,0,0-.15.58c.29.85,1.28,2.48,1.09,2.83s-7.9,4-8.62,3.72c-.35-.14-1.15-2-1.49-3-.12-.34-.29-.42-.64-.41-1.15,0-2.31,0-3.47-.09a.58.58,0,0,0-.56.35c-.34.83-.72,1.63-1.07,2.45-.12.27-.24.38-.56.31a21.51,21.51,0,0,1-8.36-3.75s0-.06-.09-.14c.38-.87.76-1.78,1.18-2.67.22-.45.15-.66-.48-1.14a8.06,8.06,0,0,1-1.74-1.85c-.38-.55-.54-.65-.93-.5-.76.31-1.52.59-2.3.89a.84.84,0,0,1-1-.33,20.89,20.89,0,0,1-3-8.07.53.53,0,0,1,.28-.52c.85-.36,1.73-.67,2.59-1a.61.61,0,0,0,.34-.42c0-1.33,0-2.66,0-4.06l-2.56-1.14a.82.82,0,0,1-.45-.93c.13-.53.26-1.06.42-1.58a21.29,21.29,0,0,1,3.1-6.26.44.44,0,0,1,.66-.18c.83.4,1.67.76,2.51,1.1a.56.56,0,0,0,.56-.1q1.36-1.23,2.67-2.52a.49.49,0,0,0,.11-.49C34,144.27,33.61,143.1,33.36,142.4Zm6.12,23.93a8.24,8.24,0,1,0,.06-12.3A8.22,8.22,0,0,0,39.48,166.33Z"/><path d="M6.21,125a.5.5,0,0,1,.21-.65c.62-.39,1.23-.79,1.87-1.15a14.71,14.71,0,0,1,3.27-1.31,1.25,1.25,0,0,1,1.47.69l.65,1.4c1.06,0,2.07,0,3.08-.06.09,0,.23-.14.27-.25.17-.43.33-.85.49-1.29a1.18,1.18,0,0,1,1.34-.75,16,16,0,0,1,4.82,1.75,1.32,1.32,0,0,1,.6,1.59c-.14.38-.28.75-.43,1.13s0,.48.4.77A4.87,4.87,0,0,1,25.47,128c.45.57.65.72,1.09.48a17.41,17.41,0,0,1,1.7-.78.41.41,0,0,1,.41.09,15.84,15.84,0,0,1,2.65,5.45,1.19,1.19,0,0,1-.64,1.31c-.4.18-.8.37-1.21.54a.53.53,0,0,0-.32.53c.06.82.1,1.65.1,2.47,0,.3.06.44.34.54l1.21.43a1.23,1.23,0,0,1,.77,1.38,13.27,13.27,0,0,1-.88,3,13.44,13.44,0,0,1-1.13,2.32c-.26.39-.41.48-.66.37-.63-.25-1.26-.49-1.9-.7a.5.5,0,0,0-.44.11c-.62.64-1.22,1.3-1.81,2a.44.44,0,0,0-.08.44c.25.63,1.07,1.8.94,2.07s-5.7,3.35-6.25,3.18A7.29,7.29,0,0,1,18.1,151c-.1-.24-.23-.29-.49-.27-.86.05-1.73.09-2.59.1a.4.4,0,0,0-.4.29c-.22.63-.47,1.24-.69,1.87-.07.21-.16.3-.41.26a16.31,16.31,0,0,1-6.41-2.4l-.07-.1c.24-.67.49-1.37.76-2.05.14-.35.08-.51-.42-.83A5.88,5.88,0,0,1,6,146.54c-.31-.39-.44-.46-.72-.33-.55.27-1.11.52-1.67.77a.63.63,0,0,1-.76-.19A15.75,15.75,0,0,1,.21,140.9a.37.37,0,0,1,.19-.39c.61-.32,1.25-.59,1.88-.9a.47.47,0,0,0,.24-.32c0-1-.11-2-.17-3l-2-.73a.6.6,0,0,1-.38-.67c.07-.4.14-.8.23-1.19a16.29,16.29,0,0,1,2-4.83c.14-.21.25-.26.49-.16.64.26,1.28.49,1.93.7a.42.42,0,0,0,.41-.1c.64-.65,1.26-1.32,1.87-2A.38.38,0,0,0,7,126.9C6.8,126.41,6.43,125.56,6.21,125Zm5.69,17.57a6.16,6.16,0,1,0-.54-9.18A6.15,6.15,0,0,0,11.9,142.61Z"/></g></g></svg>