<svg xmlns="http://www.w3.org/2000/svg" xmlns:xlink="http://www.w3.org/1999/xlink" viewBox="0 0 104.63 180"><defs><style>.cls-1{fill:none;}.cls-2{fill:#303031;}.cls-3{fill:#4c4c4c;}.cls-4{fill:#ffce00;}.cls-5{fill:#60111a;}.cls-6{fill:#003308;}.cls-7{isolation:isolate;}.cls-8{clip-path:url(#clip-path);}.cls-9{fill:#1c69e9;}.cls-10{clip-path:url(#clip-path-2);}.cls-11{clip-path:url(#clip-path-3);}.cls-12{clip-path:url(#clip-path-4);}.cls-13{fill:#1d6cea;}.cls-14{clip-path:url(#clip-path-5);}.cls-15{clip-path:url(#clip-path-6);}.cls-16{clip-path:url(#clip-path-7);}.cls-17{clip-path:url(#clip-path-8);}.cls-18{clip-path:url(#clip-path-9);}.cls-19{clip-path:url(#clip-path-10);}.cls-20{fill:#1f71eb;}.cls-21{clip-path:url(#clip-path-11);}.cls-22{clip-path:url(#clip-path-12);}.cls-23{clip-path:url(#clip-path-13);}.cls-24{clip-path:url(#clip-path-14);}.cls-25{clip-path:url(#clip-path-15);}.cls-26{clip-path:url(#clip-path-16);}.cls-27{fill:#35acfe;}</style><clipPath id="clip-path" transform="translate(-0.09)"><path class="cls-1" d="M58.46,133.85l-2.72,4.32a1.12,1.12,0,0,1-.16.22c-.51.53-1,1.06-1.56,1.58a.76.76,0,0,0-.11.14l2.72-4.33a.76.76,0,0,1,.11-.14c.54-.52,1-1,1.56-1.58A1.46,1.46,0,0,0,58.46,133.85Z"/></clipPath><clipPath id="clip-path-2" transform="translate(-0.09)"><path class="cls-1" d="M20.43,123.05l2.71-4.33a1.68,1.68,0,0,0-.19,1.21c.16.84.32,1.66.47,2.49l-2.72,4.33c-.15-.83-.31-1.65-.47-2.5A1.62,1.62,0,0,1,20.43,123.05Z"/></clipPath><clipPath id="clip-path-3" transform="translate(-0.09)"><path class="cls-1" d="M23.32,122.87,20.6,127.2a.74.74,0,0,0,.1-.45l2.72-4.33A.71.71,0,0,1,23.32,122.87Z"/></clipPath><clipPath id="clip-path-4" transform="translate(-0.09)"><path class="cls-1" d="M67.55,154.76l-2.72,4.33a.43.43,0,0,1-.23.19.77.77,0,0,1-.38,0c-1.35-.11-2.7-.19-4-.21a.63.63,0,0,0-.27,0,.71.71,0,0,0-.34.27l2.72-4.33a.71.71,0,0,1,.34-.27.84.84,0,0,1,.27,0c1.33,0,2.68.1,4,.22a.92.92,0,0,0,.39,0A.39.39,0,0,0,67.55,154.76Z"/></clipPath><clipPath id="clip-path-5" transform="translate(-0.09)"><path class="cls-1" d="M17.19,142l2.72-4.33A11.74,11.74,0,0,1,25.83,133c4-1.49,9-1.3,14.09.89,9.77,4.25,15.34,14.66,11.58,22.41l-2.72,4.33c3.76-7.75-1.81-18.16-11.58-22.41-5.05-2.2-10.12-2.38-14.09-.89A11.67,11.67,0,0,0,17.19,142Z"/></clipPath><clipPath id="clip-path-6" transform="translate(-0.09)"><path class="cls-1" d="M50.94,157.32l-2.72,4.33a10,10,0,0,0,.56-1l2.72-4.33A9,9,0,0,1,50.94,157.32Z"/></clipPath><clipPath id="clip-path-7" transform="translate(-0.09)"><path class="cls-1" d="M8.16,138.38l-2.72,4.33a.3.3,0,0,0,0-.1c.45-1.47.86-3,1.24-4.45a.74.74,0,0,0-.28-.67c-.88-.74-2.4-2-3.31-2.79a1,1,0,0,1-.32-1.22l2.72-4.33a1,1,0,0,0,.32,1.23l3.31,2.78a.74.74,0,0,1,.28.67c-.38,1.49-.79,3-1.24,4.45A.3.3,0,0,1,8.16,138.38Z"/></clipPath><clipPath id="clip-path-8" transform="translate(-0.09)"><path class="cls-1" d="M64.84,164.05l-2.72,4.32c-1.24,2-6,7.63-7.24,8.1l2.72-4.32C58.87,171.67,63.6,166,64.84,164.05Z"/></clipPath><clipPath id="clip-path-9" transform="translate(-0.09)"><path class="cls-1" d="M57.6,172.15l-2.72,4.33c-.72,0-3.32-2-4.56-3.08a.92.92,0,0,0-1.1-.23c-1.5.56-3,1.07-4.48,1.53l2.72-4.32c1.5-.47,3-1,4.48-1.54a.93.93,0,0,1,1.1.24C54.28,170.13,56.88,172.17,57.6,172.15Z"/></clipPath><clipPath id="clip-path-10" transform="translate(-0.09)"><path class="cls-1" d="M44.41,175l2.72-4.33a.58.58,0,0,1,.33-.25l-2.72,4.32A.68.68,0,0,0,44.41,175Z"/></clipPath><clipPath id="clip-path-11" transform="translate(-0.09)"><path class="cls-1" d="M.19,143l2.72-4.33a.75.75,0,0,0-.09.37,26.79,26.79,0,0,0,1.38,9.4c.24.73.52,1.46.81,2.2a1.6,1.6,0,0,0,1.34,1l-2.72,4.32a1.56,1.56,0,0,1-1.34-1c-.29-.73-.57-1.46-.81-2.19a27,27,0,0,1-1.38-9.4A.75.75,0,0,1,.19,143Z"/></clipPath><clipPath id="clip-path-12" transform="translate(-0.09)"><path class="cls-1" d="M13.89,157l-2.72,4.33c-1.08-1.71-2.21-3.39-3.38-5.18l2.72-4.33C11.68,153.58,12.81,155.26,13.89,157Z"/></clipPath><clipPath id="clip-path-13" transform="translate(-0.09)"><path class="cls-1" d="M13.86,157.6l-2.72,4.32a.65.65,0,0,0,0-.62L13.89,157A.67.67,0,0,1,13.86,157.6Z"/></clipPath><clipPath id="clip-path-14" transform="translate(-0.09)"><path class="cls-1" d="M47.74,175.16,45,179.49a.3.3,0,0,1-.18.14l-.23.05A35.84,35.84,0,0,1,31,178.86l2.72-4.32a36,36,0,0,0,13.66.81.78.78,0,0,0,.23,0A.3.3,0,0,0,47.74,175.16Z"/></clipPath><clipPath id="clip-path-15" transform="translate(-0.09)"><path class="cls-1" d="M33.67,174.54,31,178.86c-.06,0-.11-.05-.23-.12l2.72-4.33C33.56,174.48,33.61,174.53,33.67,174.54Z"/></clipPath><clipPath id="clip-path-16" transform="translate(-0.09)"><path class="cls-1" d="M8.68,164.56l2.72-4.33a.67.67,0,0,0,.11.75,43,43,0,0,0,10.61,8.8,1.39,1.39,0,0,0,1.19.15.79.79,0,0,0,.33-.2c.72-.74,1.44-1.47,2.14-2.21a.88.88,0,0,1,.29-.21c.27-.1.61,0,1.3.41a17,17,0,0,0,3.74,1.52c1.19.31,1.45.54,1.57,1.23.22,1.32.51,2.65.76,3.94l-2.72,4.33c-.25-1.29-.54-2.62-.76-4-.12-.68-.38-.92-1.57-1.22A16.73,16.73,0,0,1,24.65,172c-.68-.37-1-.51-1.29-.4a.72.72,0,0,0-.3.21c-.7.74-1.42,1.47-2.14,2.21a.91.91,0,0,1-.33.2,1.4,1.4,0,0,1-1.19-.15,43,43,0,0,1-10.61-8.8A.67.67,0,0,1,8.68,164.56Z"/></clipPath></defs><g id="Capa_2" data-name="Capa 2"><g id="Capa_14" data-name="Capa 14"><polygon class="cls-2" points="21.19 54.22 16.59 54.22 13.19 20.22 21.19 20.22 21.19 54.22"/><polygon class="cls-2" points="21.19 95.97 16.59 95.97 13.19 61.97 21.19 61.97 21.19 95.97"/><polygon class="cls-2" points="21.19 138.22 16.59 138.22 13.19 104.22 21.19 104.22 21.19 138.22"/><polygon class="cls-2" points="96.63 54.22 101.23 54.22 104.63 20.22 96.63 20.22 96.63 54.22"/><polygon class="cls-2" points="96.63 95.97 101.23 95.97 104.63 61.97 96.63 61.97 96.63 95.97"/><polygon class="cls-2" points="96.63 138.22 101.23 138.22 104.63 104.22 96.63 104.22 96.63 138.22"/><rect class="cls-3" x="20.8" width="76.23" height="158.44" rx="19.62"/><circle class="cls-4" cx="58.91" cy="79.22" r="16.88"/><path class="cls-2" d="M78.06,79.22a18.2,18.2,0,0,1-6.17,12.89A19.88,19.88,0,0,1,59,97.1a18.71,18.71,0,0,1-12.94-4.94,19,19,0,0,1-6.13-12.94,19,19,0,0,1,5-14,19.48,19.48,0,0,1,6.33-4.53A20.14,20.14,0,0,1,59,59a18.59,18.59,0,0,1,14.07,6.18A20,20,0,0,1,78.06,79.22Zm-4.36,0a13.84,13.84,0,0,0-4.9-9.81,15.49,15.49,0,0,0-9.8-3.7,14.3,14.3,0,0,0-9.85,3.66,14.66,14.66,0,0,0-1.09,20.78A15.24,15.24,0,0,0,53,93.74a15.93,15.93,0,0,0,6,1.36,14.32,14.32,0,0,0,11-4.9A15.66,15.66,0,0,0,73.7,79.22Z" transform="translate(-0.09)"/><circle class="cls-5" cx="58.91" cy="34.72" r="16.88"/><path class="cls-2" d="M78.06,34.72a18.2,18.2,0,0,1-6.17,12.89A19.88,19.88,0,0,1,59,52.6a18.71,18.71,0,0,1-12.94-4.94,19,19,0,0,1-6.13-12.94,19,19,0,0,1,5-14,19.48,19.48,0,0,1,6.33-4.53A20.14,20.14,0,0,1,59,14.47a18.59,18.59,0,0,1,14.07,6.18A20,20,0,0,1,78.06,34.72Zm-4.36,0a13.84,13.84,0,0,0-4.9-9.81,15.49,15.49,0,0,0-9.8-3.7,14.3,14.3,0,0,0-9.85,3.66,14.66,14.66,0,0,0-1.09,20.78A15.24,15.24,0,0,0,53,49.24a15.93,15.93,0,0,0,6,1.36,14.32,14.32,0,0,0,11-4.9A15.66,15.66,0,0,0,73.7,34.72Z" transform="translate(-0.09)"/><circle class="cls-6" cx="58.91" cy="123.72" r="16.88"/><path class="cls-2" d="M78.06,123.72a18.2,18.2,0,0,1-6.17,12.89,19.88,19.88,0,0,1-12.89,5,18.71,18.71,0,0,1-12.94-4.94,19,19,0,0,1-6.13-12.94,19,19,0,0,1,5-14,19.48,19.48,0,0,1,6.33-4.53A20.14,20.14,0,0,1,59,103.47a18.59,18.59,0,0,1,14.07,6.18A20,20,0,0,1,78.06,123.72Zm-4.36,0a13.84,13.84,0,0,0-4.9-9.81,15.49,15.49,0,0,0-9.8-3.7,14.3,14.3,0,0,0-9.85,3.66,14.66,14.66,0,0,0-1.09,20.78A15.24,15.24,0,0,0,53,138.24a15.93,15.93,0,0,0,6,1.36,14.32,14.32,0,0,0,11-4.9A15.66,15.66,0,0,0,73.7,123.72Z" transform="translate(-0.09)"/><g class="cls-7"><g class="cls-7"><g class="cls-8"><g class="cls-7"><path class="cls-9" d="M58.46,133.85l-2.72,4.32a1.12,1.12,0,0,1-.16.22c-.51.53-1,1.06-1.56,1.58a.76.76,0,0,0-.11.14l2.72-4.33a.76.76,0,0,1,.11-.14c.54-.52,1-1,1.56-1.58a1.46,1.46,0,0,0,.16-.21" transform="translate(-0.09)"/></g></g></g><g class="cls-7"><g class="cls-10"><g class="cls-7"><path class="cls-9" d="M23.42,122.42l-2.72,4.33c-.15-.83-.31-1.65-.47-2.5a1.62,1.62,0,0,1,.2-1.2l2.71-4.33a1.68,1.68,0,0,0-.19,1.21c.16.84.32,1.66.47,2.49" transform="translate(-0.09)"/></g></g></g><g class="cls-7"><g class="cls-11"><g class="cls-7"><path class="cls-9" d="M23.32,122.87,20.6,127.2a.74.74,0,0,0,.1-.45l2.72-4.33a.71.71,0,0,1-.1.45" transform="translate(-0.09)"/></g></g></g><g class="cls-7"><g class="cls-12"><g class="cls-7"><path class="cls-9" d="M67.55,154.76l-2.72,4.33a.41.41,0,0,1-.12.14l2.72-4.33a.55.55,0,0,0,.12-.14" transform="translate(-0.09)"/><path class="cls-13" d="M67.43,154.9l-2.72,4.33-.11.05a.77.77,0,0,1-.38,0c-1.35-.11-2.7-.19-4-.21a.63.63,0,0,0-.27,0l-.17.09,2.72-4.32a1,1,0,0,1,.17-.1.84.84,0,0,1,.27,0c1.33,0,2.68.1,4,.22a.92.92,0,0,0,.39,0l.11,0" transform="translate(-0.09)"/><path class="cls-9" d="M62.47,154.91l-2.72,4.32a.58.58,0,0,0-.17.18l2.72-4.33a.55.55,0,0,1,.17-.17" transform="translate(-0.09)"/></g></g></g><g class="cls-7"><g class="cls-14"><g class="cls-7"><path class="cls-9" d="M51.5,156.31l-2.72,4.33c3.76-7.75-1.81-18.16-11.58-22.41l-.47-.2,2.72-4.33.47.2c9.77,4.25,15.34,14.66,11.58,22.41" transform="translate(-0.09)"/><path class="cls-13" d="M39.45,133.7,36.73,138a18.83,18.83,0,0,0-13.62-.69,12.76,12.76,0,0,0-2.93,1.54l2.72-4.32A12.59,12.59,0,0,1,25.83,133a18.88,18.88,0,0,1,13.62.69" transform="translate(-0.09)"/><path class="cls-9" d="M22.9,134.56l-2.72,4.32a11.22,11.22,0,0,0-3,3.15l2.72-4.33a11,11,0,0,1,3-3.14" transform="translate(-0.09)"/></g></g></g><g class="cls-7"><g class="cls-15"><g class="cls-7"><path class="cls-9" d="M50.94,157.32l-2.72,4.33a10,10,0,0,0,.56-1l2.72-4.33a9,9,0,0,1-.56,1" transform="translate(-0.09)"/></g></g></g><g class="cls-7"><g class="cls-16"><g class="cls-7"><path class="cls-9" d="M8.16,138.38l-2.72,4.33a.3.3,0,0,0,0-.1c.45-1.47.86-3,1.24-4.45a.74.74,0,0,0-.28-.67c-.88-.74-2.4-2-3.31-2.79a1,1,0,0,1-.32-1.22l2.72-4.33a1,1,0,0,0,.32,1.23l3.31,2.78a.74.74,0,0,1,.28.67c-.38,1.49-.79,3-1.24,4.45a.3.3,0,0,1,0,.1" transform="translate(-0.09)"/></g></g></g><g class="cls-7"><g class="cls-17"><g class="cls-7"><path class="cls-9" d="M64.84,164.05l-2.72,4.32C61,170.18,57,175,55.3,176.23L58,171.91c1.67-1.21,5.7-6.06,6.83-7.86" transform="translate(-0.09)"/><path class="cls-13" d="M58,171.91l-2.71,4.32a1.93,1.93,0,0,1-.42.24l2.72-4.32a2.8,2.8,0,0,0,.41-.24" transform="translate(-0.09)"/></g></g></g><g class="cls-7"><g class="cls-18"><g class="cls-7"><path class="cls-13" d="M57.6,172.15l-2.72,4.32a1,1,0,0,1-.39-.09l2.72-4.33a1.24,1.24,0,0,0,.39.1" transform="translate(-0.09)"/><path class="cls-9" d="M57.21,172.05l-2.72,4.33a23.2,23.2,0,0,1-4.17-3,1.38,1.38,0,0,0-.41-.26l2.72-4.33a1.44,1.44,0,0,1,.41.27,23.62,23.62,0,0,0,4.17,3" transform="translate(-0.09)"/><path class="cls-13" d="M52.63,168.81l-2.72,4.33a.84.84,0,0,0-.69,0c-1.5.56-3,1.07-4.48,1.53l2.72-4.32c1.5-.47,3-1,4.48-1.54a.88.88,0,0,1,.69,0" transform="translate(-0.09)"/></g></g></g><g class="cls-7"><g class="cls-19"><g class="cls-7"><path class="cls-13" d="M47.46,170.38l-2.72,4.32a.77.77,0,0,0-.18.1l2.72-4.33a.51.51,0,0,1,.18-.09" transform="translate(-0.09)"/><path class="cls-9" d="M47.28,170.47l-2.72,4.33a.46.46,0,0,0-.15.16l2.72-4.33a.56.56,0,0,1,.15-.16" transform="translate(-0.09)"/></g></g></g><polygon class="cls-20" points="10.42 151.79 7.7 156.12 3.54 155.88 6.26 151.56 10.42 151.79"/><g class="cls-7"><g class="cls-21"><g class="cls-7"><path class="cls-13" d="M6.35,151.56l-2.72,4.32a1.3,1.3,0,0,1-.48-.11l2.72-4.33a1.31,1.31,0,0,0,.48.12" transform="translate(-0.09)"/><path class="cls-9" d="M5.87,151.44l-2.72,4.33a1.53,1.53,0,0,1-.86-.85c-.29-.73-.57-1.46-.81-2.19a27,27,0,0,1-1.38-9.4A.75.75,0,0,1,.19,143l2.72-4.33a.75.75,0,0,0-.09.37,26.79,26.79,0,0,0,1.38,9.4c.24.73.52,1.46.81,2.2a1.51,1.51,0,0,0,.86.84" transform="translate(-0.09)"/></g></g></g><g class="cls-7"><g class="cls-22"><g class="cls-7"><path class="cls-9" d="M13.89,157l-2.72,4.33c-1.08-1.71-2.21-3.39-3.38-5.18l2.72-4.33c1.17,1.79,2.3,3.47,3.38,5.18" transform="translate(-0.09)"/></g></g></g><g class="cls-7"><g class="cls-23"><g class="cls-7"><path class="cls-9" d="M13.86,157.6l-2.72,4.32a.65.65,0,0,0,0-.62L13.89,157a.67.67,0,0,1,0,.63" transform="translate(-0.09)"/></g></g></g><g class="cls-7"><g class="cls-24"><g class="cls-7"><path class="cls-9" d="M47.74,175.16,45,179.49a.32.32,0,0,1-.08.09l2.72-4.33a.32.32,0,0,0,.08-.09" transform="translate(-0.09)"/><path class="cls-13" d="M47.66,175.25l-2.72,4.33-.1,0-.23.05A35.84,35.84,0,0,1,31,178.86l2.72-4.32a36,36,0,0,0,13.66.81.78.78,0,0,0,.23,0l.1-.05" transform="translate(-0.09)"/></g></g></g><g class="cls-7"><g class="cls-25"><g class="cls-7"><path class="cls-13" d="M33.67,174.54,31,178.86h0l2.72-4.32h0" transform="translate(-0.09)"/><path class="cls-9" d="M33.63,174.53l-2.72,4.32s-.09-.06-.19-.11l2.72-4.33c.1.05.15.1.19.12" transform="translate(-0.09)"/></g></g></g><g class="cls-7"><g class="cls-26"><g class="cls-7"><path class="cls-9" d="M33.44,174.41l-2.72,4.33c-.25-1.29-.54-2.62-.76-4a1.1,1.1,0,0,0-.8-1l2.72-4.33a1.12,1.12,0,0,1,.8,1c.22,1.32.51,2.65.76,3.94" transform="translate(-0.09)"/><path class="cls-13" d="M31.88,169.48l-2.72,4.33a6,6,0,0,0-.77-.24,16.16,16.16,0,0,1-1.89-.64l2.72-4.33a14.5,14.5,0,0,0,1.89.64,6,6,0,0,1,.77.24" transform="translate(-0.09)"/><path class="cls-9" d="M29.22,168.6l-2.72,4.33a18.48,18.48,0,0,1-1.85-.89c-.27-.14-.48-.25-.66-.33l2.72-4.32a5.72,5.72,0,0,1,.66.33c.6.32,1.22.62,1.85.88" transform="translate(-0.09)"/><path class="cls-13" d="M26.71,167.39,24,171.71a.82.82,0,0,0-.63-.07.37.37,0,0,0-.14.07l2.72-4.33.13-.07a.85.85,0,0,1,.64.08" transform="translate(-0.09)"/><path class="cls-9" d="M25.94,167.38l-2.72,4.33-.16.14c-.7.74-1.42,1.47-2.14,2.21l-.11.08,2.72-4.32.11-.09c.72-.74,1.44-1.47,2.14-2.21l.16-.14" transform="translate(-0.09)"/><path class="cls-13" d="M23.53,169.82l-2.72,4.32a.94.94,0,0,1-.22.12,1.31,1.31,0,0,1-1,0l2.71-4.33a1.34,1.34,0,0,0,1,0l.22-.11" transform="translate(-0.09)"/><path class="cls-9" d="M22.33,169.89l-2.71,4.33-.22-.11a43,43,0,0,1-10.61-8.8.67.67,0,0,1-.11-.75l2.72-4.33a.67.67,0,0,0,.11.75,43,43,0,0,0,10.61,8.8l.21.11" transform="translate(-0.09)"/></g></g></g><path class="cls-27" d="M63.11,141.82a3.26,3.26,0,0,1,2.75,2,25.28,25.28,0,0,1,1.46,5.58,23,23,0,0,1,.41,4.62c0,.58-.15.86-.41.95a.92.92,0,0,1-.39,0c-1.34-.12-2.69-.2-4-.22a.84.84,0,0,0-.27,0,.66.66,0,0,0-.39.38c-.44,1.42-.83,2.87-1.17,4.33a1,1,0,0,0,.3.81c1.09.95,3.71,2.54,3.76,3.08s-6.06,8.18-7.54,8.74c-.72,0-3.32-2-4.56-3.07a.93.93,0,0,0-1.1-.24c-1.5.56-3,1.07-4.48,1.54a.58.58,0,0,0-.4.71c.26,1.2.45,2.4.7,3.6.07.33.05.52-.2.61a.78.78,0,0,1-.23,0,36,36,0,0,1-13.66-.81c-.06,0-.11-.06-.23-.13-.25-1.29-.54-2.62-.76-3.94-.12-.69-.38-.92-1.57-1.23a17,17,0,0,1-3.74-1.52c-.69-.38-1-.51-1.3-.41a.88.88,0,0,0-.29.21c-.7.74-1.42,1.47-2.14,2.21a.79.79,0,0,1-.33.2,1.39,1.39,0,0,1-1.19-.15A43,43,0,0,1,11.51,161a.66.66,0,0,1-.08-.8c.77-.86,1.61-1.66,2.38-2.53a.64.64,0,0,0,.08-.68c-1.08-1.71-2.21-3.39-3.38-5.18l-4.16-.23a1.6,1.6,0,0,1-1.34-1c-.29-.74-.57-1.47-.81-2.2A26.79,26.79,0,0,1,2.82,139c0-.28.08-.44.26-.51a1.32,1.32,0,0,1,.43,0c1.37.12,2.73.18,4.08.22a.74.74,0,0,0,.25-.05.57.57,0,0,0,.36-.35c.45-1.47.86-3,1.24-4.45a.74.74,0,0,0-.28-.67l-3.31-2.78a1,1,0,0,1-.3-1.25c.69-1,1.36-2,2.11-3a18.94,18.94,0,0,1,4.38-4,1.87,1.87,0,0,1,.4-.2,3.05,3.05,0,0,1,2.87.62l2.57,2.09c1.82-.58,3.58-1.12,5.31-1.71.17-.06.26-.37.23-.57-.15-.83-.31-1.65-.47-2.49a1.58,1.58,0,0,1,1-1.87,1.85,1.85,0,0,1,.55-.13,35.81,35.81,0,0,1,10.21.52,3.34,3.34,0,0,1,2.65,2.43c.15.73.28,1.45.41,2.18s.41.86,1.47,1.12a13.86,13.86,0,0,1,3.26,1.27c1,.53,1.5.76,1.93.6a1,1,0,0,0,.45-.35,23,23,0,0,1,2.19-2.23.42.42,0,0,1,.16-.09.82.82,0,0,1,.65,0,43.6,43.6,0,0,1,10.16,8,2,2,0,0,1,.22,2.61c-.51.53-1,1.06-1.56,1.58a.82.82,0,0,0,0,1.08c.94,1.39,1.84,2.8,2.68,4.23a1.21,1.21,0,0,0,1.15.75C61.4,141.72,62.25,141.77,63.11,141.82ZM51.5,156.31c3.76-7.75-1.81-18.16-11.58-22.41-5.05-2.19-10.12-2.38-14.09-.89a11.39,11.39,0,0,0-7.08,7.17c-2.6,8,3.87,18.07,14.24,21.63a18.09,18.09,0,0,0,12.08.13,11.34,11.34,0,0,0,6.43-5.63" transform="translate(-0.09)"/></g></g></g></svg>