<svg xmlns="http://www.w3.org/2000/svg" viewBox="0 0 113.39 178.98"><defs><style>.cls-1{fill:#303031;}.cls-2{fill:#4c4c4c;}.cls-3{fill:#ffce00;}.cls-4{fill:#e0232a;}.cls-5{fill:#00a828;}.cls-6{fill:#ffe97b;}.cls-7{fill:none;stroke:#000;stroke-miterlimit:10;stroke-width:2px;}</style></defs><g id="Capa_2" data-name="Capa 2"><g id="Capa_3" data-name="Capa 3"><polygon class="cls-1" points="29.95 54.22 25.36 54.22 21.95 20.22 29.95 20.22 29.95 54.22"/><polygon class="cls-1" points="29.95 95.97 25.36 95.97 21.95 61.97 29.95 61.97 29.95 95.97"/><polygon class="cls-1" points="29.95 138.22 25.36 138.22 21.95 104.22 29.95 104.22 29.95 138.22"/><polygon class="cls-1" points="105.39 54.22 109.99 54.22 113.39 20.22 105.39 20.22 105.39 54.22"/><polygon class="cls-1" points="105.39 95.97 109.99 95.97 113.39 61.97 105.39 61.97 105.39 95.97"/><polygon class="cls-1" points="105.39 138.22 109.99 138.22 113.39 104.22 105.39 104.22 105.39 138.22"/><rect class="cls-2" x="29.56" width="76.23" height="158.44" rx="19.62"/><circle class="cls-3" cx="67.67" cy="79.22" r="16.88"/><path class="cls-1" d="M86.74,79.22a18.2,18.2,0,0,1-6.17,12.89,19.9,19.9,0,0,1-12.9,5,18.69,18.69,0,0,1-12.93-4.94,19,19,0,0,1-6.13-12.94A19.12,19.12,0,0,1,60,60.66,20.09,20.09,0,0,1,67.67,59a18.92,18.92,0,0,1,7.74,1.58,18.7,18.7,0,0,1,6.33,4.6A20,20,0,0,1,86.74,79.22Zm-4.37,0a13.87,13.87,0,0,0-4.89-9.81,15.54,15.54,0,0,0-9.81-3.7,14.32,14.32,0,0,0-9.85,3.66,14.67,14.67,0,0,0-1.08,20.78,15.13,15.13,0,0,0,4.92,3.59,15.88,15.88,0,0,0,6,1.36,14.29,14.29,0,0,0,11-4.9A15.57,15.57,0,0,0,82.37,79.22Z"/><circle class="cls-4" cx="67.67" cy="34.72" r="16.88"/><path class="cls-1" d="M86.74,34.72a18.2,18.2,0,0,1-6.17,12.89,19.9,19.9,0,0,1-12.9,5,18.69,18.69,0,0,1-12.93-4.94,19,19,0,0,1-6.13-12.94A19.12,19.12,0,0,1,60,16.16a20.09,20.09,0,0,1,7.68-1.69,18.92,18.92,0,0,1,7.74,1.58,18.7,18.7,0,0,1,6.33,4.6A20,20,0,0,1,86.74,34.72Zm-4.37,0a13.87,13.87,0,0,0-4.89-9.81,15.54,15.54,0,0,0-9.81-3.7,14.32,14.32,0,0,0-9.85,3.66,14.67,14.67,0,0,0-1.08,20.78,15.13,15.13,0,0,0,4.92,3.59,15.88,15.88,0,0,0,6,1.36,14.29,14.29,0,0,0,11-4.9A15.57,15.57,0,0,0,82.37,34.72Z"/><circle class="cls-5" cx="67.67" cy="123.72" r="16.88"/><path class="cls-1" d="M86.74,123.72a18.2,18.2,0,0,1-6.17,12.89,19.9,19.9,0,0,1-12.9,5,18.69,18.69,0,0,1-12.93-4.94,19,19,0,0,1-6.13-12.94A19.12,19.12,0,0,1,60,105.16a20.09,20.09,0,0,1,7.68-1.69,18.92,18.92,0,0,1,7.74,1.58,18.7,18.7,0,0,1,6.33,4.6A20,20,0,0,1,86.74,123.72Zm-4.37,0a13.87,13.87,0,0,0-4.89-9.81,15.54,15.54,0,0,0-9.81-3.7,14.32,14.32,0,0,0-9.85,3.66,14.67,14.67,0,0,0-1.08,20.78,15.13,15.13,0,0,0,4.92,3.59,15.88,15.88,0,0,0,6,1.36,14.29,14.29,0,0,0,11-4.9A15.57,15.57,0,0,0,82.37,123.72Z"/><path class="cls-6" d="M40,128.8c2.71-.83,5-.18,6.19,1.85C47.6,133,47,135,44,137.78a5,5,0,0,1,3.77-.32,4.6,4.6,0,0,1,2.73,2.33c1.15,2.26.83,3.82-2.07,6.53a4.31,4.31,0,0,1,3.76.06,4.68,4.68,0,0,1,1.85,7.4,7.32,7.32,0,0,1-.9.86L35.38,169.15c-2.1,1.72-4.6,3.52-7.3,3.21a4.75,4.75,0,0,0-.81-1.52q-9.6-11.73-19.17-23.49a1.2,1.2,0,0,1-.23-.9q3.77-13.5,7.59-27a4.62,4.62,0,0,1,6.93-2.69,4.39,4.39,0,0,1,2.19,4.55c-.52,2.83-1.18,5.63-1.78,8.45-.05.26-.1.52-.21,1l.79-.64q13-10.62,26-21.22a4.74,4.74,0,0,1,5.86-.52,4.67,4.67,0,0,1,1,7,8.52,8.52,0,0,1-1.07,1L40.63,128.29Z"/><path class="cls-7" d="M40,128.8c2.71-.83,5-.18,6.19,1.85C47.6,133,47,135,44,137.78a5,5,0,0,1,3.77-.32,4.6,4.6,0,0,1,2.73,2.33c1.15,2.26.83,3.82-2.07,6.53a4.31,4.31,0,0,1,3.76.06,4.68,4.68,0,0,1,1.85,7.4,7.32,7.32,0,0,1-.9.86L35.38,169.15c-2.1,1.72-4.6,3.52-7.3,3.21a4.75,4.75,0,0,0-.81-1.52q-9.6-11.73-19.17-23.49a1.2,1.2,0,0,1-.23-.9q3.77-13.5,7.59-27a4.62,4.62,0,0,1,6.93-2.69,4.39,4.39,0,0,1,2.19,4.55c-.52,2.83-1.18,5.63-1.78,8.45-.05.26-.1.52-.21,1l.79-.64q13-10.62,26-21.22a4.74,4.74,0,0,1,5.86-.52,4.67,4.67,0,0,1,1,7,8.52,8.52,0,0,1-1.07,1L40.63,128.29Z"/><path class="cls-6" d="M1.08,152.85a2.71,2.71,0,0,1,1.19-2.93c1.09-.84,2.13-1.74,3.21-2.6,1.3-1,2.49-1,3.46.23l19.2,23.52c1,1.2.82,2.37-.47,3.44-1.06.88-2.15,1.72-3.19,2.62a2.7,2.7,0,0,1-3.11.58Z"/><path class="cls-7" d="M1.08,152.85a2.71,2.71,0,0,1,1.19-2.93c1.09-.84,2.13-1.74,3.21-2.6,1.3-1,2.49-1,3.46.23l19.2,23.52c1,1.2.82,2.37-.47,3.44-1.06.88-2.15,1.72-3.19,2.62a2.7,2.7,0,0,1-3.11.58Z"/></g></g></svg>