<svg xmlns="http://www.w3.org/2000/svg" xmlns:xlink="http://www.w3.org/1999/xlink" viewBox="0 0 105.03 179.61"><defs><style>.cls-1{fill:none;}.cls-2{fill:#303031;}.cls-3{fill:#4c4c4c;}.cls-4{fill:#ffce00;}.cls-5{fill:#e0232a;}.cls-6{fill:#00a828;}.cls-7{isolation:isolate;}.cls-8{clip-path:url(#clip-path);}.cls-9{fill:#1c69e9;}.cls-10{clip-path:url(#clip-path-2);}.cls-11{clip-path:url(#clip-path-3);}.cls-12{fill:#1d6cea;}.cls-13{clip-path:url(#clip-path-4);}.cls-14{clip-path:url(#clip-path-5);}.cls-15{clip-path:url(#clip-path-6);}.cls-16{clip-path:url(#clip-path-7);}.cls-17{clip-path:url(#clip-path-8);}.cls-18{clip-path:url(#clip-path-9);}.cls-19{fill:#1f71eb;}.cls-20{clip-path:url(#clip-path-10);}.cls-21{clip-path:url(#clip-path-11);}.cls-22{clip-path:url(#clip-path-12);}.cls-23{clip-path:url(#clip-path-13);}.cls-24{clip-path:url(#clip-path-14);}.cls-25{clip-path:url(#clip-path-15);}.cls-26{fill:#35acfe;}</style><clipPath id="clip-path" transform="translate(-0.08)"><path class="cls-1" d="M58.46,133.47l-2.72,4.33-.16.21c-.51.53-1,1.06-1.56,1.58a.69.69,0,0,0-.11.13l2.72-4.33a.69.69,0,0,1,.11-.13c.53-.52,1-1,1.56-1.58A1.16,1.16,0,0,0,58.46,133.47Z"/></clipPath><clipPath id="clip-path-2" transform="translate(-0.08)"><path class="cls-1" d="M23.32,122.48l-2.72,4.33a.65.65,0,0,0,.09-.45c-.14-.82-.3-1.65-.47-2.49a1.66,1.66,0,0,1,.21-1.2l2.72-4.33a1.67,1.67,0,0,0-.21,1.2c.17.84.33,1.67.47,2.49A.71.71,0,0,1,23.32,122.48Z"/></clipPath><clipPath id="clip-path-3" transform="translate(-0.08)"><path class="cls-1" d="M67.55,154.38l-2.72,4.33a.45.45,0,0,1-.22.19,1.23,1.23,0,0,1-.4,0c-1.35-.12-2.69-.2-4-.22a.75.75,0,0,0-.26,0,.69.69,0,0,0-.34.26l2.72-4.32a.66.66,0,0,1,.34-.27.75.75,0,0,1,.26-.05c1.34,0,2.68.11,4,.22a.85.85,0,0,0,.4,0A.45.45,0,0,0,67.55,154.38Z"/></clipPath><clipPath id="clip-path-4" transform="translate(-0.08)"><path class="cls-1" d="M17.19,141.65l2.72-4.33a11.65,11.65,0,0,1,5.91-4.69c4-1.49,9-1.3,14.1.89,9.76,4.25,15.34,14.65,11.58,22.41l-2.72,4.32c3.76-7.75-1.81-18.15-11.58-22.4-5.05-2.2-10.12-2.38-14.1-.89A11.69,11.69,0,0,0,17.19,141.65Z"/></clipPath><clipPath id="clip-path-5" transform="translate(-0.08)"><path class="cls-1" d="M51,156.93l-2.72,4.33a8.92,8.92,0,0,0,.55-1l2.72-4.32C51.33,156.27,51.15,156.61,51,156.93Z"/></clipPath><clipPath id="clip-path-6" transform="translate(-0.08)"><path class="cls-1" d="M8.15,138l-2.72,4.33a.47.47,0,0,0,.05-.1c.45-1.47.86-3,1.23-4.45a.74.74,0,0,0-.27-.67l-3.31-2.78a1,1,0,0,1-.32-1.24l2.72-4.33A1,1,0,0,0,5.85,130l3.31,2.78a.75.75,0,0,1,.27.67c-.37,1.5-.78,3-1.23,4.45Z"/></clipPath><clipPath id="clip-path-7" transform="translate(-0.08)"><path class="cls-1" d="M64.83,163.67,62.11,168c-1.25,2-6,7.62-7.23,8.1l2.72-4.33C58.87,171.29,63.58,165.66,64.83,163.67Z"/></clipPath><clipPath id="clip-path-8" transform="translate(-0.08)"><path class="cls-1" d="M57.6,171.77l-2.72,4.33c-.72,0-3.32-2-4.56-3.08a1,1,0,0,0-1.11-.24c-1.49.56-3,1.07-4.47,1.54L47.46,170c1.5-.47,3-1,4.47-1.54a1,1,0,0,1,1.11.24C54.28,169.75,56.88,171.79,57.6,171.77Z"/></clipPath><clipPath id="clip-path-9" transform="translate(-0.08)"><path class="cls-1" d="M44.4,174.58l2.72-4.33a.66.66,0,0,1,.34-.26l-2.72,4.33A.65.65,0,0,0,44.4,174.58Z"/></clipPath><clipPath id="clip-path-10" transform="translate(-0.08)"><path class="cls-1" d="M.18,142.57l2.72-4.32a.7.7,0,0,0-.08.37A26.77,26.77,0,0,0,4.19,148c.24.73.53,1.46.81,2.19a1.6,1.6,0,0,0,1.35,1l-2.72,4.33a1.6,1.6,0,0,1-1.35-1c-.28-.73-.56-1.46-.81-2.2a26.94,26.94,0,0,1-1.37-9.4A.75.75,0,0,1,.18,142.57Z"/></clipPath><clipPath id="clip-path-11" transform="translate(-0.08)"><path class="cls-1" d="M13.89,156.58l-2.72,4.33c-1.08-1.7-2.21-3.39-3.38-5.17l2.72-4.32C11.68,153.19,12.81,154.88,13.89,156.58Z"/></clipPath><clipPath id="clip-path-12" transform="translate(-0.08)"><path class="cls-1" d="M13.85,157.23l-2.72,4.33a.69.69,0,0,0,0-.65l2.72-4.33A.68.68,0,0,1,13.85,157.23Z"/></clipPath><clipPath id="clip-path-13" transform="translate(-0.08)"><path class="cls-1" d="M47.75,174.78,45,179.11a.38.38,0,0,1-.2.14l-.22.05A36,36,0,0,1,31,178.48l2.72-4.33a36.24,36.24,0,0,0,13.66.83,1.16,1.16,0,0,0,.22-.06A.38.38,0,0,0,47.75,174.78Z"/></clipPath><clipPath id="clip-path-14" transform="translate(-0.08)"><path class="cls-1" d="M33.67,174.15,31,178.48a1.57,1.57,0,0,1-.24-.13L33.43,174A2.5,2.5,0,0,0,33.67,174.15Z"/></clipPath><clipPath id="clip-path-15" transform="translate(-0.08)"><path class="cls-1" d="M8.68,164.17l2.72-4.33a.67.67,0,0,0,.11.75,43,43,0,0,0,10.6,8.81,1.45,1.45,0,0,0,1.2.15,1,1,0,0,0,.33-.21c.72-.73,1.44-1.46,2.14-2.2a.8.8,0,0,1,.29-.22c.27-.1.61,0,1.29.41a15.88,15.88,0,0,0,3.75,1.52c1.19.31,1.45.55,1.57,1.23.22,1.33.5,2.66.75,3.95l-2.72,4.32c-.25-1.29-.53-2.61-.75-3.94-.12-.68-.38-.92-1.57-1.23a16.49,16.49,0,0,1-3.75-1.52c-.68-.38-1-.51-1.29-.41a.8.8,0,0,0-.29.22c-.7.74-1.42,1.47-2.14,2.2a.93.93,0,0,1-.33.21,1.45,1.45,0,0,1-1.2-.15,43.21,43.21,0,0,1-10.6-8.81A.67.67,0,0,1,8.68,164.17Z"/></clipPath></defs><g id="Capa_2" data-name="Capa 2"><g id="Capa_10" data-name="Capa 10"><polygon class="cls-2" points="21.59 54.22 16.99 54.22 13.59 20.22 21.59 20.22 21.59 54.22"/><polygon class="cls-2" points="21.59 95.97 16.99 95.97 13.59 61.97 21.59 61.97 21.59 95.97"/><polygon class="cls-2" points="21.59 138.22 16.99 138.22 13.59 104.22 21.59 104.22 21.59 138.22"/><polygon class="cls-2" points="97.03 54.22 101.63 54.22 105.03 20.22 97.03 20.22 97.03 54.22"/><polygon class="cls-2" points="97.03 95.97 101.63 95.97 105.03 61.97 97.03 61.97 97.03 95.97"/><polygon class="cls-2" points="97.03 138.22 101.63 138.22 105.03 104.22 97.03 104.22 97.03 138.22"/><rect class="cls-3" x="21.19" width="76.23" height="158.44" rx="19.62"/><circle class="cls-4" cx="59.31" cy="79.22" r="16.88"/><path class="cls-2" d="M78.46,79.22a18.2,18.2,0,0,1-6.17,12.89,19.9,19.9,0,0,1-12.9,5,18.73,18.73,0,0,1-12.94-4.94,19.05,19.05,0,0,1-5.05-20.4,19.17,19.17,0,0,1,10.3-11.1A20.14,20.14,0,0,1,59.39,59a18.92,18.92,0,0,1,7.74,1.58,18.7,18.7,0,0,1,6.33,4.6A20,20,0,0,1,78.46,79.22Zm-4.37,0a13.87,13.87,0,0,0-4.89-9.81,15.54,15.54,0,0,0-9.81-3.7,14.32,14.32,0,0,0-9.85,3.66,14.67,14.67,0,0,0-1.08,20.78,15.13,15.13,0,0,0,4.92,3.59,15.88,15.88,0,0,0,6,1.36,14.29,14.29,0,0,0,11-4.9A15.62,15.62,0,0,0,74.09,79.22Z" transform="translate(-0.08)"/><circle class="cls-5" cx="59.31" cy="34.72" r="16.88"/><path class="cls-2" d="M78.46,34.72a18.2,18.2,0,0,1-6.17,12.89,19.9,19.9,0,0,1-12.9,5,18.73,18.73,0,0,1-12.94-4.94,19.05,19.05,0,0,1-5.05-20.4,19.17,19.17,0,0,1,10.3-11.1,20.14,20.14,0,0,1,7.69-1.69,18.92,18.92,0,0,1,7.74,1.58,18.7,18.7,0,0,1,6.33,4.6A20,20,0,0,1,78.46,34.72Zm-4.37,0a13.87,13.87,0,0,0-4.89-9.81,15.54,15.54,0,0,0-9.81-3.7,14.32,14.32,0,0,0-9.85,3.66,14.67,14.67,0,0,0-1.08,20.78,15.13,15.13,0,0,0,4.92,3.59,15.88,15.88,0,0,0,6,1.36,14.29,14.29,0,0,0,11-4.9A15.62,15.62,0,0,0,74.09,34.72Z" transform="translate(-0.08)"/><circle class="cls-6" cx="59.31" cy="123.72" r="16.88"/><path class="cls-2" d="M78.46,123.72a18.2,18.2,0,0,1-6.17,12.89,19.9,19.9,0,0,1-12.9,5,18.73,18.73,0,0,1-12.94-4.94,19.05,19.05,0,0,1-5.05-20.4,19.17,19.17,0,0,1,10.3-11.1,20.14,20.14,0,0,1,7.69-1.69,18.92,18.92,0,0,1,7.74,1.58,18.7,18.7,0,0,1,6.33,4.6A20,20,0,0,1,78.46,123.72Zm-4.37,0a13.87,13.87,0,0,0-4.89-9.81,15.54,15.54,0,0,0-9.81-3.7,14.32,14.32,0,0,0-9.85,3.66,14.67,14.67,0,0,0-1.08,20.78,15.13,15.13,0,0,0,4.92,3.59,15.88,15.88,0,0,0,6,1.36,14.29,14.29,0,0,0,11-4.9A15.62,15.62,0,0,0,74.09,123.72Z" transform="translate(-0.08)"/><g class="cls-7"><g class="cls-7"><g class="cls-8"><g class="cls-7"><path class="cls-9" d="M58.46,133.47l-2.72,4.33-.16.21c-.51.53-1,1.06-1.56,1.58a.69.69,0,0,0-.11.13l2.72-4.33a.69.69,0,0,1,.11-.13c.53-.52,1-1,1.56-1.58a1.16,1.16,0,0,0,.16-.21" transform="translate(-0.08)"/></g></g></g><g class="cls-7"><g class="cls-10"><g class="cls-7"><path class="cls-9" d="M23.32,122.48l-2.72,4.33a.65.65,0,0,0,.09-.45c-.14-.82-.3-1.65-.47-2.49a1.66,1.66,0,0,1,.21-1.2l2.72-4.33a1.67,1.67,0,0,0-.21,1.2c.17.84.33,1.67.47,2.49a.71.71,0,0,1-.09.45" transform="translate(-0.08)"/></g></g></g><g class="cls-7"><g class="cls-11"><g class="cls-7"><path class="cls-9" d="M67.55,154.38l-2.72,4.33a.37.37,0,0,1-.12.13l2.72-4.33a.3.3,0,0,0,.12-.13" transform="translate(-0.08)"/><path class="cls-12" d="M67.43,154.51l-2.72,4.33-.1.06a1.23,1.23,0,0,1-.4,0c-1.35-.12-2.69-.2-4-.22a.75.75,0,0,0-.26,0l-.18.09,2.72-4.33a.85.85,0,0,1,.44-.14c1.34,0,2.68.11,4,.22a.85.85,0,0,0,.4,0,.33.33,0,0,0,.1-.06" transform="translate(-0.08)"/><path class="cls-9" d="M62.46,154.52l-2.72,4.33a.85.85,0,0,0-.16.17l2.72-4.32a.69.69,0,0,1,.16-.18" transform="translate(-0.08)"/></g></g></g><g class="cls-7"><g class="cls-13"><g class="cls-7"><path class="cls-9" d="M51.5,155.93l-2.72,4.32c3.76-7.75-1.81-18.15-11.58-22.4l-.46-.2,2.72-4.33.46.2c9.76,4.25,15.34,14.65,11.58,22.41" transform="translate(-0.08)"/><path class="cls-12" d="M39.46,133.32l-2.72,4.33A18.83,18.83,0,0,0,23.1,137a12.69,12.69,0,0,0-2.92,1.54l2.72-4.33a12.69,12.69,0,0,1,2.92-1.54,18.88,18.88,0,0,1,13.64.69" transform="translate(-0.08)"/><path class="cls-9" d="M22.9,134.17l-2.72,4.33a11.09,11.09,0,0,0-3,3.15l2.72-4.33a11.22,11.22,0,0,1,3-3.15" transform="translate(-0.08)"/></g></g></g><g class="cls-7"><g class="cls-14"><g class="cls-7"><path class="cls-9" d="M51,156.93l-2.72,4.33a8.92,8.92,0,0,0,.55-1l2.72-4.32c-.17.34-.35.68-.55,1" transform="translate(-0.08)"/></g></g></g><g class="cls-7"><g class="cls-15"><g class="cls-7"><path class="cls-9" d="M8.15,138l-2.72,4.33a.47.47,0,0,0,.05-.1c.45-1.47.86-3,1.23-4.45a.74.74,0,0,0-.27-.67l-3.31-2.78a1,1,0,0,1-.32-1.24l2.72-4.33A1,1,0,0,0,5.85,130l3.31,2.78a.75.75,0,0,1,.27.67c-.37,1.5-.78,3-1.23,4.45l0,.1" transform="translate(-0.08)"/></g></g></g><g class="cls-7"><g class="cls-16"><g class="cls-7"><path class="cls-9" d="M64.83,163.67,62.11,168c-1.14,1.82-5.15,6.66-6.82,7.86L58,171.53c1.67-1.2,5.68-6,6.82-7.86" transform="translate(-0.08)"/><path class="cls-12" d="M58,171.53l-2.72,4.33a2.11,2.11,0,0,1-.41.24l2.72-4.33a1.7,1.7,0,0,0,.41-.24" transform="translate(-0.08)"/></g></g></g><g class="cls-7"><g class="cls-17"><g class="cls-7"><path class="cls-12" d="M57.6,171.77l-2.72,4.33a1.24,1.24,0,0,1-.39-.1l2.72-4.33a1,1,0,0,0,.39.1" transform="translate(-0.08)"/><path class="cls-9" d="M57.21,171.67,54.49,176a24.08,24.08,0,0,1-4.17-3,1.49,1.49,0,0,0-.4-.26l2.72-4.33a1.49,1.49,0,0,1,.4.26,24.08,24.08,0,0,0,4.17,3" transform="translate(-0.08)"/><path class="cls-12" d="M52.64,168.43l-2.72,4.33a.88.88,0,0,0-.71,0c-1.49.56-3,1.07-4.47,1.54L47.46,170c1.5-.47,3-1,4.47-1.54a.92.92,0,0,1,.71,0" transform="translate(-0.08)"/></g></g></g><g class="cls-7"><g class="cls-18"><g class="cls-7"><path class="cls-12" d="M47.46,170l-2.72,4.33a.76.76,0,0,0-.18.09l2.72-4.33.18-.09" transform="translate(-0.08)"/><path class="cls-9" d="M47.28,170.08l-2.72,4.33a.52.52,0,0,0-.16.17l2.72-4.33a.64.64,0,0,1,.16-.17" transform="translate(-0.08)"/></g></g></g><polygon class="cls-19" points="10.43 151.42 7.71 155.75 3.54 155.51 6.26 151.18 10.43 151.42"/><g class="cls-7"><g class="cls-20"><g class="cls-7"><path class="cls-12" d="M6.35,151.18l-2.72,4.33a1.54,1.54,0,0,1-.48-.12l2.72-4.32a1.53,1.53,0,0,0,.48.11" transform="translate(-0.08)"/><path class="cls-9" d="M5.87,151.07l-2.72,4.32a1.58,1.58,0,0,1-.87-.85c-.28-.73-.56-1.46-.81-2.2a26.94,26.94,0,0,1-1.37-9.4.75.75,0,0,1,.08-.37l2.72-4.32a.7.7,0,0,0-.08.37A26.77,26.77,0,0,0,4.19,148c.24.73.53,1.46.81,2.19a1.63,1.63,0,0,0,.87.86" transform="translate(-0.08)"/></g></g></g><g class="cls-7"><g class="cls-21"><g class="cls-7"><path class="cls-9" d="M13.89,156.58l-2.72,4.33c-1.08-1.7-2.21-3.39-3.38-5.17l2.72-4.32c1.17,1.77,2.3,3.46,3.38,5.16" transform="translate(-0.08)"/></g></g></g><g class="cls-7"><g class="cls-22"><g class="cls-7"><path class="cls-9" d="M13.85,157.23l-2.72,4.33a.69.69,0,0,0,0-.65l2.72-4.33a.68.68,0,0,1,0,.65" transform="translate(-0.08)"/></g></g></g><g class="cls-7"><g class="cls-23"><g class="cls-7"><path class="cls-9" d="M47.75,174.78,45,179.11a.34.34,0,0,1-.09.08l2.72-4.32a.76.76,0,0,0,.09-.09" transform="translate(-0.08)"/><path class="cls-12" d="M47.66,174.87l-2.72,4.32a.39.39,0,0,1-.11.06l-.22.05A36,36,0,0,1,31,178.48l2.72-4.33a36.24,36.24,0,0,0,13.66.83,1.16,1.16,0,0,0,.22-.06l.11,0" transform="translate(-0.08)"/></g></g></g><g class="cls-7"><g class="cls-24"><g class="cls-7"><path class="cls-12" d="M33.67,174.15,31,178.48h0l2.72-4.33h0" transform="translate(-0.08)"/><path class="cls-9" d="M33.64,174.14l-2.72,4.33-.21-.12L33.43,174l.21.11" transform="translate(-0.08)"/></g></g></g><g class="cls-7"><g class="cls-25"><g class="cls-7"><path class="cls-9" d="M33.43,174l-2.72,4.32c-.25-1.29-.53-2.61-.75-3.94a1.11,1.11,0,0,0-.79-1l2.72-4.32a1.1,1.1,0,0,1,.79,1c.22,1.33.5,2.66.75,3.95" transform="translate(-0.08)"/><path class="cls-12" d="M31.89,169.1l-2.72,4.32a6.8,6.8,0,0,0-.78-.24,13.09,13.09,0,0,1-1.89-.63l2.72-4.33a13.09,13.09,0,0,0,1.89.63,6.61,6.61,0,0,1,.78.25" transform="translate(-0.08)"/><path class="cls-9" d="M29.22,168.22l-2.72,4.33a19.76,19.76,0,0,1-1.86-.89,5.72,5.72,0,0,0-.66-.33L26.7,167a5.72,5.72,0,0,1,.66.33,19.76,19.76,0,0,0,1.86.89" transform="translate(-0.08)"/><path class="cls-12" d="M26.7,167,24,171.33a.83.83,0,0,0-.63-.08l-.13.07L25.94,167a.46.46,0,0,1,.13-.08.83.83,0,0,1,.63.08" transform="translate(-0.08)"/><path class="cls-9" d="M25.94,167l-2.72,4.32a.75.75,0,0,0-.16.15c-.7.74-1.42,1.47-2.14,2.2a.87.87,0,0,1-.11.09l2.72-4.32.11-.1c.72-.73,1.44-1.46,2.14-2.2a.52.52,0,0,1,.16-.14" transform="translate(-0.08)"/><path class="cls-12" d="M23.53,169.44l-2.72,4.32a.94.94,0,0,1-.22.12,1.34,1.34,0,0,1-1,0l2.72-4.32a1.39,1.39,0,0,0,1,0l.22-.11" transform="translate(-0.08)"/><path class="cls-9" d="M22.33,169.51l-2.72,4.32-.22-.1a43.21,43.21,0,0,1-10.6-8.81.67.67,0,0,1-.11-.75l2.72-4.33a.67.67,0,0,0,.11.75,43,43,0,0,0,10.6,8.81l.22.11" transform="translate(-0.08)"/></g></g></g><path class="cls-26" d="M63.11,141.44a3.26,3.26,0,0,1,2.75,2A24.44,24.44,0,0,1,67.31,149a22.89,22.89,0,0,1,.42,4.62c0,.57-.15.85-.4.95a.85.85,0,0,1-.4,0c-1.35-.11-2.69-.19-4-.22a.75.75,0,0,0-.26.05.59.59,0,0,0-.39.38c-.44,1.42-.83,2.87-1.17,4.33a.9.9,0,0,0,.3.8c1.09.95,3.7,2.55,3.76,3.09s-6.06,8.19-7.54,8.74c-.72,0-3.32-2-4.56-3.08a1,1,0,0,0-1.11-.24c-1.49.57-3,1.07-4.47,1.54a.58.58,0,0,0-.4.72c.26,1.2.45,2.4.7,3.6.08.33,0,.52-.21.61a1.16,1.16,0,0,1-.22.06,36.24,36.24,0,0,1-13.66-.83,2.5,2.5,0,0,1-.24-.12c-.25-1.29-.53-2.62-.75-3.95-.12-.68-.38-.92-1.57-1.23a15.88,15.88,0,0,1-3.75-1.52c-.68-.38-1-.51-1.29-.41a.8.8,0,0,0-.29.22c-.7.74-1.42,1.47-2.14,2.2a1,1,0,0,1-.33.21,1.45,1.45,0,0,1-1.2-.15,43,43,0,0,1-10.6-8.81.64.64,0,0,1-.08-.79c.76-.86,1.61-1.67,2.38-2.52a.7.7,0,0,0,.08-.7c-1.08-1.7-2.21-3.39-3.38-5.16l-4.16-.24a1.6,1.6,0,0,1-1.35-1c-.28-.73-.57-1.46-.81-2.19a26.77,26.77,0,0,1-1.37-9.4c0-.29.07-.44.25-.51a1.1,1.1,0,0,1,.43,0c1.37.12,2.73.19,4.08.22a.69.69,0,0,0,.25,0,.61.61,0,0,0,.37-.35c.45-1.47.86-3,1.23-4.45a.75.75,0,0,0-.27-.67L5.85,130a1,1,0,0,1-.31-1.26c.7-1,1.37-2,2.12-3a19.21,19.21,0,0,1,4.38-4,1.76,1.76,0,0,1,.39-.19,3,3,0,0,1,2.88.62l2.56,2.08c1.83-.57,3.58-1.12,5.32-1.7a.57.57,0,0,0,.22-.58c-.14-.82-.3-1.65-.47-2.49a1.59,1.59,0,0,1,1-1.86,2,2,0,0,1,.56-.13,35.38,35.38,0,0,1,10.2.52,3.35,3.35,0,0,1,2.66,2.42c.14.74.28,1.46.4,2.18s.42.87,1.48,1.12a13.65,13.65,0,0,1,3.25,1.28c1,.53,1.51.76,1.93.6a1.08,1.08,0,0,0,.46-.36,22.82,22.82,0,0,1,2.18-2.22.54.54,0,0,1,.16-.1.9.9,0,0,1,.66,0,43.6,43.6,0,0,1,10.16,8,2,2,0,0,1,.22,2.61c-.51.53-1,1.06-1.56,1.58a.8.8,0,0,0,0,1.08c.93,1.38,1.84,2.8,2.68,4.22a1.2,1.2,0,0,0,1.16.75C61.4,141.34,62.25,141.39,63.11,141.44ZM51.5,155.93c3.76-7.76-1.82-18.16-11.58-22.41-5.05-2.19-10.12-2.38-14.1-.89a11.4,11.4,0,0,0-7.07,7.17c-2.6,7.95,3.87,18.06,14.24,21.62a18,18,0,0,0,12.08.13,11.36,11.36,0,0,0,6.43-5.62" transform="translate(-0.08)"/></g></g></g></svg>