<svg xmlns="http://www.w3.org/2000/svg" xmlns:xlink="http://www.w3.org/1999/xlink" viewBox="0 0 104.55 179.39"><defs><style>.cls-1{fill:none;}.cls-2{fill:#303031;}.cls-3{fill:#4c4c4c;}.cls-4{fill:#564500;}.cls-5{fill:#e0232a;}.cls-6{fill:#003308;}.cls-7{isolation:isolate;}.cls-8{clip-path:url(#clip-path);}.cls-9{fill:#1c69e9;}.cls-10{clip-path:url(#clip-path-2);}.cls-11{clip-path:url(#clip-path-3);}.cls-12{clip-path:url(#clip-path-4);}.cls-13{fill:#1d6cea;}.cls-14{clip-path:url(#clip-path-5);}.cls-15{clip-path:url(#clip-path-6);}.cls-16{clip-path:url(#clip-path-7);}.cls-17{clip-path:url(#clip-path-8);}.cls-18{clip-path:url(#clip-path-9);}.cls-19{clip-path:url(#clip-path-10);}.cls-20{fill:#1f71eb;}.cls-21{clip-path:url(#clip-path-11);}.cls-22{clip-path:url(#clip-path-12);}.cls-23{clip-path:url(#clip-path-13);}.cls-24{clip-path:url(#clip-path-14);}.cls-25{clip-path:url(#clip-path-15);}.cls-26{clip-path:url(#clip-path-16);}.cls-27{fill:#35acfe;}</style><clipPath id="clip-path" transform="translate(-0.09)"><path class="cls-1" d="M58.47,133.24l-2.72,4.33a.87.87,0,0,1-.17.21c-.51.53-1,1.06-1.56,1.58a.45.45,0,0,0-.11.13l2.72-4.33a.63.63,0,0,1,.11-.13c.53-.52,1-1.05,1.56-1.58A1.2,1.2,0,0,0,58.47,133.24Z"/></clipPath><clipPath id="clip-path-2" transform="translate(-0.09)"><path class="cls-1" d="M20.43,122.44l2.72-4.33a1.62,1.62,0,0,0-.2,1.2c.16.85.32,1.67.46,2.5l-2.72,4.33c-.14-.83-.3-1.66-.46-2.5A1.62,1.62,0,0,1,20.43,122.44Z"/></clipPath><clipPath id="clip-path-3" transform="translate(-0.09)"><path class="cls-1" d="M23.32,122.25l-2.72,4.33a.63.63,0,0,0,.09-.44l2.72-4.33A.62.62,0,0,1,23.32,122.25Z"/></clipPath><clipPath id="clip-path-4" transform="translate(-0.09)"><path class="cls-1" d="M67.55,154.16l-2.72,4.32a.5.5,0,0,1-.22.19.85.85,0,0,1-.4,0c-1.34-.11-2.7-.19-4-.22a.86.86,0,0,0-.27.05.69.69,0,0,0-.34.26l2.72-4.32a.71.71,0,0,1,.34-.27.63.63,0,0,1,.27,0c1.32,0,2.68.1,4,.22a1,1,0,0,0,.4,0A.42.42,0,0,0,67.55,154.16Z"/></clipPath><clipPath id="clip-path-5" transform="translate(-0.09)"><path class="cls-1" d="M17.19,141.42l2.72-4.32a11.72,11.72,0,0,1,5.91-4.7c4-1.49,9-1.3,14.09.89,9.77,4.25,15.35,14.66,11.59,22.42L48.79,160c3.75-7.76-1.83-18.17-11.6-22.42-5-2.19-10.11-2.38-14.09-.89A11.75,11.75,0,0,0,17.19,141.42Z"/></clipPath><clipPath id="clip-path-6" transform="translate(-0.09)"><path class="cls-1" d="M51,156.7,48.23,161c.2-.32.39-.65.56-1l2.71-4.33A9.58,9.58,0,0,1,51,156.7Z"/></clipPath><clipPath id="clip-path-7" transform="translate(-0.09)"><path class="cls-1" d="M8.16,137.77,5.44,142.1a.42.42,0,0,0,0-.1c.45-1.47.86-2.95,1.23-4.45a.76.76,0,0,0-.27-.67c-.88-.74-2.41-2-3.3-2.78a1,1,0,0,1-.33-1.23l2.72-4.33a1,1,0,0,0,.33,1.23c.89.77,2.42,2,3.3,2.79a.73.73,0,0,1,.27.66c-.38,1.5-.78,3-1.23,4.45A.3.3,0,0,1,8.16,137.77Z"/></clipPath><clipPath id="clip-path-8" transform="translate(-0.09)"><path class="cls-1" d="M64.83,163.45l-2.72,4.33c-1.25,2-6,7.62-7.23,8.09l2.72-4.33C58.87,171.07,63.58,165.44,64.83,163.45Z"/></clipPath><clipPath id="clip-path-9" transform="translate(-0.09)"><path class="cls-1" d="M57.6,171.54l-2.72,4.33c-.72,0-3.32-2-4.56-3.08a1,1,0,0,0-1.15-.22c-1.45.55-2.93,1.06-4.43,1.52l2.72-4.33c1.5-.46,3-1,4.43-1.51a1,1,0,0,1,1.15.21C54.27,169.52,56.88,171.57,57.6,171.54Z"/></clipPath><clipPath id="clip-path-10" transform="translate(-0.09)"><path class="cls-1" d="M44.4,174.35,47.12,170a.67.67,0,0,1,.34-.27l-2.72,4.33A.71.71,0,0,0,44.4,174.35Z"/></clipPath><clipPath id="clip-path-11" transform="translate(-0.09)"><path class="cls-1" d="M.18,142.35,2.9,138a.73.73,0,0,0-.08.37,27.24,27.24,0,0,0,1.37,9.4c.24.73.53,1.47.81,2.2a1.61,1.61,0,0,0,1.35,1l-2.72,4.33a1.6,1.6,0,0,1-1.35-1c-.28-.72-.57-1.46-.81-2.19a27.24,27.24,0,0,1-1.37-9.4A.7.7,0,0,1,.18,142.35Z"/></clipPath><clipPath id="clip-path-12" transform="translate(-0.09)"><path class="cls-1" d="M13.89,156.36l-2.72,4.32c-1.08-1.7-2.21-3.39-3.38-5.16l2.72-4.33C11.68,153,12.81,154.65,13.89,156.36Z"/></clipPath><clipPath id="clip-path-13" transform="translate(-0.09)"><path class="cls-1" d="M13.85,157l-2.72,4.33a.68.68,0,0,0,0-.65l2.72-4.32A.69.69,0,0,1,13.85,157Z"/></clipPath><clipPath id="clip-path-14" transform="translate(-0.09)"><path class="cls-1" d="M47.75,174.55,45,178.88a.46.46,0,0,1-.2.15l-.23.05A36.19,36.19,0,0,1,31,178.26l2.72-4.33a36.18,36.18,0,0,0,13.65.82l.23-.05A.46.46,0,0,0,47.75,174.55Z"/></clipPath><clipPath id="clip-path-15" transform="translate(-0.09)"><path class="cls-1" d="M33.67,173.93,31,178.26c-.06,0-.11-.06-.23-.13l2.72-4.33C33.56,173.87,33.61,173.92,33.67,173.93Z"/></clipPath><clipPath id="clip-path-16" transform="translate(-0.09)"><path class="cls-1" d="M8.68,163.94l2.72-4.32a.67.67,0,0,0,.11.75,43.14,43.14,0,0,0,10.6,8.8,1.41,1.41,0,0,0,1.2.15.72.72,0,0,0,.33-.21c.72-.73,1.44-1.46,2.14-2.2a.79.79,0,0,1,.29-.21c.27-.1.61,0,1.3.4a16,16,0,0,0,3.73,1.53c1.2.3,1.46.54,1.58,1.22.22,1.33.51,2.66.76,4l-2.72,4.33c-.25-1.29-.54-2.62-.76-3.95-.12-.68-.38-.92-1.58-1.22a16,16,0,0,1-3.73-1.53c-.69-.37-1-.51-1.3-.41a.93.93,0,0,0-.29.22c-.7.74-1.42,1.47-2.14,2.2a.72.72,0,0,1-.33.21,1.41,1.41,0,0,1-1.2-.15,43.36,43.36,0,0,1-10.6-8.8A.68.68,0,0,1,8.68,163.94Z"/></clipPath></defs><g id="Capa_2" data-name="Capa 2"><g id="Capa_11" data-name="Capa 11"><polygon class="cls-2" points="21.11 54.22 16.52 54.22 13.12 20.22 21.11 20.22 21.11 54.22"/><polygon class="cls-2" points="21.11 95.97 16.52 95.97 13.12 61.97 21.11 61.97 21.11 95.97"/><polygon class="cls-2" points="21.11 138.22 16.52 138.22 13.12 104.22 21.11 104.22 21.11 138.22"/><polygon class="cls-2" points="96.56 54.22 101.16 54.22 104.56 20.22 96.56 20.22 96.56 54.22"/><polygon class="cls-2" points="96.56 95.97 101.16 95.97 104.56 61.97 96.56 61.97 96.56 95.97"/><polygon class="cls-2" points="96.56 138.22 101.16 138.22 104.56 104.22 96.56 104.22 96.56 138.22"/><rect class="cls-3" x="20.72" width="76.23" height="158.44" rx="19.62"/><circle class="cls-4" cx="58.84" cy="79.22" r="16.88"/><path class="cls-2" d="M78,79.22a18.2,18.2,0,0,1-6.17,12.89,19.9,19.9,0,0,1-12.9,5A18.73,18.73,0,0,1,46,92.16a19.07,19.07,0,0,1-1.08-27,19.48,19.48,0,0,1,6.33-4.53A20.14,20.14,0,0,1,58.92,59a19,19,0,0,1,7.74,1.58A18.7,18.7,0,0,1,73,65.15,20,20,0,0,1,78,79.22Zm-4.37,0a13.87,13.87,0,0,0-4.89-9.81,15.54,15.54,0,0,0-9.81-3.7,14.3,14.3,0,0,0-9.85,3.66A14.67,14.67,0,0,0,48,90.15a15.13,15.13,0,0,0,4.92,3.59,15.88,15.88,0,0,0,6,1.36,14.3,14.3,0,0,0,11-4.9A15.62,15.62,0,0,0,73.62,79.22Z" transform="translate(-0.09)"/><circle class="cls-5" cx="58.84" cy="34.72" r="16.88"/><path class="cls-2" d="M78,34.72a18.2,18.2,0,0,1-6.17,12.89,19.9,19.9,0,0,1-12.9,5A18.73,18.73,0,0,1,46,47.66a19.07,19.07,0,0,1-1.08-27,19.48,19.48,0,0,1,6.33-4.53,20.14,20.14,0,0,1,7.69-1.69,19,19,0,0,1,7.74,1.58A18.7,18.7,0,0,1,73,20.65,20,20,0,0,1,78,34.72Zm-4.37,0a13.87,13.87,0,0,0-4.89-9.81,15.54,15.54,0,0,0-9.81-3.7,14.3,14.3,0,0,0-9.85,3.66A14.67,14.67,0,0,0,48,45.65a15.13,15.13,0,0,0,4.92,3.59,15.88,15.88,0,0,0,6,1.36,14.3,14.3,0,0,0,11-4.9A15.62,15.62,0,0,0,73.62,34.72Z" transform="translate(-0.09)"/><circle class="cls-6" cx="58.84" cy="123.72" r="16.88"/><path class="cls-2" d="M78,123.72a18.2,18.2,0,0,1-6.17,12.89,19.9,19.9,0,0,1-12.9,5A18.73,18.73,0,0,1,46,136.66a19.07,19.07,0,0,1-1.08-27,19.48,19.48,0,0,1,6.33-4.53,20.14,20.14,0,0,1,7.69-1.69,19,19,0,0,1,7.74,1.58,18.7,18.7,0,0,1,6.33,4.6A20,20,0,0,1,78,123.72Zm-4.37,0a13.87,13.87,0,0,0-4.89-9.81,15.54,15.54,0,0,0-9.81-3.7,14.3,14.3,0,0,0-9.85,3.66A14.67,14.67,0,0,0,48,134.65a15.13,15.13,0,0,0,4.92,3.59,15.88,15.88,0,0,0,6,1.36,14.3,14.3,0,0,0,11-4.9A15.62,15.62,0,0,0,73.62,123.72Z" transform="translate(-0.09)"/><g class="cls-7"><g class="cls-7"><g class="cls-8"><g class="cls-7"><path class="cls-9" d="M58.47,133.24l-2.72,4.33a.87.87,0,0,1-.17.21c-.51.53-1,1.06-1.56,1.58a.45.45,0,0,0-.11.13l2.72-4.33a.63.63,0,0,1,.11-.13c.53-.52,1-1.05,1.56-1.58a1.2,1.2,0,0,0,.17-.21" transform="translate(-0.09)"/></g></g></g><g class="cls-7"><g class="cls-10"><g class="cls-7"><path class="cls-9" d="M23.41,121.81l-2.72,4.33c-.14-.83-.3-1.66-.46-2.5a1.62,1.62,0,0,1,.2-1.2l2.72-4.33a1.62,1.62,0,0,0-.2,1.2c.16.85.32,1.67.46,2.5" transform="translate(-0.09)"/></g></g></g><g class="cls-7"><g class="cls-11"><g class="cls-7"><path class="cls-9" d="M23.32,122.25l-2.72,4.33a.63.63,0,0,0,.09-.44l2.72-4.33a.62.62,0,0,1-.09.44" transform="translate(-0.09)"/></g></g></g><g class="cls-7"><g class="cls-12"><g class="cls-7"><path class="cls-9" d="M67.55,154.16l-2.72,4.32a.41.41,0,0,1-.12.14l2.72-4.33a.49.49,0,0,0,.12-.13" transform="translate(-0.09)"/><path class="cls-13" d="M67.43,154.29l-2.72,4.33-.1,0a.85.85,0,0,1-.4,0c-1.34-.11-2.7-.19-4-.22a.86.86,0,0,0-.27.05.91.91,0,0,0-.17.09l2.72-4.33.17-.09a.63.63,0,0,1,.27,0c1.32,0,2.68.1,4,.22a1,1,0,0,0,.4,0l.1-.05" transform="translate(-0.09)"/><path class="cls-9" d="M62.47,154.29l-2.72,4.33a.69.69,0,0,0-.17.17l2.72-4.32a.58.58,0,0,1,.17-.18" transform="translate(-0.09)"/></g></g></g><g class="cls-7"><g class="cls-14"><g class="cls-7"><path class="cls-9" d="M51.5,155.71,48.79,160c3.75-7.76-1.83-18.17-11.6-22.42l-.45-.19,2.71-4.33.46.19c9.77,4.25,15.35,14.66,11.59,22.42" transform="translate(-0.09)"/><path class="cls-13" d="M39.45,133.1l-2.71,4.33a18.89,18.89,0,0,0-13.64-.7,12.72,12.72,0,0,0-2.92,1.55L22.9,134a12.72,12.72,0,0,1,2.92-1.55,18.86,18.86,0,0,1,13.63.7" transform="translate(-0.09)"/><path class="cls-9" d="M22.9,134l-2.72,4.33a11.18,11.18,0,0,0-3,3.14l2.72-4.32a11,11,0,0,1,3-3.15" transform="translate(-0.09)"/></g></g></g><g class="cls-7"><g class="cls-15"><g class="cls-7"><path class="cls-9" d="M51,156.7,48.23,161c.2-.32.39-.65.56-1l2.71-4.33a9.58,9.58,0,0,1-.55,1" transform="translate(-0.09)"/></g></g></g><g class="cls-7"><g class="cls-16"><g class="cls-7"><path class="cls-9" d="M8.16,137.77,5.44,142.1a.42.42,0,0,0,0-.1c.45-1.47.86-2.95,1.23-4.45a.76.76,0,0,0-.27-.67c-.88-.74-2.41-2-3.3-2.78a1,1,0,0,1-.33-1.23l2.72-4.33a1,1,0,0,0,.33,1.23c.89.77,2.42,2,3.3,2.79a.73.73,0,0,1,.27.66c-.38,1.5-.78,3-1.23,4.45a.3.3,0,0,1,0,.1" transform="translate(-0.09)"/></g></g></g><g class="cls-7"><g class="cls-17"><g class="cls-7"><path class="cls-9" d="M64.83,163.45l-2.72,4.33c-1.14,1.81-5.16,6.65-6.82,7.85L58,171.3c1.66-1.2,5.68-6,6.82-7.85" transform="translate(-0.09)"/><path class="cls-13" d="M58,171.3l-2.72,4.33a1.7,1.7,0,0,1-.41.24l2.72-4.33a1.7,1.7,0,0,0,.41-.24" transform="translate(-0.09)"/></g></g></g><g class="cls-7"><g class="cls-18"><g class="cls-7"><path class="cls-13" d="M57.6,171.54l-2.72,4.33a.86.86,0,0,1-.39-.1l2.72-4.32a1,1,0,0,0,.39.09" transform="translate(-0.09)"/><path class="cls-9" d="M57.21,171.45l-2.72,4.32a22.71,22.71,0,0,1-4.17-3,1.78,1.78,0,0,0-.4-.26l2.72-4.32a1.7,1.7,0,0,1,.4.25,23.28,23.28,0,0,0,4.17,3" transform="translate(-0.09)"/><path class="cls-13" d="M52.64,168.21l-2.72,4.32a1,1,0,0,0-.75,0c-1.45.55-2.93,1.06-4.43,1.52l2.72-4.33c1.5-.46,3-1,4.43-1.51a.94.94,0,0,1,.75,0" transform="translate(-0.09)"/></g></g></g><g class="cls-7"><g class="cls-19"><g class="cls-7"><path class="cls-13" d="M47.46,169.76l-2.72,4.33a.77.77,0,0,0-.18.1l2.72-4.33a.77.77,0,0,1,.18-.1" transform="translate(-0.09)"/><path class="cls-9" d="M47.28,169.86l-2.72,4.33a.61.61,0,0,0-.16.16L47.12,170a.52.52,0,0,1,.16-.17" transform="translate(-0.09)"/></g></g></g><polygon class="cls-20" points="10.43 151.19 7.71 155.52 3.54 155.28 6.26 150.95 10.43 151.19"/><g class="cls-7"><g class="cls-21"><g class="cls-7"><path class="cls-13" d="M6.35,151l-2.72,4.33a1.6,1.6,0,0,1-.48-.11l2.72-4.33a1.6,1.6,0,0,0,.48.11" transform="translate(-0.09)"/><path class="cls-9" d="M5.87,150.84l-2.72,4.33a1.59,1.59,0,0,1-.87-.86c-.28-.72-.57-1.46-.81-2.19a27.24,27.24,0,0,1-1.37-9.4.7.7,0,0,1,.08-.37L2.9,138a.73.73,0,0,0-.08.37,27.24,27.24,0,0,0,1.37,9.4c.24.73.53,1.47.81,2.2a1.61,1.61,0,0,0,.87.85" transform="translate(-0.09)"/></g></g></g><g class="cls-7"><g class="cls-22"><g class="cls-7"><path class="cls-9" d="M13.89,156.36l-2.72,4.32c-1.08-1.7-2.21-3.39-3.38-5.16l2.72-4.33c1.17,1.78,2.3,3.46,3.38,5.17" transform="translate(-0.09)"/></g></g></g><g class="cls-7"><g class="cls-23"><g class="cls-7"><path class="cls-9" d="M13.85,157l-2.72,4.33a.68.68,0,0,0,0-.65l2.72-4.32a.69.69,0,0,1,0,.64" transform="translate(-0.09)"/></g></g></g><g class="cls-7"><g class="cls-24"><g class="cls-7"><path class="cls-9" d="M47.75,174.55,45,178.88l-.09.09,2.72-4.33a.26.26,0,0,0,.09-.09" transform="translate(-0.09)"/><path class="cls-13" d="M47.66,174.64,44.94,179l-.11.06-.23.05A36.19,36.19,0,0,1,31,178.26l2.72-4.33a36.18,36.18,0,0,0,13.65.82l.23-.05.11-.06" transform="translate(-0.09)"/></g></g></g><g class="cls-7"><g class="cls-25"><g class="cls-7"><path class="cls-13" d="M33.67,173.93,31,178.26h0l2.72-4.32h0" transform="translate(-0.09)"/><path class="cls-9" d="M33.65,173.93l-2.72,4.32-.21-.12,2.72-4.33c.1.06.16.11.21.13" transform="translate(-0.09)"/></g></g></g><g class="cls-7"><g class="cls-26"><g class="cls-7"><path class="cls-9" d="M33.44,173.8l-2.72,4.33c-.25-1.29-.54-2.62-.76-3.95a1.1,1.1,0,0,0-.8-1l2.72-4.33a1.12,1.12,0,0,1,.8,1c.22,1.33.51,2.66.76,4" transform="translate(-0.09)"/><path class="cls-13" d="M31.88,168.87l-2.72,4.33a5.74,5.74,0,0,0-.78-.24,14.68,14.68,0,0,1-1.87-.63L29.23,168a13.27,13.27,0,0,0,1.87.63,5.74,5.74,0,0,1,.78.24" transform="translate(-0.09)"/><path class="cls-9" d="M29.23,168l-2.72,4.33a16.74,16.74,0,0,1-1.86-.9L24,171.1l2.72-4.32c.18.07.39.18.66.32a16.74,16.74,0,0,0,1.86.9" transform="translate(-0.09)"/><path class="cls-13" d="M26.71,166.78,24,171.1a.9.9,0,0,0-.64-.08l-.14.08,2.72-4.33a.46.46,0,0,1,.14-.07.81.81,0,0,1,.64.08" transform="translate(-0.09)"/><path class="cls-9" d="M25.93,166.77l-2.72,4.33a1,1,0,0,0-.15.14c-.7.74-1.42,1.47-2.14,2.2l-.12.1,2.72-4.33.12-.1c.72-.73,1.44-1.46,2.14-2.2l.15-.14" transform="translate(-0.09)"/><path class="cls-13" d="M23.52,169.21l-2.72,4.33a.7.7,0,0,1-.21.11,1.34,1.34,0,0,1-1,0l2.72-4.33a1.34,1.34,0,0,0,1,0,.53.53,0,0,0,.21-.11" transform="translate(-0.09)"/><path class="cls-9" d="M22.33,169.28l-2.72,4.33-.22-.11a43.36,43.36,0,0,1-10.6-8.8.68.68,0,0,1-.11-.76l2.72-4.32a.67.67,0,0,0,.11.75,43.14,43.14,0,0,0,10.6,8.8l.22.11" transform="translate(-0.09)"/></g></g></g><path class="cls-27" d="M63.11,141.21a3.24,3.24,0,0,1,2.75,2,25.1,25.1,0,0,1,1.45,5.58,21.66,21.66,0,0,1,.41,4.63c0,.57-.14.85-.39.94a1,1,0,0,1-.4,0c-1.34-.12-2.7-.2-4-.22a.63.63,0,0,0-.27,0,.61.61,0,0,0-.39.38c-.44,1.42-.83,2.87-1.17,4.34a.91.91,0,0,0,.3.8c1.08.95,3.7,2.55,3.76,3.08s-6.06,8.19-7.54,8.74c-.72,0-3.33-2-4.56-3.08a1,1,0,0,0-1.15-.21c-1.45.54-2.93,1.05-4.43,1.51a.6.6,0,0,0-.41.72c.27,1.21.46,2.4.71,3.6.08.33.05.52-.21.62l-.23.05a36.18,36.18,0,0,1-13.65-.82c-.06,0-.11-.06-.23-.13-.25-1.29-.54-2.62-.76-4-.12-.68-.38-.92-1.58-1.22a16,16,0,0,1-3.73-1.53c-.69-.37-1-.5-1.3-.4a.79.79,0,0,0-.29.21c-.7.74-1.42,1.47-2.14,2.2a.72.72,0,0,1-.33.21,1.41,1.41,0,0,1-1.2-.15,43.14,43.14,0,0,1-10.6-8.8.64.64,0,0,1-.08-.79c.77-.87,1.6-1.67,2.38-2.53a.69.69,0,0,0,.08-.69c-1.08-1.71-2.21-3.39-3.38-5.17L6.35,151A1.61,1.61,0,0,1,5,150c-.28-.73-.57-1.47-.81-2.2a27.24,27.24,0,0,1-1.37-9.4c0-.28.07-.44.25-.51a1.32,1.32,0,0,1,.43,0c1.37.12,2.73.18,4.09.21a.49.49,0,0,0,.24,0,.61.61,0,0,0,.37-.35c.45-1.47.85-2.95,1.23-4.45a.73.73,0,0,0-.27-.66c-.88-.75-2.41-2-3.3-2.79a1,1,0,0,1-.31-1.26c.69-1,1.36-2,2.12-2.95a18.51,18.51,0,0,1,4.37-4,2,2,0,0,1,.38-.2,3.08,3.08,0,0,1,2.89.62l2.56,2.09c1.83-.58,3.59-1.12,5.31-1.71.17-.06.27-.37.23-.57-.14-.83-.3-1.65-.46-2.5a1.58,1.58,0,0,1,1-1.86,2,2,0,0,1,.56-.12,35.09,35.09,0,0,1,10.21.51,3.35,3.35,0,0,1,2.65,2.44c.14.72.28,1.44.41,2.17s.4.86,1.47,1.13a12.94,12.94,0,0,1,3.25,1.26c1,.54,1.51.77,1.93.61a1.08,1.08,0,0,0,.46-.36,22.92,22.92,0,0,1,2.18-2.23.42.42,0,0,1,.16-.09.78.78,0,0,1,.65,0,43.12,43.12,0,0,1,10.17,8,2,2,0,0,1,.22,2.61c-.51.53-1,1.06-1.56,1.58a.83.83,0,0,0,0,1.08q1.42,2.08,2.69,4.23a1.22,1.22,0,0,0,1.15.75ZM51.5,155.71c3.76-7.76-1.82-18.17-11.59-22.42-5-2.19-10.11-2.38-14.09-.89a11.39,11.39,0,0,0-7.07,7.18c-2.6,7.95,3.87,18.06,14.23,21.62a18.15,18.15,0,0,0,12.1.13,11.37,11.37,0,0,0,6.42-5.62" transform="translate(-0.09)"/></g></g></g></svg>